<?xml version="1.0" encoding="UTF-8"?>
<svg width="512pt" height="512pt" version="1.1" viewBox="0 0 512 512" xmlns="http://www.w3.org/2000/svg">
    <g fill="#fff">
        <path d="m434.46 135.06h-119.31c-0.76953 0-1.5117-0.30469-2.0586-0.85156-0.54297-0.54688-0.85156-1.2852-0.85156-2.0586v-101.3c0-1.1367 0.66016-2.1641 1.6875-2.6406 1.0273-0.47656 2.2422-0.3125 3.1055 0.41797l119.31 101.3c0.93359 0.78906 1.2734 2.0742 0.85156 3.2227-0.41797 1.1484-1.5117 1.9102-2.7305 1.9062zm-116.4-5.8203h108.48l-108.48-92.102z" />
        <path d="m310.07 412.54h-283.68c-7.5039-0.007813-13.582-6.0898-13.59-13.594v-363.33c0.007813-7.5039 6.0859-13.582 13.59-13.59h238.8c5.9062 0.007812 11.57 2.3555 15.746 6.5312 4.1797 4.1758 6.5273 9.8398 6.5352 15.746v105.15c0.007813 4.5977 3.7305 8.3203 8.3281 8.3242h119.29c5.9062 0.007813 11.57 2.3594 15.746 6.5352 4.1758 4.1758 6.5273 9.8398 6.5312 15.746v121.91c0 0.84766-0.36719 1.6484-1.0039 2.1992-0.63672 0.55469-1.4844 0.80469-2.3203 0.68359-5.0273-0.73047-10.105-1.1016-15.188-1.1094-2.9102 0-5.9609 0.14062-9.332 0.43359-1.5898 0.10156-2.9766-1.0664-3.1484-2.6484-0.066406-0.76953 0.17578-1.5312 0.67188-2.125 0.49609-0.58984 1.207-0.95703 1.9766-1.0234 7.4961-0.69922 15.047-0.60547 22.527 0.27734v-118.6c-0.007813-4.3633-1.7422-8.5469-4.8281-11.633-3.0859-3.0859-7.2695-4.8242-11.633-4.8281h-119.29c-7.8086-0.007813-14.137-6.3359-14.148-14.145v-105.15c-0.003906-4.3633-1.7422-8.5469-4.8281-11.633-3.0859-3.0859-7.2695-4.8203-11.633-4.8242h-238.8c-4.2891 0.003907-7.7656 3.4805-7.7695 7.7695v363.33c0.003906 4.2891 3.4766 7.7695 7.7695 7.7734h280.82c0.20703-7.7422 1.2188-15.441 3.0234-22.973 0.16797-0.75781 0.63672-1.4102 1.2969-1.8164s1.457-0.52734 2.2109-0.33594c0.75 0.17578 1.3984 0.64844 1.8008 1.3047 0.40625 0.66016 0.53125 1.4492 0.35156 2.1992-1.9219 8.0352-2.8984 16.27-2.9062 24.531 0.003906 0.77344-0.30469 1.5117-0.85156 2.0586-0.54297 0.54688-1.2852 0.85156-2.0586 0.85156z" />
        <path d="m211.21 210.15c-4.4531 0-8.7227-1.7656-11.871-4.9141-3.1523-3.1484-4.9219-7.418-4.9219-11.871s1.7695-8.7227 4.918-11.871c3.1445-3.1523 7.418-4.9219 11.867-4.9219 4.4531 0 8.7266 1.7695 11.875 4.918 3.1484 3.1484 4.918 7.418 4.918 11.871-0.003906 4.4492-1.7734 8.7148-4.9219 11.863-3.1445 3.1484-7.4141 4.918-11.863 4.9258zm0-27.758c-4.4375 0-8.4375 2.6719-10.137 6.7695s-0.76172 8.8164 2.375 11.953c3.1367 3.1406 7.8555 4.0781 11.957 2.3789 4.0977-1.6953 6.7695-5.6953 6.7695-10.133-0.007812-6.0547-4.9102-10.957-10.965-10.969z" />
        <path d="m321.01 365.05h-231.02c-3.1562 0-6.0977-1.5977-7.8164-4.2461-1.7188-2.6445-1.9805-5.9844-0.69531-8.8633l61.102-136.96c1.3711-3.0703 4.2852-5.1602 7.6289-5.4766 3.3438-0.31641 6.5977 1.1914 8.5195 3.9453l24.348 34.945 0.003906 0.003906c0.93359 1.3516 2.6875 1.8633 4.2031 1.2305l37.16-15.363c2.4141-1 5.1367-0.94141 7.5039 0.16406 2.3672 1.1055 4.1602 3.1562 4.9414 5.6484l14.504 46.168c0.33203 1.0508 1.1406 1.8828 2.1797 2.2461 1.0391 0.36328 2.1914 0.21875 3.1055-0.39453l45.461-30.484v0.003906c2.1875-1.4688 4.8945-1.9414 7.4492-1.3008 2.5547 0.64063 4.7227 2.3359 5.957 4.6602l34.645 65.184v0.003907c0.63672 1.1953 0.36328 2.6719-0.66016 3.5625-10.824 9.3633-19.633 20.824-25.902 33.688-0.48438 1-1.5 1.6367-2.6133 1.6367zm-169.92-149.77c-0.12891 0-0.24609 0.003906-0.33594 0.015625v-0.003906c-1.2578 0.10547-2.3555 0.89844-2.8594 2.0547l-61.102 136.97c-0.48438 1.0781-0.38672 2.332 0.25781 3.3242 0.64453 0.99219 1.7461 1.5938 2.9336 1.5898h229.22c6.1953-12.215 14.59-23.188 24.762-32.363l-33.57-63.16 0.003906 0.003906c-0.46094-0.875-1.2734-1.5117-2.2344-1.7461-0.95703-0.25781-1.9805-0.078125-2.7969 0.48828l-45.461 30.477h0.003907c-2.4414 1.6328-5.5039 2.0234-8.2734 1.0547-2.7695-0.97266-4.9219-3.1953-5.8008-5.9922l-14.504-46.168c-0.29688-0.93359-0.96875-1.7031-1.8555-2.1172-0.88672-0.41406-1.9062-0.4375-2.8125-0.0625l-37.168 15.363c-4.0391 1.7031-8.7227 0.33203-11.203-3.2812l-24.348-34.949v-0.003906c-0.64062-0.94922-1.7148-1.5117-2.8594-1.4922z" />
        <path d="m418.86 489.97c-21.305 0-41.742-8.4609-56.809-23.527-15.066-15.066-23.531-35.5-23.531-56.809 0-21.309 8.4648-41.742 23.531-56.809 15.066-15.066 35.5-23.531 56.809-23.531 21.309 0 41.742 8.4648 56.809 23.531 15.066 15.066 23.527 35.504 23.527 56.809-0.023438 21.301-8.4922 41.719-23.555 56.781s-35.48 23.531-56.781 23.555zm0-154.86c-19.762 0-38.715 7.8477-52.691 21.824-13.977 13.973-21.828 32.926-21.828 52.691 0 19.762 7.8477 38.719 21.824 52.691 13.973 13.977 32.926 21.828 52.691 21.828 19.762 0 38.719-7.8477 52.691-21.824 13.977-13.973 21.828-32.926 21.828-52.691-0.019531-19.754-7.8789-38.695-21.848-52.668-13.969-13.969-32.91-21.828-52.668-21.852z" />
        <path d="m456.73 406.72h-34.957v-34.953c0-1.6094-1.3008-2.9102-2.9102-2.9102-1.6055 0-2.9102 1.3008-2.9102 2.9102v34.957l-34.953-0.003906c-1.6094 0-2.9102 1.3047-2.9102 2.9102 0 1.6094 1.3008 2.9102 2.9102 2.9102h34.957v34.957h-0.003906c0 1.6055 1.3047 2.9102 2.9102 2.9102 1.6094 0 2.9102-1.3047 2.9102-2.9102v-34.957h34.957c1.6055 0 2.9102-1.3008 2.9102-2.9102 0-1.6055-1.3047-2.9102-2.9102-2.9102z" />
    </g>
</svg>
