<?xml version="1.0" encoding="UTF-8"?>
<svg width="1200pt" height="1200pt" version="1.1" viewBox="0 0 1200 1200"
    xmlns="http://www.w3.org/2000/svg">
    <g>
        <path
            d="m392 800.73-156.73-271.64-120.36 69.453c-75.09 43.273-100.73 139.27-57.453 214.18 43.273 75.09 139.27 100.73 214.18 57.453z" />
        <path
            d="m917.64 324.55c3.4531 5.8164 9.4531 9.0898 15.816 9.0898 3.0898 0 6.1836-0.72656 9.0898-2.3633l144.55-83.453c8.7266-5.0898 11.637-16.184 6.7266-24.91-4.9102-8.7266-16.184-11.637-24.91-6.7266l-144.55 83.453c-8.7227 5.0898-11.633 16.18-6.7227 24.91z" />
        <path
            d="m1144.7 445.09-166.73 7.2734c-10 0.36328-17.816 8.9102-17.453 18.91 0.36328 9.8164 8.5469 17.453 18.184 17.453h0.72656l166.73-7.2734c10-0.36328 17.816-8.9102 17.453-18.91-0.36328-9.9961-9.0898-17.453-18.91-17.453z" />
        <path
            d="m812 214c3.0898 2 6.3633 2.9102 9.8164 2.9102 6 0 11.816-2.9102 15.273-8.3633l89.816-140.73c5.4531-8.5469 2.9102-19.637-5.6367-25.09-8.3633-5.4531-19.637-2.9102-25.09 5.6367l-89.637 140.73c-5.6328 8.1797-3.0898 19.453 5.457 24.906z" />
        <path
            d="m385.82 846.36-96 55.453c-12.91 7.4531-26.547 13.09-40.727 17.273 17.273 85.273 61.09 163.09 125.09 221.82 23.816 22 59.453 25.637 87.453 9.2734 0.72656-0.36328 1.2734-0.72656 2-1.0898 40.91-23.637 50.184-79.09 18.547-114-47.816-53.273-81.09-118.36-96.363-188.73z" />
        <path
            d="m624.36 485.45c-42.363-73.453-154.73-278.73-156.91-392.73-37.09 48.184-55.637 128-80.91 196.55-29.453 92.184-69.816 165.27-123.27 216l163.45 283.27c70.547-20.91 154.18-19.273 248.55 1.2734 71.816 12.363 150.18 36 210.36 28.184-104.91-65.641-243.45-301.82-261.27-332.55z" />
        <path
            d="m514.91 54c-32.184 18.547 1.0898 139.09 75.273 290.36 62.91-22 134.36 3.0898 168.36 62.363 34.184 59.09 20.363 133.64-30.363 177.09 94.363 140.91 182.91 230.91 215.09 212.18 40.547-23.453-22.547-208.55-140.91-413.45-118.36-204.91-246.91-352-287.45-328.55z" />
        <path
            d="m708.73 552.73c34.363-32.727 42.91-85.637 18.547-127.82-24.363-42.363-74.547-61.273-120-47.816 15.273 29.637 31.453 59.453 48.547 89.09 17.09 29.633 34.906 58.727 52.906 86.543z" />
    </g>
</svg>