<svg xmlns="http://www.w3.org/2000/svg" xmlns:xlink="http://www.w3.org/1999/xlink" width="500" zoomAndPan="magnify" viewBox="0 0 375 374.999991" height="500" preserveAspectRatio="xMidYMid meet" version="1.0"><path fill="#ffffff" d="M 79.398438 103.992188 L 5.175781 178.101562 C 0.0429688 183.226562 0.0429688 191.664062 5.175781 196.792969 L 79.234375 270.734375 C 84.367188 275.863281 92.816406 275.863281 97.953125 270.734375 C 103.089844 265.609375 103.089844 257.171875 97.953125 252.042969 L 46.59375 200.597656 L 361.703125 200.597656 C 368.992188 200.597656 374.957031 194.640625 374.957031 187.363281 C 374.957031 180.085938 368.992188 174.128906 361.703125 174.128906 L 46.59375 174.128906 L 98.121094 122.683594 C 100.769531 120.039062 101.929688 116.730469 101.929688 113.253906 C 101.929688 109.78125 100.605469 106.472656 98.121094 103.828125 C 92.984375 98.863281 84.535156 98.863281 79.398438 103.992188 Z M 79.398438 103.992188 " fill-opacity="1" fill-rule="nonzero"/></svg>