<svg width="200" height="174" viewBox="0 0 200 174" fill="none" xmlns="http://www.w3.org/2000/svg">
<path d="M137.476 53.5535C137.469 57.4682 136.302 61.2929 134.121 64.5439C131.94 67.795 128.845 70.3264 125.225 71.8181C121.606 73.3097 117.626 73.6946 113.788 72.9241C109.95 72.1536 106.426 70.2623 103.663 67.4893C100.9 64.7163 99.021 61.1862 98.2641 57.3454C97.5072 53.5046 97.9063 49.5256 99.4107 45.9116C100.915 42.2976 103.458 39.2109 106.716 37.0418C109.975 34.8727 113.804 33.7187 117.719 33.7256C120.32 33.7235 122.896 34.2354 125.298 35.232C127.701 36.2285 129.883 37.6901 131.719 39.5326C133.555 41.3751 135.009 43.5623 135.997 45.9685C136.985 48.3747 137.488 50.9524 137.476 53.5535Z" fill="#F2F2F2"/>
<path d="M170.417 65.0913L173.2 59.7773C170.704 56.7637 162.517 53.1087 162.517 53.1087L151.435 43.022C151.317 42.5719 151.082 42.161 150.755 41.8304C150.427 41.4998 150.019 41.2612 149.57 41.1388C149.121 41.0163 148.648 41.0143 148.198 41.1328C147.748 41.2514 147.338 41.4864 147.007 41.8141C146.677 42.1418 146.439 42.5508 146.317 42.9998C146.195 43.4488 146.194 43.9219 146.313 44.3717C146.432 44.8214 146.667 45.2318 146.996 45.5616C147.324 45.8915 147.733 46.129 148.182 46.2504L160.154 60.6092L170.417 65.0913Z" fill="#9E616A"/>
<path d="M169.068 64.7242L172.998 65.9754C175.856 66.8852 178.935 66.8167 181.749 65.7806C182.6 65.4636 183.346 64.9149 183.902 64.1964C184.458 63.4779 184.802 62.6182 184.894 61.7146C185.012 60.4888 184.66 59.2641 183.909 58.288C183.158 57.312 182.065 56.6575 180.85 56.4568C177.165 55.8512 172.416 55.5525 170.722 57.5684L170.705 57.5888L169.068 64.7242Z" fill="#3F3D56"/>
<path d="M140.805 80.9925C151.736 80.9925 160.597 72.1309 160.597 61.1996C160.597 50.2683 151.736 41.4067 140.805 41.4067C129.873 41.4067 121.012 50.2683 121.012 61.1996C121.012 72.1309 129.873 80.9925 140.805 80.9925Z" fill="white"/>
<path d="M132.727 53.4575C132.455 54.917 132.01 56.3388 131.4 57.6924C127.908 65.0785 137.851 62.671 141.405 62.671C145.29 62.671 149.007 64.714 148.439 55.6365C148.197 51.7591 145.29 48.6021 141.405 48.6021C138.086 48.602 133.421 50.077 132.727 53.4575Z" fill="#2F2E41"/>
<path d="M140.822 62.6695C143.979 62.6695 146.538 60.1102 146.538 56.9531C146.538 53.7961 143.979 51.2368 140.822 51.2368C137.665 51.2368 135.105 53.7961 135.105 56.9531C135.105 60.1102 137.665 62.6695 140.822 62.6695Z" fill="#FFB6B6"/>
<path d="M136.941 51.126C137.943 50.5153 139.09 50.185 140.263 50.1695C141.436 50.154 142.592 50.454 143.609 51.0381C144.627 51.6221 145.469 52.4688 146.047 53.4895C146.625 54.5103 146.918 55.6676 146.896 56.8405C143.983 57.5718 140.923 58.1315 137.817 57.0154L137.084 55.2201L136.651 57.0168C135.705 57.4034 134.757 57.7306 133.808 57.013C133.77 55.8434 134.039 54.6841 134.588 53.651C135.138 52.6179 135.949 51.7472 136.941 51.126Z" fill="#2F2E41"/>
<path d="M156.193 74.3605C152.764 78.2623 147.939 80.659 142.758 81.0335C137.577 81.4079 132.456 79.7299 128.502 76.3618L130.2 71.6247C130.583 70.7833 131.189 70.0623 131.951 69.5388C132.713 69.0153 133.604 68.7092 134.527 68.6533L135.607 68.587L138.182 66.3659C138.182 66.3659 145.121 66.1182 145.018 65.9995L149.221 68.5277L149.218 68.5103L150.87 68.6115C151.793 68.6671 152.684 68.9731 153.446 69.4966C154.208 70.0201 154.814 70.7413 155.197 71.5828L156.193 74.3605Z" fill="#3763e9"/>
<path d="M139.068 155.919L138.576 149.078C135.354 147.468 131.788 146.668 128.188 146.749C133.253 150.664 132.848 158.491 136.356 163.847C137.463 165.509 138.93 166.901 140.648 167.919C142.366 168.937 144.291 169.556 146.281 169.729L150.497 172.154C150.979 168.966 150.765 165.712 149.868 162.615C148.972 159.519 147.414 156.653 145.304 154.216C144.106 152.861 142.743 151.662 141.245 150.647C140.324 153.293 139.068 155.919 139.068 155.919Z" fill="#F2F2F2"/>
<path d="M10.8804 34.6736L10.3886 27.8332C7.16694 26.2228 3.60086 25.4231 0 25.5036C5.06592 29.4193 4.66015 37.2456 8.16856 42.6017C9.2756 44.2639 10.7425 45.6556 12.4605 46.6737C14.1785 47.6919 16.1036 48.3104 18.0932 48.4834L22.3093 50.9089C22.7915 47.7213 22.5771 44.4671 21.6805 41.3703C20.784 38.2736 19.2269 35.4081 17.1163 32.9711C15.9187 31.6157 14.5552 30.4166 13.0579 29.4019C12.1364 32.0477 10.8804 34.6736 10.8804 34.6736Z" fill="#F2F2F2"/>
<path d="M157.511 169.841L154.223 169.841L152.658 157.156H157.512L157.511 169.841Z" fill="#9E616A"/>
<path d="M158.35 173.029L147.746 173.029V172.895C147.746 171.8 148.181 170.75 148.955 169.976C149.729 169.202 150.779 168.767 151.873 168.767H151.874L153.811 167.298L157.425 168.768L158.35 168.768L158.35 173.029Z" fill="#2F2E41"/>
<path d="M186.496 169.841L183.207 169.841L181.643 157.156H186.496L186.496 169.841Z" fill="#9E616A"/>
<path d="M187.334 173.029L176.73 173.029V172.895C176.731 171.8 177.165 170.75 177.939 169.976C178.713 169.202 179.763 168.767 180.858 168.767H180.858L182.795 167.298L186.409 168.768L187.335 168.768L187.334 173.029Z" fill="#2F2E41"/>
<path d="M181.495 101.951L184.261 128.229C184.261 128.229 187.943 154.54 187.251 158.17C186.56 161.801 187.424 162.319 187.424 162.319L181.114 161.87C181.114 161.87 181.287 159.622 180.25 158.585C179.213 157.548 179.731 154.436 179.731 154.436L167.492 111.632L160.058 134.106C160.058 134.106 158.848 158.828 158.675 159.174C158.502 159.519 157.983 164.187 157.983 164.187H151.587C151.587 164.187 152.451 161.421 151.241 160.557C150.031 159.692 148.994 160.384 150.031 158.828C151.068 157.272 151.414 155.37 151.068 154.506C150.722 153.642 150.722 150.184 150.722 150.184C150.722 150.184 151.241 103.507 154.18 101.951C157.119 100.395 181.495 101.951 181.495 101.951Z" fill="#2F2E41"/>
<path d="M168.395 48.7462C172.152 48.7462 175.198 45.7003 175.198 41.9429C175.198 38.1856 172.152 35.1396 168.395 35.1396C164.638 35.1396 161.592 38.1856 161.592 41.9429C161.592 45.7003 164.638 48.7462 168.395 48.7462Z" fill="#9E616A"/>
<path d="M183.845 104.815C170.669 107.536 153.209 102.858 153.209 102.858L157.867 82.668L156.211 61.5388C156.009 58.9549 157.48 56.5329 159.77 55.6746L162.931 54.4905L165.544 50.7495L173.008 50.9944L175.992 54.9219L178.347 56.1711L183.451 58.8786L183.474 58.8898V58.901L181.872 74.4401L180.906 83.8094C180.906 83.8094 183.84 94.347 183.238 95.7446C182.636 97.1399 183.159 96.4658 183.305 97.2117C183.451 97.9577 183.898 98.0049 183.966 99.4743C184.036 100.942 183.845 104.815 183.845 104.815Z" fill="#3F3D56"/>
<path d="M199.773 173.255H97.9987C97.9384 173.255 97.8806 173.231 97.838 173.188C97.7954 173.145 97.7715 173.088 97.7715 173.027C97.7715 172.967 97.7954 172.909 97.838 172.866C97.8806 172.824 97.9384 172.8 97.9987 172.799H199.773C199.833 172.799 199.891 172.823 199.934 172.866C199.977 172.909 200.001 172.967 200.001 173.027C200.001 173.088 199.977 173.146 199.934 173.188C199.891 173.231 199.833 173.255 199.773 173.255Z" fill="#CCCCCC"/>
<path d="M168.064 48.4196C169.257 48.4074 170.447 48.2933 171.621 48.0786C172.783 47.8108 175.347 45.8283 176.046 44.6571C176.565 43.7869 176.877 42.4409 177.047 41.465C177.276 40.1735 177.232 38.8482 176.917 37.5749C176.602 36.3016 176.022 35.1087 175.217 34.0734C174.906 33.6397 174.484 33.298 173.996 33.0844C173.952 33.0688 173.908 33.0551 173.863 33.0435C173.155 32.8766 172.512 32.5016 172.018 31.9669C171.922 31.8586 171.819 31.7574 171.709 31.664C171.154 31.2204 170.503 30.9142 169.808 30.7705C168.685 30.5009 167.079 30.8388 165.035 31.7757C164.007 32.2464 162.867 32.1151 161.988 31.9481C161.939 31.9399 161.888 31.9447 161.842 31.9621C161.795 31.9795 161.753 32.0089 161.721 32.0473C161.359 32.406 160.873 32.614 160.364 32.6296C160.052 32.6514 159.735 33.0924 159.353 33.6666C159.267 33.797 159.166 33.9491 159.092 34.0419L159.078 33.8676L158.906 34.0669C158.636 34.3803 158.45 34.7568 158.365 35.1614C158.28 35.566 158.298 35.9856 158.419 36.3811C158.54 36.7766 158.759 37.1352 159.055 37.4233C159.352 37.7115 159.716 37.9199 160.115 38.0293C160.432 38.1047 160.755 38.1477 161.08 38.1576C161.277 38.1702 161.481 38.1832 161.677 38.212C162.306 38.324 162.895 38.5971 163.387 39.0047C163.878 39.4123 164.256 39.9405 164.483 40.5378C164.537 40.6758 164.621 40.7996 164.73 40.8998C164.839 40.9999 164.97 41.0737 165.112 41.1154C165.254 41.157 165.403 41.1655 165.549 41.1401C165.695 41.1148 165.833 41.0562 165.953 40.969C166.152 40.8057 166.387 40.6928 166.639 40.6402C166.891 40.5876 167.152 40.5967 167.4 40.6667C167.616 40.7793 167.786 40.9626 167.882 41.1857C167.999 41.4341 168.186 41.6422 168.422 41.7834C169.224 42.1711 169.325 43.9778 169.08 45.4924C168.843 46.9524 168.329 48.0174 167.828 48.0823C167.443 48.1322 167.4 48.1608 167.373 48.2298L167.35 48.2916L167.395 48.3477C167.61 48.4195 167.838 48.444 168.064 48.4196Z" fill="#2F2E41"/>
<path d="M140.804 81.2402C136.841 81.2402 132.966 80.0649 129.67 77.8628C126.375 75.6607 123.806 72.5307 122.289 68.8687C120.772 65.2068 120.375 61.1772 121.149 57.2897C121.922 53.4022 123.831 49.8313 126.633 47.0285C129.436 44.2258 133.007 42.3171 136.895 41.5438C140.782 40.7705 144.812 41.1674 148.474 42.6842C152.136 44.2011 155.266 46.7697 157.468 50.0654C159.67 53.3611 160.845 57.2358 160.845 61.1995C160.839 66.5128 158.726 71.6067 154.969 75.3638C151.212 79.1208 146.118 81.2342 140.804 81.2402ZM140.804 41.6546C136.939 41.6546 133.16 42.8009 129.946 44.9485C126.732 47.0961 124.227 50.1486 122.747 53.72C121.268 57.2913 120.881 61.2211 121.635 65.0125C122.389 68.8038 124.251 72.2864 126.984 75.0198C129.718 77.7532 133.2 79.6147 136.991 80.3688C140.783 81.1229 144.713 80.7359 148.284 79.2566C151.855 77.7773 154.908 75.2722 157.055 72.058C159.203 68.8439 160.349 65.0651 160.349 61.1995C160.343 56.0177 158.282 51.0497 154.618 47.3856C150.954 43.7215 145.986 41.6605 140.804 41.6546Z" fill="#3F3D56"/>
<path d="M25.4296 71.0745C36.3609 71.0745 45.2224 62.2129 45.2224 51.2816C45.2224 40.3503 36.3609 31.4888 25.4296 31.4888C14.4983 31.4888 5.63672 40.3503 5.63672 51.2816C5.63672 62.2129 14.4983 71.0745 25.4296 71.0745Z" fill="white"/>
<path d="M16.2567 44.8433C17.0751 42.235 18.9363 39.8428 21.5102 38.961C24.0842 38.0793 27.8533 39.4225 29.7884 41.351C33.3281 44.8788 34.1919 56.9978 31.76 60.8275C31.2763 60.8019 29.6071 60.783 29.1176 60.7647L28.425 58.4564V60.7419C27.645 60.7178 26.859 60.7012 26.0668 60.692C23.4108 60.659 20.871 59.5976 18.9814 57.7309C17.0918 55.8642 15.9995 53.3375 15.9341 50.6822C15.8708 48.1419 15.9342 45.8712 16.2567 44.8433Z" fill="#2F2E41"/>
<path d="M25.1369 53.4877C28.2523 53.4877 30.7777 50.9622 30.7777 47.8469C30.7777 44.7315 28.2523 42.2061 25.1369 42.2061C22.0216 42.2061 19.4961 44.7315 19.4961 47.8469C19.4961 50.9622 22.0216 53.4877 25.1369 53.4877Z" fill="#9E616A"/>
<path d="M20.2676 42.8928L26.7624 39.6406C28.0903 40.239 29.2339 41.1817 30.0746 42.3709C30.9153 43.5602 31.4226 44.9527 31.5437 46.4041L31.7056 48.3432L28.9859 47.6509L28.6879 45.1714L28.2261 47.4575L26.9709 47.1381L26.9829 43.2887L25.727 47.1354L21.2441 46.1055L20.2676 42.8928Z" fill="#2F2E41"/>
<path d="M40.1173 64.3801C36.6882 68.2818 31.8624 70.6786 26.6815 71.053C21.5006 71.4274 16.3802 69.7495 12.4258 66.3813L14.1235 61.6442C14.5071 60.8029 15.1125 60.0818 15.8748 59.5583C16.6371 59.0349 17.5275 58.7288 18.4505 58.6729L19.5306 58.6066L22.1059 56.3855C22.1059 56.3855 29.0449 56.1377 28.9419 56.019L33.1451 58.5472L33.1416 58.5298L34.7939 58.631C35.717 58.6867 36.6075 58.9927 37.3699 59.5161C38.1322 60.0396 38.7376 60.7608 39.121 61.6024L40.1173 64.3801Z" fill="#3763e9"/>
<path d="M25.4295 71.3228C21.4658 71.3228 17.5911 70.1474 14.2954 67.9453C10.9997 65.7432 8.43103 62.6132 6.91419 58.9513C5.39735 55.2893 5.00048 51.2598 5.77376 47.3722C6.54704 43.4847 8.45573 39.9138 11.2585 37.111C14.0612 34.3083 17.6322 32.3996 21.5197 31.6263C25.4072 30.853 29.4368 31.2499 33.0987 32.7667C36.7607 34.2836 39.8906 36.8522 42.0927 40.1479C44.2948 43.4436 45.4702 47.3183 45.4702 51.282C45.4642 56.5953 43.3508 61.6892 39.5938 65.4463C35.8367 69.2034 30.7427 71.3167 25.4295 71.3228ZM25.4295 31.7371C21.5638 31.7371 17.785 32.8834 14.5709 35.031C11.3568 37.1786 8.85164 40.2311 7.37233 43.8025C5.89303 47.3738 5.50597 51.3037 6.26012 55.095C7.01426 58.8863 8.87573 62.3689 11.6091 65.1023C14.3425 67.8357 17.8251 69.6972 21.6164 70.4513C25.4078 71.2055 29.3376 70.8184 32.909 69.3391C36.4803 67.8598 39.5328 65.3547 41.6804 62.1405C43.828 58.9264 44.9743 55.1476 44.9743 51.282C44.9685 46.1002 42.9074 41.1323 39.2433 37.4682C35.5792 33.8041 30.6113 31.743 25.4295 31.7371Z" fill="#3F3D56"/>
<path d="M159.084 71.468L156.087 66.2715C152.206 66.7646 144.733 71.7208 144.733 71.7208L130.279 75.6755C129.836 75.5341 129.364 75.512 128.909 75.6113C128.455 75.7106 128.034 75.928 127.69 76.2414C127.347 76.5548 127.091 76.9533 126.951 77.3967C126.81 77.8401 126.788 78.3127 126.888 78.7671C126.988 79.2215 127.206 79.6416 127.519 79.985C127.833 80.3285 128.232 80.5832 128.676 80.7236C129.119 80.8639 129.592 80.8849 130.046 80.7845C130.5 80.6841 130.92 80.4658 131.263 80.1515L149.801 77.7334L159.084 71.468Z" fill="#9E616A"/>
<path d="M158.052 72.4096L164.761 66.7904L165.737 62.2674C165.925 61.3788 165.861 60.4552 165.552 59.6009C165.243 58.7467 164.702 57.9959 163.988 57.4335C163.016 56.6775 161.793 56.3188 160.567 56.43C159.341 56.5412 158.202 57.1139 157.382 58.0323C154.897 60.8198 152.101 64.6694 152.896 67.1797L152.904 67.2052L158.052 72.4096Z" fill="#3F3D56"/>
<path d="M55.228 91.9306H30.0207C29.3452 91.9298 28.6975 91.6611 28.2198 91.1834C27.7421 90.7057 27.4734 90.058 27.4727 89.3825V73.8571C27.4734 73.1816 27.7421 72.5339 28.2198 72.0562C28.6975 71.5785 29.3452 71.3098 30.0207 71.3091H55.228C55.9036 71.3098 56.5512 71.5785 57.0289 72.0562C57.5066 72.5339 57.7753 73.1816 57.7761 73.8571V89.3825C57.7753 90.058 57.5066 90.7057 57.0289 91.1834C56.5512 91.6611 55.9036 91.9298 55.228 91.9306Z" fill="#E6E6E6"/>
<path d="M45.2128 89.9305H31.7927C31.16 89.9298 30.5534 89.6782 30.106 89.2308C29.6586 88.7835 29.407 88.1769 29.4062 87.5442V75.6949C29.407 75.0622 29.6586 74.4557 30.106 74.0083C30.5534 73.5609 31.16 73.3093 31.7927 73.3086H53.4563C54.0889 73.3093 54.6955 73.5609 55.1429 74.0083C55.5903 74.4557 55.8419 75.0623 55.8426 75.6949V79.3009C55.8394 82.1191 54.7185 84.821 52.7257 86.8137C50.7329 88.8065 48.031 89.9274 45.2128 89.9305Z" fill="white"/>
<path d="M51.2956 79.7971H33.9542C33.8042 79.7971 33.6604 79.7376 33.5543 79.6315C33.4483 79.5254 33.3887 79.3816 33.3887 79.2316C33.3887 79.0816 33.4483 78.9377 33.5543 78.8317C33.6604 78.7256 33.8042 78.666 33.9542 78.666H51.2956C51.4456 78.666 51.5895 78.7256 51.6955 78.8317C51.8016 78.9377 51.8612 79.0816 51.8612 79.2316C51.8612 79.3816 51.8016 79.5254 51.6955 79.6315C51.5895 79.7376 51.4456 79.7971 51.2956 79.7971Z" fill="#3763e9"/>
<path d="M36.6669 82.0316H33.9543C33.8043 82.0316 33.6604 81.972 33.5543 81.8659C33.4483 81.7598 33.3887 81.616 33.3887 81.466C33.3887 81.316 33.4483 81.1721 33.5543 81.066C33.6604 80.96 33.8043 80.9004 33.9543 80.9004H36.6669C36.8169 80.9004 36.9608 80.96 37.0668 81.066C37.1729 81.1721 37.2325 81.316 37.2325 81.466C37.2325 81.616 37.1729 81.7598 37.0668 81.8659C36.9608 81.972 36.8169 82.0316 36.6669 82.0316Z" fill="#3763e9"/>
<path d="M41.4721 84.2669H33.955C33.8052 84.2666 33.6617 84.2069 33.5559 84.1008C33.4501 83.9948 33.3906 83.8511 33.3906 83.7013C33.3906 83.5515 33.4501 83.4079 33.5559 83.3018C33.6617 83.1958 33.8052 83.1361 33.955 83.1357H41.4721C41.6219 83.1361 41.7654 83.1958 41.8713 83.3018C41.9771 83.4079 42.0365 83.5515 42.0365 83.7013C42.0365 83.8511 41.9771 83.9948 41.8713 84.1008C41.7654 84.2069 41.6219 84.2666 41.4721 84.2669Z" fill="#3763e9"/>
<path d="M26.5941 76.3322C29.539 76.3322 31.9264 73.9448 31.9264 70.9998C31.9264 68.0548 29.539 65.6675 26.5941 65.6675C23.6491 65.6675 21.2617 68.0548 21.2617 70.9998C21.2617 73.9448 23.6491 76.3322 26.5941 76.3322Z" fill="#3F3D56"/>
<path d="M71.6268 39.8338C82.5581 39.8338 91.4197 30.9722 91.4197 20.0409C91.4197 9.10961 82.5581 0.248047 71.6268 0.248047C60.6955 0.248047 51.834 9.10961 51.834 20.0409C51.834 30.9722 60.6955 39.8338 71.6268 39.8338Z" fill="white"/>
<path d="M72.542 22.0596C76.1065 22.0596 78.9961 19.17 78.9961 15.6055C78.9961 12.041 76.1065 9.15137 72.542 9.15137C68.9775 9.15137 66.0879 12.041 66.0879 15.6055C66.0879 19.17 68.9775 22.0596 72.542 22.0596Z" fill="#FFB8B8"/>
<path d="M78.2262 11.3419C78.2262 11.3419 79.9066 8.12946 76.2097 7.83742C76.2097 7.83742 73.058 4.97842 69.8455 7.31475C69.8455 7.31475 68.0932 7.31475 67.135 9.29763C67.135 9.29763 65.7569 8.77496 65.454 10.1738C65.454 10.1738 64.4456 13.0942 65.454 15.7226C66.4625 18.3509 66.7974 18.643 66.7974 18.643C66.7974 18.643 66.0899 15.3813 70.1233 15.0893C74.1567 14.7972 77.857 12.2705 78.1931 15.4829C78.5293 18.6954 78.8988 17.2442 78.8988 17.2442C78.8988 17.2442 82.0914 12.6561 78.2262 11.3419Z" fill="#2F2E41"/>
<path d="M86.5118 33.2018C83.0828 37.1036 78.2569 39.5004 73.076 39.8748C67.8951 40.2492 62.7748 38.5712 58.8203 35.2031L60.518 30.466C60.9016 29.6246 61.5071 28.9036 62.2694 28.3801C63.0316 27.8567 63.922 27.5506 64.8451 27.4946L65.9251 27.4283L68.5004 25.2072C68.5004 25.2072 75.4394 24.9595 75.3365 24.8408L79.5397 27.369L79.5362 27.3516L81.1885 27.4528C82.1116 27.5084 83.0021 27.8144 83.7644 28.3379C84.5267 28.8614 85.1321 29.5826 85.5156 30.4241L86.5118 33.2018Z" fill="#3763e9"/>
<path d="M71.6267 40.0816C67.663 40.0816 63.7884 38.9062 60.4927 36.7041C57.197 34.502 54.6283 31.372 53.1115 27.7101C51.5946 24.0481 51.1977 20.0186 51.971 16.131C52.7443 12.2435 54.653 8.67257 57.4558 5.86982C60.2585 3.06706 63.8294 1.15837 67.717 0.385088C71.6045 -0.38819 75.634 0.00868204 79.296 1.52552C82.958 3.04236 86.0879 5.61103 88.29 8.90672C90.4921 12.2024 91.6675 16.0771 91.6675 20.0408C91.6615 25.3541 89.5481 30.448 85.791 34.2051C82.034 37.9622 76.94 40.0755 71.6267 40.0816ZM71.6267 0.495898C67.7611 0.495897 63.9823 1.64218 60.7682 3.7898C57.554 5.93742 55.0489 8.98991 53.5696 12.5613C52.0903 16.1326 51.7032 20.0625 52.4574 23.8538C53.2115 27.6451 55.073 31.1277 57.8064 33.8611C60.5398 36.5945 64.0224 38.456 67.8137 39.2101C71.605 39.9643 75.5349 39.5772 79.1062 38.0979C82.6776 36.6186 85.7301 34.1135 87.8777 30.8993C90.0253 27.6852 91.1716 23.9064 91.1716 20.0408C91.1657 14.859 89.1046 9.89106 85.4405 6.22695C81.7764 2.56285 76.8085 0.501776 71.6267 0.495898Z" fill="#3F3D56"/>
<path d="M120.685 21.5141H95.4777C94.8022 21.5133 94.1545 21.2446 93.6768 20.7669C93.1991 20.2892 92.9304 19.6415 92.9297 18.966V3.44065C92.9304 2.7651 93.1991 2.11743 93.6768 1.63974C94.1545 1.16205 94.8022 0.893344 95.4777 0.892578H120.685C121.361 0.893341 122.008 1.16204 122.486 1.63974C122.964 2.11743 123.232 2.76509 123.233 3.44065V18.966C123.232 19.6415 122.964 20.2892 122.486 20.7669C122.008 21.2446 121.361 21.5133 120.685 21.5141Z" fill="#E6E6E6"/>
<path d="M110.67 19.5145H97.2497C96.6171 19.5138 96.0105 19.2622 95.5631 18.8148C95.1157 18.3675 94.864 17.7609 94.8633 17.1282V5.27892C94.864 4.64623 95.1157 4.03966 95.5631 3.59229C96.0105 3.14491 96.6171 2.89328 97.2497 2.89258H118.913C119.546 2.89328 120.153 3.14492 120.6 3.5923C121.047 4.03967 121.299 4.64624 121.3 5.27892V8.88489C121.296 11.7031 120.175 14.4049 118.183 16.3977C116.19 18.3905 113.488 19.5114 110.67 19.5145Z" fill="white"/>
<path d="M116.753 9.38063H99.4113C99.2613 9.38063 99.1174 9.32105 99.0114 9.21498C98.9053 9.10892 98.8457 8.96507 98.8457 8.81507C98.8457 8.66507 98.9053 8.52122 99.0114 8.41516C99.1174 8.30909 99.2613 8.24951 99.4113 8.24951H116.753C116.903 8.24951 117.046 8.30909 117.153 8.41516C117.259 8.52122 117.318 8.66507 117.318 8.81507C117.318 8.96507 117.259 9.10892 117.153 9.21498C117.046 9.32105 116.903 9.38063 116.753 9.38063Z" fill="#3763e9"/>
<path d="M102.124 11.6155H99.4113C99.2613 11.6155 99.1174 11.556 99.0114 11.4499C98.9053 11.3438 98.8457 11.2 98.8457 11.05C98.8457 10.9 98.9053 10.7561 99.0114 10.65C99.1174 10.544 99.2613 10.4844 99.4113 10.4844H102.124C102.274 10.4844 102.418 10.544 102.524 10.65C102.63 10.7561 102.69 10.9 102.69 11.05C102.69 11.2 102.63 11.3438 102.524 11.4499C102.418 11.556 102.274 11.6155 102.124 11.6155Z" fill="#3763e9"/>
<path d="M106.927 13.8504H99.4101C99.2603 13.8501 99.1167 13.7904 99.0109 13.6843C98.9051 13.5783 98.8457 13.4346 98.8457 13.2848C98.8457 13.135 98.9051 12.9913 99.0109 12.8853C99.1167 12.7793 99.2603 12.7196 99.4101 12.7192H106.927C107.077 12.7192 107.221 12.7788 107.327 12.8849C107.433 12.991 107.493 13.1348 107.493 13.2848C107.493 13.4348 107.433 13.5787 107.327 13.6848C107.221 13.7908 107.077 13.8504 106.927 13.8504Z" fill="#3763e9"/>
<path d="M92.0491 24.5114C94.9941 24.5114 97.3815 22.124 97.3815 19.179C97.3815 16.234 94.9941 13.8467 92.0491 13.8467C89.1042 13.8467 86.7168 16.234 86.7168 19.179C86.7168 22.124 89.1042 24.5114 92.0491 24.5114Z" fill="#3F3D56"/>
</svg>
