<svg xmlns="http://www.w3.org/2000/svg" xmlns:xlink="http://www.w3.org/1999/xlink" width="500pt" viewBox="0 0 375 374.999991" height="500pt" version="1.0">
    <defs>
        <clipPath id="id1">
            <path d="M 11.175781 9.332031 L 329.175781 9.332031 L 329.175781 337.828125 L 11.175781 337.828125 Z M 11.175781 9.332031 " clip-rule="nonzero" />
        </clipPath>
        <clipPath id="id2">
            <path d="M 44.917969 9.332031 L 295.429688 9.332031 C 304.378906 9.332031 312.964844 12.890625 319.292969 19.226562 C 325.621094 25.5625 329.175781 34.15625 329.175781 43.113281 L 329.175781 304.039062 C 329.175781 313 325.621094 321.59375 319.292969 327.929688 C 312.964844 334.265625 304.378906 337.824219 295.429688 337.824219 L 44.917969 337.824219 C 35.96875 337.824219 27.386719 334.265625 21.058594 327.929688 C 14.730469 321.59375 11.175781 313 11.175781 304.039062 L 11.175781 43.113281 C 11.175781 34.15625 14.730469 25.5625 21.058594 19.226562 C 27.386719 12.890625 35.96875 9.332031 44.917969 9.332031 " clip-rule="nonzero" />
        </clipPath>
        <clipPath id="id3">
            <path d="M 238.484375 239.410156 L 350.984375 239.410156 L 350.984375 351.910156 L 238.484375 351.910156 Z M 238.484375 239.410156 " clip-rule="nonzero" />
        </clipPath>
        <clipPath id="id4">
            <path d="M 238.484375 239.410156 L 350.984375 239.410156 L 350.984375 351.910156 L 238.484375 351.910156 Z M 238.484375 239.410156 " clip-rule="nonzero" />
        </clipPath>
        <clipPath id="id5">
            <path d="M 267.734375 239.410156 L 321.734375 239.410156 C 337.890625 239.410156 350.984375 252.503906 350.984375 268.660156 L 350.984375 322.660156 C 350.984375 338.8125 337.890625 351.910156 321.734375 351.910156 L 267.734375 351.910156 C 251.582031 351.910156 238.484375 338.8125 238.484375 322.660156 L 238.484375 268.660156 C 238.484375 252.503906 251.582031 239.410156 267.734375 239.410156 " clip-rule="nonzero" />
        </clipPath>
    </defs>
    <g clip-path="url(#id1)">
        <g clip-path="url(#id2)">
            <path stroke-linecap="butt" transform="matrix(0.749889, 0, 0, 0.75075, 11.174957, 9.331548)" stroke-linejoin="miter" d="M 44.997318 0.000643227 L 379.062203 0.000643227 C 390.996254 0.000643227 402.445859 4.740696 410.884604 13.180175 C 419.323348 21.619654 424.06363 33.066543 424.06363 44.997323 L 424.06363 392.55089 C 424.06363 404.486873 419.323348 415.933762 410.884604 424.373241 C 402.445859 432.812721 390.996254 437.552773 379.062203 437.552773 L 44.997318 437.552773 C 33.063266 437.552773 21.61887 432.812721 13.180126 424.373241 C 4.741382 415.933762 0.00109921 404.486873 0.00109921 392.55089 L 0.00109921 44.997323 C 0.00109921 33.066543 4.741382 21.619654 13.180126 13.180175 C 21.61887 4.740696 33.063266 0.000643227 44.997318 0.000643227 " stroke="#ffffff" stroke-width="64" stroke-opacity="1" stroke-miterlimit="4" />
        </g>
    </g>
    <g clip-path="url(#id3)">
        <path d="M 267.734375 239.410156 L 321.734375 239.410156 C 337.890625 239.410156 350.984375 252.503906 350.984375 268.660156 L 350.984375 322.660156 C 350.984375 338.8125 337.890625 351.910156 321.734375 351.910156 L 267.734375 351.910156 C 251.582031 351.910156 238.484375 338.8125 238.484375 322.660156 L 238.484375 268.660156 C 238.484375 252.503906 251.582031 239.410156 267.734375 239.410156 " fill-opacity="1" fill-rule="nonzero" />
    </g>
    <g clip-path="url(#id4)">
        <g clip-path="url(#id5)">
            <path stroke-linecap="butt" transform="matrix(0.75, 0, 0, 0.75, 238.484974, 239.408627)" stroke-linejoin="miter" d="M 38.999203 0.00203943 L 110.999208 0.00203943 C 132.540876 0.00203943 149.999211 17.460374 149.999211 39.002042 L 149.999211 111.002047 C 149.999211 132.538506 132.540876 150.002049 110.999208 150.002049 L 38.999203 150.002049 C 17.462744 150.002049 -0.000799253 132.538506 -0.000799253 111.002047 L -0.000799253 39.002042 C -0.000799253 17.460374 17.462744 0.00203943 38.999203 0.00203943 " stroke="#ffffff" stroke-width="8" stroke-opacity="1" stroke-miterlimit="4" />
        </g>
    </g>
</svg>