<?xml version="1.0" encoding="UTF-8"?>
<svg width="512pt" height="512pt" version="1.1" viewBox="0 0 512 512" xmlns="http://www.w3.org/2000/svg">
    <g>
        <path d="m179.97 201.09c-3.625 0-6.8945 2.1836-8.2812 5.5312-1.3867 3.3516-0.62109 7.207 1.9414 9.7695s6.418 3.332 9.7695 1.9414c3.3477-1.3867 5.5352-4.6523 5.5352-8.2812 0-4.9492-4.0156-8.9609-8.9648-8.9609z" />
        <path d="m239.62 210.05c0 4.9531-4.0156 8.9648-8.9648 8.9648s-8.9648-4.0117-8.9648-8.9648c0-4.9492 4.0156-8.9609 8.9648-8.9609s8.9648 4.0117 8.9648 8.9609" />
        <path d="m290.31 210.05c0 4.9531-4.0156 8.9648-8.9648 8.9648s-8.9648-4.0117-8.9648-8.9648c0-4.9492 4.0156-8.9609 8.9648-8.9609s8.9648 4.0117 8.9648 8.9609" />
        <path d="m332.03 201.09c-3.625 0-6.8945 2.1836-8.2812 5.5312-1.3867 3.3516-0.62109 7.207 1.9414 9.7695 2.5664 2.5625 6.4219 3.332 9.7695 1.9414 3.3516-1.3867 5.5352-4.6523 5.5352-8.2812 0-4.9492-4.0117-8.9609-8.9648-8.9609z" />
        <path d="m179.97 243.72c-3.625 0-6.8945 2.1836-8.2812 5.5352-1.3867 3.3477-0.62109 7.2031 1.9414 9.7695 2.5625 2.5625 6.418 3.3281 9.7695 1.9414 3.3477-1.3867 5.5352-4.6562 5.5352-8.2812 0-4.9492-4.0156-8.9648-8.9648-8.9648z" />
        <path d="m239.62 252.68c0 4.9492-4.0156 8.9648-8.9648 8.9648s-8.9648-4.0156-8.9648-8.9648c0-4.9492 4.0156-8.9648 8.9648-8.9648s8.9648 4.0156 8.9648 8.9648" />
        <path d="m290.31 252.68c0 4.9492-4.0156 8.9648-8.9648 8.9648s-8.9648-4.0156-8.9648-8.9648c0-4.9492 4.0156-8.9648 8.9648-8.9648s8.9648 4.0156 8.9648 8.9648" />
        <path d="m332.03 243.72c-3.625 0-6.8945 2.1836-8.2812 5.5352-1.3867 3.3477-0.62109 7.2031 1.9414 9.7695 2.5664 2.5625 6.4219 3.3281 9.7695 1.9414 3.3516-1.3867 5.5352-4.6562 5.5352-8.2812 0-4.9492-4.0117-8.9648-8.9648-8.9648z" />
        <path d="m179.97 286.36c-3.625 0-6.8945 2.1836-8.2812 5.5312-1.3867 3.3516-0.62109 7.207 1.9414 9.7695 2.5625 2.5664 6.418 3.332 9.7695 1.9453 3.3477-1.3867 5.5352-4.6562 5.5352-8.2812 0-4.9531-4.0156-8.9648-8.9648-8.9648z" />
        <path d="m239.62 295.32c0 4.9492-4.0156 8.9609-8.9648 8.9609s-8.9648-4.0117-8.9648-8.9609c0-4.9531 4.0156-8.9648 8.9648-8.9648s8.9648 4.0117 8.9648 8.9648" />
        <path d="m290.31 295.32c0 4.9492-4.0156 8.9609-8.9648 8.9609s-8.9648-4.0117-8.9648-8.9609c0-4.9531 4.0156-8.9648 8.9648-8.9648s8.9648 4.0117 8.9648 8.9648" />
        <path d="m332.03 286.36c-3.625 0-6.8945 2.1836-8.2812 5.5312-1.3867 3.3516-0.62109 7.207 1.9414 9.7695 2.5664 2.5664 6.4219 3.332 9.7695 1.9453 3.3516-1.3867 5.5352-4.6562 5.5352-8.2812 0-4.9531-4.0117-8.9648-8.9648-8.9648z" />
        <path d="m179.97 328.99c-3.625 0-6.8945 2.1875-8.2812 5.5352-1.3867 3.3516-0.62109 7.207 1.9414 9.7695s6.418 3.332 9.7695 1.9414c3.3477-1.3867 5.5352-4.6562 5.5352-8.2812 0-4.9492-4.0156-8.9648-8.9648-8.9648z" />
        <path d="m239.62 337.95c0 4.9531-4.0156 8.9648-8.9648 8.9648s-8.9648-4.0117-8.9648-8.9648c0-4.9492 4.0156-8.9648 8.9648-8.9648s8.9648 4.0156 8.9648 8.9648" />
        <path d="m290.31 337.95c0 4.9531-4.0156 8.9648-8.9648 8.9648s-8.9648-4.0117-8.9648-8.9648c0-4.9492 4.0156-8.9648 8.9648-8.9648s8.9648 4.0156 8.9648 8.9648" />
        <path d="m176.14 90.605c-2.043 0-4.0039 0.8125-5.4492 2.2578-1.4453 1.4453-2.2539 3.4062-2.2539 5.4492v15.559h-23.5c-8.2344 0.011718-16.133 3.2852-21.957 9.1094s-9.0977 13.723-9.1094 21.957v222.12c0.011718 8.2383 3.2852 16.133 9.1094 21.957s13.723 9.0977 21.957 9.1094h222.12c8.2383-0.011718 16.133-3.2852 21.957-9.1094s9.0977-13.719 9.1094-21.957v-222.12c-0.011718-8.2344-3.2852-16.133-9.1094-21.957s-13.719-9.0977-21.957-9.1094h-23.496v-15.559c0-4.2539-3.4492-7.707-7.707-7.707-4.2539 0-7.707 3.4531-7.707 7.707v15.559h-144.3v-15.559c0-2.043-0.8125-4.0039-2.2578-5.4492-1.4453-1.4453-3.4023-2.2578-5.4492-2.2578zm190.92 292.11h-222.12c-4.1484-0.003906-8.1289-1.6523-11.062-4.5898-2.9336-2.9336-4.5859-6.9102-4.5898-11.062v-194.34l253.43 0.003906v194.34c-0.003906 4.1523-1.6523 8.1289-4.5898 11.062-2.9336 2.9375-6.9102 4.5859-11.062 4.5898zm15.652-237.78v12.371h-253.43v-12.371c0.003906-4.1484 1.6523-8.1289 4.5898-11.062 2.9336-2.9375 6.9141-4.5859 11.062-4.5898h222.12c4.1523 0.003906 8.1289 1.6562 11.062 4.5898 2.9375 2.9336 4.5859 6.9141 4.5898 11.062z" />
    </g>
</svg>