<svg width="127" height="128" viewBox="0 0 127 128" fill="none" xmlns="http://www.w3.org/2000/svg">
<rect width="127" height="128" rx="63.5" fill="#F8FAFD"/>
<g clip-path="url(#clip0_2652_43310)">
<path d="M56.0299 56.0343C57.6284 54.4619 58.1866 51.8705 57.2767 50.2462C56.3668 48.622 54.3332 48.5799 52.7347 50.1524C51.1361 51.7248 48.8895 55.9771 49.7994 57.6013C50.7094 59.2256 54.4313 57.6068 56.0299 56.0343ZM50.5133 56.8869C50.1728 56.722 50.0801 56.2036 50.3062 55.729C50.5324 55.2545 50.9917 55.0036 51.3322 55.1685C51.6727 55.3335 51.7654 55.8519 51.5393 56.3264C51.3131 56.8009 50.8538 57.0519 50.5133 56.8869Z" fill="#3F3D56"/>
<path d="M54.0545 54.8377C53.9006 54.6959 53.7467 54.5541 53.5928 54.4123C53.3815 54.2418 53.2084 54.028 53.085 53.785C52.9516 53.446 52.9179 53.0754 52.9882 52.7176C53.0721 52.1989 53.3124 51.7187 53.6762 51.3422L53.6516 51.7034C53.8365 51.4855 54.054 51.298 54.2963 51.1478C54.5242 51.0291 54.775 51.0374 54.8741 51.2485C54.9876 51.4901 54.8796 51.9236 55.0333 52.1175C55.2992 52.4529 55.9923 51.7286 56.2846 52.0265C56.4549 52.2001 56.3743 52.6119 56.285 52.9586C56.193 53.3869 56.0476 53.8017 55.8522 54.1931C55.4964 54.8391 54.8465 55.2661 54.407 55.0918C54.2751 55.0294 54.1557 54.9433 54.0545 54.8377Z" fill="#6C63FF"/>
<path d="M52.6913 54.9247C52.6104 54.6479 52.7767 54.2879 52.9344 53.9847L53.0141 53.9015C53.1781 53.8183 53.356 53.7666 53.5388 53.7491C53.6237 53.7427 53.7083 53.7656 53.7786 53.814C53.849 53.8624 53.9009 53.9335 53.926 54.0156C53.9726 54.178 53.935 54.4102 54.0466 54.5051C54.2625 54.6887 54.6956 54.12 54.9015 54.3182C55.0171 54.4294 54.9335 54.7161 54.7849 54.857C54.6443 54.975 54.4708 55.046 54.2884 55.0604C54.0241 55.1047 53.7598 55.149 53.4954 55.1933C53.3408 55.2291 53.1812 55.2372 53.0238 55.2172C52.9467 55.2048 52.8747 55.1707 52.8159 55.119C52.7572 55.0673 52.714 55 52.6913 54.9247Z" fill="#2F2E41"/>
<path d="M51.8193 55.1305C51.8751 54.7212 52.1855 54.0624 52.4625 53.4994L52.5704 53.3279C52.725 53.1419 52.903 52.9771 53.1 52.8377C53.2506 52.7545 53.3552 52.8159 53.3173 53.0878C53.2838 53.3285 53.1446 53.7209 53.1989 53.8223C53.304 54.0183 53.9438 52.8984 54.0336 53.1226C54.084 53.2485 53.8795 53.7503 53.6848 54.047C53.5447 54.265 53.3656 54.4547 53.1566 54.6065C52.9047 54.8011 52.6528 54.9956 52.4009 55.1901C52.2775 55.3032 52.1334 55.3909 51.9767 55.4483C51.8602 55.4693 51.7854 55.3789 51.8193 55.1305Z" fill="#FF6584"/>
<path d="M51.9067 56.6184C51.8693 56.4348 51.7924 56.2616 51.6815 56.1112C51.5706 55.9608 51.4283 55.8367 51.2647 55.7477C51.101 55.6587 50.92 55.6069 50.7344 55.5961C50.5488 55.5853 50.3631 55.6156 50.1904 55.6849L47.2344 52.2383L46.597 54.5173L49.5019 57.4409C49.6366 57.7257 49.8704 57.9508 50.1588 58.0735C50.4472 58.1962 50.7702 58.208 51.0666 58.1066C51.363 58.0052 51.6123 57.7977 51.7671 57.5234C51.9219 57.2491 51.9716 56.9271 51.9067 56.6184Z" fill="#FFB8B8"/>
<path d="M42.0938 43.4915L41.3099 44.8304C41.3099 44.8304 43.3779 45.8633 43.4181 46.6788C43.4583 47.4943 43.6063 47.2875 43.9139 47.5113C44.2216 47.7352 44.5863 48.3151 44.598 48.9525C44.6096 49.5899 49.5007 54.5289 49.5007 54.5289L48.1686 56.3901C47.7349 55.9831 47.2526 55.6322 46.7329 55.3455C45.941 54.9266 43.7434 54.1492 43.5837 53.7186C43.4241 53.2879 42.7809 52.9747 42.1656 52.527C41.5503 52.0793 42.869 51.6993 41.8434 50.9531C40.8179 50.2069 35.2535 44.3326 34.2565 43.7645C33.2595 43.1963 33.2532 41.462 33.2532 41.462L33.9932 40.428L42.0938 43.4915Z" fill="#3F3D56"/>
<path d="M86.6601 78.4561V77.8021C86.6773 77.6089 86.6773 77.4146 86.6601 77.2215V23.7511C86.6601 23.4193 86.5293 23.1011 86.2966 22.8664C86.0639 22.6318 85.7483 22.5 85.4192 22.5C85.0901 22.5 84.7745 22.6318 84.5418 22.8664C84.309 23.1011 84.1783 23.4193 84.1783 23.7511V77.2215C84.1611 77.4146 84.1611 77.6089 84.1783 77.8021V78.4561L71.6163 104.37C71.9126 104.669 72.2643 104.906 72.6515 105.068C73.0386 105.229 73.4535 105.313 73.8725 105.313C74.2916 105.313 74.7065 105.229 75.0936 105.068C75.4807 104.906 75.8325 104.669 76.1288 104.37L84.1783 83.7786V104.062C84.1783 104.393 84.309 104.712 84.5418 104.946C84.7745 105.181 85.0901 105.313 85.4192 105.313C85.7483 105.313 86.0639 105.181 86.2966 104.946C86.5293 104.712 86.6601 104.393 86.6601 104.062V83.7786L94.7096 104.37C95.0059 104.669 95.3576 104.906 95.7448 105.068C96.1319 105.229 96.5468 105.313 96.9659 105.313C97.3849 105.313 97.7998 105.229 98.1869 105.068C98.5741 104.906 98.9258 104.669 99.2221 104.37L86.6601 78.4561Z" fill="#E6E6E6"/>
<path d="M24.7233 97.6795C23.3719 96.3334 22.2208 94.7972 21.3058 93.1186C20.3935 91.4487 19.7197 89.6573 19.3043 87.7974C18.8832 85.9098 18.7437 83.9695 18.8904 82.0404C19.1948 78.1116 20.6347 74.3589 23.0319 71.2465C23.1783 71.0572 23.3282 70.8707 23.4816 70.6871C23.6526 70.4818 23.9432 70.7775 23.7734 70.9813C21.3271 73.9388 19.7945 77.5546 19.3652 81.3813C19.0547 84.3054 19.4014 87.2625 20.3795 90.0331C21.3576 92.8037 22.942 95.3166 25.0151 97.3853C25.2045 97.5736 24.9127 97.8677 24.7233 97.6795Z" fill="#E6E6E6"/>
<path d="M22.8656 71.5996C23.0327 71.5366 23.1963 71.4647 23.3557 71.384C23.3637 71.3966 23.3716 71.4093 23.3797 71.4218L22.8656 71.5996Z" fill="#E6E6E6"/>
<path d="M26.0514 67.9297C25.9839 68.3109 25.8619 68.6803 25.6894 69.0263C25.2131 69.9908 24.4543 70.7845 23.5159 71.2999C23.4639 71.3278 23.4102 71.3575 23.3565 71.3837C23.2924 71.2824 23.2266 71.1812 23.1643 71.0799C22.7434 70.4006 22.3693 69.6864 22.1978 68.9075C21.9969 67.9978 22.1061 66.9762 22.6845 66.248C23.2613 65.5199 24.3628 65.1933 25.1612 65.6648C25.3917 65.8036 25.5873 65.9943 25.7327 66.2219C25.6531 66.3214 25.5734 66.4192 25.4937 66.5187C25.4867 66.5279 25.4792 66.5366 25.4712 66.5449C25.4019 66.6322 25.3309 66.7178 25.2616 66.8051C24.9724 67.1631 24.6849 67.5228 24.3957 67.879C24.8033 67.9546 25.2182 67.9833 25.6323 67.9646C25.6652 67.9628 25.6998 67.9611 25.7327 67.9593C25.8384 67.9524 25.9458 67.9436 26.0514 67.9297Z" fill="#E6E6E6"/>
<path d="M20.2096 75.0912L20.0987 76.5475L20.0693 76.9422C20.0381 76.9265 20.0052 76.9107 19.9741 76.895C18.8968 76.3559 17.946 75.5911 17.1853 74.6519C16.4246 73.7127 15.8714 72.6205 15.5628 71.4485C15.4596 71.042 15.3873 70.6281 15.3463 70.2104C15.9075 70.1231 16.4703 70.0341 17.0315 69.9467C16.5772 69.3509 16.0081 68.8537 15.3584 68.4852C15.5066 67.0278 16.0289 65.6345 16.8739 64.4426C17.0194 66.8839 19.5549 68.4363 20.4833 70.6942C20.768 71.4007 20.8913 72.1629 20.844 72.9241C20.7966 73.6853 20.5798 74.426 20.2096 75.0912Z" fill="#E6E6E6"/>
<path d="M19.7281 87.8823C19.593 87.8893 19.4579 87.8928 19.3245 87.891C18.172 87.8837 17.033 87.639 15.9776 87.1721C14.9221 86.7052 13.9724 86.0258 13.1866 85.1757C12.5504 84.4733 12.039 83.6658 11.6746 82.7886C11.6867 82.7868 11.6971 82.7851 11.7092 82.7833C12.2704 82.696 12.8332 82.6069 13.3944 82.5196C12.7984 81.7366 12.0063 81.1279 11.0996 80.7559C10.9769 79.9668 10.9676 79.1641 11.0719 78.3723C12.3396 80.4556 15.303 80.6232 17.1752 82.1739C18.0681 82.9243 18.6768 83.9623 18.8985 85.1128C18.9537 85.3971 18.9833 85.6858 18.9868 85.9754C18.9885 86.0453 18.9885 86.1134 18.9868 86.1815L19.0284 86.2758L19.7281 87.8823Z" fill="#E6E6E6"/>
<path d="M25.298 90.2938C24.9395 90.7374 24.581 91.1844 24.2225 91.628C24.6632 91.7097 25.1123 91.7366 25.5595 91.7083C25.1623 93.1426 24.3999 94.4472 23.3478 95.4924C23.2491 95.5902 23.1469 95.6862 23.043 95.777C23.0222 95.7962 22.9997 95.8154 22.9789 95.8346L22.8854 95.5675L22.8837 95.5657L22.3537 94.0867C21.6813 93.4051 21.2157 92.5443 21.0114 91.6053V91.6018C20.8872 91.0521 20.8585 90.4849 20.9266 89.9254C21.2227 87.4999 23.256 85.3188 22.7503 82.9282C23.8646 83.8381 24.7292 85.0207 25.2616 86.3631C24.9724 86.721 24.6849 87.0808 24.3957 87.437C24.8033 87.5126 25.2182 87.5413 25.6323 87.5226C25.7773 88.1137 25.8563 88.7193 25.8678 89.3282C25.8695 89.4155 25.8695 89.5011 25.8678 89.5884C25.6859 89.8154 25.5024 90.0406 25.3205 90.2676C25.3135 90.2768 25.306 90.2856 25.298 90.2938Z" fill="#E6E6E6"/>
<path d="M95.6526 102.343C95.4361 100.44 95.4938 98.5155 95.824 96.6293C96.151 94.7516 96.7394 92.9298 97.5717 91.2179C98.4167 89.4809 99.514 87.8807 100.827 86.4701C103.506 83.6008 106.961 81.5861 110.764 80.6753C110.995 80.6203 111.228 80.5697 111.462 80.5235C111.723 80.4716 111.765 80.8856 111.506 80.9372C107.762 81.6962 104.32 83.5456 101.607 86.2564C99.5476 88.339 97.9798 90.8625 97.02 93.6395C96.0602 96.4166 95.733 99.376 96.0628 102.298C96.0934 102.564 95.6831 102.609 95.6526 102.343Z" fill="#E6E6E6"/>
<path d="M110.414 80.8455C110.584 80.9019 110.756 80.9492 110.93 80.9871C110.929 81.002 110.927 81.0169 110.926 81.0317L110.414 80.8455Z" fill="#E6E6E6"/>
<path d="M115.178 79.9984C114.888 80.2528 114.564 80.4636 114.214 80.6243C113.244 81.0749 112.159 81.214 111.107 81.0227C111.05 81.0116 110.989 81.0008 110.931 80.9873C110.944 80.8679 110.956 80.7474 110.97 80.6291C111.064 79.8338 111.217 79.0409 111.567 78.3256C111.976 77.4897 112.696 76.7625 113.599 76.5606C114.502 76.3575 115.563 76.799 115.892 77.6709C115.985 77.9248 116.019 78.1969 115.991 78.4661C115.867 78.4934 115.744 78.5192 115.62 78.5465C115.609 78.5492 115.598 78.5512 115.587 78.5526C115.478 78.5769 115.37 78.5987 115.262 78.623C114.814 78.7192 114.366 78.8179 113.919 78.9127C114.19 79.2292 114.495 79.5137 114.83 79.7608C114.856 79.7802 114.885 79.8007 114.911 79.8202C114.998 79.8815 115.087 79.9425 115.178 79.9984Z" fill="#E6E6E6"/>
<path d="M106.175 81.8881L105.183 82.953L104.915 83.2419C104.9 83.21 104.884 83.1769 104.87 83.145C104.365 82.0442 104.1 80.8475 104.091 79.6349C104.082 78.4223 104.33 77.2217 104.817 76.1134C104.99 75.7314 105.191 75.3631 105.418 75.0118C105.91 75.2983 106.404 75.5845 106.895 75.871C106.912 75.1196 106.777 74.3726 106.5 73.6749C107.521 72.6328 108.794 71.8771 110.194 71.4822C108.79 73.4765 109.801 76.2884 109.121 78.6345C108.904 79.365 108.526 80.0369 108.016 80.6002C107.506 81.1634 106.876 81.6036 106.175 81.8881Z" fill="#E6E6E6"/>
<path d="M97.8492 91.5518C97.7396 91.4719 97.6321 91.3892 97.5293 91.3036C96.6357 90.5696 95.9002 89.6593 95.3679 88.6286C94.8356 87.5978 94.5177 86.4683 94.4337 85.3093C94.3746 84.3601 94.4779 83.4076 94.7391 82.4937C94.7497 82.5 94.7589 82.5052 94.7694 82.5115C95.261 82.798 95.755 83.0843 96.2465 83.3708C96.2687 82.3841 96.0298 81.4092 95.5544 80.5464C95.9493 79.854 96.441 79.2225 97.0143 78.6714C96.7075 81.0959 98.9125 83.0989 99.4078 85.4902C99.6372 86.6392 99.4663 87.8327 98.924 88.8693C98.7904 89.1258 98.634 89.3695 98.4567 89.5974C98.4146 89.6529 98.3723 89.706 98.3286 89.758L98.3024 89.8577L97.8492 91.5518Z" fill="#E6E6E6"/>
<path d="M100.691 96.9505C100.136 97.0696 99.5786 97.1915 99.0235 97.3106C99.3162 97.6527 99.6494 97.9575 100.016 98.218C98.8145 99.0848 97.4095 99.6196 95.94 99.7695C95.8023 99.7833 95.663 99.7936 95.5256 99.7987C95.4974 99.8005 95.468 99.8012 95.4398 99.8031L95.533 99.5358L95.5327 99.5333L96.039 98.0459C95.9387 97.0899 96.1108 96.1249 96.5353 95.264L96.5375 95.2613C96.7823 94.7545 97.1125 94.2944 97.5133 93.9013C99.2516 92.1983 102.192 91.7833 103.283 89.6008C103.586 91.014 103.525 92.4818 103.106 93.8643C102.658 93.9605 102.21 94.0592 101.763 94.1541C102.034 94.4706 102.339 94.755 102.674 95.0021C102.419 95.5544 102.105 96.0763 101.735 96.558C101.682 96.6271 101.629 96.6938 101.573 96.7608C101.291 96.8228 101.007 96.8823 100.725 96.9443C100.714 96.947 100.702 96.9491 100.691 96.9505Z" fill="#E6E6E6"/>
<path d="M108.399 69.6257H62.4394C61.9051 69.6251 61.3929 69.4109 61.0152 69.03C60.6374 68.6491 60.4249 68.1327 60.4243 67.594V35.196C60.4248 34.6574 60.6373 34.1409 61.0151 33.7601C61.3929 33.3792 61.9051 33.1649 62.4394 33.1643H108.399C108.933 33.1649 109.445 33.3792 109.823 33.7601C110.201 34.141 110.413 34.6574 110.414 35.196V67.594C110.413 68.1327 110.201 68.6491 109.823 69.03C109.445 69.4108 108.933 69.6251 108.399 69.6257Z" fill="#F2F2F2"/>
<path d="M92.2145 35.1901H78.6239C77.7623 35.1891 76.9362 34.8436 76.3269 34.2293C75.7177 33.615 75.3749 32.7821 75.374 31.9133V31.8538H95.4644V31.9133C95.4635 32.7821 95.1208 33.615 94.5115 34.2293C93.9022 34.8436 93.0761 35.1891 92.2145 35.1901Z" fill="#E6E6E6"/>
<path d="M92.2736 71.6515H78.683C77.8213 71.6505 76.9953 71.305 76.386 70.6907C75.7767 70.0764 75.434 69.2435 75.433 68.3748V68.3152H95.5235V68.3748C95.5225 69.2435 95.1798 70.0764 94.5706 70.6907C93.9613 71.305 93.1352 71.6505 92.2736 71.6515Z" fill="#E6E6E6"/>
<path d="M88.9646 63.37C88.9646 65.3443 87.4954 63.1317 85.5374 63.1317C84.5971 63.1317 83.6953 62.7551 83.0304 62.0847C82.3655 61.4144 81.992 60.5051 81.992 59.5571C81.992 58.609 82.3655 57.6998 83.0304 57.0294C83.6953 56.359 84.5971 55.9824 85.5374 55.9824C87.4954 55.9824 88.9646 61.3958 88.9646 63.37Z" fill="#6C63FF"/>
<path d="M75.3739 45.497C75.3739 46.4451 75.0004 47.3543 74.3355 48.0247C73.6706 48.695 72.7689 49.0717 71.8286 49.0717C69.8705 49.0717 68.8741 53.0715 68.8741 51.0973C68.8741 49.1231 69.8705 41.9224 71.8286 41.9224C72.7689 41.9224 73.6706 42.299 74.3355 42.9694C75.0004 43.6397 75.3739 44.549 75.3739 45.497Z" fill="#6C63FF"/>
<path d="M70.6018 41.5558C71.1135 41.2549 71.7401 41.3584 72.2262 41.6633C72.779 42.0101 73.0849 42.6073 73.2197 43.2343C73.3549 43.908 73.3526 44.6024 73.213 45.2752C73.0811 45.924 72.7435 46.6133 72.0585 46.7995C71.6019 46.9237 71.0917 46.7637 70.9253 46.2887C70.8612 46.098 70.847 45.8939 70.8839 45.696C70.9209 45.4981 71.0078 45.3132 71.1362 45.159C71.5205 44.723 72.1905 44.7005 72.6936 44.9181C73.2853 45.1739 73.646 45.7515 73.798 46.3628C73.9787 47.0896 73.8649 47.8434 73.6747 48.5558C73.468 49.3301 73.1944 50.087 72.9483 50.8491C72.4683 52.3354 72.0267 53.8498 71.9119 55.4161C71.7365 57.8088 72.5179 60.5696 74.6868 61.853C75.8577 62.5459 77.2666 62.6563 78.5773 62.3827C79.9596 62.0942 81.1942 61.3744 82.2662 60.466C82.8233 59.9858 83.3475 59.4683 83.8352 58.9168C83.9822 58.7382 84.1784 58.6077 84.3991 58.5419C84.6198 58.4761 84.8549 58.4779 85.0746 58.5471C86.2022 58.9084 85.9945 60.7286 84.8788 60.9519C84.3718 61.0533 83.8222 60.8075 83.447 60.4754C83.0364 60.0974 82.749 59.6028 82.6227 59.0568C82.3389 57.9091 82.6703 56.6455 83.3436 55.6973C84.1042 54.626 85.3353 53.959 86.5537 53.5622C87.9408 53.1105 89.3934 52.9774 90.8359 52.8301C92.3121 52.6794 93.8039 52.5035 95.1977 51.9621C96.3192 51.5227 97.3609 50.8994 98.2807 50.1173C100.135 48.554 101.448 46.4369 102.031 44.0719C102.167 43.5002 102.255 42.9181 102.294 42.3316C102.31 42.102 101.955 42.103 101.939 42.3316C101.766 44.8883 100.591 47.3202 98.8138 49.1358C97.9275 50.0453 96.8898 50.7909 95.7479 51.3388C94.3722 51.9943 92.8765 52.2519 91.3748 52.416C89.841 52.5837 88.2879 52.6826 86.7979 53.1136C85.4806 53.4945 84.1671 54.1406 83.2698 55.2149C82.4786 56.1621 82.045 57.4615 82.1994 58.6994C82.3431 59.8511 83.0714 61.0369 84.2682 61.2873C84.8297 61.4047 85.4109 61.2553 85.7855 60.8003C85.9933 60.5413 86.1258 60.2294 86.1685 59.8992C86.2111 59.5689 86.1622 59.2332 86.0271 58.9292C85.8547 58.601 85.5674 58.3493 85.221 58.2229C84.8747 58.0965 84.4941 58.1046 84.1533 58.2456C83.904 58.3611 83.6841 58.5324 83.5103 58.7464C82.4875 59.8773 81.3263 60.9327 79.9287 61.5666C78.6251 62.1578 77.0896 62.3801 75.711 61.9278C73.101 61.0715 72.1011 58.0628 72.2585 55.5346C72.3614 53.88 72.8544 52.2819 73.3641 50.7162C73.6244 49.9167 73.9208 49.1194 74.1035 48.2971C74.2672 47.561 74.3172 46.781 74.0788 46.055C73.8707 45.4213 73.4516 44.8571 72.8309 44.5915C72.2671 44.3503 71.5762 44.356 71.0722 44.7364C70.3435 45.2864 70.2767 46.6501 71.1767 47.0734C71.7739 47.3543 72.4933 47.1356 72.9338 46.6692C73.4276 46.1462 73.5883 45.4092 73.6439 44.7117C73.749 43.3937 73.4607 41.8039 72.1311 41.2091C71.5834 40.9641 70.951 40.9365 70.4228 41.2472C70.3839 41.2719 70.3561 41.311 70.3452 41.356C70.3343 41.4011 70.3412 41.4486 70.3644 41.4887C70.3876 41.5287 70.4253 41.5581 70.4696 41.5706C70.5139 41.5832 70.5613 41.5779 70.6018 41.5558Z" fill="#3F3D56"/>
<path d="M102.437 43.233C102.437 45.3265 105.696 50.6647 104.6 52.2673C104.464 52.4675 104.32 52.6621 104.168 52.8511C103.678 53.4696 103.115 54.0261 102.493 54.5086C102.387 54.592 102.281 54.6718 102.173 54.7493C101.791 55.0225 101.39 55.2682 100.974 55.4845C100.898 55.5226 100.821 55.5607 100.745 55.5989C98.6389 56.6193 96.2423 56.8534 93.9814 56.2595C91.7205 55.6655 89.7419 54.282 88.3977 52.3552C87.0536 50.4285 86.431 48.0833 86.6408 45.7372C86.8507 43.391 87.8793 41.196 89.5436 39.5427C89.6311 39.4546 89.7209 39.3688 89.8131 39.2842C90.7274 38.4394 91.792 37.7768 92.9507 37.3312C92.9519 37.3312 92.9519 37.33 92.9531 37.33C94.6909 36.6647 96.5792 36.5057 98.4024 36.8713H98.4047C98.4449 36.8796 98.4851 36.888 98.5253 36.8975C102.989 37.8495 102.437 38.4489 102.437 43.233Z" fill="#6C63FF"/>
<path d="M100.975 55.4392C100.977 55.4543 100.976 55.4695 100.974 55.4845C100.898 55.5226 100.821 55.5607 100.745 55.5989C100.71 55.5881 100.68 55.567 100.658 55.5385C100.636 55.51 100.623 55.4754 100.621 55.4392C100.606 55.2592 100.571 55.0813 100.518 54.909C100.057 53.4124 98.4402 52.6474 97.0291 52.3769C95.3025 52.0445 93.4861 52.1827 91.8434 51.4642C91.1699 51.1879 90.5732 50.7503 90.105 50.1892C89.615 49.5713 89.3688 48.7926 89.4137 48.0028C89.5106 46.1451 90.8093 44.6914 91.2537 42.9387C91.4369 42.2166 91.4369 41.4635 91.1107 40.782C90.8342 40.2029 90.3378 39.6941 89.676 39.6226C89.6493 39.6206 89.6234 39.6124 89.6004 39.5985C89.5775 39.5846 89.558 39.5655 89.5437 39.5427C89.6311 39.4546 89.7209 39.3688 89.8131 39.2842C89.933 39.3022 90.0506 39.333 90.1641 39.3759C90.8117 39.6262 91.262 40.1921 91.5149 40.8272C91.8068 41.5624 91.7796 42.3536 91.5763 43.1079C91.1024 44.8666 89.7103 46.393 89.7646 48.2887C89.8119 49.9319 91.2348 50.9566 92.6695 51.3903C94.4445 51.9265 96.3673 51.6727 98.1235 52.2935C99.505 52.7821 100.846 53.8747 100.975 55.4392Z" fill="#3F3D56"/>
<path d="M102.493 54.5087C102.387 54.5921 102.281 54.672 102.173 54.7494C102.159 54.7339 102.148 54.7154 102.141 54.6953C102.135 54.6751 102.132 54.6538 102.134 54.6326C102.194 53.0913 101.666 51.5854 100.661 50.4229C100.225 49.9124 99.7075 49.4797 99.1292 49.1432C98.5241 48.794 97.8599 48.607 97.2016 48.3901C96.554 48.1768 95.8958 47.9183 95.4006 47.4309C94.896 46.934 94.6478 46.2608 94.5722 45.5649C94.3937 43.9158 95.2127 42.4002 95.2789 40.7761C95.3084 40.0516 95.1501 39.3474 94.7045 38.7648C94.3193 38.2619 93.7508 37.9188 93.1067 37.995C92.894 38.0212 92.8834 37.7067 93.0677 37.6459C93.0804 37.6418 93.0935 37.639 93.1067 37.6376C93.856 37.5494 94.5355 37.964 94.9811 38.5455C95.4999 39.2211 95.6795 40.0445 95.6275 40.8869C95.5259 42.517 94.675 44.0838 94.9515 45.7401C94.999 46.0885 95.1185 46.423 95.3023 46.7218C95.4862 47.0207 95.7302 47.2773 96.0187 47.475C96.6119 47.8694 97.3127 48.0469 97.9816 48.2662C98.6491 48.4716 99.2798 48.7829 99.85 49.1884C100.408 49.6003 100.897 50.0995 101.299 50.6672C102.1 51.7828 102.519 53.1314 102.493 54.5087Z" fill="#3F3D56"/>
<path d="M104.6 52.2674C104.464 52.4675 104.32 52.6622 104.168 52.8512C104.326 51.9255 104.291 50.9767 104.066 50.0654C103.79 48.9181 103.231 47.8595 102.442 46.9876C102.046 46.5536 101.591 46.1792 101.09 45.8759C100.517 45.5303 99.8902 45.2384 99.4849 44.6808C98.6056 43.4702 99.1989 41.8902 99.4825 40.589C99.6314 39.9098 99.7118 39.1865 99.4364 38.5288C99.2225 38.0188 98.7994 37.541 98.2251 37.4826C97.9994 37.46 97.9982 37.1013 98.2251 37.1252C98.2676 37.1299 98.3102 37.1359 98.3527 37.143C98.9803 37.2574 99.4636 37.7293 99.726 38.3108C100.066 39.0698 99.999 39.8896 99.8252 40.6843C99.5393 41.9914 98.8763 43.7228 100.062 44.7904C100.562 45.2408 101.21 45.4898 101.749 45.889C102.232 46.2449 102.665 46.6654 103.035 47.1389C104.17 48.5935 104.727 50.4214 104.6 52.2674Z" fill="#3F3D56"/>
<path d="M41.1552 101.668H43.2524L44.2503 93.5127H41.1552V101.668Z" fill="#FFB6B6"/>
<path d="M40.0483 105.332H41.5523L41.8207 103.9L42.5083 105.332H46.4971C46.6883 105.332 46.8745 105.27 47.0285 105.156C47.1825 105.042 47.2963 104.881 47.3532 104.697C47.4101 104.513 47.4072 104.315 47.3448 104.133C47.2825 103.951 47.164 103.794 47.0066 103.684L43.8212 101.466V100.019L40.4708 100.22L40.0483 105.332Z" fill="#2F2E41"/>
<path d="M24.8959 97.4733L26.6998 98.5517L31.6842 92.05L29.0221 90.4583L24.8959 97.4733Z" fill="#FFB6B6"/>
<path d="M22.0904 100.055L23.384 100.828L24.3391 99.7352L24.2062 101.32L27.6371 103.372C27.8016 103.47 27.9929 103.513 28.1831 103.494C28.3734 103.475 28.5527 103.395 28.6947 103.266C28.8368 103.137 28.9342 102.965 28.9727 102.776C29.0113 102.588 28.989 102.391 28.9091 102.216L27.2915 98.6701L28.0237 97.4252L25.0399 95.8755L22.0904 100.055Z" fill="#2F2E41"/>
<path d="M41.3821 49.5208L43.1104 56.0712L33.4288 56.1996L34.7026 49.906L41.3821 49.5208Z" fill="#FFB6B6"/>
<path d="M43.1476 55.9883L45.2038 62.7501L46.1144 80.8327L43.7546 98.0979H41.1431L40.0732 81.1142L37.4415 69.4933L38.9823 81.6475L30.9119 93.5442H26.9462L34.2371 80.4345L29.9931 66.8256C29.9931 66.8256 30.4187 60.0956 33.1102 56.5207L33.7654 54.6123L43.1476 55.9883Z" fill="#2F2E41"/>
<path d="M43.2816 43.4878C43.276 43.429 43.2677 43.3673 43.2566 43.3084C43.0473 41.8951 42.2912 40.6228 41.1538 39.7702C40.0164 38.9176 38.5902 38.554 37.1876 38.7591C35.8703 38.9581 34.6702 39.6348 33.8125 40.6623V40.6651C33.768 40.7184 33.7263 40.7745 33.6846 40.8305C33.6096 40.9258 33.54 41.0267 33.4733 41.1276C32.8707 42.0456 32.5603 43.1272 32.5837 44.2278C32.5837 44.2278 33.0897 46.944 33.1953 47.6644C33.2676 48.1297 33.3232 48.5866 33.3649 49.0323C33.3899 49.2566 33.4094 49.478 33.4261 49.6938V49.6966C33.5095 50.7646 33.5373 51.7233 33.5623 52.4661C33.5734 52.8697 33.8514 54.0162 33.8681 54.0302C33.8852 54.0433 33.9038 54.0559 33.9235 54.068C34.0645 54.1508 34.2236 54.1972 34.3866 54.2033C34.5496 54.2093 34.7116 54.1748 34.8583 54.1027L36.1089 53.5144C36.9393 53.1249 37.8623 52.9811 38.7706 53.0999C40.257 53.2941 42.4219 53.5609 42.5201 53.4803C42.6369 53.3793 43.201 48.2895 43.3483 46.6889C43.3678 46.4591 43.3845 46.2208 43.3928 45.9657V45.9629C43.4172 45.1363 43.38 44.3089 43.2816 43.4878Z" fill="#3F3D56"/>
<path d="M50.473 44.4029C50.4169 44.5713 50.3248 44.7251 50.2033 44.8537C50.0818 44.9823 49.9338 45.0825 49.7698 45.1472C49.6057 45.2119 49.4296 45.2395 49.2538 45.2281C49.078 45.2168 48.9068 45.1667 48.7523 45.0814L45.5785 47.9795L45.2395 45.7622L48.3054 43.35C48.4647 43.0978 48.7102 42.9133 48.9955 42.8314C49.2807 42.7495 49.5859 42.7759 49.853 42.9057C50.1202 43.0355 50.3309 43.2596 50.4452 43.5355C50.5595 43.8115 50.5694 44.1201 50.473 44.4029Z" fill="#FFB8B8"/>
<path d="M38.6603 38.783C38.6603 38.783 41.7838 39.3711 40.0061 45.4844L40.6925 48.5146L43.913 46.6469L44.1081 45.8573L46.9277 43.8618L48.2609 46.285L46.6398 47.8468L46.1716 48.8217L45.3401 49.099L42.764 51.5808L41.6839 52.2464C41.6839 52.2464 40.3105 53.1044 39.0888 52.6396C38.7626 52.5164 38.4577 52.3424 38.1851 52.1239C37.6518 51.6952 37.1786 51.0399 36.8824 50.0493C35.7832 46.374 35.3705 43.8039 35.3705 43.8039L38.6603 38.783Z" fill="#3F3D56"/>
<path d="M50.2665 47.3812L48.3755 40.2088C48.3652 40.1697 48.3702 40.1281 48.3894 40.0926C48.4086 40.0571 48.4406 40.0304 48.4788 40.0179C48.5169 40.0055 48.5584 40.0083 48.5946 40.0257C48.6308 40.0432 48.659 40.074 48.6733 40.1118L51.2184 46.8152L50.2665 47.3812Z" fill="#3F3D56"/>
<path d="M51.8408 49.0071C51.5651 48.9491 51.2972 48.8586 51.0427 48.7372C50.9134 48.675 50.7884 48.6048 50.6662 48.5324C50.6226 48.5079 50.5793 48.4818 50.5367 48.4566C50.435 48.3967 50.3332 48.3368 50.2307 48.2759C50.1438 48.2253 50.0563 48.1738 49.9704 48.1224C49.8433 48.0478 49.7067 47.961 49.6699 47.8169C49.6587 47.7487 49.6626 47.6788 49.6814 47.6123C49.7002 47.5458 49.7334 47.4844 49.7786 47.4324C49.8716 47.3228 49.9792 47.2267 50.0982 47.1466C50.3651 46.949 50.6322 46.7516 50.8996 46.5545L50.9711 46.3965C51.1883 46.489 51.3878 46.619 51.5605 46.7808C51.6288 46.8507 51.6823 46.9338 51.7179 47.0252C51.7535 47.1165 51.7703 47.2142 51.7675 47.3122C51.765 47.3556 51.7579 47.3986 51.7464 47.4404C51.6948 47.6236 51.5596 47.7795 51.4793 47.9552C51.463 47.992 51.449 48.0297 51.4372 48.0683C51.4013 48.1814 51.3906 48.3012 51.4059 48.419C51.4212 48.5369 51.4621 48.6498 51.5256 48.7499C51.6049 48.8635 51.714 48.9526 51.8408 49.0071Z" fill="#CCCCCC"/>
<path d="M52.2362 49.0733C52.101 49.0834 51.9654 49.0607 51.8408 49.0071C51.9714 49.0358 52.1033 49.0579 52.2362 49.0733Z" fill="#E6E6E6"/>
<path d="M51.8408 49.0071C51.5651 48.9492 51.2973 48.8586 51.0427 48.7373C50.9134 48.675 50.7884 48.6048 50.6662 48.5324C50.6227 48.508 50.5793 48.4818 50.5368 48.4566C50.435 48.3967 50.3332 48.3368 50.2307 48.2759C50.2666 48.2274 50.3049 48.1808 50.3456 48.1364C50.7244 47.7208 51.2417 47.4864 51.7675 47.3123C51.765 47.3556 51.7579 47.3986 51.7464 47.4404C51.6948 47.6236 51.5596 47.7795 51.4793 47.9552C51.463 47.992 51.449 48.0298 51.4372 48.0683C51.4013 48.1815 51.3906 48.3012 51.4059 48.419C51.4212 48.5369 51.4621 48.6498 51.5257 48.7499C51.6049 48.8635 51.714 48.9526 51.8408 49.0071Z" fill="#6C63FF"/>
<path d="M114.84 105.358C114.84 105.377 114.836 105.395 114.829 105.412C114.822 105.43 114.812 105.445 114.799 105.458C114.786 105.472 114.77 105.482 114.753 105.489C114.736 105.496 114.718 105.5 114.699 105.5H12.7942C12.7569 105.5 12.7211 105.485 12.6948 105.458C12.6684 105.432 12.6536 105.396 12.6536 105.358C12.6536 105.32 12.6684 105.284 12.6948 105.258C12.7211 105.231 12.7569 105.216 12.7942 105.216H114.699C114.718 105.216 114.736 105.22 114.753 105.227C114.77 105.234 114.786 105.245 114.799 105.258C114.812 105.271 114.822 105.287 114.829 105.304C114.836 105.321 114.84 105.339 114.84 105.358Z" fill="#CCCCCC"/>
<path d="M40.8463 35.7251C41.9307 33.725 41.2017 31.2172 39.2179 30.1238C37.2342 29.0304 34.7469 29.7655 33.6625 31.7656C32.5781 33.7658 33.3071 36.2736 35.2909 37.3669C37.2746 38.4603 39.7619 37.7252 40.8463 35.7251Z" fill="#FFB6B6"/>
<path d="M34.7578 30.3777V30.3806C34.7582 30.5602 34.7355 30.739 34.6902 30.9127C34.683 30.9431 34.6744 30.975 34.6643 31.0055V31.0069C34.5678 31.3171 34.4014 31.6005 34.1781 31.8349C33.9549 32.0694 33.6807 32.2485 33.3773 32.3582C33.3327 32.3756 33.2867 32.3901 33.2407 32.4032C33.1437 32.4315 33.0447 32.4519 32.9445 32.464C32.8544 32.4769 32.7636 32.4832 32.6727 32.4829C32.6016 32.4832 32.5306 32.4798 32.4599 32.4727C32.2944 32.4559 32.1316 32.4184 31.9753 32.3611C31.9508 32.3539 31.9268 32.3452 31.9034 32.335C31.8916 32.3308 31.8801 32.326 31.8688 32.3205C31.608 32.2104 31.372 32.048 31.1753 31.8432C30.9786 31.6383 30.8252 31.3953 30.7245 31.1289C30.6237 30.8624 30.5778 30.5781 30.5893 30.2932C30.6009 30.0083 30.6698 29.7288 30.7918 29.4715L30.7932 29.4701C30.8954 29.2543 31.0341 29.058 31.2031 28.8901C31.5798 28.5117 31.7458 27.5634 32.3181 27.5634C32.3455 27.5629 32.3729 27.5638 32.4001 27.5662C32.7841 27.5793 33.4938 28.4146 33.7958 28.6117C34.02 28.7546 34.2144 28.9403 34.3681 29.1584C34.5285 29.3827 34.6429 29.637 34.7046 29.9065C34.7398 30.061 34.7577 30.2191 34.7578 30.3777Z" fill="#2F2E41"/>
<path d="M32.2101 29.6457C31.8863 30.0258 31.3793 30.1736 30.922 30.3714C30.1148 30.7284 29.4062 31.2785 28.8576 31.9741C28.309 32.6697 27.9369 33.4897 27.7737 34.3631C27.6472 35.0744 27.6638 35.8108 27.464 36.5043C27.2655 37.1977 26.7739 37.8781 26.0683 37.9985C25.5909 38.0807 25.1123 37.8948 24.6632 37.7113C24.4162 37.6112 24.1692 37.5107 23.9222 37.4098C24.1798 36.7581 24.4371 36.1063 24.6939 35.4545C24.2811 36.0696 23.8011 36.636 23.2628 37.1429C22.3776 36.7831 21.4917 36.4232 20.6049 36.0634C22.7865 36.0717 22.4142 33.9365 22.9023 31.7941C23.1706 30.6168 25.455 29.8197 25.9029 28.6996C26.1449 28.0921 26.5545 27.5672 27.0832 27.1871C27.6118 26.8069 28.2374 26.5875 28.8859 26.5546C29.5344 26.5218 30.1787 26.6769 30.7425 27.0017C31.3063 27.3266 31.7659 27.8074 32.0671 28.3874C32.515 28.5674 32.528 29.2704 32.2101 29.6457Z" fill="#2F2E41"/>
<path d="M40.9597 29.6165C40.5603 29.0862 39.5541 29.0656 39.3522 29.6996L38.928 29.1194C38.3774 27.9066 36.925 28.1534 35.6117 28.3134C34.2984 28.4733 33.1411 29.4064 32.5535 30.6014C31.966 31.7964 31.9127 33.2157 32.2511 34.5051C32.4788 35.3726 32.8968 36.2191 33.5904 36.7815C34.284 37.3438 37.5445 38.6739 37.8159 37.5286C37.4766 39.0228 38.1592 38.7889 39.1697 39.9341C39.693 38.349 39.9384 35.3624 40.4617 33.7772C40.5405 33.5386 40.6193 33.3 40.698 33.0614C40.8641 32.5585 41.0304 32.0547 41.1504 31.5386C41.3011 30.8903 41.3591 30.1468 40.9597 29.6165Z" fill="#2F2E41"/>
<path d="M38.2689 34.1668L38.0939 33.0437C38.2128 31.6468 38.0187 29.4249 38.9279 29.1194L39.4839 29.68C39.1322 29.7983 38.4632 31.8871 38.2689 34.1668Z" fill="#FF6584"/>
<path d="M39.5656 28.2194C39.5656 29.0749 39.2746 29.7684 38.9156 29.7684C38.5566 29.7684 38.2656 29.0749 38.2656 28.2194C38.2656 27.3639 38.9156 26.6704 38.9156 26.6704C38.9156 26.6704 39.5656 27.3639 39.5656 28.2194Z" fill="#FF6584"/>
<path d="M40.1017 28.602C39.7608 29.3854 39.2179 29.9025 38.8892 29.7571C38.5605 29.6117 38.5704 28.8587 38.9113 28.0753C39.2523 27.2919 40.1239 26.9202 40.1239 26.9202C40.1239 26.9202 40.4427 27.8186 40.1017 28.602Z" fill="#FF6584"/>
</g>
<defs>
<clipPath id="clip0_2652_43310">
<rect width="105" height="83" fill="white" transform="translate(11 22.5)"/>
</clipPath>
</defs>
</svg>
