<svg width="208" height="200" viewBox="0 0 314 301" fill="none" xmlns="http://www.w3.org/2000/svg">
<g clip-path="url(#clip0_1205_32221)">
<path d="M282.771 291.609C283.96 291.683 284.617 290.208 283.718 289.348L283.628 288.992C283.64 288.964 283.652 288.935 283.664 288.907C284.866 286.042 288.941 286.062 290.134 288.931C291.192 291.477 292.539 294.027 292.871 296.719C293.02 297.908 292.953 299.118 292.689 300.284C295.168 294.874 296.473 288.965 296.473 283.023C296.473 281.53 296.391 280.037 296.224 278.548C296.086 277.33 295.897 276.12 295.652 274.92C294.324 268.436 291.451 262.26 287.306 257.102C285.313 256.014 283.652 254.313 282.648 252.274C282.287 251.539 282.005 250.748 281.871 249.942C282.098 249.971 282.726 246.521 282.555 246.31C282.871 245.831 283.437 245.593 283.782 245.125C285.498 242.8 287.863 243.206 289.098 246.365C291.735 247.695 291.761 249.9 290.142 252.021C289.113 253.371 288.971 255.197 288.068 256.641C288.161 256.76 288.258 256.875 288.351 256.994C290.055 259.178 291.529 261.525 292.771 263.991C292.42 261.25 292.939 257.949 293.823 255.82C294.829 253.396 296.715 251.353 298.375 249.257C300.37 246.739 304.461 247.838 304.812 251.03C304.816 251.061 304.819 251.092 304.822 251.123C304.576 251.262 304.334 251.409 304.098 251.565C302.751 252.455 303.217 254.54 304.812 254.786L304.848 254.792C304.759 255.679 304.607 256.559 304.384 257.425C306.514 265.656 301.915 268.654 295.347 268.789C295.202 268.863 295.06 268.937 294.915 269.008C295.581 270.879 296.113 272.799 296.507 274.745C296.86 276.465 297.105 278.203 297.243 279.948C297.414 282.15 297.399 284.364 297.213 286.562L297.224 286.484C297.696 284.063 299.012 281.801 300.923 280.234C303.769 277.898 307.791 277.038 310.862 275.161C312.34 274.257 314.234 275.425 313.976 277.137L313.963 277.219C313.506 277.404 313.06 277.62 312.629 277.861C312.382 278 312.141 278.148 311.905 278.304C310.558 279.194 311.023 281.279 312.619 281.525L312.655 281.53C312.681 281.534 312.703 281.538 312.729 281.542C311.945 283.402 310.852 285.129 309.484 286.618C308.152 293.804 302.43 294.485 296.31 292.393H296.306C295.637 295.304 294.659 298.149 293.402 300.86H283.031C282.994 300.745 282.96 300.626 282.927 300.511C283.886 300.57 284.852 300.515 285.797 300.34C285.027 299.397 284.258 298.446 283.488 297.503C283.47 297.484 283.455 297.466 283.44 297.447C283.05 296.964 282.655 296.485 282.265 296.003L282.265 296.002C282.241 294.52 282.419 293.043 282.771 291.609Z" fill="#F2F2F2"/>
<path d="M91.9453 300.316C91.9453 300.696 92.2504 301.001 92.6302 301.001H313.234C313.613 301.001 313.918 300.696 313.918 300.316C313.918 299.937 313.613 299.632 313.234 299.632H92.6303C92.2504 299.632 91.9453 299.937 91.9453 300.316Z" fill="#CCCCCC"/>
<path d="M125.422 300.709H23.88C11.4988 300.709 1.42578 290.646 1.42578 278.277V60.2753C1.42578 47.9065 11.4988 37.8436 23.88 37.8436H125.422C137.803 37.8436 147.876 47.9065 147.876 60.2753V278.277C147.876 290.646 137.803 300.709 125.422 300.709Z" fill="#3F3D56"/>
<path d="M147.872 118.032C147.348 118.032 146.922 118.457 146.922 118.981V149.348C146.922 149.871 147.348 150.297 147.872 150.297C148.396 150.297 148.822 149.871 148.822 149.348V118.981C148.822 118.457 148.396 118.032 147.872 118.032Z" fill="#3F3D56"/>
<path d="M145.738 60.2764V278.274C145.738 289.04 137.35 297.846 126.744 298.53H126.739C126.582 298.539 126.426 298.549 126.264 298.553C125.984 298.568 125.704 298.572 125.419 298.572C125.419 298.572 124.374 298.497 122.465 298.354C120.536 298.212 117.729 297.998 114.229 297.718C113.179 297.638 112.072 297.548 110.904 297.453C108.577 297.263 106.021 297.054 103.281 296.817C102.188 296.727 101.058 296.627 99.9039 296.527C94.0049 296.02 87.3982 295.427 80.4305 294.753C79.2526 294.644 78.0652 294.53 76.8683 294.411C76.5548 294.378 76.2366 294.35 75.9184 294.316C70.9503 293.828 3.5625 280.817 3.5625 278.274V60.2764C3.5625 49.0643 12.658 39.9779 23.8813 39.9779H36.0118C37.9497 39.9779 39.5075 41.4868 39.6738 43.4179C39.688 43.546 39.7023 43.6741 39.726 43.8023C40.0775 45.7429 41.8586 47.0952 43.8344 47.0952H105.466C107.442 47.0952 109.223 45.7429 109.574 43.8023C109.598 43.6741 109.612 43.546 109.626 43.4179C109.793 41.4868 111.35 39.9779 113.288 39.9779H125.419C136.642 39.9779 145.738 49.0643 145.738 60.2764Z" fill="white"/>
<path d="M0.94992 95.2572C0.426024 95.2572 0 95.6828 0 96.2062V103.798C0 104.321 0.426029 104.747 0.94992 104.747C1.47381 104.747 1.89984 104.321 1.89984 103.798V96.2062C1.89984 95.6828 1.47381 95.2572 0.94992 95.2572Z" fill="#3F3D56"/>
<path d="M0.94992 118.032C0.426024 118.032 0 118.457 0 118.981V133.69C0 134.213 0.426029 134.639 0.94992 134.639C1.47381 134.639 1.89984 134.213 1.89984 133.69V118.981C1.89984 118.457 1.47381 118.032 0.94992 118.032Z" fill="#3F3D56"/>
<path d="M0.94992 138.909C0.426024 138.909 0 139.335 0 139.858V154.567C0 155.091 0.426029 155.516 0.94992 155.516C1.47381 155.516 1.89984 155.091 1.89984 154.567V139.858C1.89984 139.335 1.47381 138.909 0.94992 138.909Z" fill="#3F3D56"/>
<path d="M35.6809 43.3004H17.5145C17.4159 43.3004 17.3359 43.3803 17.3359 43.4788V45.4945C17.3359 45.593 17.4159 45.6728 17.5145 45.6728H35.6809C35.7795 45.6728 35.8594 45.593 35.8594 45.4945V43.4788C35.8594 43.3803 35.7795 43.3004 35.6809 43.3004Z" fill="#E6E6E6"/>
<path d="M116.29 45.6719C117.34 45.6719 118.19 44.8221 118.19 43.7739C118.19 42.7257 117.34 41.876 116.29 41.876C115.241 41.876 114.391 42.7257 114.391 43.7739C114.391 44.8221 115.241 45.6719 116.29 45.6719Z" fill="#E6E6E6"/>
<path d="M121.513 45.6719C122.562 45.6719 123.413 44.8221 123.413 43.7739C123.413 42.7257 122.562 41.876 121.513 41.876C120.464 41.876 119.613 42.7257 119.613 43.7739C119.613 44.8221 120.464 45.6719 121.513 45.6719Z" fill="#E6E6E6"/>
<path d="M126.74 45.6719C127.789 45.6719 128.64 44.8221 128.64 43.7739C128.64 42.7257 127.789 41.876 126.74 41.876C125.69 41.876 124.84 42.7257 124.84 43.7739C124.84 44.8221 125.69 45.6719 126.74 45.6719Z" fill="#E6E6E6"/>
<path d="M114.7 171.639H34.1225C32.8531 171.639 31.8203 170.607 31.8203 169.339C31.8203 168.071 32.8531 167.039 34.1225 167.039H114.7C115.969 167.039 117.002 168.071 117.002 169.339C117.002 170.607 115.969 171.639 114.7 171.639Z" fill="#E6E6E6"/>
<path d="M74.7023 260.76C93.1387 260.76 108.084 245.829 108.084 227.412C108.084 208.994 93.1387 194.063 74.7023 194.063C56.2659 194.063 41.3203 208.994 41.3203 227.412C41.3203 245.829 56.2659 260.76 74.7023 260.76Z" fill="#3763e9"/>
<path d="M80.0058 216.523C77.1886 216.638 74.0036 216.832 71.9213 218.991C70.1123 220.867 69.7159 223.651 71.5504 225.655C73.3897 227.663 76.2495 227.935 78.3697 229.501C80.8593 231.341 80.4946 234.98 78.0854 236.724C75.2445 238.78 71.5764 237.821 68.9792 235.865C68.3137 235.364 67.6676 236.487 68.3256 236.982C70.6526 238.735 73.689 239.711 76.5661 238.872C79.1627 238.115 81.1754 236 81.3802 233.249C81.4779 231.936 81.1042 230.603 80.2869 229.566C79.4241 228.472 78.1815 227.799 76.9253 227.251C74.7627 226.308 71.0392 225.087 71.6679 222.016C72.43 218.294 76.9652 217.941 80.0058 217.816C80.8362 217.782 80.8405 216.488 80.0058 216.523Z" fill="white"/>
<path d="M74.7804 214.763L74.6563 243.163C74.6526 243.995 75.9476 243.996 75.9512 243.163L76.0754 214.763C76.0791 213.93 74.7841 213.929 74.7804 214.763Z" fill="white"/>
<path d="M251.567 0H86.9822C80.9446 0 76.0352 4.90452 76.0352 10.936V123.608C76.0352 129.64 80.9446 134.544 86.9822 134.544H251.567C257.605 134.544 262.514 129.64 262.514 123.608V10.936C262.514 4.90452 257.605 0 251.567 0Z" fill="white"/>
<path d="M168.515 66.9931C178.687 66.9931 186.933 58.7555 186.933 48.5939C186.933 38.4323 178.687 30.1947 168.515 30.1947C158.344 30.1947 150.098 38.4323 150.098 48.5939C150.098 58.7555 158.344 66.9931 168.515 66.9931Z" fill="#3763e9"/>
<path d="M172.007 40.384C169.728 40.4779 167.161 40.6223 165.437 42.3172C164.008 43.7211 163.509 45.9068 164.821 47.5598C166.203 49.3003 168.502 49.6305 170.306 50.7428C171.427 51.434 172.17 52.4813 172.194 53.8271C172.217 55.0871 171.635 56.2643 170.662 57.054C168.274 58.9915 165.019 58.1894 162.76 56.495C162.316 56.1616 161.885 56.91 162.324 57.2397C164.195 58.643 166.603 59.4581 168.931 58.8543C171.074 58.2985 172.799 56.6147 173.032 54.3648C173.276 51.9935 171.718 50.3788 169.697 49.4525C167.849 48.6058 164.609 47.7036 164.915 45.0732C165.303 41.7288 169.401 41.3538 172.007 41.2465C172.561 41.2237 172.564 40.3611 172.007 40.384Z" fill="white"/>
<path d="M168.049 38.8191L167.945 62.4841C167.943 63.0391 168.806 63.0398 168.809 62.4841L168.912 38.8191C168.915 38.2641 168.051 38.2634 168.049 38.8191Z" fill="white"/>
<path d="M251.567 0H86.9822C80.9446 0 76.0352 4.90452 76.0352 10.936V123.608C76.0352 129.64 80.9446 134.544 86.9822 134.544H251.567C257.605 134.544 262.514 129.64 262.514 123.608V10.936C262.514 4.90452 257.605 0 251.567 0ZM261.363 123.608C261.363 129.007 256.971 133.394 251.567 133.394H86.9822C81.5777 133.394 77.1863 129.007 77.1863 123.608V10.936C77.1863 5.53702 81.5777 1.14995 86.9822 1.14995H251.567C256.971 1.14995 261.363 5.53701 261.363 10.936V123.608Z" fill="#3F3D56"/>
<path d="M150.299 11.1248H134.149C133.338 11.1248 132.676 11.786 132.676 12.5967C132.676 13.4131 133.338 14.0744 134.149 14.0744H150.299C151.111 14.0744 151.773 13.4132 151.773 12.5967C151.773 11.786 151.111 11.1248 150.299 11.1248Z" fill="#E6E6E6"/>
<path d="M177.35 11.1248H161.2C160.388 11.1248 159.727 11.786 159.727 12.5967C159.727 13.4131 160.388 14.0744 161.2 14.0744H177.35C178.162 14.0744 178.823 13.4132 178.823 12.5967C178.823 11.786 178.162 11.1248 177.35 11.1248Z" fill="#E6E6E6"/>
<path d="M204.401 11.1248H188.251C187.439 11.1248 186.777 11.786 186.777 12.5967C186.777 13.4131 187.439 14.0744 188.251 14.0744H204.401C205.212 14.0744 205.874 13.4132 205.874 12.5967C205.874 11.786 205.212 11.1248 204.401 11.1248Z" fill="#E6E6E6"/>
<path d="M231.035 77.3428H107.51C102.37 77.3428 98.1914 81.5171 98.1914 86.6516V95.0578C98.1914 100.192 102.37 104.367 107.51 104.367H231.035C236.174 104.367 240.353 100.192 240.353 95.0578V86.6516C240.353 81.5171 236.174 77.3428 231.035 77.3428Z" fill="#3763e9"/>
<path d="M42.1196 121.603L37.3828 119.361C39.3256 122.07 40.9997 126.3 41.8959 129.666C43.4134 126.531 45.8596 122.694 48.281 120.402L43.2747 121.689C46.3595 106.585 57.9623 95.7426 71.2491 95.7426V94.5927C57.3707 94.5927 45.2692 105.89 42.1196 121.603Z" fill="#3F3D56"/>
<path d="M63.9223 144.616H33.9936C32.7242 144.616 31.6914 143.584 31.6914 142.316C31.6914 141.048 32.7242 140.016 33.9936 140.016H63.9223C65.1917 140.016 66.2245 141.048 66.2245 142.316C66.2245 143.584 65.1917 144.616 63.9223 144.616Z" fill="#E6E6E6"/>
<path d="M263.017 137.125L262.715 160.607L256.867 181.539L252.191 179.797L254.267 160.61L253.994 134.646L263.017 137.125Z" fill="#FFB6B6"/>
<path d="M256.847 184.915C257.395 181.906 256.39 179.202 254.601 178.876C252.812 178.551 250.917 180.727 250.368 183.737C249.82 186.747 250.825 189.451 252.614 189.776C254.403 190.102 256.298 187.925 256.847 184.915Z" fill="#FFB6B6"/>
<path d="M255.921 109.167C255.921 109.167 265.939 109.305 265.931 114.621C265.926 117.623 265.281 144.878 263.485 161.436C262.1 174.204 259.456 177.535 259.456 177.535L253.125 163.161L255.921 109.167Z" fill="#E6E6E6"/>
<path d="M255.66 157.141H221.824C224.66 150.819 226.404 144.798 223.678 140.009L255.66 138.157C254.061 144.622 253.866 150.967 255.66 157.141Z" fill="#FFB6B6"/>
<path d="M251.489 101.114L238.047 100.188L232.485 107.133L229.665 107.645C225.439 108.413 222.429 112.181 222.618 116.469L223.715 141.372L255.842 143.713L263.54 111.283L254.27 107.596L251.489 101.114Z" fill="#E6E6E6"/>
<path d="M169.519 108.628C170.473 109.485 171.154 110.486 171.513 111.457L181.114 119.048L177.365 123.506L168.029 115.326C167.025 115.071 165.956 114.5 165.003 113.643C162.824 111.685 162.069 108.975 163.316 107.59C164.563 106.205 167.341 106.67 169.519 108.628Z" fill="#FFB6B6"/>
<path d="M237.399 115.018L200.612 139.834L174.242 121.501L178.201 114.337L198.956 126.387L218.096 111.705C224.911 105.309 233.453 106.549 237.399 115.018Z" fill="#E6E6E6"/>
<path d="M243.972 98.1084C249.479 98.1084 253.944 93.6483 253.944 88.1465C253.944 82.6446 249.479 78.1844 243.972 78.1844C238.465 78.1844 234 82.6446 234 88.1465C234 93.6483 238.465 98.1084 243.972 98.1084Z" fill="#FFB6B6"/>
<path d="M257.525 85.6989V87.6309L246.279 84.4685L237.847 86.2337C237.749 84.9515 237.369 83.6923 236.736 82.5768C237.176 84.3659 237.226 85.75 236.759 86.4637L235.625 86.6994C235.441 86.1992 235.084 85.7622 234.618 85.4977C234.572 85.469 234.514 85.4459 234.462 85.4632C234.382 85.492 234.376 85.5954 234.376 85.6759C234.388 86.1014 234.399 86.5269 234.416 86.9524L231.159 87.6309V85.6989C228.034 78.674 236.271 72.5951 244.345 72.532C247.988 72.5036 251.28 74.004 253.669 76.3843C256.051 78.7705 257.525 82.0594 257.525 85.6989Z" fill="#2F2E41"/>
<path d="M263.854 108.352L263.005 108.282C263.066 108.004 263.126 107.73 263.181 107.453C263.652 105.125 262.616 102.161 262.54 99.9235C262.14 102.287 262.824 105.195 262.116 107.439C262.037 107.688 258.964 109.297 258.88 109.543C255.479 108.301 251.937 104.331 247.927 106.649C245.555 108.021 242.848 107.42 240.155 106.792C239.488 106.636 239.396 103.348 238.736 103.219C237.554 102.987 235.819 105.977 234.707 106.093L239.311 88.2691C239.311 78.5728 238.412 68.3995 250.707 71.8281C253.8 72.6904 256.86 73.3663 259.143 75.916C261.425 78.4692 263.05 82.0373 263.626 86.1006C263.973 88.5519 266.139 96.8751 263.854 108.352Z" fill="#2F2E41"/>
<path d="M255.912 287.593L250.423 287.722L247.363 263.088L255.463 262.896L255.912 287.593Z" fill="#FFB7B7"/>
<path d="M237.082 299.032C237.082 299.959 237.74 300.71 238.552 300.71H249.447C249.447 300.71 250.519 296.404 254.89 294.551L255.192 300.71H260.812L260.131 290.807C260.131 290.807 261.634 285.51 258.512 282.802C255.39 280.094 257.919 280.471 257.919 280.471L256.69 274.342L248.198 275.34L248.135 284.96L244.014 294.51L237.968 297.493C237.43 297.758 237.082 298.363 237.082 299.032Z" fill="#2F2E41"/>
<path d="M239.216 283.577L233.939 285.093L224.723 262.041L232.509 259.802L239.216 283.577Z" fill="#FFB7B7"/>
<path d="M223.906 299.416C224.142 300.312 224.969 300.871 225.754 300.665L236.292 297.904C236.292 297.904 236.235 293.467 239.993 290.567L241.849 296.447L247.285 295.022L244.111 285.617C244.111 285.617 244.22 280.112 240.512 278.284C236.804 276.456 239.346 276.179 239.346 276.179L236.601 270.563L228.64 273.681L231.023 283.002L229.462 293.284L224.373 297.702C223.92 298.095 223.736 298.769 223.906 299.416Z" fill="#2F2E41"/>
<path d="M252.549 155.685L256.003 156.835C261.402 166.797 263.691 180.026 263.388 195.979L257.254 267.627H247.218L239.874 187.808L226.924 217.767L236.399 267.627L226.924 268.592L207.84 216.746L221.13 156.487L252.549 155.685Z" fill="#2F2E41"/>
</g>
<defs>
<clipPath id="clip0_1205_32221">
<rect width="314" height="301" fill="white"/>
</clipPath>
</defs>
</svg>
