<svg width="180" height="200" viewBox="0 0 300 325" fill="none" xmlns="http://www.w3.org/2000/svg">
<g clip-path="url(#clip0_1205_32270)">
<path d="M129.812 104.142C129.587 101.889 128.856 99.7172 127.673 97.7889C126.49 95.8606 124.886 94.2263 122.982 93.0091C121.078 91.7919 118.923 91.0234 116.681 90.7615C114.438 90.4996 112.165 90.7511 110.033 91.497L111.115 91.6078C106.26 92.5815 101.945 95.3449 99.0233 99.3524C97.5959 101.356 96.6148 103.643 96.1465 106.06C95.6782 108.477 95.7335 110.966 96.3088 113.359C97.5358 118.113 101.158 122.236 105.794 123.819C108.372 124.698 111.139 124.806 113.861 124.899C115.628 124.959 117.427 125.013 119.13 124.538C121.321 123.858 123.247 122.512 124.642 120.686C126.024 118.867 127.123 116.849 127.902 114.701C129.223 111.341 130.171 107.736 129.812 104.142Z" fill="#2F2E41"/>
<path d="M168.305 323.137C164.455 308.623 173.003 294.476 182.992 284.683C188.315 279.464 194.243 274.927 200.024 270.24C205.571 265.793 210.854 261.023 215.844 255.956C225.482 246.067 233.888 234.765 239.456 222.061C244.75 209.981 247.252 196.821 246.012 183.639C244.837 171.138 240.367 158.84 232.145 149.249C231.121 148.053 230.043 146.908 228.912 145.812C228.305 145.221 227.376 146.151 227.984 146.743C237.165 155.68 242.509 167.793 244.317 180.394C246.183 193.389 244.261 206.637 239.414 218.787C234.251 231.729 226.04 243.278 216.518 253.356C211.723 258.399 206.622 263.141 201.244 267.554C195.5 272.297 189.532 276.778 184.063 281.847C173.984 291.189 164.925 304.04 166.17 318.505C166.315 320.188 166.605 321.854 167.039 323.487C167.09 323.65 167.202 323.786 167.351 323.868C167.501 323.95 167.676 323.97 167.84 323.925C168.004 323.879 168.145 323.772 168.231 323.625C168.318 323.478 168.344 323.303 168.305 323.137Z" fill="#004438" fill-opacity="0.05"/>
<path d="M208.617 240.51C202.551 230.084 197.912 218.888 194.825 207.222C191.727 195.559 190.178 183.537 190.217 171.468C190.261 159.399 191.723 147.028 195.455 135.519C198.997 124.596 205.343 114.18 215.418 108.219C220.556 105.198 226.421 103.645 232.377 103.729C238.668 103.789 244.873 105.449 250.541 108.137C256.092 110.77 261.169 114.318 265.858 118.273C270.329 122.037 274.501 126.145 278.337 130.558C285.937 139.32 292.146 149.465 295.614 160.589C299.228 172.181 299.862 184.862 296.507 196.594C293.286 207.863 286.228 217.469 277.564 225.184C268.2 233.522 257.108 239.582 245.924 245.081C243.124 246.458 240.31 247.803 237.495 249.148C236.733 249.512 237.398 250.647 238.158 250.284C249.951 244.649 261.862 238.965 272.375 231.097C281.651 224.155 289.92 215.441 294.839 204.825C300.041 193.6 301.107 180.836 298.951 168.724C296.844 156.888 291.557 145.809 284.483 136.161C280.967 131.388 277.06 126.917 272.802 122.796C268.433 118.471 263.663 114.574 258.557 111.156C248.09 104.297 235 100.155 222.595 103.688C211.566 106.829 203.079 115.688 198.028 125.728C195.201 131.347 193.296 137.39 191.941 143.522C190.618 149.566 189.729 155.696 189.28 161.866C187.477 186.488 192.291 211.145 203.219 233.268C204.551 235.951 205.972 238.587 207.483 241.174C207.574 241.318 207.717 241.422 207.883 241.462C208.048 241.503 208.223 241.477 208.37 241.391C208.517 241.305 208.625 241.165 208.671 241C208.717 240.836 208.698 240.66 208.617 240.51Z" fill="#004438" fill-opacity="0.05"/>
<path d="M200.3 227.786C194.235 217.361 189.596 206.164 186.508 194.498C183.411 182.835 181.862 170.814 181.901 158.744C181.945 146.676 183.407 134.305 187.138 122.796C190.68 111.873 197.026 101.456 207.101 95.4959C212.239 92.4743 218.105 90.9213 224.061 91.0057C230.352 91.0654 236.556 92.7256 242.225 95.4137C247.776 98.0464 252.852 101.594 257.542 105.55C262.013 109.314 266.185 113.422 270.021 117.835C277.621 126.597 283.83 136.742 287.298 147.866C290.912 159.458 291.545 172.138 288.191 183.871C284.969 195.14 277.912 204.745 269.247 212.461C259.884 220.799 248.792 226.859 237.607 232.358C234.808 233.735 231.993 235.08 229.179 236.425C228.416 236.789 229.082 237.924 229.841 237.561C241.635 231.926 253.545 226.242 264.059 218.374C273.335 211.432 281.603 202.717 286.523 192.102C291.725 180.876 292.791 168.113 290.634 156.001C288.527 144.164 283.241 133.086 276.166 123.438C272.651 118.664 268.743 114.194 264.486 110.073C260.117 105.748 255.347 101.85 250.241 98.4331C239.773 91.5737 226.683 87.4315 214.278 90.9648C203.25 94.1059 194.762 102.965 189.712 113.004C186.885 118.624 184.98 124.667 183.624 130.799C182.302 136.842 181.413 142.973 180.963 149.143C179.161 173.765 183.975 198.421 194.903 220.545C196.234 223.228 197.655 225.863 199.167 228.451C199.258 228.595 199.401 228.698 199.566 228.739C199.732 228.779 199.907 228.754 200.054 228.668C200.201 228.582 200.309 228.442 200.355 228.277C200.401 228.113 200.381 227.937 200.3 227.786Z" fill="#004438" fill-opacity="0.05"/>
<path d="M80.7825 203.12C80.3194 202.465 80.0051 201.716 79.8618 200.927C79.7186 200.137 79.7497 199.325 79.9532 198.549C80.1566 197.773 80.5273 197.05 81.0393 196.433C81.5512 195.816 82.1919 195.319 82.9162 194.977L98.0914 147.34L108.66 152.844L90.4201 197.939C90.9126 199.197 90.9277 200.592 90.4626 201.861C89.9975 203.129 89.0845 204.182 87.8965 204.821C86.7085 205.46 85.3282 205.639 84.017 205.326C82.7059 205.012 81.555 204.227 80.7825 203.12Z" fill="#FFB6B6"/>
<path d="M93.1823 153.927C93.0371 153.605 92.9629 153.255 92.9649 152.901C92.9669 152.547 93.045 152.198 93.1939 151.877L98.3915 140.674C98.9044 138.939 100.083 137.478 101.668 136.612C103.253 135.746 105.116 135.546 106.848 136.055C108.581 136.564 110.041 137.741 110.909 139.328C111.778 140.915 111.983 142.782 111.48 144.52L109.743 156.793C109.693 157.143 109.569 157.479 109.378 157.776C109.188 158.074 108.935 158.327 108.639 158.518C108.342 158.71 108.007 158.834 107.658 158.884C107.308 158.934 106.952 158.908 106.614 158.807L94.7231 155.275C94.3846 155.175 94.0718 155.003 93.8059 154.77C93.54 154.537 93.3273 154.25 93.1823 153.927Z" fill="#2F2E41"/>
<path d="M137.021 155.818C133.409 165.299 134.332 175.243 138.78 185.548H107.271C108.537 178.216 108.023 171.402 103.332 165.805L137.021 155.818Z" fill="#FFB6B6"/>
<path d="M100.145 138.395L109.47 131.596L124.729 127.346L137.446 129.896L138.193 136.941C139.102 145.51 138.707 154.168 137.022 162.618L103.96 170.267L100.569 164.317C100.569 164.317 92.9388 156.668 98.873 148.169L100.145 138.395Z" fill="#2F2E41"/>
<path d="M181.138 90.8361C181.346 91.6111 181.382 92.4226 181.244 93.2131C181.105 94.0037 180.796 94.7542 180.337 95.4118C179.878 96.0694 179.28 96.618 178.587 97.0192C177.893 97.4203 177.12 97.6641 176.323 97.7333L145.625 137.149L137.613 128.315L170.307 92.3483C170.28 90.9972 170.748 89.683 171.623 88.6547C172.497 87.6264 173.718 86.9555 175.053 86.7691C176.388 86.5827 177.745 86.8937 178.866 87.6433C179.988 88.3929 180.796 89.5289 181.138 90.8361Z" fill="#FFB6B6"/>
<path d="M152.511 132.675C152.536 133.028 152.484 133.382 152.36 133.713C152.236 134.045 152.042 134.345 151.792 134.594L143.044 143.298C141.964 144.748 140.354 145.71 138.567 145.971C136.781 146.233 134.964 145.774 133.515 144.695C132.065 143.615 131.102 142.004 130.836 140.214C130.57 138.423 131.023 136.6 132.096 135.144L137.966 124.235C138.134 123.923 138.367 123.652 138.648 123.439C138.93 123.226 139.254 123.076 139.599 123C139.943 122.924 140.3 122.923 140.645 122.997C140.99 123.072 141.315 123.22 141.598 123.432L151.532 130.876C151.814 131.087 152.048 131.358 152.217 131.668C152.386 131.979 152.487 132.322 152.511 132.675Z" fill="#2F2E41"/>
<path d="M100.188 314.509H105.017L107.314 295.838H100.188L100.188 314.509Z" fill="#FFB6B6"/>
<path d="M98.5523 312.121L106.185 311.664V314.943L113.442 319.967C113.8 320.216 114.07 320.572 114.212 320.985C114.354 321.398 114.361 321.845 114.231 322.262C114.102 322.679 113.843 323.044 113.492 323.302C113.141 323.561 112.717 323.701 112.281 323.701H103.194L101.628 320.458L101.016 323.701H97.5898L98.5523 312.121Z" fill="#2F2E41"/>
<path d="M134.321 314.509H139.15L141.447 295.838H134.32L134.321 314.509Z" fill="#FFB6B6"/>
<path d="M132.685 312.121L140.318 311.664V314.943L147.575 319.967C147.933 320.216 148.203 320.572 148.345 320.985C148.487 321.398 148.494 321.845 148.364 322.262C148.235 322.679 147.975 323.044 147.625 323.302C147.274 323.561 146.849 323.701 146.414 323.701H137.327L135.76 320.458L135.149 323.701H131.723L132.685 312.121Z" fill="#2F2E41"/>
<path d="M147.149 209.894V219.415L146.222 231.046C146.222 231.046 145.928 241.203 145.574 249.215C145.36 254.085 145.119 258.161 144.909 258.687C144.651 259.332 144.712 261.092 144.861 262.939C145.036 265.075 145.325 267.331 145.373 268.085C145.465 269.494 144.721 275.544 144.721 275.544C144.721 275.544 143.889 290.716 142.681 291.927C141.473 293.138 142.681 296.582 142.681 296.582C137.018 300.767 129.867 295.652 129.867 295.652C131.447 293.129 128.94 275.908 128.94 275.908C128.94 275.908 128.572 270.029 127.828 268.449C127.084 266.87 126.896 257.002 126.896 257.002V242.388C126.896 242.388 124.944 239.396 124.669 238C124.393 236.605 124.669 231.674 124.669 231.674L122.629 224.785L121.233 230.182C121.233 230.182 117.618 245.262 116.966 247.122C116.314 248.982 117.334 250.847 117.334 250.847C117.334 250.847 118.266 253.716 117.334 255.032C116.755 255.857 116.312 256.77 116.021 257.735C116.021 257.735 115.544 263.228 114.708 265.194C113.872 267.159 113.133 269.581 113.133 269.581C113.133 269.581 113.33 273.293 112.494 274.131C111.658 274.969 111.382 279.159 111.382 279.159C111.382 279.159 111.566 283.902 110.45 285.578C109.334 287.254 109.334 296.748 109.334 296.748C107.399 297.993 105.168 298.701 102.871 298.799C100.574 298.897 98.2915 298.382 96.2578 297.306C96.2578 297.306 97.3606 296.27 96.5247 291.444C95.689 286.618 97.1243 273.477 97.1243 273.477C97.1243 273.477 96.9405 270.143 97.8681 268.651C98.796 267.159 97.4 264.277 97.772 262.974C98.144 261.671 99.2599 254.594 99.2599 254.594C99.2599 254.594 98.796 237.189 98.796 236.259C98.6862 234.603 98.2394 232.987 97.4831 231.511C96.6474 230.024 97.4831 219.226 97.4831 219.226C97.4831 219.226 99.4524 213.646 98.796 212.435C98.1395 211.224 99.2336 209.083 99.2336 209.083C99.2336 209.083 98.2139 206.569 99.2336 206.104C100.253 205.639 100.442 203.778 100.442 203.778L101.15 194.749C101.15 194.749 101.417 190.651 102.266 190.467C103.115 190.282 102.743 188.703 103.579 187.584C103.987 186.828 104.267 186.01 104.411 185.162C104.529 184.645 104.638 184.105 104.73 183.587C104.993 182.183 105.155 180.972 105.155 180.972C110.634 185.535 139.443 182.337 139.473 182.337C141.303 182.736 143.478 189.102 145.049 194.652C146.445 199.612 147.152 204.741 147.149 209.894Z" fill="#2F2E41"/>
<path d="M126.196 115.366C128.296 108.44 124.398 101.12 117.491 99.0143C110.583 96.909 103.281 100.816 101.181 107.742C99.0812 114.667 102.979 121.988 109.886 124.093C116.794 126.198 124.096 122.291 126.196 115.366Z" fill="#FFB6B6"/>
<path d="M98.9113 113.838L103.973 112.782L104.905 106.047L106.653 112.223L109.073 111.718L109.616 107.789L110.636 111.392L128.613 107.642C128.243 105.858 127.526 104.165 126.503 102.659C125.48 101.153 124.172 99.8636 122.652 98.8648C121.132 97.8659 119.431 97.177 117.645 96.8373C115.86 96.4976 114.025 96.5138 112.246 96.8849L109.641 97.4285C106.047 98.178 102.898 100.328 100.886 103.405C98.874 106.483 98.1637 110.235 98.9113 113.838Z" fill="#2F2E41"/>
<path d="M150.697 15.2902L150.664 15.3542C144.062 12.3049 136.543 11.9185 129.665 14.2753C122.787 16.632 117.076 21.5511 113.717 28.0136C110.357 34.476 109.606 41.9865 111.619 48.989C113.632 55.9915 118.254 61.9494 124.529 65.6283L124.496 65.6923L174.769 91.9611L200.971 41.559C202.696 38.2491 203.753 34.631 204.082 30.9113C204.411 27.1916 204.006 23.4434 202.889 19.8809C201.773 16.3183 199.967 13.0113 197.575 10.149C195.182 7.28659 192.251 4.92494 188.948 3.19904C185.645 1.47313 182.035 0.416799 178.324 0.0904333C174.614 -0.235933 170.876 0.174063 167.323 1.29699C163.771 2.41991 160.474 4.23374 157.621 6.63479C154.769 9.03584 152.416 11.977 150.697 15.2902Z" fill="#B9EAFF"/>
<path d="M195.489 304.513L195.481 304.529C193.812 303.758 191.912 303.66 190.173 304.256C188.434 304.852 186.991 306.095 186.142 307.728C185.293 309.362 185.103 311.26 185.612 313.03C186.121 314.8 187.289 316.306 188.875 317.236L188.867 317.252L201.573 323.891L208.196 311.152C208.632 310.315 208.899 309.401 208.982 308.461C209.065 307.521 208.963 306.573 208.681 305.673C208.399 304.772 207.942 303.936 207.338 303.213C206.733 302.489 205.992 301.892 205.157 301.456C204.322 301.02 203.41 300.753 202.472 300.67C201.534 300.588 200.589 300.691 199.691 300.975C198.793 301.259 197.96 301.718 197.239 302.325C196.518 302.932 195.923 303.675 195.489 304.513Z" fill="#B9EAFF"/>
<path d="M26.9286 142.987V143.059C19.6683 143.414 12.8225 146.556 7.80933 151.833C2.79621 157.11 -3.37526e-06 164.118 0 171.405C3.37526e-06 178.693 2.79623 185.701 7.80936 190.978C12.8225 196.255 19.6683 199.397 26.9286 199.752V199.824L83.6205 199.824L83.6205 142.987C83.6241 139.253 82.8935 135.554 81.4706 132.103C80.0477 128.652 77.9603 125.516 75.3278 122.874C72.6953 120.233 69.5692 118.137 66.1284 116.707C62.6875 115.277 58.9993 114.541 55.2745 114.541C51.5498 114.541 47.8616 115.277 44.4207 116.707C40.9798 118.137 37.8538 120.233 35.2213 122.874C32.5887 125.516 30.5014 128.652 29.0784 132.103C27.6555 135.554 26.925 139.253 26.9286 142.987Z" fill="#3763e9"/>
<path d="M291.134 324.59H7.86091C7.72272 324.59 7.59019 324.535 7.49247 324.437C7.39475 324.339 7.33984 324.206 7.33984 324.068C7.33984 323.929 7.39475 323.797 7.49247 323.699C7.59019 323.601 7.72272 323.546 7.86091 323.546H291.134C291.272 323.546 291.405 323.601 291.503 323.699C291.6 323.797 291.655 323.929 291.655 324.068C291.655 324.206 291.6 324.339 291.503 324.437C291.405 324.535 291.272 324.59 291.134 324.59Z" fill="#CACACA"/>
<path d="M246.033 196.681C251.823 196.645 257.422 194.596 261.874 190.884C266.406 187.062 269.389 181.712 270.261 175.84C270.773 172.52 270.608 169.13 269.776 165.876C269.725 165.713 269.613 165.576 269.464 165.495C269.314 165.413 269.139 165.393 268.975 165.438C268.811 165.483 268.67 165.591 268.584 165.738C268.497 165.885 268.471 166.06 268.51 166.226C269.913 171.751 269.28 177.599 266.727 182.693C264.766 186.503 261.799 189.699 258.149 191.934C254.5 194.168 250.309 195.355 246.033 195.365C245.862 195.371 245.701 195.443 245.583 195.565C245.465 195.688 245.398 195.852 245.398 196.023C245.398 196.194 245.465 196.358 245.583 196.48C245.701 196.603 245.862 196.675 246.033 196.681Z" fill="#004438" fill-opacity="0.05"/>
<path d="M144.658 25.7202C140.922 22.1652 135.024 22.1746 130.71 24.6493C125.869 27.4266 123.674 33.1653 123.785 38.5536C123.91 44.618 126.868 50.109 130.686 54.6568C134.756 59.3823 139.493 63.4868 144.746 66.8404C149.984 70.2606 155.652 72.9686 161.601 74.8933C162.333 75.13 163.069 75.3543 163.809 75.5663C163.975 75.6059 164.149 75.5795 164.296 75.4926C164.442 75.4057 164.549 75.2652 164.595 75.1006C164.64 74.936 164.62 74.7603 164.538 74.6104C164.457 74.4604 164.32 74.3481 164.158 74.297C152.733 71.0241 142.346 64.8456 134.006 56.3614C130.035 52.2843 126.507 47.3842 125.421 41.681C124.463 36.6444 125.522 30.7963 129.416 27.2087C133.201 23.7212 139.826 22.9359 143.73 26.651C144.342 27.2341 145.272 26.3049 144.658 25.7202Z" fill="white"/>
<path d="M25.9573 156.832C20.9116 156.203 16.1729 159.761 14.2077 164.255C12.0039 169.295 13.4897 175.104 16.6865 179.364C20.2071 184.054 25.5397 186.789 31.1141 188.24C37.0977 189.799 43.4497 190.219 49.6092 189.931C56.8906 189.593 64.0761 188.129 70.9114 185.59C71.6965 185.298 71.3568 184.025 70.5623 184.321C59.1838 188.557 46.5167 189.893 34.5512 187.657C29.2027 186.657 23.7555 184.75 19.7699 180.892C16.1585 177.396 13.6037 172.102 14.6905 166.99C15.7705 161.91 20.5883 157.479 25.9573 158.148C26.7936 158.253 26.7861 156.936 25.9573 156.832Z" fill="white"/>
<path d="M109.902 92.3586C111.122 87.4676 108.758 82.2215 105.098 78.7639C101.439 75.3063 96.6626 73.3191 91.9356 71.5986C88.166 70.2265 83.7507 69.0331 80.339 71.1463C77.5976 72.8444 76.4084 76.1428 74.8412 78.9656C71.8548 84.3449 67.0368 88.4666 61.2682 90.577C55.4996 92.6874 49.166 92.6454 43.4258 90.4588C45.4491 96.3473 52.4183 99.2277 58.6177 98.8277C64.8172 98.4277 70.5432 95.5654 76.3183 93.2701C82.0933 90.9749 88.5174 89.2015 94.453 91.0397C96.9582 91.8155 99.2367 93.2001 101.717 94.0521C104.198 94.9042 107.1 95.1579 109.311 93.7443" fill="#2F2E41"/>
<path d="M196.735 271.493L192.509 264.036C192.418 263.891 192.275 263.788 192.11 263.748C191.944 263.707 191.769 263.733 191.622 263.819C191.475 263.905 191.367 264.045 191.321 264.209C191.275 264.374 191.295 264.55 191.376 264.7L195.602 272.158C195.693 272.302 195.836 272.405 196.001 272.446C196.167 272.486 196.342 272.461 196.489 272.375C196.636 272.288 196.744 272.148 196.79 271.984C196.836 271.819 196.816 271.644 196.735 271.493Z" fill="#F0F0F0"/>
</g>
<defs>
<clipPath id="clip0_1205_32270">
<rect width="300" height="324.59" fill="white"/>
</clipPath>
</defs>
</svg>
