<svg width="128" height="129" viewBox="0 0 128 129" fill="none" xmlns="http://www.w3.org/2000/svg">
<g clip-path="url(#clip0_2652_43559)">
<rect width="128" height="129" rx="64" fill="white"/>
<path d="M4.39619 96.8524L4.08887 96.5193L34.0829 69.4391L44.8891 74.2322L56.5583 54.4322L66.1457 49.8599L75.0286 64.5081C79.8244 52.2237 91.8518 39.3714 106.264 26.3318L106.618 26.6158C93.1012 39.4199 81.5363 52.2822 74.973 65.2934L66.7566 51.7044C66.3684 51.0624 65.5527 50.8145 64.8672 51.1301C59.6267 53.5427 55.2555 57.4809 52.3382 62.4179L45.0285 74.7883L43.3599 74.0482C37.7795 71.5732 31.2467 72.6105 26.7293 76.689L4.39619 96.8524Z" fill="#3F3D56"/>
<path d="M106.94 28.7972L106.484 28.8285L105.75 27.2529L104.104 26.9223L104.041 26.4751L106.752 26.0938L106.94 28.7972Z" fill="#3F3D56"/>
<path d="M100.617 43.2211C107.22 43.2211 112.573 37.9248 112.573 31.3914C112.573 24.8581 107.22 19.5618 100.617 19.5618C94.0136 19.5618 88.6606 24.8581 88.6606 31.3914C88.6606 37.9248 94.0136 43.2211 100.617 43.2211Z" fill="#FF6884"/>
<path d="M16.0903 76.2681C18.765 76.2681 20.9332 74.1064 20.9332 71.4397C20.9332 68.7731 18.765 66.6113 16.0903 66.6113C13.4156 66.6113 11.2473 68.7731 11.2473 71.4397C11.2473 74.1064 13.4156 76.2681 16.0903 76.2681Z" fill="#FCBC03"/>
<path d="M16.0902 76.6818C13.1844 76.6818 10.8321 74.3365 10.8321 71.4395C10.8321 68.5425 13.1844 66.1973 16.0902 66.1973C18.9959 66.1973 21.3482 68.5425 21.3482 71.4395C21.3482 74.3365 18.9821 76.6818 16.0902 76.6818ZM16.0902 67.025C13.6549 67.025 11.6623 69.0115 11.6623 71.4395C11.6623 73.8675 13.6549 75.854 16.0902 75.854C18.5255 75.854 20.518 73.8675 20.518 71.4395C20.518 69.0115 18.5255 67.025 16.0902 67.025Z" fill="#2F2E41"/>
<path d="M12.6311 70.6808C8.93662 70.6808 5.92017 67.6735 5.92017 63.9901C5.92017 60.3067 8.93662 57.2993 12.6311 57.2993C16.3255 57.2993 19.342 60.3067 19.342 63.9901C19.342 67.6735 16.3255 70.6808 12.6311 70.6808ZM12.6311 58.127C9.39324 58.127 6.75038 60.762 6.75038 63.9901C6.75038 67.2182 9.39324 69.8531 12.6311 69.8531C15.8689 69.8531 18.5118 67.2182 18.5118 63.9901C18.5118 60.762 15.8689 58.127 12.6311 58.127Z" fill="#2F2E41"/>
<path d="M6.12731 127.725H5.29709V122.482H10.8319V117.654H16.2283V113.24H17.0585V118.482H11.6621V123.31H6.12731V127.725Z" fill="#2F2E41"/>
<path d="M101.061 96.4387H110.471L105.766 88.3408L101.061 96.4387Z" fill="#4385F5"/>
<path d="M111.19 96.8524H100.342L105.766 87.5129L111.19 96.8524ZM101.781 96.0247H109.751L105.766 89.1684L101.781 96.0247Z" fill="#2F2E41"/>
<path d="M112.573 92.8518H98.9575L105.765 81.1257L112.573 92.8518ZM100.397 92.0241H111.134L105.765 82.7812L100.397 92.0241Z" fill="#2F2E41"/>
<path d="M88.3042 58.1406C88.3042 58.1406 102.155 54.0572 101.159 44.897C100.481 38.6063 96.219 37.4337 88.3042 35.7369C83.5443 34.716 80.3618 29.9842 73.9553 23.9694C67.5488 17.9546 63.0518 23.0865 63.0518 23.0865C63.0518 23.0865 51.069 22.2726 56.2994 44.8143L88.3042 58.1406Z" fill="#2F2E41"/>
<path d="M63.2602 50.0011V36.5506C63.2602 36.5506 57.8638 35.8195 60.0777 26.0385L64.4917 24.0796C64.4917 24.0796 67.9233 29.9426 73.0706 33.1294V50.7461L63.2602 50.0011Z" fill="#FFB6B6"/>
<path d="M73.4855 51.1876L62.8449 50.3875V36.8818C62.2914 36.7162 61.226 36.261 60.3681 35.0332C58.9844 33.0466 58.7491 29.9979 59.6624 25.9558L59.7039 25.7489L64.6437 23.5554L64.8374 23.8727C64.8651 23.9279 68.2828 29.6944 73.2779 32.7845L73.4716 32.9087V51.1876H73.4855ZM63.6751 49.6287L72.6553 50.3047V33.3639C68.2136 30.5359 65.1141 25.873 64.3254 24.6177L60.4234 26.3283C59.6347 29.9703 59.8423 32.7983 61.0322 34.5228C62.0008 35.9299 63.26 36.123 63.3153 36.1368L63.6751 36.192V36.5507V49.6287Z" fill="#2F2E41"/>
<path d="M47.3611 72.6535L44.8566 98.0094L43.7082 136.968L55.7878 135.726L59.7867 100.658L68.7945 72.5017L47.3611 72.6535Z" fill="#2F2E41"/>
<path d="M43.279 137.437L44.4275 97.9679L46.9735 72.2533L69.3478 72.1016L60.1739 100.755L56.1474 136.126L43.279 137.437ZM45.2715 98.0369L44.1507 136.512L55.4279 135.353L59.3852 100.575L68.2409 72.9293L47.7484 73.0672L45.2715 98.0369Z" fill="#2F2E41"/>
<path d="M58.1542 72.6533L55.5805 95.8158C55.2346 98.8922 56.2586 101.955 58.3618 104.217L80.7638 128.359L89.7163 120.689L71.7421 96.9608C71.7421 96.9608 75.1045 86.8764 75.8793 83.7724C76.585 80.9582 77.6505 73.2327 77.6505 73.2327L58.1542 72.6533Z" fill="#2F2E41"/>
<path d="M80.7356 128.939L58.0568 104.507C55.8706 102.148 54.819 98.9613 55.1649 95.7746L57.7801 72.2258L78.1342 72.8466L78.065 73.3019C78.0235 73.6192 76.9857 81.0687 76.2801 83.8829C75.5605 86.7662 72.6963 95.4159 72.1982 96.9058L90.2692 120.772L80.7356 128.939ZM58.5273 73.0811L55.9951 95.8711C55.663 98.8233 56.6454 101.776 58.6656 103.955L80.8047 127.794L89.1623 120.648L71.2988 97.0575L71.3679 96.8506C71.3956 96.754 74.7303 86.7524 75.4913 83.6898C76.0863 81.317 76.9442 75.3574 77.1933 73.6605L58.5273 73.0811Z" fill="#2F2E41"/>
<path d="M78.6188 126.814C78.6188 126.814 84.9699 124.317 87.9034 117.682L104.563 138.126C104.563 138.126 101.118 146.611 95.2369 152.101L94.1992 143.203L78.6188 126.814Z" fill="#2F2E41"/>
<path d="M40.7194 38.027L47.0706 30.2188L50.4745 23.2935C50.4745 23.2935 52.1072 19.8998 54.0167 22.7003C54.0167 22.7003 56.0923 20.9345 57.7112 22.99C57.7112 22.99 60.0773 21.6656 60.9629 24.6178C60.9629 24.6178 64.5051 25.7904 63.7718 27.4183C63.0384 29.0462 60.8107 26.9769 60.8107 26.9769L59.3301 31.1017C59.3301 31.1017 56.6734 32.7295 55.6356 34.4953L53.2695 38.7719L40.7194 38.027Z" fill="#FFB6B6"/>
<path d="M53.5186 39.1858L39.8892 38.3857L46.7246 29.9843L50.1008 23.1004C50.1838 22.921 51.0141 21.2794 52.3286 21.169C52.9651 21.1138 53.5601 21.4449 54.1135 22.1209C54.5286 21.8588 55.2758 21.5001 56.1199 21.5829C56.7564 21.6519 57.3375 21.9416 57.8357 22.4796C58.2508 22.3278 59.0118 22.1347 59.759 22.4382C60.4509 22.7141 60.9767 23.3349 61.2949 24.2868C61.9176 24.5213 63.6749 25.2524 64.1592 26.3561C64.339 26.7561 64.3252 27.1838 64.1453 27.5701C63.8824 28.1495 63.4673 28.3426 63.1629 28.4116C62.4019 28.5633 61.5301 28.0529 61.0043 27.6528L59.676 31.3638L59.5515 31.4466C59.5238 31.4604 56.964 33.033 55.9954 34.6885L53.5186 39.1858ZM41.5496 37.6545L53.0481 38.3305L55.2897 34.2884C56.2444 32.6468 58.4445 31.1845 59.0118 30.8258L60.6584 26.2457L61.115 26.6734C61.5717 27.0872 62.4849 27.7218 63.0107 27.6115C63.1214 27.5839 63.2736 27.5287 63.3981 27.239C63.4812 27.0596 63.4812 26.8803 63.3981 26.6872C63.0522 25.887 61.4333 25.1973 60.8383 24.9903L60.6307 24.9214L60.5754 24.7144C60.3263 23.9143 59.9527 23.3901 59.4546 23.1969C58.7351 22.9072 57.9325 23.3349 57.9187 23.3349L57.6143 23.5004L57.3929 23.2245C56.9916 22.7141 56.535 22.4382 56.0369 22.3968C55.1236 22.314 54.3073 22.99 54.2934 22.99L53.9475 23.2935L53.6846 22.9072C53.2418 22.2588 52.8129 21.9554 52.3978 21.9829C51.6921 22.0381 51.0279 23.0866 50.8619 23.4453L47.4441 30.4119L41.5496 37.6545Z" fill="#2F2E41"/>
<path d="M61.2534 28.3013L62.4295 28.3978C62.7616 28.4254 63.0245 28.7013 63.0245 29.0462V30.7431C63.0245 31.1017 62.7339 31.3914 62.3742 31.3914H61.2534V28.3013Z" fill="white"/>
<path d="M62.374 31.8052H60.8381V27.8459L62.457 27.9839C63.0105 28.0253 63.4394 28.4943 63.4394 29.0461V30.743C63.4533 31.3224 62.969 31.8052 62.374 31.8052ZM61.6683 30.9775H62.374C62.4985 30.9775 62.6092 30.8671 62.6092 30.743V29.0461C62.6092 28.922 62.5124 28.8254 62.3878 28.8116L61.6683 28.7564V30.9775Z" fill="#2F2E41"/>
<path d="M41.8261 23.3623L61.0456 27.5561C61.6406 27.6803 62.0557 28.2321 62.0142 28.8391L61.8758 30.867C61.8343 31.5292 61.267 32.0258 60.6028 32.012L41.2449 31.3222L41.8261 23.3623Z" fill="white"/>
<path d="M60.6309 32.4259C60.6171 32.4259 60.5894 32.4259 60.5756 32.4259L40.7887 31.7224L41.4529 22.8657L61.129 27.1561C61.9177 27.3354 62.4712 28.0666 62.4159 28.8667L62.2775 30.8946C62.2083 31.7637 61.5026 32.4259 60.6309 32.4259ZM41.6743 30.9222L60.6032 31.5982C61.046 31.612 61.4196 31.2809 61.4473 30.8395L61.5856 28.8115C61.6133 28.4115 61.3366 28.0528 60.9492 27.9562L42.2001 23.859L41.6743 30.9222Z" fill="#2F2E41"/>
<path d="M50.5155 25.2522C50.5155 25.2522 52.3281 26.4524 52.0237 28.9493C52.0237 28.9493 51.8023 31.0462 49.9205 31.6256C49.9205 31.6256 50.3217 32.274 51.4287 32.205C52.4803 32.1361 53.864 31.9843 54.2376 29.1149C54.2376 29.1149 54.459 26.3834 52.757 25.4315C52.3558 25.197 51.6501 24.9073 50.5155 25.2522Z" fill="#2F2E41"/>
<path d="M34.576 20.4102C34.576 20.4102 43.2241 20.6309 44.0405 26.0111C44.2896 27.6941 43.9713 31.2395 41.2316 32.2052C39.5988 32.7846 37.468 32.7156 33.3999 32.2052L34.576 20.4102Z" fill="white"/>
<path d="M38.3392 33.019C37.0939 33.019 35.5026 32.6052 33.3441 32.3293L32.9428 32.2741L34.2019 20.2583L34.5894 20.2721C34.963 20.2859 43.5972 20.2859 44.4551 25.942C44.7734 28.0665 44.2199 31.5843 41.3695 32.5776C40.5393 32.8811 39.626 33.019 38.3392 33.019ZM33.8422 31.5705C37.7857 32.0534 39.6399 32.3155 41.0789 31.8188C43.7218 30.8945 43.7909 27.2802 43.6111 26.08C42.9469 21.7206 36.5819 21.2516 34.9353 21.1274L33.8422 31.5705Z" fill="#2F2E41"/>
<path d="M34.3962 32.4949C37.8045 32.4949 40.5675 29.7403 40.5675 26.3422C40.5675 22.9441 37.8045 20.1895 34.3962 20.1895C30.9879 20.1895 28.2249 22.9441 28.2249 26.3422C28.2249 29.7403 30.9879 32.4949 34.3962 32.4949Z" fill="#2F2E41"/>
<path d="M34.4368 30.7983C37.0122 30.7983 39.0999 28.7539 39.0999 26.232C39.0999 23.7102 37.0122 21.6658 34.4368 21.6658C31.8615 21.6658 29.7738 23.7102 29.7738 26.232C29.7738 28.7539 31.8615 30.7983 34.4368 30.7983Z" fill="white"/>
<path d="M34.4373 31.212C31.6422 31.212 29.3591 28.9771 29.3591 26.2318C29.3591 23.4866 31.6284 21.2517 34.4373 21.2517C37.2462 21.2517 39.5154 23.4866 39.5154 26.2318C39.5154 28.9771 37.2324 31.212 34.4373 31.212ZM34.4373 22.0794C32.0988 22.0794 30.1893 23.9418 30.1893 26.2318C30.1893 28.5219 32.0988 30.3843 34.4373 30.3843C36.7757 30.3843 38.6852 28.5219 38.6852 26.2318C38.6852 23.9418 36.7757 22.0794 34.4373 22.0794Z" fill="#2F2E41"/>
<path d="M37.7585 26.0801C37.7585 26.0801 37.2327 27.2251 35.4201 27.5838C35.0742 27.6528 34.6729 27.6942 34.2163 27.6942C33.9395 27.6942 33.5936 27.6804 33.22 27.6252C32.3068 27.501 31.2552 26.9492 30.8124 26.2181C30.8124 26.2181 31.7671 25.4731 33.2062 25.142C33.815 25.0041 34.493 24.9351 35.2264 25.0454C36.0289 25.1696 36.8868 25.4731 37.7585 26.0801Z" fill="white"/>
<path d="M34.2022 28.1216C33.8286 28.1216 33.4827 28.094 33.1506 28.0526C32.0437 27.9009 30.9229 27.2387 30.4524 26.4386L30.2587 26.1213L30.5493 25.9006C30.5908 25.873 31.6009 25.0866 33.1091 24.7417C33.8425 24.5762 34.5758 24.5348 35.2815 24.6314C36.2363 24.7555 37.1495 25.128 37.9935 25.735L38.2703 25.9282L38.1319 26.2454C38.1042 26.3006 37.4954 27.5836 35.4891 27.9837C35.0878 28.0802 34.6588 28.1216 34.2022 28.1216ZM31.4072 26.3282C31.8361 26.7697 32.5695 27.1421 33.2613 27.2249C33.5519 27.2663 33.8563 27.2801 34.2022 27.2801C34.6035 27.2801 34.9771 27.2387 35.323 27.1697C36.3608 26.9628 36.9143 26.4938 37.1772 26.1765C36.5407 25.7902 35.8627 25.5419 35.1708 25.4453C34.562 25.3625 33.9255 25.3901 33.3028 25.5419C32.4588 25.7488 31.7946 26.0937 31.4072 26.3282Z" fill="#2F2E41"/>
<path d="M35.9869 26.3975C35.9869 26.8804 35.7655 27.2942 35.4196 27.5977C35.0736 27.6667 34.6724 27.7081 34.2157 27.7081C33.939 27.7081 33.5931 27.6943 33.2195 27.6391C32.832 27.3494 32.583 26.8941 32.583 26.3975C32.583 25.9009 32.8182 25.4594 33.2056 25.1559C33.8145 25.018 34.4925 24.949 35.2258 25.0594C35.6824 25.3491 35.9869 25.8319 35.9869 26.3975Z" fill="#2F2E41"/>
<path d="M34.3544 27.4182C34.9275 27.4182 35.3921 26.955 35.3921 26.3835C35.3921 25.8121 34.9275 25.3489 34.3544 25.3489C33.7812 25.3489 33.3166 25.8121 33.3166 26.3835C33.3166 26.955 33.7812 27.4182 34.3544 27.4182Z" fill="white"/>
<path d="M34.3547 27.8184C33.5521 27.8184 32.9018 27.17 32.9018 26.3699C32.9018 25.5698 33.5521 24.9214 34.3547 24.9214C35.1572 24.9214 35.8076 25.5698 35.8076 26.3699C35.8076 27.17 35.1572 27.8184 34.3547 27.8184ZM34.3547 25.7629C34.0087 25.7629 33.732 26.0388 33.732 26.3837C33.732 26.7286 34.0087 27.0045 34.3547 27.0045C34.7006 27.0045 34.9773 26.7286 34.9773 26.3837C34.9773 26.0388 34.7006 25.7629 34.3547 25.7629Z" fill="#2F2E41"/>
<path d="M33.538 26.0938C33.7443 26.0938 33.9116 25.9271 33.9116 25.7214C33.9116 25.5156 33.7443 25.3489 33.538 25.3489C33.3316 25.3489 33.1644 25.5156 33.1644 25.7214C33.1644 25.9271 33.3316 26.0938 33.538 26.0938Z" fill="white"/>
<path d="M72.9459 40.3168C72.9459 40.3168 69.0577 44.5106 63.3846 40.6755L52.0936 41.7101L54.3075 37.5853L41.3008 36.7024C41.3008 36.7024 29.2765 55.9332 37.7585 58.8026C40.7197 59.8097 44.1097 60.2787 50.1703 60.127L46.628 75.3019H78.2593L79.1448 67.7834C79.1448 67.7834 86.5338 71.1771 90.671 71.1771C90.671 71.1771 98.3782 72.2945 97.036 62.8309C96.8285 61.3272 96.4133 59.8511 95.846 58.4301C94.6422 55.4089 91.6949 48.6906 87.8621 44.7727C86.9627 43.8484 85.8419 43.1862 84.6243 42.8138C82.1475 42.0412 77.263 40.6893 72.9459 40.3168Z" fill="#0052DD"/>
<path d="M78.6324 75.7159H46.1017L49.644 60.541C44.2614 60.6376 40.7469 60.2375 37.6197 59.1753C36.1807 58.6924 35.1982 57.7267 34.7001 56.3334C32.4724 50.1255 40.5946 37.0061 40.9544 36.4542L41.0928 36.2473L54.9851 37.1854L52.8265 41.2275L63.4948 40.248L63.6193 40.3308C65.8609 41.8482 68.061 42.2483 70.1642 41.5309C71.7278 41.0067 72.641 40.0273 72.641 40.0273L72.7794 39.8755L72.9869 39.8893C77.3179 40.2618 82.2162 41.6275 84.7483 42.4001C86.049 42.8001 87.239 43.5175 88.1661 44.4694C92.0957 48.4976 95.126 55.4643 96.233 58.2648C96.828 59.7547 97.2431 61.2722 97.4506 62.7621C97.9073 66.0316 97.3676 68.4596 95.8455 69.977C93.8807 71.936 91.0026 71.6325 90.6429 71.5911C87.0591 71.5773 81.2614 69.1631 79.4903 68.3906L78.6324 75.7159ZM47.1534 74.8882H77.899L78.8123 67.1766L79.3381 67.4111C79.4073 67.4387 86.6993 70.7634 90.6982 70.7634H90.7536C90.7812 70.7634 93.5348 71.1359 95.2921 69.3838C96.6204 68.0595 97.077 65.8798 96.6481 62.8862C96.4544 61.4653 96.0531 60.0168 95.4858 58.5821C94.3927 55.823 91.4177 48.9805 87.5849 45.0488C86.7547 44.1935 85.6892 43.5589 84.5131 43.1864C82.0501 42.4277 77.3179 41.1171 73.1115 40.7308C72.7655 41.0619 71.8385 41.8344 70.4409 42.3173C68.8358 42.8553 66.3037 43.076 63.2872 41.0895L51.3736 42.1793L53.6567 37.9441L41.5356 37.1164C40.4978 38.8408 33.5516 50.6359 35.4888 56.0713C35.9039 57.2301 36.6926 58.0026 37.8964 58.4027C41.0236 59.465 44.5797 59.8374 50.1698 59.7133L50.7094 59.6995L47.1534 74.8882Z" fill="#2F2E41"/>
<path d="M69.3891 56.5817C72.4077 56.5817 74.8547 54.142 74.8547 51.1325C74.8547 48.123 72.4077 45.6833 69.3891 45.6833C66.3706 45.6833 63.9236 48.123 63.9236 51.1325C63.9236 54.142 66.3706 56.5817 69.3891 56.5817Z" fill="#FCBC03"/>
<path d="M69.3897 57.0093C66.1518 57.0093 63.509 54.3744 63.509 51.1462C63.509 47.9181 66.1518 45.2832 69.3897 45.2832C72.6275 45.2832 75.2704 47.9181 75.2704 51.1462C75.2704 54.3744 72.6414 57.0093 69.3897 57.0093ZM69.3897 46.0971C66.6084 46.0971 64.3392 48.3596 64.3392 51.1324C64.3392 53.9053 66.6084 56.1678 69.3897 56.1678C72.1709 56.1678 74.4402 53.9053 74.4402 51.1324C74.4402 48.3596 72.1709 46.0971 69.3897 46.0971Z" fill="#2F2E41"/>
<path d="M69.3897 46.7871L70.6627 49.3668L73.5131 49.7807L71.4514 51.781L71.9357 54.5953L69.3897 53.2709L66.8437 54.5953L67.328 51.781L65.2663 49.7807L68.1167 49.3668L69.3897 46.7871Z" fill="white"/>
<path d="M72.4885 55.3537L69.3891 53.7396L66.2896 55.3674L66.8846 51.9324L64.3801 49.5044L67.8393 49.0078L69.3891 45.8762L70.9388 49.0078L74.398 49.5044L71.8936 51.9324L72.4885 55.3537ZM69.3891 52.8015L71.3816 53.85L70.9942 51.6427L72.6131 50.07L70.3853 49.7527L69.3891 47.7386L68.3928 49.7527L66.1651 50.07L67.784 51.6427L67.3965 53.85L69.3891 52.8015Z" fill="#2F2E41"/>
<path d="M81.9536 57.9197C81.9536 57.9197 81.2202 64.5552 79.1447 67.7972L71.1608 64.707C71.1608 64.707 62.4435 65.1484 59.4824 59.6993C59.4824 59.6993 58.749 57.9334 59.773 57.492C59.773 57.492 59.178 55.4227 60.9491 55.4227C60.9491 55.4227 60.0635 53.2154 62.4296 53.2154C62.4296 53.2154 62.5818 51.4496 64.353 52.0428C64.353 52.0428 70.123 57.2023 71.7419 54.995C71.7419 54.995 72.3369 49.9873 75.1458 49.9873L76.1836 57.0643L81.9536 57.9197Z" fill="#FFB6B6"/>
<path d="M79.3107 68.2938L71.0915 65.1071C70.0953 65.1485 62.0283 65.2589 59.1226 59.8786L59.1087 59.8373C58.8043 59.1199 58.5691 57.8645 59.3163 57.2713C59.2471 56.8575 59.2056 56.1263 59.6069 55.5883C59.7591 55.3951 60.0081 55.1606 60.4371 55.0641C60.354 54.6364 60.3264 54.0294 60.6723 53.5466C60.9629 53.1189 61.4472 52.8706 62.0975 52.8154C62.1805 52.4981 62.3881 52.0291 62.817 51.7532C63.2598 51.4635 63.8271 51.4221 64.4913 51.6428L64.5743 51.6704L64.6435 51.7256C65.7643 52.7326 69.0298 55.2848 70.7318 55.1054C71.0085 55.0779 71.2022 54.9813 71.3683 54.8019C71.479 53.988 72.2538 49.5459 75.1596 49.5459H75.5193L76.5571 56.6781L82.4101 57.5748L82.3686 57.9749C82.341 58.2508 81.5938 64.7346 79.5044 68.0317L79.3107 68.2938ZM71.2299 64.2794L78.9647 67.2868C80.556 64.5415 81.3032 59.6855 81.4831 58.2784L75.8099 57.4093L74.786 50.415C72.6828 50.8427 72.157 54.9813 72.157 55.0227L72.1431 55.133L72.0739 55.2158C71.7695 55.6297 71.3406 55.8642 70.8009 55.9194C70.7179 55.9332 70.6487 55.9332 70.5657 55.9332C68.2826 55.9332 64.6988 52.8706 64.1454 52.3877C63.7718 52.2774 63.4812 52.2912 63.2736 52.4291C62.9692 52.6223 62.8585 53.0775 62.8447 53.2431L62.8032 53.6155H62.4296C61.8761 53.6155 61.5164 53.7397 61.3365 54.0018C61.0736 54.3881 61.2535 55.0503 61.3365 55.2572L61.5579 55.8228H60.949C60.617 55.8228 60.3956 55.9056 60.2572 56.0849C59.9805 56.4436 60.105 57.1472 60.1603 57.3541L60.2572 57.699L59.9251 57.8369C59.344 58.0852 59.7867 59.3406 59.8421 59.4924C62.651 64.6381 71.0362 64.2656 71.1192 64.2656L71.2299 64.2794Z" fill="#2F2E41"/>
<path d="M53.7816 26.094C53.2834 26.094 52.7438 25.8594 52.135 25.3904L52.6469 24.742C53.2143 25.1835 53.6709 25.349 53.9753 25.2387C54.252 25.1421 54.4042 24.811 54.4596 24.6317L53.9199 23.1418L54.6948 22.8521L55.3313 24.5903L55.3036 24.7006C55.2898 24.742 55.0822 25.7077 54.252 26.0112C54.1137 26.0664 53.9476 26.094 53.7816 26.094Z" fill="#2F2E41"/>
<path d="M56.9917 26.7423C56.6873 26.7423 56.3137 26.6596 55.8986 26.4526L55.8432 26.425L55.8017 26.3836C55.7741 26.3561 55.1652 25.7491 54.7086 24.9765L55.4143 24.5489C55.7602 25.1145 56.203 25.5973 56.3414 25.7491C56.7842 25.956 57.1716 25.9698 57.4622 25.7904C57.6282 25.6939 57.7251 25.5559 57.7666 25.4869C57.988 24.4937 57.4898 23.4728 57.4898 23.4728L58.237 23.1003C58.2647 23.1555 58.8874 24.4247 58.5691 25.7491L58.5553 25.7904L58.5414 25.8318C58.5276 25.8732 58.3339 26.2457 57.9049 26.494C57.6697 26.6182 57.3791 26.7423 56.9917 26.7423Z" fill="#2F2E41"/>
<path d="M59.9662 27.7632C59.6618 27.7632 59.302 27.6943 58.8593 27.5011H58.8454C58.8039 27.4873 57.8353 26.9907 57.697 25.8733L58.5272 25.7767C58.6102 26.4113 59.1637 26.7286 59.2052 26.7562C60.0216 27.1149 60.3537 26.8665 60.4367 26.77C60.6304 26.232 60.575 25.2801 60.5335 24.9628L61.3638 24.8662C61.3776 25.018 61.516 26.3147 61.1839 27.1287L61.1562 27.1976C61.1562 27.2114 60.7964 27.7632 59.9662 27.7632Z" fill="#2F2E41"/>
<path d="M65.5569 57.3129C65.4739 57.2578 63.3568 56.0438 62.1392 53.4502L62.8864 53.0916C63.9933 55.4506 65.9443 56.5818 65.972 56.5956L65.5569 57.3129Z" fill="#2F2E41"/>
<path d="M63.5367 58.9958C63.4537 58.9406 61.5165 57.5886 60.5894 55.5883L61.3366 55.2434C62.1668 57.0368 63.9795 58.306 64.0071 58.3198L63.5367 58.9958Z" fill="#2F2E41"/>
<path d="M62.5681 61.0928C62.4713 61.0514 60.3265 60.1133 59.3856 57.6164L60.1605 57.3267C60.9769 59.4925 62.8725 60.3203 62.8864 60.3341L62.5681 61.0928Z" fill="#2F2E41"/>
<path d="M51.729 41.6897L45.8923 52.938L46.6297 53.3183L52.4664 42.07L51.729 41.6897Z" fill="#2F2E41"/>
<path d="M82.0188 57.5126L81.8949 58.3311L89.7346 59.5112L89.8586 58.6928L82.0188 57.5126Z" fill="#2F2E41"/>
</g>
<defs>
<clipPath id="clip0_2652_43559">
<rect width="128" height="129" rx="64" fill="white"/>
</clipPath>
</defs>
</svg>
