<svg width="21" height="21" viewBox="0 0 21 21" fill="none" xmlns="http://www.w3.org/2000/svg">
<g id="Social Icons" clip-path="url(#clip0_1468_8298)">
<path id="Vector" d="M10.5 0.230774C4.9772 0.230774 0.5 4.70797 0.5 10.2308C0.5 14.9204 3.7288 18.8556 8.0844 19.9364V13.2868H6.0224V10.2308H8.0844V8.91397C8.0844 5.51037 9.6248 3.93277 12.9664 3.93277C13.6 3.93277 14.6932 4.05717 15.1404 4.18117V6.95117C14.9044 6.92637 14.4944 6.91397 13.9852 6.91397C12.3456 6.91397 11.712 7.53517 11.712 9.14997V10.2308H14.9784L14.4172 13.2868H11.712V20.1576C16.6636 19.5596 20.5004 15.3436 20.5004 10.2308C20.5 4.70797 16.0228 0.230774 10.5 0.230774Z" fill="white"/>
</g>
<defs>
<clipPath id="clip0_1468_8298">
<rect width="20" height="20" fill="white" transform="translate(0.5 0.230774)"/>
</clipPath>
</defs>
</svg>
