<svg width="21" height="21" viewBox="0 0 21 21" fill="none" xmlns="http://www.w3.org/2000/svg">
<g clip-path="url(#clip0_1490_259)">
<path d="M10.5 0.230957C4.9772 0.230957 0.5 4.70816 0.5 10.231C0.5 14.9206 3.7288 18.8558 8.0844 19.9366V13.287H6.0224V10.231H8.0844V8.91416C8.0844 5.51056 9.6248 3.93296 12.9664 3.93296C13.6 3.93296 14.6932 4.05736 15.1404 4.18136V6.95136C14.9044 6.92656 14.4944 6.91416 13.9852 6.91416C12.3456 6.91416 11.712 7.53536 11.712 9.15016V10.231H14.9784L14.4172 13.287H11.712V20.1578C16.6636 19.5598 20.5004 15.3438 20.5004 10.231C20.5 4.70816 16.0228 0.230957 10.5 0.230957Z" fill="white"/>
</g>
<defs>
<clipPath id="clip0_1490_259">
<rect width="20" height="20" fill="white" transform="translate(0.5 0.230957)"/>
</clipPath>
</defs>
</svg>
