<svg id="Layer_1" data-name="Layer 1" xmlns="http://www.w3.org/2000/svg" viewBox="0 0 183.45 183.45">
    <defs>
        <style>.cls-1{fill:#fff;}.cls-2{fill:#42efcc;}.cls-3{fill:#2564f2;}.cls-4{fill:#49caf4;}</style>
    </defs>
    <title>Forumm_vector</title>
    <path class="cls-2" d="M91.72,114v20.41c-30.35,0-55-23.93-55-53.44a52.74,52.74,0,0,1,1-10.2C42.66,95.37,65,114,91.72,114Z" />
    <path class="cls-2" d="M146.69,80.94c0,.55,0,1.09,0,1.63-1.17,49.17-54.94,72.22-54.94,72.22V134.38s47.06-20.17,54.08-63A52.31,52.31,0,0,1,146.69,80.94Z" />
    <path class="cls-3" d="M143.06,61.81C130.8,97.22,91.72,114,91.72,114V93.57a55,55,0,0,1-50.81-33,55,55,0,0,1,50.81-33C115.14,27.5,135.15,41.75,143.06,61.81Z" />
    <path class="cls-4" d="M91.72,93.57V114c-26.76,0-49.06-18.6-54-43.23a52.48,52.48,0,0,1,3.15-10.2A55,55,0,0,0,91.72,93.57Z" />
    <path class="cls-4" d="M145.8,71.35c-7,42.86-54.08,63-54.08,63V114s39.08-16.75,51.34-52.16A51.75,51.75,0,0,1,145.8,71.35Z" />
</svg>