<svg version="1.2" xmlns="http://www.w3.org/2000/svg" viewBox="0 0 284 75" width="284pt"
    height="75pt">
    <path class="a"
        d="m12.3 26.3c0-4.8 0.8-8.5 2.5-11.1 1.7-2.6 4.1-4.5 7-5.6 3.4-1.3 7-1.9 10.7-1.8l0.1 11.4c-3.1 0-5.2 0.4-6.3 1.4-1.1 1-1.6 2.9-1.6 5.7h4.8l2.7 10.6h-7.6v29h-12.3v-29h-4.1l-2.8-10.6z" />
    <path class="a"
        d="m49.8 64.4c-3.4-1.8-6.3-4.4-8.4-7.6-3.6-5.8-4.1-13.1-1.3-19.3 1.2-2.6 2.9-4.9 5-6.8 2.1-1.9 4.6-3.4 7.3-4.4 5.5-2.1 11.6-2.1 17.1 0 2.7 1 5.2 2.5 7.3 4.4 2.1 1.9 3.8 4.2 5 6.8 2.4 5.4 2.4 11.5 0 16.8-1.2 2.6-2.9 4.9-5 6.8-2.1 1.9-4.6 3.4-7.3 4.4-2.7 1.1-5.6 1.6-8.6 1.6-3.8 0.1-7.6-0.9-11.1-2.7zm4-11.4c4 4 10.5 4 14.5 0 2-1.8 3.1-4.4 3.1-7.1 0-1.8-0.5-3.5-1.4-5-0.9-1.5-2.3-2.8-3.8-3.6-3.2-1.8-7-1.8-10.2 0-1.6 0.9-2.9 2.1-3.8 3.6-1 1.5-1.4 3.2-1.4 5-0.2 2.7 1 5.3 3 7.1z" />
    <path class="a"
        d="m109.8 36.6c-0.8-0.5-1.6-0.7-2.5-0.7h-0.7c-3.2 0.1-4.7 2.3-4.7 6.6v23.4h-12.4v-23.4q0-17 17.1-17.7h0.7c0.8 0 1.7 0.1 2.5 0.2z" />
    <path class="a"
        d="m132.8 55.9h0.7c3.1-0.1 4.7-2.3 4.7-6.5v-23h12.4v23q0 16.8-17.1 17.7h-0.7q-17.1-0.9-17.1-17.7v-23h12.4v23c0 4.2 1.6 6.4 4.7 6.5z" />
    <path class="a"
        d="m191.5 41.6v24.3h-12.4v-24.3c-0.2-3.6-1.8-5.5-4.7-5.6h-0.7c-3.1 0.1-4.7 2.3-4.7 6.5v23.4h-12.4v-23.4q0-16.8 17.1-17.7h0.7c4.5 0.3 8.2 1.3 10.9 3.2 2.7-1.9 6.3-3 10.9-3.2h0.7q17.1 0.9 17.1 17.7v23.4h-12.4v-23.4c0-4.2-1.6-6.4-4.7-6.5h-0.7c-3 0.1-4.5 2-4.7 5.6z" />
    <path class="a"
        d="m254.9 41.6v24.3h-12.4v-24.3c-0.2-3.6-1.8-5.5-4.7-5.6h-0.7c-3.1 0.1-4.7 2.3-4.7 6.5v23.4h-12.4v-23.4q0-16.8 17.1-17.7h0.7c4.5 0.3 8.2 1.3 10.9 3.2 2.7-1.9 6.3-3 10.9-3.2h0.7q17.1 0.9 17.1 17.7v23.4h-12.4v-23.4c0-4.2-1.6-6.4-4.7-6.5h-0.7c-3 0.1-4.5 2-4.7 5.6z" />
</svg>