<svg width="251" height="251" viewBox="-20 -20 291 291" fill="none"
    xmlns="http://www.w3.org/2000/svg">
    <g transform="translate(0, 35)">
        <g clip-path="url(#clip0_163_34358)">
            <path
                d="M187.237 197.598C183.762 194.654 181.652 190.003 182.205 185.476C182.759 180.949 186.187 176.787 190.633 175.826C195.079 174.864 200.148 177.525 201.498 181.881C202.241 173.484 203.098 164.735 207.55 157.584C211.581 151.109 218.563 146.475 226.131 145.647C233.698 144.818 241.665 147.948 246.384 153.938C251.104 159.927 252.259 168.634 248.954 175.51C246.519 180.576 242.033 184.345 237.333 187.412C222.145 197.239 203.929 201.235 186.037 198.665"
                fill="#F2F2F2" />
            <path
                d="M238.901 148.122C232.657 153.222 226.929 158.925 221.8 165.151C213.772 174.86 207.276 185.745 202.538 197.428C202.192 198.281 203.572 198.652 203.915 197.809C211.667 178.822 224.043 162.086 239.91 149.134C240.623 148.552 239.608 147.545 238.901 148.122Z"
                fill="white" />
            <path
                d="M61.3666 199.613H41.6629C40.9971 199.612 40.3588 199.346 39.888 198.874C39.4172 198.402 39.1524 197.762 39.1516 197.094V156.028C39.1524 155.36 39.4172 154.72 39.888 154.248C40.3588 153.776 40.9971 153.51 41.6629 153.509H61.3666C62.0323 153.51 62.6707 153.776 63.1414 154.248C63.6122 154.72 63.877 155.36 63.8778 156.028V197.094C63.877 197.762 63.6122 198.402 63.1414 198.874C62.6707 199.346 62.0323 199.612 61.3666 199.613Z"
                fill="#3763e9" />
            <path
                d="M108.114 200H88.4108C87.6426 199.999 86.906 199.693 86.3628 199.148C85.8196 198.603 85.514 197.865 85.5132 197.094V117.285C85.514 116.515 85.8196 115.776 86.3628 115.231C86.906 114.687 87.6426 114.38 88.4108 114.379H108.114C108.883 114.38 109.619 114.687 110.162 115.231C110.706 115.776 111.011 116.515 111.012 117.285V197.094C111.011 197.865 110.706 198.603 110.162 199.148C109.619 199.693 108.883 199.999 108.114 200ZM88.4108 115.154C87.8474 115.155 87.3073 115.38 86.909 115.779C86.5106 116.179 86.2865 116.72 86.2859 117.285V197.094C86.2865 197.659 86.5106 198.201 86.909 198.6C87.3073 199 87.8474 199.224 88.4108 199.225H108.114C108.678 199.224 109.218 199 109.616 198.6C110.015 198.201 110.239 197.659 110.239 197.094V117.285C110.239 116.72 110.015 116.179 109.616 115.779C109.218 115.38 108.678 115.155 108.114 115.154H88.4108Z"
                fill="#3F3D56" />
            <path
                d="M154.862 200H135.159C134.39 199.999 133.654 199.693 133.111 199.148C132.567 198.603 132.262 197.865 132.261 197.094V66.5326C132.262 65.7623 132.567 65.0237 133.111 64.4789C133.654 63.9342 134.39 63.6278 135.159 63.627H154.862C155.631 63.6278 156.367 63.9342 156.91 64.4789C157.453 65.0237 157.759 65.7623 157.76 66.5326V197.094C157.759 197.865 157.453 198.603 156.91 199.148C156.367 199.693 155.631 199.999 154.862 200ZM135.159 64.4018C134.595 64.4024 134.055 64.6271 133.657 65.0266C133.258 65.4261 133.034 65.9677 133.034 66.5326V197.094C133.034 197.659 133.258 198.201 133.657 198.6C134.055 199 134.595 199.224 135.159 199.225H154.862C155.426 199.224 155.966 199 156.364 198.6C156.762 198.201 156.987 197.659 156.987 197.094V66.5326C156.987 65.9677 156.762 65.4261 156.364 65.0266C155.966 64.6271 155.426 64.4024 154.862 64.4018H135.159Z"
                fill="#3F3D56" />
            <path
                d="M202.047 199.806H182.343C181.677 199.805 181.039 199.54 180.568 199.068C180.097 198.596 179.833 197.955 179.832 197.288V13.2619C179.833 12.5943 180.097 11.9542 180.568 11.4821C181.039 11.01 181.677 10.7444 182.343 10.7437H202.047C202.713 10.7444 203.351 11.01 203.822 11.4821C204.292 11.9542 204.557 12.5943 204.558 13.2619V197.288C204.557 197.955 204.292 198.596 203.822 199.068C203.351 199.54 202.713 199.805 202.047 199.806Z"
                fill="#3763e9" />
            <path
                d="M79.5023 86.1466C79.5738 85.5816 79.5208 85.0077 79.3472 84.4654C79.1736 83.9232 78.8835 83.4256 78.4974 83.0079C78.1114 82.5902 77.6386 82.2625 77.1126 82.0478C76.5865 81.8331 76.0199 81.7367 75.4526 81.7654L68.5847 69.1318L67.0393 74.5558L71.7446 86.1342C71.8558 87.0866 72.3115 87.965 73.0254 88.603C73.7392 89.241 74.6617 89.5942 75.6179 89.5957C76.5742 89.5972 77.4977 89.247 78.2137 88.6113C78.9296 87.9756 79.3881 87.0986 79.5023 86.1466Z"
                fill="#A0616A" />
            <path
                d="M26.5869 136.029L30.4121 138.83L43.0051 125.366L37.359 121.232L26.5869 136.029Z"
                fill="#A0616A" />
            <path
                d="M35.1965 147.793L23.1734 138.991L26.5647 134.333L33.9426 139.734C35.1746 140.636 35.9988 141.992 36.234 143.503C36.4691 145.014 36.096 146.558 35.1965 147.793Z"
                fill="#2F2E41" />
            <path
                d="M46.8257 150.854L51.5623 150.853L53.8155 132.533L46.825 132.533L46.8257 150.854Z"
                fill="#A0616A" />
            <path
                d="M60.6973 155.263L45.811 155.264L45.8108 149.496L54.9455 149.496C56.4709 149.496 57.9338 150.103 59.0125 151.185C60.0912 152.267 60.6972 153.734 60.6973 155.263Z"
                fill="#2F2E41" />
            <path
                d="M61.0508 79.3987C61.0508 79.3987 63.3689 101.869 57.5737 117.366L53.3238 146.81H45.9832L46.7559 111.942L44.0515 80.9484C44.0515 80.9484 49.4604 67.0012 61.0508 79.3987Z"
                fill="#2F2E41" />
            <path
                d="M35.9382 80.9483L43.6652 107.68L28.5977 131.701L36.1314 138.093L53.3238 111.167L48.3013 78.2363L35.9382 80.9483Z"
                fill="#2F2E41" />
            <path
                d="M55.6436 21.0037C60.8843 21.0037 65.1327 16.7434 65.1327 11.4882C65.1327 6.23289 60.8843 1.97266 55.6436 1.97266C50.4029 1.97266 46.1545 6.23289 46.1545 11.4882C46.1545 16.7434 50.4029 21.0037 55.6436 21.0037Z"
                fill="#A0616A" />
            <path
                d="M47.7219 24.5782C47.7219 24.5782 53.5171 20.704 60.085 29.2273L61.8235 82.8854C61.8235 82.8854 56.801 75.9118 46.3696 82.4979C35.9383 89.0841 33.6202 81.7231 33.6202 81.7231C33.6202 81.7231 26.2796 26.3216 47.7219 24.5782Z"
                fill="#CCCCCC" />
            <path
                d="M59.6177 29.0919C61.2844 29.1823 62.859 29.8875 64.0384 31.0719C65.2178 32.2563 65.9189 33.8362 66.0066 35.5077L67.2325 58.8651L75.3458 80.9482L70.7096 84.8224L55.6421 58.4776L52.5572 36.8234C52.4158 35.8308 52.4956 34.8192 52.7909 33.8614C53.0861 32.9035 53.5895 32.0232 54.2647 31.2838C54.9399 30.5444 55.7702 29.9643 56.6958 29.5853C57.6214 29.2063 58.6193 29.0378 59.6177 29.0919Z"
                fill="#CCCCCC" />
            <path
                d="M48.671 18.6259C50.2223 20.283 53.1032 19.3934 53.3054 17.1296C53.3212 16.9539 53.3201 16.777 53.3019 16.6015C53.1976 15.5987 52.6199 14.6883 52.7583 13.6296C52.7896 13.3661 52.8875 13.115 53.0427 12.9C54.2789 11.2401 57.1807 13.6425 58.3474 12.1398C59.0627 11.2183 58.2218 9.76759 58.7708 8.73774C59.4953 7.37851 61.6414 8.04902 62.9872 7.30464C64.4846 6.47642 64.395 4.17261 63.4093 2.77132C62.2073 1.0624 60.0997 0.150503 58.0183 0.0190693C55.9369 -0.112364 53.8699 0.451855 51.9268 1.21123C49.719 2.07402 47.5296 3.26643 46.171 5.21316C44.5187 7.58059 44.3597 10.7634 45.186 13.5316C45.6887 15.2156 47.4042 17.2727 48.671 18.6259Z"
                fill="#2F2E41" />
            <path
                d="M250.54 199.836H0.459901C0.338128 199.835 0.22146 199.787 0.135478 199.7C0.0494955 199.614 0.0012207 199.496 0.0012207 199.374C0.0012207 199.252 0.0494955 199.135 0.135478 199.049C0.22146 198.962 0.338128 198.913 0.459901 198.913H250.54C250.662 198.913 250.778 198.962 250.864 199.049C250.95 199.135 250.999 199.252 250.999 199.374C250.999 199.496 250.95 199.614 250.864 199.7C250.778 199.787 250.662 199.835 250.54 199.836Z"
                fill="#3F3D56" />
        </g>
    </g>
    <defs>
        <clipPath id="clip0_163_34358">
            <rect width="251" height="251" fill="white" />
        </clipPath>
    </defs>
</svg>