<?xml version="1.0" encoding="UTF-8"?>
<svg width="512pt" height="512pt" version="1.1" viewBox="0 0 512 512" xmlns="http://www.w3.org/2000/svg">
 <path d="m415.34 210.88c12.621 12.375 19.863 29.66 19.863 47.422 0 3.5312-2.8672 6.3984-6.3984 6.3984s-6.3984-2.8672-6.3984-6.3984c0-14.34-5.8438-28.293-16.031-38.281l-120.41-118.13c-8.0703-7.9258-18.703-12.289-29.957-12.289s-21.879 4.3516-29.918 12.246c-7.4766 7.3281-95.387 93.113-120.19 117.11-10.355 10.016-16.293 24.066-16.293 38.539 0 3.5312-2.8672 6.3984-6.3984 6.3984-3.5352 0.003906-6.4023-2.8633-6.4023-6.3984 0-17.922 7.3633-35.324 20.191-47.742 24.797-23.977 112.66-109.73 120.12-117.04 10.441-10.254 24.254-15.906 38.883-15.906s28.453 5.6641 38.926 15.953zm-32.461 33.625c3.6758 3.6055 5.7812 8.6328 5.7812 13.793v145.84c0 17.133-14.551 31.062-32.441 31.062h-61.066c-3.5312 0-6.3984-2.8672-6.3984-6.3984l-0.003906-89.805c0-16.285-13.891-29.699-30.965-29.91-8.9609-0.097657-17.105 3.1445-23.199 9.1641-5.5508 5.4766-8.6055 12.66-8.6055 20.215v90.336c0 3.5312-2.8672 6.3984-6.3984 6.3984h-63.793c-17.891 0-32.445-13.938-32.445-31.062v-146.65c0-5.207 2.1406-10.266 5.8711-13.879 25.309-24.48 115.13-112.14 120.35-117.25 3.543-3.4805 9.3203-3.4922 12.875 0.003906zm-7.0195 13.797c0-1.7461-0.71094-3.4414-1.9453-4.6523l-117.91-115.68c-15.789 15.426-94.457 92.188-117.88 114.84-1.2539 1.2148-1.9766 2.9219-1.9766 4.6836v146.65c0 10.07 8.8125 18.262 19.645 18.262h57.387v-83.941c0-11.004 4.4102-21.418 12.41-29.32 8.5547-8.4414 20.102-12.914 32.352-12.855 24.043 0.29297 43.605 19.449 43.605 42.711l0.003906 83.402h54.668c10.828 0 19.641-8.1914 19.641-18.262z" />
</svg>
