<svg width="21" height="21" viewBox="0 0 21 21" fill="none" xmlns="http://www.w3.org/2000/svg">
<g clip-path="url(#clip0_1490_255)">
<path d="M10.5 2.03174C13.1719 2.03174 13.4883 2.04346 14.5391 2.09033C15.5156 2.1333 16.043 2.29736 16.3945 2.43408C16.8594 2.61377 17.1953 2.83252 17.543 3.18018C17.8945 3.53174 18.1094 3.86377 18.2891 4.32861C18.4258 4.68018 18.5898 5.21143 18.6328 6.18408C18.6797 7.23877 18.6914 7.55518 18.6914 10.2231C18.6914 12.895 18.6797 13.2114 18.6328 14.2622C18.5898 15.2388 18.4258 15.7661 18.2891 16.1177C18.1094 16.5825 17.8906 16.9185 17.543 17.2661C17.1914 17.6177 16.8594 17.8325 16.3945 18.0122C16.043 18.1489 15.5117 18.313 14.5391 18.356C13.4844 18.4028 13.168 18.4145 10.5 18.4145C7.82812 18.4145 7.51172 18.4028 6.46094 18.356C5.48438 18.313 4.95703 18.1489 4.60547 18.0122C4.14062 17.8325 3.80469 17.6138 3.45703 17.2661C3.10547 16.9145 2.89062 16.5825 2.71094 16.1177C2.57422 15.7661 2.41016 15.2349 2.36719 14.2622C2.32031 13.2075 2.30859 12.8911 2.30859 10.2231C2.30859 7.55127 2.32031 7.23486 2.36719 6.18408C2.41016 5.20752 2.57422 4.68018 2.71094 4.32861C2.89062 3.86377 3.10937 3.52783 3.45703 3.18018C3.80859 2.82861 4.14062 2.61377 4.60547 2.43408C4.95703 2.29736 5.48828 2.1333 6.46094 2.09033C7.51172 2.04346 7.82812 2.03174 10.5 2.03174ZM10.5 0.230957C7.78516 0.230957 7.44531 0.242676 6.37891 0.289551C5.31641 0.336426 4.58594 0.508301 3.95312 0.754394C3.29297 1.01221 2.73438 1.35205 2.17969 1.91064C1.62109 2.46533 1.28125 3.02393 1.02344 3.68018C0.777344 4.31689 0.605469 5.04346 0.558594 6.10596C0.511719 7.17627 0.5 7.51611 0.5 10.231C0.5 12.9458 0.511719 13.2856 0.558594 14.352C0.605469 15.4145 0.777344 16.145 1.02344 16.7778C1.28125 17.438 1.62109 17.9966 2.17969 18.5513C2.73438 19.106 3.29297 19.4497 3.94922 19.7036C4.58594 19.9497 5.3125 20.1216 6.375 20.1685C7.44141 20.2153 7.78125 20.227 10.4961 20.227C13.2109 20.227 13.5508 20.2153 14.6172 20.1685C15.6797 20.1216 16.4102 19.9497 17.043 19.7036C17.6992 19.4497 18.2578 19.106 18.8125 18.5513C19.3672 17.9966 19.7109 17.438 19.9648 16.7817C20.2109 16.145 20.3828 15.4185 20.4297 14.356C20.4766 13.2895 20.4883 12.9497 20.4883 10.2349C20.4883 7.52002 20.4766 7.18018 20.4297 6.11377C20.3828 5.05127 20.2109 4.3208 19.9648 3.68799C19.7187 3.02393 19.3789 2.46533 18.8203 1.91064C18.2656 1.35596 17.707 1.01221 17.0508 0.758301C16.4141 0.512207 15.6875 0.340332 14.625 0.293457C13.5547 0.242676 13.2148 0.230957 10.5 0.230957Z" fill="white"/>
<path d="M10.5 5.09424C7.66406 5.09424 5.36328 7.39502 5.36328 10.231C5.36328 13.0669 7.66406 15.3677 10.5 15.3677C13.3359 15.3677 15.6367 13.0669 15.6367 10.231C15.6367 7.39502 13.3359 5.09424 10.5 5.09424ZM10.5 13.563C8.66016 13.563 7.16797 12.0708 7.16797 10.231C7.16797 8.39111 8.66016 6.89893 10.5 6.89893C12.3398 6.89893 13.832 8.39111 13.832 10.231C13.832 12.0708 12.3398 13.563 10.5 13.563Z" fill="white"/>
<path d="M17.0391 4.89111C17.0391 5.55518 16.5 6.09033 15.8398 6.09033C15.1758 6.09033 14.6406 5.55127 14.6406 4.89111C14.6406 4.22705 15.1797 3.69189 15.8398 3.69189C16.5 3.69189 17.0391 4.23096 17.0391 4.89111Z" fill="white"/>
</g>
<defs>
<clipPath id="clip0_1490_255">
<rect width="20" height="20" fill="white" transform="translate(0.5 0.230957)"/>
</clipPath>
</defs>
</svg>
