<svg width="230" height="229" viewBox="0 0 230 229" fill="none" xmlns="http://www.w3.org/2000/svg">
<g clip-path="url(#clip0_163_34301)">
<path d="M230 114.391C230.015 127.418 227.789 140.35 223.417 152.63C223.398 152.687 223.379 152.738 223.357 152.795V152.798C220.083 161.933 215.649 170.615 210.163 178.633C209.212 180.029 208.228 181.403 207.21 182.754C206.09 184.249 204.935 185.713 203.744 187.148C202.646 188.471 201.518 189.769 200.362 191.042C198.988 192.558 197.573 194.035 196.117 195.473C192.691 198.868 189.052 202.044 185.224 204.983C184.552 205.502 183.872 206.012 183.186 206.513C181.588 207.687 179.958 208.819 178.296 209.909C174.641 212.313 170.85 214.505 166.941 216.474C166.266 216.816 165.586 217.153 164.903 217.479C162.262 218.748 159.567 219.916 156.818 220.982C156.034 221.289 155.247 221.585 154.452 221.87C154.318 221.922 154.185 221.971 154.048 222.017C144.622 225.401 134.79 227.537 124.804 228.37C124.11 228.432 123.415 228.485 122.719 228.527C121.982 228.579 121.243 228.621 120.504 228.652C119.919 228.682 119.338 228.704 118.75 228.72C118.63 228.726 118.507 228.731 118.387 228.731C117.598 228.755 116.805 228.771 116.011 228.777C115.675 228.78 115.339 228.783 115 228.783C114.841 228.783 114.683 228.783 114.525 228.78C112.233 228.772 109.958 228.697 107.701 228.557C107.655 228.554 107.608 228.549 107.562 228.549C106.753 228.495 105.947 228.438 105.144 228.367C102.284 228.128 99.4553 227.784 96.6572 227.334C96.0126 227.234 95.3697 227.125 94.7287 227.008C91.9452 226.519 89.1982 225.93 86.4875 225.239C85.6817 225.036 84.8804 224.823 84.0837 224.601C73.0071 221.531 62.4593 216.818 52.7961 210.619C51.1353 209.556 49.5054 208.451 47.9065 207.304C47.7099 207.168 47.5159 207.027 47.322 206.885C43.4381 204.069 39.735 201.013 36.2344 197.737C34.5764 196.188 32.9666 194.59 31.405 192.944C11.1987 171.733 -0.0440695 143.612 -0.000115747 114.391C-0.000115747 51.2153 51.4876 0 115 0C178.512 0 230 51.2153 230 114.391Z" fill="#F2F2F2"/>
<path d="M129.029 29.1626C131.332 25.3745 134.06 21.33 138.333 20.093C143.282 18.6606 148.365 21.5062 152.677 24.3142C165.571 32.712 177.989 41.8128 189.873 51.5749L189.86 51.722C180.608 51.0873 171.356 50.4527 162.104 49.818C155.419 49.3595 148.505 48.8377 142.597 45.6921C140.356 44.4985 138.17 42.9041 135.63 42.793C132.474 42.6549 129.723 44.8474 127.56 47.138C114.768 60.6876 111.066 81.4081 96.7151 93.3124C105.765 71.113 116.57 49.6624 129.029 29.1626Z" fill="white"/>
<path d="M50.3993 144.088C51.8139 142.311 52.3919 141.895 53.7873 140.101C65.1488 125.485 75.8278 110.374 85.8241 94.7702C92.614 84.1724 99.0672 73.3712 105.184 62.3664C108.096 57.1347 110.928 51.8618 113.68 46.5479C115.816 42.4276 117.904 38.2827 119.944 34.1131C120.528 32.9222 121.095 31.7258 121.659 30.5267C122.988 27.7068 124.293 24.8733 125.694 22.0918C127.29 18.9215 129.233 15.5979 132.164 13.4679C133.498 12.4588 135.094 11.8482 136.764 11.7076C139.15 11.5543 141.352 12.5344 143.421 13.6048C158.564 21.4593 172.741 31.307 185.564 42.5125C198.42 53.7431 209.911 66.4311 219.803 80.3177C220.106 80.7475 220.821 80.3369 220.516 79.9043C219.313 78.2124 218.086 76.5388 216.836 74.8834C206.459 61.1457 194.491 48.6716 181.18 37.7187C174.59 32.2949 167.689 27.2554 160.513 22.6256C156.861 20.2712 153.14 18.0272 149.35 15.8935C147.44 14.8176 145.521 13.7554 143.57 12.7589C141.657 11.7815 139.626 10.9027 137.441 10.8698C130.004 10.7548 126.153 19.1323 123.508 24.7693C122.677 26.5433 121.836 28.3119 120.985 30.075C117.767 36.7687 114.426 43.4013 110.961 49.9728C108.822 54.0301 106.637 58.0637 104.405 62.0735C97.458 74.5603 90.0746 86.7943 82.2543 98.7755C71.8946 114.646 61.6176 128.666 49.8158 143.507C49.491 143.918 50.0717 144.504 50.3993 144.088Z" fill="white"/>
<path d="M91.5591 77.4699L80.4792 73.4389L74.978 71.4374C73.1864 70.7856 71.3991 70.0436 69.5469 69.5768C67.9094 69.1641 66.2455 69.0966 64.6311 69.6391C63.2066 70.1636 61.9027 70.9676 60.7969 72.0033C59.6672 73.0382 58.616 74.1548 57.652 75.3441C56.4543 76.7758 55.2743 78.2226 54.089 79.6645C49.197 85.6156 44.337 91.5925 39.509 97.5952C34.681 103.598 29.8854 109.626 25.1221 115.68C20.347 121.748 15.6049 127.842 10.8956 133.961C10.3187 134.711 9.74225 135.461 9.16634 136.211C8.84816 136.626 8.13071 136.217 8.4534 135.797C13.1975 129.616 17.9746 123.46 22.7848 117.33C27.6068 111.186 32.4622 105.067 37.3508 98.9741C42.2394 92.8816 47.161 86.8155 52.1157 80.7758C53.35 79.2711 54.5864 77.7681 55.8248 76.2668C56.8695 75.0003 57.9024 73.7202 59.0482 72.5414C61.1514 70.3777 63.7791 68.4656 66.9245 68.4137C68.7738 68.3832 70.5636 68.967 72.2818 69.5853C74.1341 70.2518 75.982 70.9309 77.8319 71.6039L88.9892 75.6631L91.7785 76.6779C92.2735 76.858 92.0597 77.6521 91.5591 77.4699Z" fill="white"/>
<path d="M61.214 77.5098C62.3047 76.1892 63.4839 74.8064 65.1152 74.27L66.6383 74.3298C55.0441 94.7086 39.3853 112.516 20.623 126.658C34.1534 110.275 47.6837 93.8924 61.214 77.5098Z" fill="white"/>
<path d="M135.28 56.411C135.281 58.4933 134.768 60.5441 133.786 62.3831C132.804 64.2222 131.383 65.7933 129.648 66.9586C127.913 68.124 125.917 68.8478 123.835 69.0667C121.753 69.2856 119.649 68.9928 117.708 68.214C115.766 67.4352 114.047 66.1942 112.7 64.6C111.353 63.0059 110.42 61.1072 109.983 59.0707C109.546 57.0341 109.619 54.9221 110.194 52.9199C110.769 50.9177 111.83 49.0866 113.283 47.5873C113.303 47.567 113.324 47.5466 113.344 47.5263C113.446 47.4194 113.549 47.3125 113.656 47.2107C113.657 47.2107 113.657 47.2106 113.658 47.2104C113.659 47.2101 113.659 47.2097 113.66 47.2093C113.66 47.2088 113.661 47.2082 113.661 47.2076C113.661 47.207 113.661 47.2063 113.661 47.2056C113.794 47.0835 113.927 46.9614 114.065 46.8444C115.913 45.2327 118.189 44.1851 120.62 43.8268C123.052 43.4685 125.535 43.8148 127.773 44.8242C130.012 45.8336 131.91 47.4633 133.242 49.5183C134.573 51.5732 135.281 53.9663 135.28 56.411Z" fill="#2F2E41"/>
<path d="M126.923 66.8976C131.111 62.7316 131.111 55.9773 126.923 51.8114C122.735 47.6455 115.945 47.6455 111.757 51.8114C107.569 55.9773 107.569 62.7316 111.757 66.8976C115.945 71.0635 122.735 71.0635 126.923 66.8976Z" fill="#9E616A"/>
<path d="M127.003 49.0958C125.341 47.5493 123.275 46.5005 121.041 46.0699C118.807 45.6392 116.496 45.8442 114.374 46.6612C114.312 46.6857 114.249 46.7128 114.186 46.7427C114.183 46.7427 114.183 46.7454 114.18 46.7454C113.976 46.8297 113.768 46.9166 113.569 47.0117L113.446 47.0715V47.0878C113.424 47.1041 113.399 47.1231 113.375 47.1394C113.324 47.186 113.263 47.2196 113.197 47.2372C111.135 47.2644 109.455 47.96 108.209 49.305C106.546 51.0983 105.764 53.9975 106.005 57.47L106.01 57.5759L106.103 57.6357C106.983 58.1819 107.816 58.6628 108.619 59.0839C109.094 59.3366 109.556 59.5676 110.015 59.7795C110.069 59.804 110.124 59.8312 110.179 59.8556C114.822 61.9886 119.07 62.3744 123.151 61.024L123.227 60.9995L124.962 58.1085C125.141 59.0962 125.618 60.0061 126.331 60.7165C127.044 61.4269 127.958 61.9038 128.95 62.0837L129.671 62.2114L130.728 62.3961L130.772 62.1978C131.821 57.4971 130.305 52.234 127.003 49.0958Z" fill="#2F2E41"/>
<path d="M153.348 71.4853C149.699 69.6116 154.392 62.8112 153.449 58.8353C152.506 54.8593 145.714 53.5805 145.281 49.518C144.849 45.4556 143.831 41.2656 141.136 38.183C139.414 36.2133 136.876 34.7591 134.264 35.0058C133.38 35.0893 132.524 35.3613 131.756 35.8033C130.987 36.2453 130.323 36.8469 129.809 37.5672C129.295 38.2874 128.943 39.1094 128.777 39.9771C128.612 40.8448 128.636 41.7378 128.848 42.5954C128.104 41.547 126.179 41.7742 125.703 42.9667C125.279 44.0269 126.215 45.311 127.316 45.4048C128.758 47.1751 130.408 49.0538 132.665 49.4109C133.393 49.5259 134.21 49.4416 134.741 48.9343C135.273 48.4269 135.314 47.4125 134.684 47.0334C137.521 48.1545 139.184 51.2059 139.605 54.2136C140.026 57.2214 139.444 60.2646 139.06 63.2773C138.676 66.2899 138.511 69.4591 139.699 72.2567C141.102 75.5622 144.332 77.9312 147.857 78.691C151.383 79.4507 155.137 78.7082 158.328 77.0353C161.519 75.3622 164.18 72.8082 166.354 69.9449C162.609 72.5897 157.429 73.5805 153.348 71.4853Z" fill="#2F2E41"/>
<path d="M111.884 116.294L104.477 166.609L144.912 163.578L132.809 114.08L111.884 116.294Z" fill="#FFB8B8"/>
<path d="M154.185 221.504C154.149 221.677 154.103 221.849 154.048 222.017C149.382 223.695 144.609 225.067 139.762 226.123C138.74 222.781 136.782 216.452 135.066 211.276C133.665 207.051 132.428 203.595 131.996 203.163C130.797 201.976 131.996 200.391 131.996 200.391L126.874 184.553L124.547 177.358L123.749 192.474L122.591 214.368L122.558 214.982C122.558 214.982 120.963 219.735 121.761 220.528C122.558 221.322 120.963 224.492 120.963 224.492L120.504 228.652C119.92 228.682 119.338 228.704 118.751 228.72L118.551 228.783L118.387 228.731C117.598 228.756 116.806 228.771 116.011 228.777C115.675 228.78 115.339 228.783 115 228.783C114.842 228.783 114.683 228.783 114.525 228.78C112.233 228.772 109.958 228.698 107.701 228.557L106.3 217.213L104.852 205.492C104.852 205.492 106.445 202.326 104.852 200.742C103.893 199.788 104.374 198.403 104.912 197.452C104.579 195.982 104.123 193.721 103.508 190.373C103.486 190.262 103.467 190.148 103.445 190.034C103.251 188.971 103.078 187.93 102.924 186.909C102.651 185.113 102.437 183.388 102.274 181.736C101.718 176.385 101.641 170.995 102.044 165.631C102.197 163.724 102.388 162.327 102.514 161.52C102.525 161.444 102.642 161.017 102.834 160.344C103.134 159.265 103.628 157.553 104.183 155.638C104.478 154.621 104.789 153.548 105.098 152.48C105.636 150.63 106.172 148.796 106.603 147.312V147.304C106.983 146.003 107.286 144.976 107.444 144.438C107.521 144.174 107.562 144.03 107.562 144.03C107.562 144.03 107.647 144.011 107.808 143.976C108.308 143.862 109.542 143.587 111.252 143.22C113.036 142.845 115.333 142.37 117.857 141.886C120.018 141.473 122.345 141.052 124.659 140.674C125.489 140.541 126.32 140.411 127.139 140.288C132.201 139.539 136.847 139.112 139.049 139.598C139.201 139.631 139.352 139.671 139.5 139.721C139.649 139.77 139.793 139.834 139.929 139.914C139.997 139.954 140.658 142.519 141.502 145.861C141.51 145.894 141.518 145.929 141.527 145.962C141.781 146.973 142.051 148.049 142.327 149.149C142.608 150.271 142.892 151.415 143.171 152.529C143.999 155.839 144.763 158.901 145.157 160.401C145.307 160.982 145.405 161.327 145.427 161.365C146.351 162.895 147.104 166.645 147.716 171.348C148.263 175.546 148.697 180.505 149.033 185.322C149.2 187.705 149.342 190.056 149.462 192.262C149.869 199.685 150.033 205.481 150.033 205.481C150.033 205.481 150.642 210.312 151.852 212.591C152.001 212.886 152.191 213.158 152.417 213.398C153.223 214.2 153.316 214.896 153.21 215.39C153.163 215.624 153.066 215.844 152.925 216.037C152.894 216.084 152.858 216.128 152.819 216.17C152.715 216.662 152.733 217.171 152.872 217.654C153.011 218.137 153.267 218.579 153.617 218.941C154.39 219.716 154.327 220.824 154.185 221.504Z" fill="#2F2E41"/>
<path d="M140.939 100.156C140.893 99.814 140.844 99.4689 140.792 99.1211C140.762 98.8983 140.726 98.6755 140.693 98.4554C140.346 96.2328 141.791 94.3308 139.92 92.7929C139.483 92.4388 139.126 91.996 138.874 91.4941L138.445 90.6355L137.656 89.0433L135.93 85.5816L135.632 84.9866C135.547 84.8176 135.451 84.655 135.342 84.5002C135.019 84.0341 134.599 83.643 134.11 83.3536L129.822 80.8103C129.159 80.4192 128.625 79.8441 128.287 79.1556L128.18 78.9382C127.707 77.9737 126.861 75.6668 125.858 74.6642L125.855 74.6615C125.637 74.413 125.34 74.2454 125.014 74.186L120.745 73.7648C120.062 73.6958 119.373 73.8045 118.745 74.0803C118.117 74.3561 117.572 74.7895 117.163 75.338L117.046 75.8679L116.36 78.9736L116.322 78.9817C116.12 79.0279 115.918 79.0741 115.718 79.1311C111.291 80.3348 109.444 95.7328 109.444 95.7328C109.444 95.7328 106.344 100.822 107.562 103.971L109.736 109.05C109.753 109.088 109.766 109.128 109.775 109.169C109.971 109.722 110.04 110.312 109.977 110.894L109.979 111.093L109.985 111.53L110.001 112.652L110.053 116.375L110.119 121.035L110.176 125.005L110.195 126.061L106.614 141.563C106.555 142.072 106.598 142.588 106.74 143.081C106.882 143.574 107.121 144.034 107.442 144.435L107.444 144.437C107.523 144.538 107.607 144.634 107.696 144.725L107.699 144.728C107.783 144.815 107.871 144.894 107.961 144.973C108.392 145.348 108.901 145.625 109.451 145.784C110.001 145.943 110.579 145.981 111.146 145.894L111.624 145.82H111.627L118.565 144.785H118.57L119.373 144.666H119.379L127.145 143.505H127.15L128.48 143.304C128.587 143.291 128.691 143.277 128.797 143.269L135.908 142.783C136.071 142.772 136.233 142.751 136.394 142.72H136.397C137.022 142.597 137.608 142.326 138.106 141.931C138.604 141.535 138.998 141.026 139.257 140.446C139.364 140.214 139.446 139.97 139.5 139.721C139.561 139.45 139.595 139.174 139.601 138.897L139.68 132.235L139.95 110.704C139.956 109.986 140.162 109.283 140.546 108.675C141.532 107.109 141.42 103.757 140.939 100.156Z" fill="#3763e9"/>
<path d="M129.018 157.66C128.918 157.111 128.94 156.546 129.083 156.007C129.226 155.467 129.486 154.965 129.845 154.537C130.204 154.108 130.653 153.762 131.161 153.525C131.668 153.288 132.222 153.164 132.783 153.162L137.219 140.335L141.545 145.919L136.669 157.244C136.609 158.181 136.205 159.065 135.534 159.726C134.864 160.387 133.972 160.781 133.029 160.832C132.086 160.884 131.157 160.589 130.417 160.004C129.678 159.42 129.18 158.585 129.018 157.66Z" fill="#9E616A"/>
<path d="M145.943 130.672L144.946 133.172L143.553 148.635C143.121 148.743 142.707 148.917 142.327 149.149C141.501 149.657 140.872 150.428 140.542 151.337C140.212 152.245 140.201 153.238 140.51 154.154L140.92 155.376L137.874 154.444L132.867 152.915L126.964 151.111L127.964 147.885C128.195 147.144 128.242 146.358 128.1 145.595C127.959 144.832 127.632 144.115 127.15 143.505C127.031 143.354 126.902 143.209 126.765 143.073L127.139 140.288L127.36 138.633L124.659 140.674L119.376 144.666H119.373L118.674 145.195C118.674 145.195 118.636 145.054 118.565 144.785C118.431 144.266 118.179 143.272 117.857 141.886C116.261 134.981 115.085 127.986 114.336 120.94C114.172 119.353 114.03 117.728 113.915 116.079C113.798 114.38 113.711 112.658 113.664 110.924C113.271 96.8141 115.451 82.022 124.56 74.4575C125.001 74.4605 125.439 74.5302 125.858 74.664C129.546 75.7916 133.591 81.302 136.388 85.2445C137.049 86.1765 137.639 87.0188 138.139 87.6954L139.349 89.3338C141.002 91.5725 142.145 94.1414 142.701 96.863C142.818 97.439 142.91 98.0223 142.977 98.6128L144.299 110.71V113.826L145.943 130.672Z" fill="#3763e9"/>
<path d="M6.66235 152.357C9.03536 155.154 11.602 157.782 14.3436 160.223L215.82 160.495C218.562 158.054 221.129 155.426 223.502 152.629L6.66235 152.357Z" fill="#CCCCCC"/>
<path d="M116.011 228.777C115.675 228.78 115.339 228.783 115 228.783C114.841 228.783 114.683 228.783 114.525 228.78C112.233 228.772 109.958 228.698 107.701 228.557L107.756 229L107.562 228.549L103.232 218.523L106.3 217.213L111.927 214.809L113.634 220.648L115.268 226.24L115.754 227.897L116.011 228.777Z" fill="#FFB6B6"/>
<path d="M95.9525 217.137L94.7288 227.009C91.9453 226.519 89.1982 225.93 86.4875 225.24V217.14L95.9525 217.137Z" fill="#FFB6B6"/>
<path d="M52.7963 198.943V210.618C51.1355 209.556 49.5056 208.451 47.9067 207.303V198.943H52.7963Z" fill="#CACACA"/>
<path d="M71.7397 196.998V202.831C71.7394 203.906 71.3103 204.937 70.5466 205.697C69.783 206.457 68.7472 206.884 67.6669 206.885H47.322C43.4381 204.069 39.735 201.013 36.2345 197.737C34.5764 196.188 32.9666 194.59 31.405 192.944H67.6669C68.7471 192.945 69.7826 193.373 70.5462 194.133C71.3098 194.893 71.739 195.923 71.7397 196.998Z" fill="#3F3D56"/>
<path d="M119.42 228.508L118.751 228.72L118.551 228.783L118.387 228.731C117.598 228.755 116.806 228.771 116.011 228.777C115.675 228.78 115.339 228.783 115 228.783C114.842 228.783 114.683 228.783 114.525 228.78C112.233 228.772 109.959 228.698 107.701 228.557L107.756 229L107.562 228.549C106.753 228.495 105.948 228.438 105.145 228.367L98.7881 217.778L85.7065 195.99L84.1905 193.465C84.1905 193.465 79.0196 194.987 71.7017 196.446C66.1866 197.549 59.4532 198.612 52.7963 198.959C51.1546 199.046 49.5184 199.09 47.9068 199.076C43.7411 199.049 39.7393 198.661 36.2347 197.737C34.5766 196.188 32.9668 194.59 31.4052 192.944C28.7433 190.144 26.2252 187.212 23.8606 184.159C23.8287 183.039 23.8863 181.918 24.0327 180.806C24.0572 180.621 24.0818 180.434 24.1119 180.244L24.8576 167.647L30.3973 166.919L38.827 165.81L47.9587 164.609L48.9639 172.44C48.9639 172.44 56.0742 172.081 65.083 172.201C79.5523 172.397 98.9138 173.831 101.536 179.988C101.782 180.567 102.028 181.151 102.274 181.735C107.365 193.867 112.042 206.793 115.219 215.977C115.825 217.727 116.374 219.338 116.863 220.783C118.477 225.557 119.42 228.508 119.42 228.508Z" fill="#2F2E41"/>
<path d="M103.931 186.931C103.798 188.083 103.656 189.23 103.508 190.373C102.197 200.484 100.391 210.14 98.7879 217.778C98.0039 221.506 97.2664 224.751 96.6572 227.335C96.0126 227.234 95.3698 227.125 94.7287 227.008C91.9453 226.519 89.1982 225.93 86.4875 225.24C85.6817 225.036 84.8805 224.823 84.0837 224.601L85.7063 195.99L86.2417 186.526L102.924 186.909L103.931 186.931Z" fill="#2F2E41"/>
<path d="M130.754 142.676C131.45 142.29 132.222 142.06 133.017 142.003C133.812 141.945 134.609 142.062 135.354 142.344C136.098 142.626 136.772 143.068 137.326 143.637C137.88 144.206 138.303 144.889 138.563 145.638L157.931 145.661L152.38 154.012L134.839 152.71C133.545 153.062 132.166 152.929 130.964 152.337C129.762 151.745 128.82 150.735 128.316 149.498C127.813 148.261 127.783 146.884 128.232 145.626C128.682 144.369 129.579 143.32 130.754 142.676Z" fill="#FFB6B6"/>
<path d="M141.314 153.97L176.195 157.417L176.287 157.3C176.463 157.076 193.924 134.844 196.858 129.552C198.663 126.372 199.32 122.674 198.721 119.071L198.7 118.983L198.631 118.925C197.209 117.739 195.422 117.071 193.567 117.03C191.711 116.99 189.897 117.58 188.423 118.702C181.339 124.16 175.626 131.182 171.737 139.212L169.53 143.783L143.932 144.875L141.314 153.97Z" fill="#3763e9"/>
<path d="M127.86 216.621L122.719 228.527C121.982 228.579 121.243 228.62 120.504 228.652C119.92 228.682 119.338 228.704 118.75 228.72L118.551 228.782L118.387 228.731C117.598 228.755 116.806 228.771 116.011 228.777C115.675 228.78 115.339 228.782 115 228.782C114.842 228.782 114.683 228.782 114.525 228.78L114.866 227.617L115.268 226.239L116.863 220.783L119.166 212.906L122.591 214.368L127.86 216.621Z" fill="#FFB6B6"/>
<path d="M164.904 217.479C162.262 218.748 159.567 219.916 156.818 220.982L154.13 216.485L162.795 212.7L164.904 217.479Z" fill="#FFB6B6"/>
<path d="M183.186 197.041V206.513C181.588 207.687 179.958 208.819 178.296 209.909V197.041H183.186Z" fill="#CACACA"/>
<path d="M200.362 191.042C198.988 192.558 197.573 194.035 196.117 195.473C192.691 198.868 189.052 202.044 185.224 204.983H163.426C162.847 204.983 162.275 204.86 161.748 204.623C161.221 204.385 160.75 204.038 160.369 203.606L160.366 203.597C159.912 203.087 159.596 202.47 159.448 201.804L159.446 201.799C159.384 201.513 159.353 201.221 159.353 200.929V195.095C159.354 194.021 159.783 192.991 160.546 192.231C161.31 191.471 162.345 191.043 163.426 191.042H200.362Z" fill="#3F3D56"/>
<path d="M209.344 168.272L206.981 178.342C207.212 179.801 207.289 181.28 207.21 182.754C206.09 184.249 204.935 185.713 203.744 187.148C202.646 188.471 201.519 189.769 200.362 191.042C198.988 192.558 197.573 194.035 196.117 195.473C192.326 196.658 187.857 197.142 183.186 197.174C181.574 197.188 179.938 197.144 178.296 197.057C171.639 196.71 164.906 195.647 159.391 194.544C157.932 194.256 156.561 193.963 155.299 193.677C152.909 193.142 150.909 192.642 149.462 192.262C147.831 191.838 146.902 191.563 146.902 191.563L140.699 201.897L135.066 211.276L124.804 228.37C124.11 228.432 123.415 228.485 122.719 228.527C121.982 228.579 121.243 228.621 120.504 228.652C119.92 228.682 119.338 228.704 118.75 228.72L118.551 228.783L118.387 228.731L115.754 227.897L114.866 227.617L111.673 226.606C111.673 226.606 112.386 224.373 113.634 220.648C114.093 219.281 114.623 217.71 115.218 215.977C117.368 209.711 120.348 201.296 123.749 192.474C124.757 189.854 125.801 187.197 126.874 184.553C127.754 182.382 128.65 180.219 129.557 178.086C131.133 174.388 138.748 172.394 147.716 171.348C148.172 171.296 148.631 171.245 149.093 171.196C153.663 170.718 158.511 170.47 163.046 170.356C165.316 170.299 167.507 170.277 169.544 170.275C170.203 170.275 170.843 170.276 171.465 170.28H171.467C173.147 170.288 174.693 170.313 176.054 170.34C176.319 170.345 176.575 170.353 176.827 170.359H176.829C176.999 170.362 177.165 170.367 177.329 170.37C180.304 170.446 182.129 170.538 182.129 170.538L182.836 165.017L182.981 163.903L183.118 162.843V162.841L183.134 162.707L183.246 162.705L185.213 162.667L201.744 162.346L210.775 162.169L209.344 168.272Z" fill="#2F2E41"/>
<path d="M166.941 216.474C166.266 216.816 165.586 217.153 164.903 217.479C162.262 218.748 159.567 219.916 156.818 220.982C156.034 221.289 155.247 221.585 154.452 221.87C154.365 221.748 154.275 221.626 154.185 221.504C150.393 216.327 145.575 209.497 140.699 201.897C138.658 198.718 136.607 195.403 134.615 192.017L149.033 185.322L150.65 184.572L155.299 193.677L159.446 201.799L160.369 203.606L166.941 216.474Z" fill="#2F2E41"/>
<path d="M187.868 103.265C195.204 103.265 201.151 97.3499 201.151 90.053C201.151 82.7561 195.204 76.8408 187.868 76.8408C180.533 76.8408 174.586 82.7561 174.586 90.053C174.586 97.3499 180.533 103.265 187.868 103.265Z" fill="#FFB6B6"/>
<path d="M187.429 102.692C190.534 104.174 194.357 103.672 197.322 101.928C200.287 100.184 202.468 97.3402 203.993 94.268C205.11 92.018 205.921 89.4414 205.275 87.016C204.628 84.5906 202.048 82.5584 199.631 83.2768C201.287 81.9505 201.094 79.2154 199.756 77.572C198.418 75.9287 196.307 75.1385 194.267 74.5429C191.306 73.6785 188.196 73.0685 185.142 73.5106C182.089 73.9527 179.083 75.597 177.646 78.313C176.649 78.5686 175.595 78.4879 174.649 78.0837C173.702 77.6795 172.918 76.9745 172.417 76.0791C172.084 76.9398 172.046 77.8856 172.308 78.7702C172.57 79.6548 173.118 80.4288 173.867 80.9725L169.732 78.7409C168.678 80.1943 169.635 82.4111 171.236 83.2344C172.836 84.0578 174.77 83.8382 176.517 83.3982C178.264 82.9583 176.203 86.6273 178.004 86.6627C179.806 86.698 181.754 87.6357 182.27 89.3529C182.54 90.2523 182.383 91.2182 182.462 92.1535C182.542 93.0888 182.993 94.1265 183.904 94.3702C184.48 94.5241 185.11 94.3201 185.681 94.4911C186.388 94.703 186.82 95.4561 186.882 96.1887C186.944 96.9213 186.713 97.6437 186.485 98.3431C185.584 101.107 188.477 99.5577 187.575 102.322L187.429 102.692Z" fill="#2F2E41"/>
<path d="M213.49 141.717C213.381 130.805 212.884 123.369 212.015 119.611C209.682 109.508 198.906 107.666 197.218 107.438C197.038 106.962 196.762 106.528 196.406 106.162C196.05 105.797 195.623 105.508 195.15 105.314C194.677 105.12 194.17 105.025 193.658 105.035C193.147 105.044 192.643 105.159 192.178 105.37L184.522 108.859C182.968 109.569 181.578 110.589 180.438 111.856C179.297 113.122 178.431 114.609 177.892 116.222L176.756 119.673L176.185 142.831L178.07 152.572L178.072 152.578L179.343 159.14L178.468 160.444L173.478 167.889L173.393 168.019L173.39 168.022L173.172 168.345C173.475 168.511 173.776 168.674 174.071 168.837C174.835 169.255 175.581 169.666 176.308 170.068C176.483 170.166 176.655 170.261 176.827 170.359H176.829C176.939 170.418 177.048 170.478 177.155 170.538C179.881 172.054 182.362 173.459 184.598 174.752C184.91 174.932 185.218 175.111 185.521 175.288C195.847 181.295 201.081 184.974 203.744 187.148C204.935 185.713 206.09 184.249 207.21 182.754C208.226 181.404 209.211 180.03 210.163 178.632C210.33 177.54 210.442 176.448 210.551 175.377C210.682 174.089 210.819 172.755 211.048 171.443C211.149 170.861 210.761 170.31 210.387 169.777C210.04 169.28 209.712 168.813 209.781 168.372C209.852 167.919 210.354 167.424 210.843 166.943C211.376 166.416 211.928 165.873 212.007 165.299C212.225 163.702 212.419 162.099 212.589 160.49C212.867 157.873 213.081 155.249 213.231 152.616C213.441 148.98 213.527 145.347 213.49 141.717Z" fill="#3763e9"/>
<path d="M162.929 180.236C163.154 179.475 163.544 178.773 164.072 178.179C164.599 177.585 165.251 177.113 165.981 176.797C166.712 176.481 167.503 176.327 168.3 176.348C169.096 176.369 169.879 176.563 170.591 176.917L184.445 163.454L186.353 173.283L172.905 184.561C172.228 185.713 171.15 186.578 169.874 186.992C168.599 187.405 167.215 187.339 165.986 186.806C164.756 186.273 163.766 185.31 163.202 184.099C162.639 182.888 162.542 181.513 162.929 180.236Z" fill="#FFB6B6"/>
<path d="M178.417 180.955L205.763 159.14L205.746 158.993C205.715 158.71 202.551 130.674 200.924 124.851C199.977 121.323 197.845 118.224 194.883 116.067L194.807 116.018L194.716 116.025C192.865 116.168 191.119 116.933 189.765 118.196C188.411 119.458 187.529 121.142 187.267 122.97C186.044 131.8 186.902 140.793 189.772 149.237L191.41 154.038L173.89 172.635L178.417 180.955Z" fill="#3763e9"/>
<path d="M38.3827 103.028C44.9283 103.028 50.2346 97.7499 50.2346 91.2389C50.2346 84.7279 44.9283 79.4497 38.3827 79.4497C31.8371 79.4497 26.5308 84.7279 26.5308 91.2389C26.5308 97.7499 31.8371 103.028 38.3827 103.028Z" fill="#A0616A"/>
<path d="M22.4595 181.033L22.3949 180.943C18.9424 176.135 24.1349 164.581 24.9181 162.906C23.9881 162.606 23.1915 161.995 22.6639 161.176C22.1363 160.357 21.9104 159.382 22.0247 158.416L22.3623 155.561L22.7142 152.761L20.1931 150.253L20.186 150.191L18.7352 137.563L16.6257 129.176C15.8308 126.005 15.8986 122.681 16.8219 119.545C17.7453 116.409 19.491 113.574 21.8799 111.331L26.7559 110.561L32.6819 104.881H42.2381L45.5147 107.995C51.9567 113.248 53.486 110.966 60.7501 120.854L55.549 134.484L58.4561 154.588L58.4579 158.226L59.9721 159.9C60.5175 160.503 60.9138 161.224 61.1295 162.006C61.3452 162.789 61.3742 163.61 61.2142 164.406L61.0151 165.396C61.7847 165.724 62.464 166.231 62.996 166.874C63.528 167.517 63.8972 168.278 64.0727 169.092L64.6045 171.56C65.0595 172.158 68.0627 176.141 68.0627 177.23C68.0627 177.393 67.9413 177.551 67.681 177.727C65.6344 179.105 54.3223 181.915 49.3157 179.923C43.9827 177.802 22.7832 180.984 22.5697 181.016L22.4595 181.033Z" fill="#3F3D56"/>
<path d="M16.4382 133.21L26.2928 131.291C29.9373 136.705 31.8938 151.508 31.8938 151.508L42.7892 173.984C43.4589 174.389 44.0088 174.963 44.3829 175.648C44.757 176.333 44.942 177.104 44.9189 177.883C44.8959 178.662 44.6657 179.421 44.2517 180.083C43.8378 180.745 43.2549 181.286 42.5625 181.651C41.87 182.015 41.0928 182.191 40.3098 182.16C39.5269 182.129 38.7662 181.892 38.1053 181.473C37.4445 181.054 36.907 180.469 36.5476 179.776C36.1882 179.083 36.0198 178.308 36.0595 177.53L21.8492 150.9L16.4382 133.21Z" fill="#A0616A"/>
<path d="M16.3832 135.536L16.103 120.966L20.7406 114.795C21.6554 113.587 22.8918 112.657 24.3099 112.111C25.7281 111.565 27.2715 111.425 28.7657 111.705C30.7887 112.1 32.5857 113.243 33.7935 114.905C35.0012 116.566 35.5296 118.622 35.2717 120.657C34.4846 126.826 32.6975 134.546 28.6544 136.293L28.6134 136.311L32.8037 150.888L17.2642 153.047L16.3832 135.536Z" fill="#3F3D56"/>
<path d="M74.9109 134.248C74.9109 134.248 63.0846 125.053 56.6705 123.732L50.9934 131.972L66.3468 141.331L96.2389 149.928C96.7624 150.506 97.4303 150.937 98.175 151.175C98.9196 151.413 99.7145 151.452 100.479 151.286C101.243 151.12 101.95 150.756 102.527 150.231C103.104 149.705 103.531 149.037 103.765 148.295C103.998 147.552 104.031 146.761 103.858 146.002C103.685 145.243 103.313 144.544 102.78 143.974C102.248 143.404 101.573 142.985 100.824 142.758C100.076 142.531 99.2805 142.506 98.519 142.684L74.9109 134.248Z" fill="#A0616A"/>
<path d="M54.1045 136.096L41.7798 128.219L39.2062 120.952C38.7062 119.523 38.6179 117.984 38.9511 116.508C39.2843 115.033 40.0259 113.679 41.092 112.6C42.5471 111.148 44.5024 110.299 46.5625 110.226C48.6225 110.153 50.6338 110.86 52.1894 112.205C56.9041 116.289 62.9799 117.658 62.1887 121.972L64.4585 122.301L76.066 131.07L69.221 145.114L54.1045 136.096Z" fill="#3F3D56"/>
<path d="M24.9393 83.4923C26.2701 81.4443 28.7676 80.0794 31.1886 80.4629C31.4139 78.926 32.0589 77.4801 33.0532 76.2825C34.0474 75.085 35.353 74.1817 36.8276 73.6711C38.3022 73.1605 39.8894 73.0621 41.4164 73.3866C42.9434 73.7111 44.3516 74.4462 45.4876 75.5116C46.2005 74.9475 47.2366 74.9178 48.0828 75.2533C48.916 75.6302 49.641 76.209 50.1911 76.9367C51.5804 78.66 52.4738 80.7258 52.7764 82.9141C53.079 85.1024 52.7794 87.3314 51.9095 89.3638C52.2054 88.2938 51.1274 87.2873 50.0382 87.0472C48.9492 86.8071 47.8067 87.0342 46.7022 86.8778C45.2866 86.6775 44.0141 85.8606 42.5962 85.6768C41.4047 85.5223 40.2064 85.8262 39.0444 86.1308C37.8824 86.4354 36.6872 86.746 35.4939 86.6051C34.3006 86.4641 32.7634 90.9625 32.7841 94.1309C32.788 94.7313 32.6637 95.5022 32.0737 95.6296C31.3473 95.7865 30.9263 94.7892 30.2349 94.5174C29.6188 94.2753 28.8803 94.724 28.6658 95.3474C28.5787 95.6662 28.5693 96.0011 28.6386 96.3242C28.7079 96.6474 28.8537 96.9494 29.064 97.2051C29.489 97.7121 29.9936 98.1475 30.5582 98.4944L30.2734 98.73C29.7997 99.3525 28.8171 99.3795 28.1343 98.9943C27.4516 98.6092 27.003 97.924 26.5985 97.2549C25.3353 95.165 24.2273 92.9383 23.7815 90.5404C23.3357 88.1425 23.6086 85.5403 24.9393 83.4923Z" fill="#2F2E41"/>
<path opacity="0.2" d="M129.023 103.305C130.225 108.287 130.78 113.402 130.673 118.524C130.571 123.647 129.818 128.737 128.431 133.672C127.649 136.459 126.662 139.185 125.479 141.829C125.266 142.304 125.972 142.719 126.187 142.24C128.323 137.477 129.834 132.46 130.681 127.313C131.532 122.165 131.723 116.93 131.249 111.734C130.981 108.822 130.501 105.932 129.813 103.088C129.689 102.578 128.899 102.794 129.023 103.305Z" fill="black"/>
<path opacity="0.2" d="M205.533 138.167L198.682 154.8C197.58 157.477 196.51 160.171 195.363 162.829C194.33 165.223 193.152 167.627 191.413 169.6C189.658 171.592 187.297 173.208 184.6 173.524C184.082 173.585 184.076 174.401 184.6 174.339C187.064 174.051 189.272 172.833 191.055 171.148C192.983 169.326 194.342 167.005 195.452 164.624C196.688 161.969 197.74 159.224 198.854 156.518L202.357 148.013L206.323 138.383C206.523 137.898 205.73 137.687 205.533 138.167Z" fill="black"/>
<path d="M124.331 153.265C124.451 153.613 124.68 153.915 124.983 154.127C125.287 154.338 125.65 154.448 126.02 154.442L133.256 154.256C133.63 154.249 133.99 154.122 134.285 153.894C134.579 153.666 134.792 153.349 134.89 152.991L135.914 142.099C136.278 142.263 136.673 142.343 137.072 142.335C137.418 142.327 137.76 142.25 138.076 142.11C138.393 141.971 138.679 141.77 138.918 141.52C139.157 141.27 139.344 140.976 139.468 140.655C139.593 140.333 139.653 139.99 139.644 139.645C139.635 139.301 139.558 138.961 139.418 138.646C139.277 138.331 139.075 138.047 138.824 137.809C138.573 137.571 138.277 137.385 137.954 137.261C137.631 137.138 137.286 137.078 136.939 137.087C136.78 137.086 136.621 137.103 136.465 137.136C136.296 136.954 136.09 136.808 135.86 136.71C135.631 136.612 135.383 136.562 135.134 136.565L124.002 136.85C123.91 136.854 123.818 136.865 123.728 136.884C123.484 136.93 123.252 137.026 123.049 137.168C122.845 137.31 122.675 137.493 122.549 137.706C122.423 137.919 122.344 138.156 122.318 138.402C122.291 138.647 122.318 138.896 122.397 139.13L124.331 153.265ZM136.124 141.359L136.853 138.764C136.936 138.464 136.938 138.148 136.858 137.847C136.894 137.847 136.925 137.83 136.96 137.83C137.46 137.82 137.943 138.007 138.304 138.351C138.666 138.694 138.875 139.166 138.887 139.663C138.898 140.16 138.711 140.641 138.367 141.002C138.022 141.362 137.548 141.571 137.049 141.584C136.726 141.594 136.406 141.517 136.124 141.359Z" fill="#2F2E41"/>
<path d="M123.728 136.884C123.965 138.233 126.631 139.181 129.837 139.016C132.785 138.881 135.196 137.852 135.638 136.631C135.474 136.583 135.304 136.561 135.134 136.564L124.002 136.85C123.91 136.854 123.818 136.865 123.728 136.884Z" fill="#3F3D56"/>
<path d="M100.228 138.587C100.306 138.352 100.333 138.104 100.307 137.858C100.281 137.613 100.202 137.375 100.076 137.163C99.9497 136.95 99.7793 136.766 99.5759 136.625C99.3725 136.483 99.141 136.386 98.8969 136.341C98.8065 136.322 98.7146 136.31 98.6223 136.307L87.4909 136.021C87.2412 136.019 86.9937 136.068 86.7644 136.167C86.5351 136.265 86.3291 136.41 86.1595 136.593C86.0037 136.559 85.8447 136.543 85.6853 136.543C84.9856 136.526 84.3076 136.786 83.8004 137.265C83.2932 137.745 82.9984 138.406 82.9808 139.102C82.9632 139.798 83.2244 140.472 83.7067 140.977C84.1891 141.481 84.8531 141.775 85.5528 141.792C85.9516 141.8 86.3471 141.719 86.7105 141.555L87.7345 152.448C87.833 152.806 88.0454 153.122 88.3398 153.351C88.6343 153.579 88.9951 153.706 89.3682 153.713L96.6047 153.898C96.9752 153.905 97.3382 153.795 97.6416 153.583C97.9451 153.372 98.1734 153.07 98.2937 152.721L100.228 138.587ZM85.5759 141.041C85.0763 141.028 84.6023 140.818 84.2578 140.458C83.9133 140.098 83.7264 139.617 83.7381 139.12C83.7498 138.623 83.9592 138.151 84.3202 137.807C84.6813 137.463 85.1647 137.276 85.6643 137.286C85.6997 137.287 85.7308 137.303 85.7662 137.303C85.687 137.604 85.6889 137.92 85.7718 138.22L86.5005 140.816C86.2186 140.973 85.8989 141.051 85.5759 141.041Z" fill="#2F2E41"/>
<path d="M98.8968 136.341C98.6597 137.69 95.9934 138.638 92.7874 138.473C89.8392 138.338 87.4287 137.308 86.9871 136.088C87.1505 136.04 87.3205 136.017 87.4909 136.021L98.6222 136.307C98.7146 136.31 98.8064 136.322 98.8968 136.341Z" fill="#3F3D56"/>
<path d="M88.3475 112.68C88.9052 112.274 89.5454 111.996 90.2231 111.863C90.9007 111.731 91.5994 111.748 92.2698 111.913C92.9402 112.078 93.566 112.387 94.1032 112.819C94.6404 113.251 95.0759 113.794 95.379 114.412L112.045 112.406L108.152 120.172L92.9224 120.886C91.8461 121.323 90.6458 121.353 89.5489 120.97C88.4519 120.586 87.5346 119.815 86.9707 118.804C86.4068 117.792 86.2355 116.61 86.4892 115.482C86.743 114.353 87.4042 113.356 88.3475 112.68Z" fill="#9E616A"/>
<path d="M142.701 96.8631C142.209 97.8222 141.611 98.939 140.939 100.156C138.579 104.447 135.337 109.984 132.84 114.198C130.707 117.793 129.114 120.429 129.071 120.502L129.002 120.611L114.336 120.94L111.19 121.01L110.119 121.035L98.627 121.293L98.7362 120.614L99.8097 113.881L99.919 113.193L109.985 111.53L113.664 110.924L121.826 109.577L123.244 105.414C125.741 98.0976 129.914 91.4588 135.432 86.0217C135.594 85.8669 135.757 85.7201 135.93 85.5816C136.08 85.462 136.233 85.3479 136.388 85.2446C137.05 86.1766 137.64 87.0189 138.139 87.6955L139.35 89.3339C141.002 91.5726 142.145 94.1415 142.701 96.8631Z" fill="#3763e9"/>
<path d="M81.7182 121.746C81.8386 122.094 82.0668 122.396 82.3703 122.607C82.6737 122.819 83.0367 122.929 83.4072 122.923L90.6437 122.737C91.0168 122.73 91.3776 122.603 91.6721 122.375C91.9665 122.147 92.1789 121.83 92.2774 121.472L93.3014 110.58C93.6647 110.744 94.0603 110.824 94.4591 110.816C95.1588 110.799 95.8228 110.506 96.3052 110.001C96.7875 109.497 97.0486 108.822 97.0311 108.126C97.0135 107.43 96.7187 106.77 96.2115 106.29C95.7043 105.81 95.0263 105.55 94.3266 105.568C94.1672 105.567 94.0082 105.584 93.8523 105.617C93.6828 105.434 93.4768 105.289 93.2475 105.191C93.0182 105.093 92.7707 105.043 92.521 105.046L81.3896 105.331C81.2972 105.335 81.2054 105.346 81.115 105.365C80.8709 105.411 80.6394 105.507 80.436 105.649C80.2326 105.791 80.0621 105.974 79.936 106.187C79.8099 106.4 79.7311 106.637 79.7048 106.883C79.6786 107.128 79.7055 107.377 79.7839 107.611L81.7182 121.746ZM93.5114 109.84L94.2401 107.245C94.323 106.945 94.3249 106.629 94.2457 106.328C94.281 106.328 94.3122 106.311 94.3476 106.311C94.8472 106.301 95.3306 106.488 95.6916 106.832C96.0527 107.175 96.2621 107.647 96.2738 108.144C96.2855 108.641 96.0986 109.122 95.7541 109.483C95.4096 109.843 94.9355 110.052 94.436 110.065C94.113 110.075 93.7933 109.997 93.5114 109.84Z" fill="#CCCCCC"/>
<path d="M81.115 105.365C81.3521 106.714 84.0184 107.662 87.2244 107.497C90.1726 107.362 92.5831 106.333 93.0247 105.112C92.8613 105.064 92.6913 105.042 92.5209 105.045L81.3896 105.331C81.2972 105.335 81.2054 105.346 81.115 105.365Z" fill="#3F3D56"/>
</g>
<defs>
<clipPath id="clip0_163_34301">
<rect width="230" height="229" fill="white"/>
</clipPath>
</defs>
</svg>
