<svg width="21" height="21" viewBox="0 0 21 21" fill="none" xmlns="http://www.w3.org/2000/svg">
<g id="Social Icons" clip-path="url(#clip0_1468_8297)">
<path id="Vector" d="M10.5 2.03155C13.1719 2.03155 13.4883 2.04327 14.5391 2.09015C15.5156 2.13312 16.043 2.29718 16.3945 2.4339C16.8594 2.61359 17.1953 2.83234 17.543 3.17999C17.8945 3.53155 18.1094 3.86359 18.2891 4.32843C18.4258 4.67999 18.5898 5.21124 18.6328 6.1839C18.6797 7.23859 18.6914 7.55499 18.6914 10.223C18.6914 12.8948 18.6797 13.2112 18.6328 14.262C18.5898 15.2386 18.4258 15.7659 18.2891 16.1175C18.1094 16.5823 17.8906 16.9183 17.543 17.2659C17.1914 17.6175 16.8594 17.8323 16.3945 18.012C16.043 18.1487 15.5117 18.3128 14.5391 18.3558C13.4844 18.4026 13.168 18.4144 10.5 18.4144C7.82812 18.4144 7.51172 18.4026 6.46094 18.3558C5.48438 18.3128 4.95703 18.1487 4.60547 18.012C4.14062 17.8323 3.80469 17.6136 3.45703 17.2659C3.10547 16.9144 2.89062 16.5823 2.71094 16.1175C2.57422 15.7659 2.41016 15.2347 2.36719 14.262C2.32031 13.2073 2.30859 12.8909 2.30859 10.223C2.30859 7.55109 2.32031 7.23468 2.36719 6.1839C2.41016 5.20734 2.57422 4.67999 2.71094 4.32843C2.89062 3.86359 3.10937 3.52765 3.45703 3.17999C3.80859 2.82843 4.14062 2.61359 4.60547 2.4339C4.95703 2.29718 5.48828 2.13312 6.46094 2.09015C7.51172 2.04327 7.82812 2.03155 10.5 2.03155ZM10.5 0.230774C7.78516 0.230774 7.44531 0.242493 6.37891 0.289368C5.31641 0.336243 4.58594 0.508118 3.95312 0.754211C3.29297 1.01202 2.73438 1.35187 2.17969 1.91046C1.62109 2.46515 1.28125 3.02374 1.02344 3.67999C0.777344 4.31671 0.605469 5.04327 0.558594 6.10577C0.511719 7.17609 0.5 7.51593 0.5 10.2308C0.5 12.9456 0.511719 13.2855 0.558594 14.3519C0.605469 15.4144 0.777344 16.1448 1.02344 16.7776C1.28125 17.4378 1.62109 17.9964 2.17969 18.5511C2.73438 19.1058 3.29297 19.4495 3.94922 19.7034C4.58594 19.9495 5.3125 20.1214 6.375 20.1683C7.44141 20.2151 7.78125 20.2269 10.4961 20.2269C13.2109 20.2269 13.5508 20.2151 14.6172 20.1683C15.6797 20.1214 16.4102 19.9495 17.043 19.7034C17.6992 19.4495 18.2578 19.1058 18.8125 18.5511C19.3672 17.9964 19.7109 17.4378 19.9648 16.7816C20.2109 16.1448 20.3828 15.4183 20.4297 14.3558C20.4766 13.2894 20.4883 12.9495 20.4883 10.2347C20.4883 7.51984 20.4766 7.17999 20.4297 6.11359C20.3828 5.05109 20.2109 4.32062 19.9648 3.6878C19.7187 3.02374 19.3789 2.46515 18.8203 1.91046C18.2656 1.35577 17.707 1.01202 17.0508 0.758118C16.4141 0.512024 15.6875 0.340149 14.625 0.293274C13.5547 0.242493 13.2148 0.230774 10.5 0.230774Z" fill="white"/>
<path id="Vector_2" d="M10.5 5.09406C7.66406 5.09406 5.36328 7.39484 5.36328 10.2308C5.36328 13.0667 7.66406 15.3675 10.5 15.3675C13.3359 15.3675 15.6367 13.0667 15.6367 10.2308C15.6367 7.39484 13.3359 5.09406 10.5 5.09406ZM10.5 13.5628C8.66016 13.5628 7.16797 12.0706 7.16797 10.2308C7.16797 8.39093 8.66016 6.89874 10.5 6.89874C12.3398 6.89874 13.832 8.39093 13.832 10.2308C13.832 12.0706 12.3398 13.5628 10.5 13.5628Z" fill="white"/>
<path id="Vector_3" d="M17.0391 4.89087C17.0391 5.55493 16.5 6.09009 15.8398 6.09009C15.1758 6.09009 14.6406 5.55103 14.6406 4.89087C14.6406 4.22681 15.1797 3.69165 15.8398 3.69165C16.5 3.69165 17.0391 4.23071 17.0391 4.89087Z" fill="white"/>
</g>
<defs>
<clipPath id="clip0_1468_8297">
<rect width="20" height="20" fill="white" transform="translate(0.5 0.230774)"/>
</clipPath>
</defs>
</svg>
