<svg width="32" height="32" viewBox="0 0 36 36" fill="none" xmlns="http://www.w3.org/2000/svg">
<g clip-path="url(#clip0_1602_843)">
<path d="M15.375 25.4902C15.375 25.9715 15.7687 26.3652 16.25 26.3652H19.75C20.2312 26.3652 20.625 25.9715 20.625 25.4902V24.6152H15.375V25.4902ZM18 8.86523C14.6225 8.86523 11.875 11.6127 11.875 14.9902C11.875 17.0727 12.9162 18.9015 14.5 20.0127V21.9902C14.5 22.4715 14.8937 22.8652 15.375 22.8652H20.625C21.1062 22.8652 21.5 22.4715 21.5 21.9902V20.0127C23.0837 18.9015 24.125 17.0727 24.125 14.9902C24.125 11.6127 21.3775 8.86523 18 8.86523ZM20.4938 18.5777L19.75 19.1027V21.1152H16.25V19.1027L15.5062 18.5777C14.325 17.7552 13.625 16.4165 13.625 14.9902C13.625 12.5752 15.585 10.6152 18 10.6152C20.415 10.6152 22.375 12.5752 22.375 14.9902C22.375 16.4165 21.675 17.7552 20.4938 18.5777Z" fill="#45464F"/>
</g>
<rect x="0.9375" y="0.552734" width="34.125" height="34.125" rx="17.0625" stroke="#828695" stroke-width="0.875"/>
<defs>
<clipPath id="clip0_1602_843">
<rect x="0.5" y="0.115234" width="35" height="35" rx="17.5" fill="white"/>
</clipPath>
</defs>
</svg>
