<svg width="21" height="21" viewBox="0 0 21 21" fill="none" xmlns="http://www.w3.org/2000/svg">
<g id="Social Icons" clip-path="url(#clip0_1468_8295)">
<path id="Vector" d="M19.0195 0.230774H1.97656C1.16016 0.230774 0.5 0.875305 0.5 1.67218V18.7855C0.5 19.5823 1.16016 20.2308 1.97656 20.2308H19.0195C19.8359 20.2308 20.5 19.5823 20.5 18.7894V1.67218C20.5 0.875305 19.8359 0.230774 19.0195 0.230774ZM6.43359 17.2737H3.46484V7.72687H6.43359V17.2737ZM4.94922 6.42609C3.99609 6.42609 3.22656 5.65655 3.22656 4.70734C3.22656 3.75812 3.99609 2.98859 4.94922 2.98859C5.89844 2.98859 6.66797 3.75812 6.66797 4.70734C6.66797 5.65265 5.89844 6.42609 4.94922 6.42609ZM17.543 17.2737H14.5781V12.6331C14.5781 11.5276 14.5586 10.1019 13.0352 10.1019C11.4922 10.1019 11.2578 11.3089 11.2578 12.555V17.2737H8.29688V7.72687H11.1406V9.03156H11.1797C11.5742 8.28156 12.543 7.48859 13.9844 7.48859C16.9883 7.48859 17.543 9.46515 17.543 12.0355V17.2737Z" fill="white"/>
</g>
<defs>
<clipPath id="clip0_1468_8295">
<rect width="20" height="20" fill="white" transform="translate(0.5 0.230774)"/>
</clipPath>
</defs>
</svg>
