<svg width="21" height="21" viewBox="0 0 21 21" fill="none" xmlns="http://www.w3.org/2000/svg">
<g clip-path="url(#clip0_1490_251)">
<path d="M19.0195 0.230957H1.97656C1.16016 0.230957 0.5 0.875488 0.5 1.67236V18.7856C0.5 19.5825 1.16016 20.231 1.97656 20.231H19.0195C19.8359 20.231 20.5 19.5825 20.5 18.7896V1.67236C20.5 0.875488 19.8359 0.230957 19.0195 0.230957ZM6.43359 17.2739H3.46484V7.72705H6.43359V17.2739ZM4.94922 6.42627C3.99609 6.42627 3.22656 5.65674 3.22656 4.70752C3.22656 3.7583 3.99609 2.98877 4.94922 2.98877C5.89844 2.98877 6.66797 3.7583 6.66797 4.70752C6.66797 5.65283 5.89844 6.42627 4.94922 6.42627ZM17.543 17.2739H14.5781V12.6333C14.5781 11.5278 14.5586 10.102 13.0352 10.102C11.4922 10.102 11.2578 11.3091 11.2578 12.5552V17.2739H8.29688V7.72705H11.1406V9.03174H11.1797C11.5742 8.28174 12.543 7.48877 13.9844 7.48877C16.9883 7.48877 17.543 9.46533 17.543 12.0356V17.2739Z" fill="white"/>
</g>
<defs>
<clipPath id="clip0_1490_251">
<rect width="20" height="20" fill="white" transform="translate(0.5 0.230957)"/>
</clipPath>
</defs>
</svg>
