<?xml version="1.0" encoding="UTF-8"?>
<svg width="512pt" height="512pt" version="1.1" viewBox="0 0 512 512" xmlns="http://www.w3.org/2000/svg">
 <g fill="#fff">
  <path d="m275.92 202.24c4.0742 0 7.9805-1.6172 10.859-4.4961 2.8828-2.8828 4.5-6.7891 4.5-10.863v-51.199c0-12.223-4.8555-23.941-13.496-32.582-8.6445-8.6445-20.363-13.496-32.586-13.496h-132.14c-12.223 0-23.941 4.8516-32.586 13.496-8.6406 8.6406-13.496 20.359-13.496 32.582v240.64c0 12.223 4.8555 23.941 13.496 32.582 8.6445 8.6445 20.363 13.496 32.586 13.496h132.1-0.003907c12.223 0 23.941-4.8516 32.586-13.496 8.6406-8.6406 13.496-20.359 13.496-32.582v-46.082c0-5.4844-2.9297-10.555-7.6797-13.301-4.7539-2.7422-10.609-2.7422-15.359 0-4.7539 2.7461-7.6836 7.8164-7.6836 13.301v46.082c0 4.0742-1.6172 7.9805-4.4961 10.859-2.8828 2.8828-6.7891 4.5-10.863 4.5h-132.09c-4.0742 0-7.9805-1.6172-10.863-4.5-2.8789-2.8789-4.4961-6.7852-4.4961-10.859v-240.64c0-4.0742 1.6172-7.9805 4.4961-10.859 2.8828-2.8828 6.7891-4.5 10.863-4.5h132.1-0.003907c4.0742 0 7.9805 1.6172 10.863 4.5 2.8789 2.8789 4.4961 6.7852 4.4961 10.859v51.199c0 4.082 1.6289 8 4.5195 10.879 2.8906 2.8828 6.8125 4.4961 10.895 4.4805z"/>
  <path d="m165.84 258.56c0 4.0742 1.6211 7.9805 4.5 10.863 2.8789 2.8789 6.7891 4.5 10.859 4.5h211l-56.934 56.32v-0.003907c-3.6875 3.8945-5.0742 9.4297-3.6641 14.602s5.418 9.2344 10.57 10.719c5.1523 1.4844 10.703 0.17188 14.648-3.457l83.508-82.586c2.9219-2.8867 4.5703-6.8203 4.5703-10.93 0-4.1094-1.6484-8.0469-4.5703-10.93l-83.508-82.484c-3.9453-3.6289-9.4961-4.9414-14.648-3.457-5.1523 1.4844-9.1602 5.5469-10.57 10.719s-0.023438 10.707 3.6641 14.602l56.934 56.32h-211c-4.0469-0.003907-7.9297 1.5938-10.805 4.4414-2.8789 2.8477-4.5117 6.7148-4.5547 10.762z"/>
 </g>
</svg>
