<?xml version="1.0" encoding="UTF-8"?>
<svg width="1200pt" height="1200pt" version="1.1" viewBox="0 0 1200 1200" xmlns="http://www.w3.org/2000/svg">
 <g>
  <path d="m1195.6 988.23-141.18-257.29-0.003906-478.41c-0.089844-24.855-10.02-48.664-27.609-66.223-17.59-17.559-41.418-27.438-66.27-27.484h-866.12c-24.945-0.09375-48.906 9.7266-66.613 27.297-17.703 17.574-27.703 41.461-27.797 66.41v583.76c0.09375 24.945 10.094 48.836 27.797 66.406 17.707 17.574 41.668 27.395 66.613 27.301h622.06l439.77 110.29c9.0703 2.375 18.711 1.0469 26.797-3.6953 8.0859-4.7383 13.953-12.504 16.309-21.574 2.3555-9.0742 1.0078-18.711-3.75-26.789zm-466.06-127.77h-635.12c-6.4102 0.10156-12.582-2.4258-17.078-6.9922-4.5-4.5664-6.9375-10.773-6.7422-17.184v-583.76c0.18359-6.1953 2.7734-12.078 7.2227-16.395 4.4453-4.3164 10.402-6.7266 16.598-6.7266h866.12c6.2227-0.09375 12.23 2.2891 16.699 6.625 4.4688 4.3359 7.0312 10.27 7.1211 16.496v488.64 1.5898c-0.0625 1.2344-0.0625 2.4688 0 3.7031v3.3516c0 1.0586 0 2.1172 1.0586 3.1758v0.003906c0.41016 1.1992 0.87891 2.3789 1.4141 3.5312v1.4102l105.88 194.12z"/>
  <path d="m829.41 410.65h-603.18c-12.609 0-24.262 6.7266-30.566 17.645-6.3047 10.922-6.3047 24.375 0 35.297 6.3047 10.918 17.957 17.645 30.566 17.645h603.18c12.609 0 24.262-6.7266 30.566-17.645 6.3047-10.922 6.3047-24.375 0-35.297-6.3047-10.918-17.957-17.645-30.566-17.645z"/>
  <path d="m731.82 607.41h-505.59c-12.609 0-24.262 6.7305-30.566 17.648-6.3047 10.922-6.3047 24.375 0 35.293 6.3047 10.922 17.957 17.648 30.566 17.648h505.59c12.609 0 24.262-6.7266 30.566-17.648 6.3047-10.918 6.3047-24.371 0-35.293-6.3047-10.918-17.957-17.648-30.566-17.648z"/>
 </g>
</svg>
