<svg xmlns="http://www.w3.org/2000/svg" width="256" height="143.245" viewBox="0 0 256 143.245">
  <g id="empty_events" data-name="empty events" transform="translate(-358 -372)">
    <g id="Online_calendar-cuate" data-name="Online calendar-cuate" transform="translate(358 372)">
      <g id="freepik--background-complete--inject-94" transform="translate(1.201 0)">
        <path id="Path_3547" data-name="Path 3547" d="M67.722,60.657l5.152-.11L75.5,60.5c.878,0,1.759,0,2.637-.024h.173v.177l.024,4.4v.2h-.2l-5.211-.024c-1.736,0-3.476-.047-5.211-.067H67.6v-.106c0-.748.031-1.492.051-2.228Zm0,0,.055,2.224c0,.736.043,1.46.051,2.181l-.106-.106c1.736-.024,3.476-.063,5.211-.067l5.211-.024-.2.2v-4.4l.177.173H75.547l-2.59-.043Z" transform="translate(-61.798 -53.285)" fill="#ebebeb"/>
        <path id="Path_3548" data-name="Path 3548" d="M82.51,46.547l5.168-.11,2.621-.043c.874,0,1.756,0,2.633-.024h.173v4.779h-.2L87.7,51.125c-1.736,0-3.476-.047-5.211-.067H82.4v-.11c0-.748.031-1.492.051-2.224Zm0,0,.055,2.224c.02.736.043,1.46.051,2.181l-.106-.106c1.736-.024,3.476-.063,5.211-.067l5.211-.024-.2.2.024-4.4.173.173H90.359l-2.606-.063Z" transform="translate(-70.773 -44.729)" fill="#ebebeb"/>
        <path id="Path_3549" data-name="Path 3549" d="M106.873,192.8l5.168-.106,2.621-.047c.878,0,1.756,0,2.633-.02h.2v.173l.02,4.4v.2h-.2l-5.211-.024c-1.736,0-3.472-.043-5.211-.063h-.106v-.106c0-.744.035-1.488.051-2.224Zm0,0,.059,2.228c0,.732.043,1.456.051,2.177l-.11-.1c1.74-.02,3.476-.063,5.211-.063l5.211-.028-.2.2.024-4.4.173.177c-.858,0-1.712,0-2.574-.02l-2.59-.047Z" transform="translate(-85.562 -133.418)" fill="#ebebeb"/>
        <path id="Path_3550" data-name="Path 3550" d="M121.65,178.764l5.164-.106,2.621-.047h2.81v.154l.024,4.4v.2h-.2l-5.211-.024c-1.74,0-3.476-.043-5.211-.063h-.11v-.106c0-.744.035-1.488.051-2.224Zm0,0,.055,2.228c0,.732.043,1.456.051,2.177l-.106-.106c1.736,0,3.472-.063,5.211-.063l5.211-.028-.2.2v-4.4l.177.177h-2.578l-2.59-.047Z" transform="translate(-94.506 -124.917)" fill="#ebebeb"/>
        <path id="Path_3551" data-name="Path 3551" d="M52.97,46.547l5.164-.11,2.621-.043c.878,0,1.759,0,2.637-.024h.173v.177l.024,4.4v.2h-.2l-5.211-.024c-1.74,0-3.476-.047-5.211-.067h-.11v-.106c0-.748.035-1.492.051-2.224Zm0,0,.055,2.224c0,.736.043,1.46.051,2.181l-.106-.106c1.736-.024,3.472-.063,5.211-.067l5.211-.024-.2.2v-4.4l.177.173H60.8l-2.59-.043Z" transform="translate(-52.86 -44.729)" fill="#ebebeb"/>
        <path id="Path_3552" data-name="Path 3552" d="M454.06,76.911l-5.168.11-2.622.043c-.878,0-1.755,0-2.633.024h-.177V72.31h.2l5.211.024c1.736,0,3.472.047,5.211.067h.106v.106c0,.748-.035,1.492-.051,2.224Zm0,0L454,74.687c0-.736-.043-1.46-.051-2.181l.11.106c-1.74.024-3.476.063-5.211.067l-5.211.024.193-.2v4.4l-.173-.173h2.574l2.59.043Z" transform="translate(-289.714 -60.458)" fill="#ebebeb"/>
        <path id="Path_3553" data-name="Path 3553" d="M665.73,282.751l-5.164.11-2.621.043c-.878,0-1.759,0-2.637.024h-.173v-.177l-.024-4.4v-.2h.2l5.211.028c1.736,0,3.476.043,5.211.063h.11v.106c0,.748-.031,1.492-.051,2.228Zm0,0-.055-2.224c-.02-.732-.043-1.46-.051-2.181l.106.106c-1.736.024-3.476.063-5.211.067l-5.211.024.2-.2-.02,4.4-.177-.173c.858,0,1.716,0,2.578.02l2.59.043Z" transform="translate(-418.055 -185.276)" fill="#ebebeb"/>
        <path id="Path_3554" data-name="Path 3554" d="M680.5,296.911l-5.164.11-2.622.043c-.878.02-1.759,0-2.637.024H669.9v-.177l-.024-4.4v-.2h.2l5.212.028c1.74,0,3.476.043,5.211.063h.11v.106c0,.748-.035,1.492-.051,2.228Zm0,0-.055-2.224c0-.736-.043-1.46-.051-2.181l.106.106c-1.736.024-3.472.063-5.211.067l-5.212.024.2-.2v4.4l-.177-.173c.858,0,1.716,0,2.578.02l2.59.043Z" transform="translate(-427.011 -193.863)" fill="#ebebeb"/>
        <path id="Path_3555" data-name="Path 3555" d="M78.29,296.911l-5.168.11-2.621.043c-.878.02-1.756,0-2.633.024H67.69V292.31h.2l5.211.028c1.736,0,3.472.043,5.211.063h.106v.106c0,.748-.035,1.492-.051,2.228Zm0,0-.059-2.224c0-.736-.043-1.46-.051-2.181l.11.106c-1.74.024-3.476.063-5.211.067l-5.211.024.193-.2v4.4l-.173-.173c.858,0,1.712,0,2.574.02l2.59.043Z" transform="translate(-61.853 -193.863)" fill="#ebebeb"/>
        <path id="Path_3556" data-name="Path 3556" d="M655.342,46.547l5.164-.11,2.621-.043c.878,0,1.759,0,2.637-.024h.173v.177l.024,4.4v.2h-.189l-5.211-.024c-1.74,0-3.476-.047-5.211-.067h-.11v-.106c0-.748.035-1.492.055-2.224Zm0,0,.055,2.224c0,.736.043,1.46.051,2.181l-.106-.106c1.736-.024,3.472-.063,5.211-.067l5.219-.024-.2.2v-4.4l.177.173h-2.578l-2.59-.043Z" transform="translate(-418.134 -44.729)" fill="#ebebeb"/>
        <path id="Path_3557" data-name="Path 3557" d="M456.771,293.416h73.563l1.531-30.186H455.24Z" transform="translate(-277.345 -160.264)" fill="#ebebeb"/>
        <path id="Path_3558" data-name="Path 3558" d="M638.472,322.758H607.715l-.575-10.478h32Zm-30.4-.354h30.053l.626-9.738H607.53Z" transform="translate(-388.966 -205.972)" fill="#dbdbdb"/>
        <path id="Path_3559" data-name="Path 3559" d="M639.924,354.977H610.938l-.468-9.447h30.045Zm-28.632-.37h28.281l.543-8.719H610.86Z" transform="translate(-390.986 -226.134)" fill="#dbdbdb"/>
        <path id="Path_3560" data-name="Path 3560" d="M646.731,324.581h-5.168l-.323-2.531h5.81Zm-4.841-.394H646.4l.252-1.763h-4.995Z" transform="translate(-409.644 -211.897)" fill="#dbdbdb"/>
        <path id="Path_3561" data-name="Path 3561" d="M646.731,356.827h-5.168l-.323-2.527h5.81Zm-4.841-.37H646.4l.232-1.783h-4.975Z" transform="translate(-409.644 -231.452)" fill="#dbdbdb"/>
        <path id="Path_3562" data-name="Path 3562" d="M546.562,322.758H515.8l-.575-10.478h32Zm-30.4-.354h30.076l.622-9.738H515.62Z" transform="translate(-333.234 -205.972)" fill="#dbdbdb"/>
        <path id="Path_3563" data-name="Path 3563" d="M548.014,354.977H519.028l-.468-9.447H548.6Zm-28.632-.37h28.281l.547-8.719H518.95Z" transform="translate(-335.253 -226.134)" fill="#dbdbdb"/>
        <path id="Path_3564" data-name="Path 3564" d="M554.825,324.581h-5.168l-.327-2.531h5.818Zm-4.845-.394H554.5l.213-1.763h-4.96Z" transform="translate(-353.911 -211.897)" fill="#dbdbdb"/>
        <path id="Path_3565" data-name="Path 3565" d="M554.825,356.827h-5.168l-.327-2.527h5.818Zm-4.838-.37h4.519l.228-1.783h-4.983Z" transform="translate(-353.911 -231.452)" fill="#dbdbdb"/>
        <path id="Path_3566" data-name="Path 3566" d="M470.948,339.92l-.464,3.287-.929,6.609H467.74v-9.9Z" transform="translate(-284.925 -206.768)" fill="#ebebeb"/>
        <path id="Path_3567" data-name="Path 3567" d="M470.948,339.92l-.464,3.287H467.74V339.92Z" transform="translate(-284.925 -206.768)" fill="#dbdbdb"/>
        <path id="Path_3568" data-name="Path 3568" d="M629.26,339.92l.464,3.287.929,6.609h1.815v-9.9Z" transform="translate(-382.868 -206.768)" fill="#ebebeb"/>
        <path id="Path_3569" data-name="Path 3569" d="M629.26,339.92l.464,3.287h2.744V339.92Z" transform="translate(-382.868 -206.768)" fill="#dbdbdb"/>
        <path id="Path_3570" data-name="Path 3570" d="M128.82,92.313H79V47.24h49.824v28.6C128.824,79.883,128.82,92.313,128.82,92.313Z" transform="translate(-68.711 -45.256)" fill="#fff"/>
        <path id="Path_3571" data-name="Path 3571" d="M128.541,92.01l-24.865.1-24.955.035H78.6V92.01L78.54,46.937v-.2h.181l49.808.063h.134v.134l-.051,22.535Zm0,0-.126-45.073.13.13-49.824.063.2-.193L78.851,92.01l-.13-.13,24.865.043Z" transform="translate(-68.432 -44.953)" fill="#ebebeb"/>
        <rect id="Rectangle_1770" data-name="Rectangle 1770" width="49.804" height="8.538" transform="translate(10.305 1.98)" fill="#ebebeb"/>
        <rect id="Rectangle_1771" data-name="Rectangle 1771" width="1.067" height="4.251" transform="translate(12.796)" fill="#c7c7c7"/>
        <rect id="Rectangle_1772" data-name="Rectangle 1772" width="1.067" height="4.251" transform="translate(15.922)" fill="#c7c7c7"/>
        <rect id="Rectangle_1773" data-name="Rectangle 1773" width="1.067" height="4.251" transform="translate(19.047)" fill="#c7c7c7"/>
        <rect id="Rectangle_1774" data-name="Rectangle 1774" width="1.067" height="4.251" transform="translate(22.172)" fill="#c7c7c7"/>
        <rect id="Rectangle_1775" data-name="Rectangle 1775" width="1.067" height="4.251" transform="translate(25.298)" fill="#c7c7c7"/>
        <rect id="Rectangle_1776" data-name="Rectangle 1776" width="1.067" height="4.251" transform="translate(28.423)" fill="#c7c7c7"/>
        <rect id="Rectangle_1777" data-name="Rectangle 1777" width="1.067" height="4.251" transform="translate(31.548)" fill="#c7c7c7"/>
        <rect id="Rectangle_1778" data-name="Rectangle 1778" width="1.067" height="4.251" transform="translate(34.674)" fill="#c7c7c7"/>
        <rect id="Rectangle_1779" data-name="Rectangle 1779" width="1.067" height="4.251" transform="translate(37.799)" fill="#c7c7c7"/>
        <rect id="Rectangle_1780" data-name="Rectangle 1780" width="1.067" height="4.251" transform="translate(40.928)" fill="#c7c7c7"/>
        <rect id="Rectangle_1781" data-name="Rectangle 1781" width="1.067" height="4.251" transform="translate(44.054)" fill="#c7c7c7"/>
        <rect id="Rectangle_1782" data-name="Rectangle 1782" width="1.067" height="4.251" transform="translate(47.179)" fill="#c7c7c7"/>
        <rect id="Rectangle_1783" data-name="Rectangle 1783" width="1.067" height="4.251" transform="translate(50.304)" fill="#c7c7c7"/>
        <rect id="Rectangle_1784" data-name="Rectangle 1784" width="1.067" height="4.251" transform="translate(53.429)" fill="#c7c7c7"/>
        <rect id="Rectangle_1785" data-name="Rectangle 1785" width="1.067" height="4.251" transform="translate(56.555)" fill="#c7c7c7"/>
        <rect id="Rectangle_1786" data-name="Rectangle 1786" width="5.589" height="5.589" transform="translate(14.639 14.221)" fill="#c7c7c7"/>
        <rect id="Rectangle_1787" data-name="Rectangle 1787" width="5.589" height="5.589" transform="translate(20.562 14.221)" fill="#ebebeb"/>
        <rect id="Rectangle_1788" data-name="Rectangle 1788" width="5.589" height="5.589" transform="translate(26.486 14.221)" fill="#ebebeb"/>
        <rect id="Rectangle_1789" data-name="Rectangle 1789" width="5.589" height="5.589" transform="translate(32.414 14.221)" fill="#ebebeb"/>
        <rect id="Rectangle_1790" data-name="Rectangle 1790" width="5.589" height="5.589" transform="translate(38.338 14.221)" fill="#ebebeb"/>
        <rect id="Rectangle_1791" data-name="Rectangle 1791" width="5.589" height="5.589" transform="translate(44.262 14.221)" fill="#ebebeb"/>
        <rect id="Rectangle_1792" data-name="Rectangle 1792" width="5.589" height="5.589" transform="translate(50.19 14.221)" fill="#ebebeb"/>
        <rect id="Rectangle_1793" data-name="Rectangle 1793" width="5.589" height="5.589" transform="translate(14.639 20.122)" fill="#c7c7c7"/>
        <rect id="Rectangle_1794" data-name="Rectangle 1794" width="5.589" height="5.589" transform="translate(20.562 20.122)" fill="#ebebeb"/>
        <rect id="Rectangle_1795" data-name="Rectangle 1795" width="5.589" height="5.589" transform="translate(26.486 20.122)" fill="#ebebeb"/>
        <rect id="Rectangle_1796" data-name="Rectangle 1796" width="5.589" height="5.589" transform="translate(32.414 20.122)" fill="#ebebeb"/>
        <rect id="Rectangle_1797" data-name="Rectangle 1797" width="5.589" height="5.589" transform="translate(38.338 20.122)" fill="#ebebeb"/>
        <rect id="Rectangle_1798" data-name="Rectangle 1798" width="5.589" height="5.589" transform="translate(44.262 20.122)" fill="#ebebeb"/>
        <rect id="Rectangle_1799" data-name="Rectangle 1799" width="5.589" height="5.589" transform="translate(50.19 20.122)" fill="#ebebeb"/>
        <rect id="Rectangle_1800" data-name="Rectangle 1800" width="5.589" height="5.589" transform="translate(14.639 26.026)" fill="#c7c7c7"/>
        <rect id="Rectangle_1801" data-name="Rectangle 1801" width="5.589" height="5.589" transform="translate(20.562 26.026)" fill="#ebebeb"/>
        <rect id="Rectangle_1802" data-name="Rectangle 1802" width="5.589" height="5.589" transform="translate(26.486 26.026)" fill="#ebebeb"/>
        <rect id="Rectangle_1803" data-name="Rectangle 1803" width="5.589" height="5.589" transform="translate(32.414 26.026)" fill="#ebebeb"/>
        <rect id="Rectangle_1804" data-name="Rectangle 1804" width="5.589" height="5.589" transform="translate(38.338 26.026)" fill="#ebebeb"/>
        <rect id="Rectangle_1805" data-name="Rectangle 1805" width="5.589" height="5.589" transform="translate(44.262 26.026)" fill="#ebebeb"/>
        <rect id="Rectangle_1806" data-name="Rectangle 1806" width="5.589" height="5.589" transform="translate(50.19 26.026)" fill="#ebebeb"/>
        <rect id="Rectangle_1807" data-name="Rectangle 1807" width="5.589" height="5.589" transform="translate(14.639 31.93)" fill="#c7c7c7"/>
        <rect id="Rectangle_1808" data-name="Rectangle 1808" width="5.589" height="5.589" transform="translate(20.562 31.93)" fill="#ebebeb"/>
        <rect id="Rectangle_1809" data-name="Rectangle 1809" width="5.589" height="5.589" transform="translate(26.486 31.93)" fill="#ebebeb"/>
        <rect id="Rectangle_1810" data-name="Rectangle 1810" width="5.589" height="5.589" transform="translate(32.414 31.93)" fill="#ebebeb"/>
        <rect id="Rectangle_1811" data-name="Rectangle 1811" width="5.589" height="5.589" transform="translate(38.338 31.93)" fill="#ebebeb"/>
        <rect id="Rectangle_1812" data-name="Rectangle 1812" width="5.589" height="5.589" transform="translate(44.262 31.93)" fill="#ebebeb"/>
        <rect id="Rectangle_1813" data-name="Rectangle 1813" width="5.589" height="5.589" transform="translate(50.19 31.93)" fill="#ebebeb"/>
        <rect id="Rectangle_1814" data-name="Rectangle 1814" width="5.589" height="5.589" transform="translate(14.639 37.834)" fill="#c7c7c7"/>
        <rect id="Rectangle_1815" data-name="Rectangle 1815" width="5.589" height="5.589" transform="translate(20.562 37.834)" fill="#ebebeb"/>
        <rect id="Rectangle_1816" data-name="Rectangle 1816" width="5.589" height="5.589" transform="translate(26.486 37.834)" fill="#ebebeb"/>
        <rect id="Rectangle_1817" data-name="Rectangle 1817" width="5.589" height="5.589" transform="translate(32.414 37.834)" fill="#ebebeb"/>
        <rect id="Rectangle_1818" data-name="Rectangle 1818" width="5.589" height="5.589" transform="translate(38.338 37.834)" fill="#ebebeb"/>
        <rect id="Rectangle_1819" data-name="Rectangle 1819" width="5.589" height="5.589" transform="translate(44.262 37.834)" fill="#ebebeb"/>
        <rect id="Rectangle_1820" data-name="Rectangle 1820" width="5.589" height="5.589" transform="translate(50.19 37.834)" fill="#ebebeb"/>
        <path id="Path_3572" data-name="Path 3572" d="M94.843,76.208a.043.043,0,0,1,.063,0,.3.3,0,0,0,.169.071.193.193,0,0,0,.11-.035.083.083,0,0,0,.035-.063.1.1,0,0,0,0-.028.055.055,0,0,0-.028-.024.311.311,0,0,0-.118-.043h0a.437.437,0,0,1-.114-.031.2.2,0,0,1-.083-.071.138.138,0,0,1,0-.071.161.161,0,0,1,.071-.126.244.244,0,0,1,.15-.047.331.331,0,0,1,.193.071.043.043,0,0,1,0,.059.047.047,0,0,1-.063,0,.236.236,0,0,0-.142-.055.169.169,0,0,0-.094.028c-.024,0-.035.035-.035.055a.031.031,0,0,0,0,.024.067.067,0,0,0,.024.024.252.252,0,0,0,.106.039h0a.465.465,0,0,1,.118.035.212.212,0,0,1,.091.075.146.146,0,0,1,.02.071.169.169,0,0,1-.075.138.272.272,0,0,1-.161.047.394.394,0,0,1-.224-.087A.047.047,0,0,1,94.843,76.208Z" transform="translate(-78.315 -62.538)" fill="#a6a6a6"/>
        <path id="Path_3573" data-name="Path 3573" d="M96.612,76.374a.252.252,0,0,1-.252-.252v-.311a.049.049,0,1,1,.1,0v.311a.157.157,0,0,0,.311,0v-.311a.047.047,0,1,1,.094,0v.311A.252.252,0,0,1,96.612,76.374Z" transform="translate(-79.238 -62.55)" fill="#a6a6a6"/>
        <path id="Path_3574" data-name="Path 3574" d="M98.24,76.334a.047.047,0,0,1-.047.051.051.051,0,0,1-.047-.051v-.5h0a.063.063,0,0,1,0-.039.051.051,0,0,1,.067,0l.283.394v-.358a.047.047,0,0,1,.094,0v.5a.051.051,0,0,1-.047.051.055.055,0,0,1-.039,0h0l-.279-.394Z" transform="translate(-80.318 -62.561)" fill="#a6a6a6"/>
        <path id="Path_3575" data-name="Path 3575" d="M110.307,75.8v.512a.051.051,0,0,1-.051.051.047.047,0,0,1-.047-.051V75.95l-.126.173a.043.043,0,0,1-.039.024h0a.055.055,0,0,1-.043-.024l-.122-.173v.366a.049.049,0,1,1-.1,0V75.8a.051.051,0,0,1,.047-.051h0a.047.047,0,0,1,.039,0l.173.244.173-.244a.047.047,0,0,1,.039,0h0a.055.055,0,0,1,.055.051Z" transform="translate(-87.375 -62.544)" fill="#a6a6a6"/>
        <path id="Path_3576" data-name="Path 3576" d="M111.992,75.854a.327.327,0,0,1,.087.22.335.335,0,0,1-.087.22.3.3,0,0,1-.209.094.307.307,0,0,1-.216-.094.315.315,0,0,1-.087-.22.311.311,0,0,1,.087-.22.291.291,0,0,1,.216-.094A.279.279,0,0,1,111.992,75.854Zm0,.22a.232.232,0,0,0-.059-.154.2.2,0,0,0-.138-.063.185.185,0,0,0-.142.063.213.213,0,0,0-.059.154.2.2,0,0,0,.059.15.185.185,0,0,0,.142.063.2.2,0,0,0,.138-.063.217.217,0,0,0,.047-.165Z" transform="translate(-88.406 -62.55)" fill="#a6a6a6"/>
        <path id="Path_3577" data-name="Path 3577" d="M113.474,76.334a.047.047,0,1,1-.094,0v-.5h0a.063.063,0,0,1,.02-.039.051.051,0,0,1,.067,0l.279.394v-.358a.049.049,0,0,1,.1,0v.5a.051.051,0,0,1-.051.051.047.047,0,0,1-.035,0h0l-.279-.394Z" transform="translate(-89.558 -62.561)" fill="#a6a6a6"/>
        <path id="Path_3578" data-name="Path 3578" d="M125.571,75.848h-.142v.464a.047.047,0,1,1-.094,0v-.464H125.2a.049.049,0,0,1,0-.1h.394a.051.051,0,1,1-.02.1Z" transform="translate(-96.695 -62.544)" fill="#a6a6a6"/>
        <path id="Path_3579" data-name="Path 3579" d="M126.956,76.374a.256.256,0,0,1-.256-.252v-.311a.049.049,0,1,1,.1,0v.311a.157.157,0,0,0,.311,0v-.311a.049.049,0,1,1,.1,0v.311A.252.252,0,0,1,126.956,76.374Z" transform="translate(-97.635 -62.55)" fill="#a6a6a6"/>
        <path id="Path_3580" data-name="Path 3580" d="M128.39,76.323v-.512a.051.051,0,0,1,.051-.051h.283a.049.049,0,0,1,0,.1h-.236v.161h.2a.047.047,0,1,1,0,.094h-.2v.161h.236a.049.049,0,0,1,0,.1h-.283A.051.051,0,0,1,128.39,76.323Z" transform="translate(-98.66 -62.55)" fill="#a6a6a6"/>
        <path id="Path_3581" data-name="Path 3581" d="M140.644,75.9l-.213.508h-.039l-.114-.272-.118.272h-.035l-.311-.508a.048.048,0,1,1,.087-.039l.169.394.114-.268a.051.051,0,0,1,.091,0l.114.268.169-.394a.048.048,0,1,1,.087.039Z" transform="translate(-105.584 -62.592)" fill="#a6a6a6"/>
        <path id="Path_3582" data-name="Path 3582" d="M142.29,76.323v-.512a.047.047,0,0,1,.047-.051h.283a.049.049,0,1,1,0,.1h-.236v.161h.2a.047.047,0,0,1,0,.094h-.2v.161h.236a.049.049,0,1,1,0,.1h-.283a.047.047,0,0,1-.047-.051Z" transform="translate(-107.089 -62.55)" fill="#a6a6a6"/>
        <path id="Path_3583" data-name="Path 3583" d="M143.6,76.323v-.512a.047.047,0,0,1,.047-.051h.11a.307.307,0,0,1,0,.614h-.1a.047.047,0,0,1-.055-.051Zm.1-.047h.059a.211.211,0,0,0,0-.421h-.051Z" transform="translate(-107.883 -62.55)" fill="#a6a6a6"/>
        <path id="Path_3584" data-name="Path 3584" d="M155.491,75.848h-.138v.464a.049.049,0,1,1-.1,0v-.464h-.138a.049.049,0,0,1,0-.1h.374a.049.049,0,0,1,0,.1Z" transform="translate(-114.838 -62.544)" fill="#a6a6a6"/>
        <path id="Path_3585" data-name="Path 3585" d="M156.63,76.329v-.512a.047.047,0,1,1,.094,0v.209h.228v-.209a.047.047,0,1,1,.094,0v.512a.047.047,0,0,1-.094,0V76.12h-.228v.209a.047.047,0,1,1-.094,0Z" transform="translate(-115.784 -62.556)" fill="#a6a6a6"/>
        <path id="Path_3586" data-name="Path 3586" d="M158.452,76.374a.252.252,0,0,1-.252-.252v-.311a.047.047,0,1,1,.094,0v.311a.157.157,0,0,0,.157.154.154.154,0,0,0,.154-.154v-.311a.051.051,0,0,1,.051-.051.047.047,0,0,1,.047.051v.311A.252.252,0,0,1,158.452,76.374Z" transform="translate(-116.736 -62.55)" fill="#a6a6a6"/>
        <path id="Path_3587" data-name="Path 3587" d="M171,76.323v-.512a.047.047,0,0,1,.047-.051h.283a.049.049,0,1,1,0,.1h-.236v.161h.2a.047.047,0,1,1,0,.094h-.2v.209a.047.047,0,1,1-.094,0Z" transform="translate(-124.498 -62.55)" fill="#a6a6a6"/>
        <path id="Path_3588" data-name="Path 3588" d="M172.689,76.311a.051.051,0,0,1-.031.063h-.02a.059.059,0,0,1-.035,0,.107.107,0,0,1-.028-.031.224.224,0,0,1-.02-.1.087.087,0,0,0,0-.039l-.028-.024-.047-.024h-.106v.189a.047.047,0,0,1-.094,0v-.512a.047.047,0,0,1,.047-.051h.157a.189.189,0,0,1,.185.189.181.181,0,0,1-.067.142l.031.035a.169.169,0,0,1,.028.094.177.177,0,0,0,0,.051A.051.051,0,0,1,172.689,76.311Zm-.126-.35a.087.087,0,0,0-.087-.091h-.11v.181h.11A.091.091,0,0,0,172.563,75.961Z" transform="translate(-125.274 -62.562)" fill="#a6a6a6"/>
        <path id="Path_3589" data-name="Path 3589" d="M173.69,75.817a.047.047,0,1,1,.094,0v.512a.047.047,0,1,1-.094,0Z" transform="translate(-126.129 -62.556)" fill="#a6a6a6"/>
        <path id="Path_3590" data-name="Path 3590" d="M185.579,76.208a.043.043,0,0,1,.063,0,.3.3,0,0,0,.165.071.193.193,0,0,0,.11-.035.075.075,0,0,0,.039-.063.1.1,0,0,0,0-.028l-.028-.024a.339.339,0,0,0-.118-.043h0a.544.544,0,0,1-.114-.031.193.193,0,0,1-.079-.071.138.138,0,0,1-.02-.071.15.15,0,0,1,.071-.126.236.236,0,0,1,.15-.047.319.319,0,0,1,.189.071.042.042,0,1,1-.059.059.256.256,0,0,0-.142-.055.181.181,0,0,0-.1.028.067.067,0,0,0-.031.055v.024a.067.067,0,0,0,.024.024.3.3,0,0,0,.11.039h0a.5.5,0,0,1,.122.035.2.2,0,0,1,.087.075.146.146,0,0,1,0,.071.169.169,0,0,1-.075.138.272.272,0,0,1-.161.047.354.354,0,0,1-.22-.087.043.043,0,0,1,.016-.055Z" transform="translate(-133.327 -62.538)" fill="#a6a6a6"/>
        <path id="Path_3591" data-name="Path 3591" d="M187.377,76.292h-.213l-.039.114a.051.051,0,0,1-.047.031h0a.051.051,0,0,1-.031-.063l.193-.516a.055.055,0,0,1,.094,0l.193.516a.051.051,0,0,1-.028.063h0a.051.051,0,0,1-.043-.031Zm-.035-.094-.071-.189-.071.189Z" transform="translate(-134.227 -62.594)" fill="#a6a6a6"/>
        <path id="Path_3592" data-name="Path 3592" d="M188.611,75.848h-.138v.464a.049.049,0,1,1-.1,0v-.464h-.138a.049.049,0,0,1,0-.1h.374a.049.049,0,0,1,0,.1Z" transform="translate(-134.922 -62.544)" fill="#a6a6a6"/>
        <rect id="Rectangle_1821" data-name="Rectangle 1821" width="22.279" height="27.022" transform="translate(231.521 17.016)" fill="#ebebeb"/>
        <rect id="Rectangle_1822" data-name="Rectangle 1822" width="17.185" height="22.09" transform="translate(234.068 19.48)" fill="#fff"/>
        <rect id="Rectangle_1823" data-name="Rectangle 1823" width="0.669" height="22.09" transform="translate(234.068 19.48)" fill="#dbdbdb"/>
        <rect id="Rectangle_1824" data-name="Rectangle 1824" width="0.669" height="27.022" transform="translate(253.8 17.016)" fill="#dbdbdb"/>
        <rect id="Rectangle_1825" data-name="Rectangle 1825" width="4.054" height="12.072" transform="translate(239.826 22.527)" fill="#dbdbdb"/>
        <path id="Path_3593" data-name="Path 3593" d="M668.362,126.148h-11.2v-6.3h11.2Zm-10.809-.394h10.415v-5.511H657.554Z" transform="translate(-419.298 -89.286)" fill="#ebebeb"/>
        <rect id="Rectangle_1826" data-name="Rectangle 1826" width="22.279" height="27.022" transform="translate(220.386 53.654)" fill="#ebebeb"/>
        <rect id="Rectangle_1827" data-name="Rectangle 1827" width="17.185" height="22.09" transform="translate(222.928 56.122)" fill="#fff"/>
        <rect id="Rectangle_1828" data-name="Rectangle 1828" width="0.669" height="22.09" transform="translate(222.928 56.122)" fill="#dbdbdb"/>
        <rect id="Rectangle_1829" data-name="Rectangle 1829" width="0.669" height="27.022" transform="translate(242.66 53.654)" fill="#dbdbdb"/>
        <rect id="Rectangle_1830" data-name="Rectangle 1830" width="3.472" height="8.778" transform="translate(229.86 61.829)" fill="#ebebeb"/>
        <path id="Path_3594" data-name="Path 3594" d="M640.458,218.783H630.74V212.34h9.718Zm-9.325-.394h8.931v-5.656h-8.931Z" transform="translate(-403.277 -145.37)" fill="#dbdbdb"/>
      </g>
      <g id="freepik--Floor--inject-94" transform="translate(0 142.851)">
        <path id="Path_3595" data-name="Path 3595" d="M.24,364.757l32-.094,32-.035,64-.067,64,.067,32,.035,32,.094-32,.1-32,.031-64,.067-64-.067-32-.031Z" transform="translate(-0.24 -364.56)" fill="#263238"/>
      </g>
      <g id="freepik--Device--inject-94" transform="translate(32.064 12.663)">
        <rect id="Rectangle_1831" data-name="Rectangle 1831" width="194.883" height="130.385" rx="12.89" fill="#263238"/>
        <line id="Line_98" data-name="Line 98" y1="0.303" transform="translate(25.652 5.349)" fill="none"/>
        <rect id="Rectangle_1832" data-name="Rectangle 1832" width="167.724" height="119.23" transform="translate(13.643 5.503)" fill="#fff"/>
        <rect id="Rectangle_1833" data-name="Rectangle 1833" width="2.027" height="28.376" rx="1.014" transform="translate(6.904 51.005)" fill="#455a64"/>
        <circle id="Ellipse_322" data-name="Ellipse 322" cx="3.669" cy="3.669" r="3.669" transform="translate(183.551 67.922) rotate(-76.66)" fill="#455a64"/>
        <rect id="Rectangle_1834" data-name="Rectangle 1834" width="167.724" height="119.23" transform="translate(13.643 5.503)" fill="#fff"/>
        <rect id="Rectangle_1835" data-name="Rectangle 1835" width="167.724" height="4.098" transform="translate(13.643 5.503)" fill="#455a64"/>
        <path id="Path_3596" data-name="Path 3596" d="M171.557,92.258a.838.838,0,1,1-.247-.594A.838.838,0,0,1,171.557,92.258Z" transform="translate(-154.682 -84.709)" fill="#c7c7c7"/>
        <circle id="Ellipse_323" data-name="Ellipse 323" cx="0.838" cy="0.838" r="0.838" transform="translate(18.626 6.711)" fill="#fff"/>
        <circle id="Ellipse_324" data-name="Ellipse 324" cx="0.838" cy="0.838" r="0.838" transform="translate(22.054 6.711)" fill="#2564f2"/>
        <rect id="Rectangle_1836" data-name="Rectangle 1836" width="10.935" height="8.498" transform="translate(25.211 73.653)" fill="#2564f2"/>
        <rect id="Rectangle_1837" data-name="Rectangle 1837" width="10.935" height="8.498" transform="translate(25.211 73.653)" fill="#fff" opacity="0.6"/>
        <rect id="Rectangle_1838" data-name="Rectangle 1838" width="10.935" height="8.498" transform="translate(39.523 73.653)" fill="#ebebeb"/>
        <rect id="Rectangle_1839" data-name="Rectangle 1839" width="10.935" height="8.498" transform="translate(53.929 73.653)" fill="#ebebeb"/>
        <rect id="Rectangle_1840" data-name="Rectangle 1840" width="10.935" height="8.498" transform="translate(68.288 73.653)" fill="#ebebeb"/>
        <rect id="Rectangle_1841" data-name="Rectangle 1841" width="10.935" height="8.498" transform="translate(82.648 73.653)" fill="#ebebeb"/>
        <rect id="Rectangle_1842" data-name="Rectangle 1842" width="10.935" height="8.498" transform="translate(97.003 73.653)" fill="#2564f2"/>
        <rect id="Rectangle_1843" data-name="Rectangle 1843" width="10.935" height="8.498" transform="translate(97.003 73.653)" fill="#fff" opacity="0.6"/>
        <rect id="Rectangle_1844" data-name="Rectangle 1844" width="10.935" height="8.498" transform="translate(111.362 73.653)" fill="#ebebeb"/>
        <rect id="Rectangle_1845" data-name="Rectangle 1845" width="10.935" height="8.498" transform="translate(25.211 85.423)" fill="#2564f2"/>
        <rect id="Rectangle_1846" data-name="Rectangle 1846" width="10.935" height="8.498" transform="translate(25.211 85.423)" fill="#fff" opacity="0.6"/>
        <rect id="Rectangle_1847" data-name="Rectangle 1847" width="10.935" height="8.498" transform="translate(39.57 85.423)" fill="#ebebeb"/>
        <rect id="Rectangle_1848" data-name="Rectangle 1848" width="10.935" height="8.498" transform="translate(53.929 85.423)" fill="#ebebeb"/>
        <rect id="Rectangle_1849" data-name="Rectangle 1849" width="10.935" height="8.498" transform="translate(68.288 85.423)" fill="#ebebeb"/>
        <rect id="Rectangle_1850" data-name="Rectangle 1850" width="10.935" height="8.498" transform="translate(82.648 85.423)" fill="#ebebeb"/>
        <rect id="Rectangle_1851" data-name="Rectangle 1851" width="10.935" height="8.498" transform="translate(97.003 85.423)" fill="#ebebeb"/>
        <rect id="Rectangle_1852" data-name="Rectangle 1852" width="10.935" height="8.498" transform="translate(111.362 85.423)" fill="#ebebeb"/>
        <rect id="Rectangle_1853" data-name="Rectangle 1853" width="10.935" height="8.498" transform="translate(68.288 61.888)" fill="#ebebeb"/>
        <rect id="Rectangle_1854" data-name="Rectangle 1854" width="10.935" height="8.498" transform="translate(82.648 61.888)" fill="#ebebeb"/>
        <rect id="Rectangle_1855" data-name="Rectangle 1855" width="10.935" height="8.498" transform="translate(97.003 61.888)" fill="#ebebeb"/>
        <rect id="Rectangle_1856" data-name="Rectangle 1856" width="10.935" height="8.498" transform="translate(111.362 61.888)" fill="#ebebeb"/>
        <rect id="Rectangle_1857" data-name="Rectangle 1857" width="10.935" height="8.498" transform="translate(25.211 97.192)" fill="#2564f2"/>
        <rect id="Rectangle_1858" data-name="Rectangle 1858" width="10.935" height="8.498" transform="translate(25.211 97.192)" fill="#fff" opacity="0.6"/>
        <rect id="Rectangle_1859" data-name="Rectangle 1859" width="10.935" height="8.498" transform="translate(39.57 97.192)" fill="#ebebeb"/>
        <rect id="Rectangle_1860" data-name="Rectangle 1860" width="10.935" height="8.498" transform="translate(53.929 97.192)" fill="#ebebeb"/>
        <rect id="Rectangle_1861" data-name="Rectangle 1861" width="10.935" height="8.498" transform="translate(68.288 97.192)" fill="#2564f2"/>
        <rect id="Rectangle_1862" data-name="Rectangle 1862" width="10.935" height="8.498" transform="translate(68.288 97.192)" fill="#fff" opacity="0.6"/>
        <rect id="Rectangle_1863" data-name="Rectangle 1863" width="10.935" height="8.498" transform="translate(82.648 97.192)" fill="#ebebeb"/>
        <rect id="Rectangle_1864" data-name="Rectangle 1864" width="10.935" height="8.498" transform="translate(97.003 97.192)" fill="#ebebeb"/>
        <rect id="Rectangle_1865" data-name="Rectangle 1865" width="10.935" height="8.498" transform="translate(111.362 97.192)" fill="#ebebeb"/>
        <rect id="Rectangle_1866" data-name="Rectangle 1866" width="10.935" height="8.498" transform="translate(25.211 108.957)" fill="#2564f2"/>
        <rect id="Rectangle_1867" data-name="Rectangle 1867" width="10.935" height="8.498" transform="translate(25.211 108.957)" fill="#fff" opacity="0.6"/>
        <rect id="Rectangle_1868" data-name="Rectangle 1868" width="10.935" height="8.498" transform="translate(39.57 108.957)" fill="#ebebeb"/>
        <rect id="Rectangle_1869" data-name="Rectangle 1869" width="10.935" height="8.498" transform="translate(53.929 108.957)" fill="#ebebeb"/>
        <rect id="Rectangle_1870" data-name="Rectangle 1870" width="10.935" height="8.498" transform="translate(68.288 108.957)" fill="#ebebeb"/>
        <rect id="Rectangle_1871" data-name="Rectangle 1871" width="10.935" height="8.498" transform="translate(82.648 108.957)" fill="#ebebeb"/>
        <path id="Path_3597" data-name="Path 3597" d="M205.442,210.249a.362.362,0,0,1,.512-.047,2.334,2.334,0,0,0,1.35.543,1.512,1.512,0,0,0,.882-.264.638.638,0,0,0,.3-.508.394.394,0,0,0-.067-.224.618.618,0,0,0-.209-.213,2.857,2.857,0,0,0-.968-.331h0a3.787,3.787,0,0,1-.909-.276,1.48,1.48,0,0,1-.657-.551,1.071,1.071,0,0,1-.161-.575,1.307,1.307,0,0,1,.563-1.031,2.086,2.086,0,0,1,1.22-.374,2.779,2.779,0,0,1,1.539.563.366.366,0,0,1,.1.5.358.358,0,0,1-.5.106,2.035,2.035,0,0,0-1.134-.449,1.35,1.35,0,0,0-.787.24.559.559,0,0,0-.268.445.35.35,0,0,0,.051.2.7.7,0,0,0,.189.181,2.46,2.46,0,0,0,.882.311h0a4.209,4.209,0,0,1,.972.3,1.665,1.665,0,0,1,.7.587,1.141,1.141,0,0,1,.169.6,1.358,1.358,0,0,1-.606,1.094,2.188,2.188,0,0,1-1.3.394,3.035,3.035,0,0,1-1.807-.7A.37.37,0,0,1,205.442,210.249Z" transform="translate(-176.201 -154.431)" fill="#2564f2"/>
        <path id="Path_3598" data-name="Path 3598" d="M244.559,207.134v4.161a.394.394,0,1,1-.787,0v-2.968l-1.016,1.409a.394.394,0,0,1-.319.165h0a.394.394,0,0,1-.323-.165l-1.008-1.409v2.968a.394.394,0,1,1-.787,0v-4.161a.394.394,0,0,1,.394-.394h.024a.394.394,0,0,1,.311.161l1.4,1.968,1.405-1.968a.394.394,0,0,1,.315-.161h0A.394.394,0,0,1,244.559,207.134Z" transform="translate(-197.396 -154.637)" fill="#2564f2"/>
        <path id="Path_3599" data-name="Path 3599" d="M281.421,207.537H280.3V211.3a.394.394,0,1,1-.787,0v-3.763h-1.118a.394.394,0,0,1,0-.787H281.4a.394.394,0,0,1,.016.787Z" transform="translate(-220.245 -154.643)" fill="#2564f2"/>
        <path id="Path_3600" data-name="Path 3600" d="M316.245,207.429l-1.728,4.113a.24.24,0,0,1-.035.063h0a.342.342,0,0,1-.035.043v.02l-.047.035h0c-.024,0-.035.035-.063.043h-.055a.2.2,0,0,1-.071,0,.173.173,0,0,1-.063,0h-.126a.142.142,0,0,1-.067-.043h0c-.024,0-.035-.028-.051-.035a.035.035,0,0,1,0-.02.311.311,0,0,1-.031-.043h0a.114.114,0,0,1-.028-.063l-.953-2.185-.925,2.185a.49.49,0,0,1-.028.063h0a.446.446,0,0,1-.043.043v.02a.19.19,0,0,0-.043.035h0a.435.435,0,0,1-.055.043h0a.1.1,0,0,0-.055,0h-.02a.185.185,0,0,1-.063,0,.205.205,0,0,1-.071,0h-.071a.225.225,0,0,1-.063-.043h0a.2.2,0,0,0-.047-.035v-.02l-.035-.043h0a.077.077,0,0,0-.035-.063l-1.736-4.113a.386.386,0,0,1,.712-.3L311.7,210.4l.909-2.165a.4.4,0,0,1,.732,0l.909,2.165,1.378-3.267a.343.343,0,1,1,.618.3Z" transform="translate(-239.392 -154.736)" fill="#2564f2"/>
        <path id="Path_3601" data-name="Path 3601" d="M353.724,207.537h-1.142V211.3a.394.394,0,1,1-.787,0v-3.763h-1.1a.394.394,0,0,1,0-.787h3.031a.394.394,0,0,1,0,.787Z" transform="translate(-264.086 -154.643)" fill="#2564f2"/>
        <path id="Path_3602" data-name="Path 3602" d="M388,211.294v-4.161a.394.394,0,0,1,.394-.394H390.7a.394.394,0,1,1,0,.787h-1.913v1.283h1.645a.394.394,0,1,1,0,.787h-1.645v1.693a.394.394,0,0,1-.787,0Z" transform="translate(-286.947 -154.637)" fill="#2564f2"/>
        <path id="Path_3603" data-name="Path 3603" d="M423.235,210.249a.366.366,0,0,1,.516-.047,2.323,2.323,0,0,0,1.346.543,1.512,1.512,0,0,0,.882-.264.63.63,0,0,0,.3-.508.425.425,0,0,0-.063-.224.677.677,0,0,0-.213-.213,2.857,2.857,0,0,0-.968-.331h0a3.842,3.842,0,0,1-.909-.276,1.523,1.523,0,0,1-.657-.551,1.071,1.071,0,0,1-.161-.575,1.307,1.307,0,0,1,.563-1.031,2.086,2.086,0,0,1,1.22-.374,2.779,2.779,0,0,1,1.539.563.362.362,0,0,1,.1.5.354.354,0,0,1-.5.106,2.047,2.047,0,0,0-1.138-.449,1.358,1.358,0,0,0-.787.24.559.559,0,0,0-.268.445.35.35,0,0,0,.051.2.7.7,0,0,0,.189.181,2.488,2.488,0,0,0,.882.311h0a4.15,4.15,0,0,1,.972.3,1.641,1.641,0,0,1,.7.587,1.141,1.141,0,0,1,.169.6,1.358,1.358,0,0,1-.606,1.094,2.188,2.188,0,0,1-1.3.394,3.035,3.035,0,0,1-1.807-.7.394.394,0,0,1-.055-.508Z" transform="translate(-308.271 -154.431)" fill="#2564f2"/>
        <path id="Path_3604" data-name="Path 3604" d="M206.949,271.626a.11.11,0,0,1,0-.157.118.118,0,0,1,.161,0,.835.835,0,0,0,1.181,0,.835.835,0,0,0-1.181-1.181.106.106,0,0,1-.154,0,.059.059,0,0,1-.028-.035h0a.086.086,0,0,1,0-.035.169.169,0,0,0,0-.02l.15-1.263a.13.13,0,0,1,.118-.106h1.456a.114.114,0,1,1,0,.224h-1.362l-.114.929a1.058,1.058,0,0,1,1.59.917,1.043,1.043,0,0,1-.311.752,1.063,1.063,0,0,1-1.5,0Z" transform="translate(-177.141 -192.284)" fill="#263238"/>
        <path id="Path_3605" data-name="Path 3605" d="M243.234,269.461a1.26,1.26,0,0,1,1.094-.681.106.106,0,0,1,.11.1.118.118,0,0,1-.106.118,1.059,1.059,0,0,0-.913.567,2.153,2.153,0,0,0-.224.626,1.031,1.031,0,1,1-.26.716,1.745,1.745,0,0,1,0-.2A2.555,2.555,0,0,1,243.234,269.461Zm-.079,1.433a.232.232,0,0,0,0,.055.067.067,0,0,1,0,.031.838.838,0,1,0,0-.106Z" transform="translate(-198.98 -192.257)" fill="#263238"/>
        <path id="Path_3606" data-name="Path 3606" d="M280.116,271.756,281.278,269h-1.515a.11.11,0,0,1,0-.216h1.657a.1.1,0,0,1,.126.075.1.1,0,0,1,0,.035.091.091,0,0,1,0,.055l-1.212,2.885a.118.118,0,0,1-.1.067.067.067,0,0,1-.043,0,.114.114,0,0,1-.071-.146Z" transform="translate(-221.259 -192.258)" fill="#263238"/>
        <path id="Path_3607" data-name="Path 3607" d="M316.423,268.77a.653.653,0,0,1,.653.649.669.669,0,0,1-.268.527,1.016,1.016,0,1,1-.787,0,.665.665,0,0,1-.26-.527.649.649,0,0,1,.661-.649Zm0,2.917a.787.787,0,1,0-.787-.787A.787.787,0,0,0,316.423,271.686Zm0-1.826a.445.445,0,0,0,.437-.441.437.437,0,0,0-.437-.437.429.429,0,0,0-.433.437.437.437,0,0,0,.433.441Z" transform="translate(-242.923 -192.251)" fill="#263238"/>
        <path id="Path_3608" data-name="Path 3608" d="M353.3,268.77a1.027,1.027,0,0,1,1.027.913.051.051,0,0,0,0,.02q0,.13,0,.272a2.629,2.629,0,0,1-.3,1.248,1.307,1.307,0,0,1-1.1.681h0a.106.106,0,0,1-.11-.106.114.114,0,0,1,.106-.114,1.074,1.074,0,0,0,.913-.567,2.1,2.1,0,0,0,.224-.63,1.035,1.035,0,1,1-.787-1.716Zm.819,1.027a.811.811,0,1,0-.239.579.819.819,0,0,0,.239-.579Z" transform="translate(-265.268 -192.251)" fill="#263238"/>
        <path id="Path_3609" data-name="Path 3609" d="M387.786,269.081l-.441.256a.094.094,0,0,1-.055,0,.114.114,0,0,1-.094-.055.1.1,0,0,1,.039-.146l.606-.366a.11.11,0,0,1,.146.039.114.114,0,0,1,0,.079v2.877a.108.108,0,1,1-.216,0Z" transform="translate(-286.449 -192.243)" fill="#263238"/>
        <path id="Path_3610" data-name="Path 3610" d="M391.349,270.326a2,2,0,0,1,.3-1.1.89.89,0,0,1,1.574,0,2.031,2.031,0,0,1,.3,1.1,2,2,0,0,1-.3,1.09.882.882,0,0,1-1.574,0A1.968,1.968,0,0,1,391.349,270.326Zm.22,0a1.768,1.768,0,0,0,.264.968.661.661,0,0,0,1.181,0,1.87,1.87,0,0,0,0-1.941.665.665,0,0,0-1.181,0A1.771,1.771,0,0,0,391.57,270.326Z" transform="translate(-288.978 -192.24)" fill="#263238"/>
        <path id="Path_3611" data-name="Path 3611" d="M425.546,269.08l-.445.256a.083.083,0,0,1-.051,0,.106.106,0,0,1-.094-.055.1.1,0,0,1,.039-.146l.6-.366a.114.114,0,0,1,.15.039.138.138,0,0,1,0,.079v2.877a.106.106,0,0,1-.106.11.11.11,0,0,1-.106-.11Z" transform="translate(-309.347 -192.243)" fill="#263238"/>
        <path id="Path_3612" data-name="Path 3612" d="M429.356,269.081l-.445.256a.083.083,0,0,1-.051,0,.106.106,0,0,1-.094-.055.1.1,0,0,1,.039-.146l.6-.366a.114.114,0,0,1,.15.039.137.137,0,0,1,0,.079v2.877a.106.106,0,0,1-.106.11.11.11,0,0,1-.106-.11Z" transform="translate(-311.657 -192.243)" fill="#263238"/>
        <path id="Path_3613" data-name="Path 3613" d="M317.516,238.667l-.441.26a.13.13,0,0,1-.055,0,.11.11,0,0,1-.094-.051.106.106,0,0,1,.039-.15l.606-.366a.11.11,0,0,1,.146.039.126.126,0,0,1,0,.083v2.877a.108.108,0,0,1-.216,0Z" transform="translate(-243.839 -173.803)" fill="#263238"/>
        <path id="Path_3614" data-name="Path 3614" d="M352.442,241.315,353.9,240a.792.792,0,0,0-.535-1.389.823.823,0,0,0-.547.2l-.15.138a.107.107,0,1,1-.154-.15l.154-.146a1.051,1.051,0,0,1,.693-.264,1.008,1.008,0,0,1,.752.335.992.992,0,0,1,.268.685,1.035,1.035,0,0,1-.335.764L352.8,241.3h1.48a.11.11,0,0,1,0,.22h-1.759a.091.091,0,0,1-.079-.031.114.114,0,0,1,0-.177Z" transform="translate(-265.358 -173.829)" fill="#263238"/>
        <path id="Path_3615" data-name="Path 3615" d="M391.489,238.589l-.811.846a1.047,1.047,0,0,1,.535.283,1.059,1.059,0,0,1,.311.752,1.031,1.031,0,0,1-.315.752,1.055,1.055,0,0,1-.752.315,1.043,1.043,0,0,1-.748-.315.11.11,0,1,1,.157-.154.838.838,0,0,0,1.429-.6.827.827,0,0,0-.248-.59.815.815,0,0,0-.59-.244.106.106,0,0,1-.087-.047h0a.11.11,0,0,1,0-.157l.787-.787h-1.181a.11.11,0,0,1-.114-.11.114.114,0,0,1,.114-.114h1.46a.114.114,0,0,1,.114.114.067.067,0,0,1,0,.047A.075.075,0,0,1,391.489,238.589Z" transform="translate(-287.964 -173.847)" fill="#263238"/>
        <path id="Path_3616" data-name="Path 3616" d="M426.725,240.906h-1.708a.1.1,0,0,1-.067,0,.106.106,0,0,1,0-.154l1.815-2.255h0a.1.1,0,0,1,.15,0,.145.145,0,0,1,.035.055h0v2.161h.213a.106.106,0,1,1,0,.213h-.213v.5a.11.11,0,0,1-.216,0Zm0-.213v-1.834l-1.48,1.834Z" transform="translate(-309.333 -173.873)" fill="#263238"/>
        <path id="Path_3617" data-name="Path 3617" d="M204.733,328.615l-.445.26a.114.114,0,0,1-.051.02.106.106,0,0,1-.094-.055.1.1,0,0,1,.039-.146l.606-.37a.114.114,0,0,1,.146.043.11.11,0,0,1,0,.079v2.893a.1.1,0,0,1-.106.106.106.106,0,0,1-.106-.106Z" transform="translate(-175.448 -228.357)" fill="#263238"/>
        <path id="Path_3618" data-name="Path 3618" d="M209.311,328.28a1.031,1.031,0,0,1,1.031.909v.291a2.563,2.563,0,0,1-.3,1.248,1.283,1.283,0,0,1-1.094.681h0a.106.106,0,0,1-.114-.1.114.114,0,0,1,.106-.114,1.063,1.063,0,0,0,.913-.571,1.89,1.89,0,0,0,.224-.626,1.019,1.019,0,0,1-.787.346,1.031,1.031,0,1,1,0-2.063Zm.819,1.027a.818.818,0,1,0-.241.577.815.815,0,0,0,.241-.577Z" transform="translate(-177.956 -228.337)" fill="#263238"/>
        <path id="Path_3619" data-name="Path 3619" d="M239.255,331.216l1.46-1.319a.787.787,0,0,0,.272-.6.811.811,0,0,0-1.354-.594l-.15.138a.11.11,0,1,1-.15-.157l.154-.142a1.039,1.039,0,0,1,.693-.264,1.023,1.023,0,0,1,.685,1.779l-1.252,1.134H241.1a.11.11,0,0,1,0,.216H239.33a.091.091,0,0,1-.079-.031A.114.114,0,0,1,239.255,331.216Z" transform="translate(-196.729 -228.337)" fill="#263238"/>
        <path id="Path_3620" data-name="Path 3620" d="M246.139,329.832a2.027,2.027,0,0,1,.3-1.094.89.89,0,0,1,1.574,0,2.1,2.1,0,0,1,0,2.188.886.886,0,0,1-1.574,0,2.007,2.007,0,0,1-.3-1.094Zm.22,0a1.772,1.772,0,0,0,.264.972.665.665,0,0,0,1.181,0,1.893,1.893,0,0,0,0-1.94.665.665,0,0,0-1.181,0A1.768,1.768,0,0,0,246.36,329.832Z" transform="translate(-200.925 -228.326)" fill="#263238"/>
        <path id="Path_3621" data-name="Path 3621" d="M277.75,331.222l1.464-1.319a.805.805,0,0,0-1.082-1.193l-.154.138a.106.106,0,0,1-.154,0,.1.1,0,0,1,0-.154l.15-.142a1.024,1.024,0,1,1,1.378,1.515L278.1,331.2h1.48a.11.11,0,1,1,0,.216h-1.752a.09.09,0,0,1-.079-.031A.122.122,0,0,1,277.75,331.222Z" transform="translate(-220.074 -228.343)" fill="#263238"/>
        <path id="Path_3622" data-name="Path 3622" d="M284.883,328.614l-.445.26a.114.114,0,0,1-.051.02.106.106,0,0,1-.094-.055.1.1,0,0,1,.039-.146l.6-.37a.118.118,0,0,1,.15.043.11.11,0,0,1,0,.079v2.893a.1.1,0,0,1-.106.106.106.106,0,0,1-.106-.106Z" transform="translate(-224.05 -228.356)" fill="#263238"/>
        <path id="Path_3623" data-name="Path 3623" d="M312.1,331.241l1.464-1.319a.8.8,0,0,0-1.082-1.181l-.154.138a.107.107,0,1,1-.15-.154l.154-.142a1.026,1.026,0,0,1,1.712.756,1.039,1.039,0,0,1-.335.76l-1.256,1.134h1.484a.11.11,0,0,1,0,.216H312.18a.1.1,0,0,1-.083-.031.122.122,0,0,1,.008-.177Z" transform="translate(-240.9 -228.361)" fill="#263238"/>
        <path id="Path_3624" data-name="Path 3624" d="M318.815,331.241l1.464-1.319a.8.8,0,0,0-1.082-1.181l-.154.138a.107.107,0,1,1-.15-.154l.154-.142a1.024,1.024,0,0,1,1.378,1.515l-1.256,1.134h1.484a.11.11,0,0,1,0,.216H318.89a.1.1,0,0,1-.083-.031.122.122,0,0,1,.008-.177Z" transform="translate(-244.969 -228.361)" fill="#263238"/>
        <path id="Path_3625" data-name="Path 3625" d="M349.12,331.216l1.464-1.319a.805.805,0,1,0-1.082-1.193l-.154.138a.11.11,0,1,1-.15-.157l.154-.142a1.039,1.039,0,0,1,.693-.264,1.023,1.023,0,0,1,.685,1.779l-1.252,1.134h1.48a.11.11,0,0,1,0,.216h-1.763a.091.091,0,0,1-.079-.031.122.122,0,0,1,0-.161Z" transform="translate(-263.351 -228.337)" fill="#263238"/>
        <path id="Path_3626" data-name="Path 3626" d="M357.911,328.5l-.811.831a1.062,1.062,0,0,1-.22,2.1,1.039,1.039,0,0,1-.744-.311.11.11,0,1,1,.153-.157.838.838,0,0,0,1.433-.594.815.815,0,0,0-.244-.59.827.827,0,0,0-.59-.248.118.118,0,0,1-.091-.043h0a.11.11,0,0,1,0-.161l.787-.787H356.4a.11.11,0,1,1,0-.22h1.464a.11.11,0,0,1,.11.11.1.1,0,0,1,0,.047Z" transform="translate(-267.604 -228.361)" fill="#263238"/>
        <path id="Path_3627" data-name="Path 3627" d="M385.86,331.216l1.464-1.319a.805.805,0,1,0-1.082-1.193l-.154.138a.11.11,0,1,1-.15-.157l.154-.142a1.039,1.039,0,0,1,.693-.264,1.023,1.023,0,0,1,.685,1.779l-1.252,1.134h1.48a.11.11,0,0,1,0,.216h-1.763a.091.091,0,0,1-.079-.031A.122.122,0,0,1,385.86,331.216Z" transform="translate(-285.63 -228.337)" fill="#263238"/>
        <path id="Path_3628" data-name="Path 3628" d="M394.062,330.8h-1.708a.1.1,0,0,1-.067-.024.1.1,0,0,1,0-.154l1.811-2.255h0a.1.1,0,0,1,.15,0,.11.11,0,0,1,.035.051.078.078,0,0,0,0,.02V330.6h.213a.11.11,0,1,1,0,.216h-.213v.535a.11.11,0,0,1-.216,0Zm0-.216v-1.834l-1.484,1.834Z" transform="translate(-289.525 -228.372)" fill="#263238"/>
        <path id="Path_3629" data-name="Path 3629" d="M422.115,331.241l1.464-1.319a.8.8,0,1,0-1.082-1.181l-.154.138a.107.107,0,1,1-.15-.154l.15-.142a1.039,1.039,0,0,1,.7-.264,1.02,1.02,0,0,1,.681,1.779l-1.252,1.134h1.48a.11.11,0,1,1,0,.216H422.19a.1.1,0,0,1-.083-.031.122.122,0,0,1,.008-.177Z" transform="translate(-307.608 -228.361)" fill="#263238"/>
        <path id="Path_3630" data-name="Path 3630" d="M429.026,331.163a.106.106,0,0,1,0-.157.11.11,0,0,1,.157,0,.843.843,0,1,0,0-1.185.106.106,0,0,1-.154,0,.059.059,0,0,1-.035-.016h0a.1.1,0,0,1,0-.035.139.139,0,0,0,0-.024l.15-1.26a.119.119,0,0,1,.118-.106h1.46a.11.11,0,0,1,.11.11.106.106,0,0,1-.11.11h-1.366l-.114.933a1.055,1.055,0,0,1,1.59.917,1.043,1.043,0,0,1-.311.752,1.083,1.083,0,0,1-.752.307A1.055,1.055,0,0,1,429.026,331.163Z" transform="translate(-311.803 -228.397)" fill="#263238"/>
        <path id="Path_3631" data-name="Path 3631" d="M203.142,360.76l1.464-1.319a.823.823,0,0,0,.268-.6.787.787,0,0,0-.209-.535.807.807,0,0,0-.594-.264.823.823,0,0,0-.547.2l-.154.138a.106.106,0,0,1-.146-.154l.15-.146a1.059,1.059,0,0,1,.7-.264,1,1,0,0,1,.752.335,1.012,1.012,0,0,1,.268.685,1.039,1.039,0,0,1-.339.764l-1.252,1.13h1.48a.11.11,0,0,1,0,.22h-1.759a.11.11,0,0,1-.079-.193Z" transform="translate(-174.829 -246.249)" fill="#263238"/>
        <path id="Path_3632" data-name="Path 3632" d="M210.341,358.511a1.275,1.275,0,0,1,1.094-.681.11.11,0,0,1,.114.1.118.118,0,0,1-.106.118,1.055,1.055,0,0,0-.913.567,1.968,1.968,0,0,0-.224.626,1.031,1.031,0,1,1-.26.716,1.741,1.741,0,0,1,0-.2,2.551,2.551,0,0,1,.3-1.244Zm-.075,1.433a.3.3,0,0,0,0,.059.087.087,0,0,1,0,.031.838.838,0,1,0,0-.11Z" transform="translate(-179.036 -246.255)" fill="#263238"/>
        <path id="Path_3633" data-name="Path 3633" d="M239.944,360.766l1.464-1.319a.823.823,0,0,0,.268-.6.811.811,0,0,0-1.35-.594l-.154.138a.107.107,0,1,1-.154-.15l.154-.146a1.059,1.059,0,0,1,.693-.264,1.025,1.025,0,0,1,.685,1.783l-1.252,1.13h1.48a.11.11,0,1,1,0,.22h-1.763a.1.1,0,0,1-.079-.031.122.122,0,0,1,.008-.165Z" transform="translate(-197.146 -246.256)" fill="#263238"/>
        <path id="Path_3634" data-name="Path 3634" d="M247.141,360.811l1.181-2.755h-1.515a.106.106,0,1,1,0-.213h1.657a.13.13,0,0,1,.067,0,.11.11,0,0,1,.059.067.094.094,0,0,1,0,.035.1.1,0,0,1,0,.059l-1.212,2.881a.118.118,0,0,1-.1.067.071.071,0,0,1-.047,0A.122.122,0,0,1,247.141,360.811Z" transform="translate(-201.265 -246.261)" fill="#263238"/>
        <path id="Path_3635" data-name="Path 3635" d="M276.082,360.76l1.464-1.319a.823.823,0,0,0,.268-.6.787.787,0,0,0-.209-.535.807.807,0,0,0-.594-.264.823.823,0,0,0-.547.2l-.154.138a.106.106,0,1,1-.146-.154l.15-.146a1.059,1.059,0,0,1,.7-.264,1,1,0,0,1,.752.335,1.012,1.012,0,0,1,.268.685,1.047,1.047,0,0,1-.335.764l-1.256,1.13h1.484a.11.11,0,1,1,0,.22h-1.763a.11.11,0,0,1-.079-.193Z" transform="translate(-219.059 -246.249)" fill="#263238"/>
        <path id="Path_3636" data-name="Path 3636" d="M283.885,357.819a.649.649,0,0,1,.394,1.181,1.016,1.016,0,1,1-.787,0,.657.657,0,0,1-.26-.527.646.646,0,0,1,.653-.653Zm0,2.917a.787.787,0,1,0-.787-.787A.787.787,0,0,0,283.885,360.736Zm0-1.826a.445.445,0,0,0,.437-.441.437.437,0,1,0-.437.441Z" transform="translate(-223.198 -246.249)" fill="#263238"/>
        <path id="Path_3637" data-name="Path 3637" d="M311.866,360.766l1.464-1.319a.807.807,0,0,0,.268-.6.787.787,0,0,0-.209-.535.807.807,0,0,0-.594-.264.823.823,0,0,0-.547.2l-.154.138a.106.106,0,1,1-.15-.15l.154-.146a1.051,1.051,0,0,1,.693-.264,1,1,0,0,1,.752.335,1.012,1.012,0,0,1,.268.685,1.035,1.035,0,0,1-.335.764l-1.256,1.13H313.7a.11.11,0,1,1,0,.22h-1.763a.11.11,0,0,1-.079-.193Z" transform="translate(-240.755 -246.256)" fill="#263238"/>
        <path id="Path_3638" data-name="Path 3638" d="M319.8,357.82a1.027,1.027,0,0,1,1.027.913.133.133,0,0,0,0,.024v.268a2.606,2.606,0,0,1-.3,1.248,1.307,1.307,0,0,1-1.1.681h0a.106.106,0,0,1-.11-.1.114.114,0,0,1,.106-.118,1.059,1.059,0,0,0,.913-.567,2.121,2.121,0,0,0,.224-.626,1.035,1.035,0,1,1-.787-1.72Zm.819,1.031a.811.811,0,1,0-.24.576A.819.819,0,0,0,320.614,358.851Z" transform="translate(-244.953 -246.249)" fill="#263238"/>
        <path id="Path_3639" data-name="Path 3639" d="M350.759,358.032l-.811.834a1.047,1.047,0,0,1,.535.283,1.059,1.059,0,0,1,.311.752,1.031,1.031,0,0,1-.315.752,1.066,1.066,0,0,1-.752.315,1.043,1.043,0,0,1-.748-.315.111.111,0,1,1,.157-.157.838.838,0,0,0,1.429-.594.827.827,0,0,0-.248-.59.815.815,0,0,0-.59-.244.106.106,0,0,1-.087-.047h0a.118.118,0,0,1,0-.161l.787-.787h-1.181a.114.114,0,1,1,0-.224h1.46a.114.114,0,0,1,.114.11.071.071,0,0,1,0,.051.1.1,0,0,1-.063.024Z" transform="translate(-263.266 -246.265)" fill="#263238"/>
        <path id="Path_3640" data-name="Path 3640" d="M355.789,359.376a2,2,0,0,1,.3-1.1.89.89,0,0,1,1.574,0,2.031,2.031,0,0,1,.3,1.1,1.968,1.968,0,0,1-.3,1.09.882.882,0,0,1-1.574,0A1.968,1.968,0,0,1,355.789,359.376Zm.22,0a1.783,1.783,0,0,0,.264.972.665.665,0,0,0,1.181,0,1.877,1.877,0,0,0,0-1.944.665.665,0,0,0-1.181,0A1.783,1.783,0,0,0,356.01,359.376Z" transform="translate(-267.414 -246.239)" fill="#263238"/>
        <path id="Path_3641" data-name="Path 3641" d="M205.466,298.737l-.445.26a.111.111,0,0,1-.051,0,.106.106,0,0,1-.094-.055.1.1,0,0,1,.039-.146l.606-.366a.11.11,0,0,1,.146.039.114.114,0,0,1,0,.079v2.877a.106.106,0,0,1-.106.11.11.11,0,0,1-.106-.11Z" transform="translate(-175.894 -210.229)" fill="#263238"/>
        <path id="Path_3642" data-name="Path 3642" d="M208.832,301.385l1.464-1.323a.807.807,0,0,0,.268-.6.787.787,0,0,0-.807-.787.815.815,0,0,0-.543.2l-.154.138a.106.106,0,0,1-.154,0,.1.1,0,0,1,0-.154l.15-.142a1.059,1.059,0,0,1,.693-.264,1.02,1.02,0,0,1,.685,1.779l-1.252,1.134h1.48a.11.11,0,0,1,.11.11.114.114,0,0,1-.11.11H208.9a.118.118,0,0,1-.079-.031.122.122,0,0,1,.012-.177Z" transform="translate(-178.275 -210.255)" fill="#263238"/>
        <path id="Path_3643" data-name="Path 3643" d="M241.824,298.761l-.445.26a.107.107,0,1,1-.106-.185l.6-.366a.114.114,0,0,1,.15.039.142.142,0,0,1,0,.079v2.877a.106.106,0,0,1-.106.11.11.11,0,0,1-.106-.11Z" transform="translate(-197.939 -210.252)" fill="#263238"/>
        <path id="Path_3644" data-name="Path 3644" d="M247.279,298.617l-.819.819a1.059,1.059,0,0,1,.846,1.039,1.039,1.039,0,0,1-.315.752,1.067,1.067,0,0,1-.752.315,1.027,1.027,0,0,1-.744-.315.11.11,0,1,1,.154-.157.846.846,0,0,0,.59.244.862.862,0,0,0,.6-.244.841.841,0,0,0-.594-1.433.106.106,0,0,1-.087-.043h0a.11.11,0,0,1,0-.161l.787-.787h-1.181a.114.114,0,0,1-.114-.114.11.11,0,0,1,.114-.11h1.46a.11.11,0,0,1,.114.11.079.079,0,0,1,0,.051A.1.1,0,0,1,247.279,298.617Z" transform="translate(-200.514 -210.23)" fill="#263238"/>
        <path id="Path_3645" data-name="Path 3645" d="M277.656,298.737l-.445.26a.11.11,0,0,1-.051,0,.106.106,0,0,1-.094-.055.1.1,0,0,1,.039-.146l.6-.366a.114.114,0,0,1,.15.039.142.142,0,0,1,0,.079v2.877a.106.106,0,0,1-.106.11.11.11,0,0,1-.106-.11Z" transform="translate(-219.668 -210.228)" fill="#263238"/>
        <path id="Path_3646" data-name="Path 3646" d="M282.872,300.946h-1.708a.083.083,0,0,1-.067-.024.1.1,0,0,1,0-.15l1.815-2.255h0a.1.1,0,0,1,.15,0,.176.176,0,0,1,.039.055h0v2.161h.209a.11.11,0,1,1,0,.216H283.1v.535a.114.114,0,0,1-.114.11.11.11,0,0,1-.106-.11Zm0-.216v-1.834l-1.48,1.834Z" transform="translate(-222.102 -210.268)" fill="#263238"/>
        <path id="Path_3647" data-name="Path 3647" d="M314.147,298.735l-.441.26a.13.13,0,0,1-.055,0,.114.114,0,0,1-.094-.055.1.1,0,0,1,.043-.146l.6-.366a.106.106,0,0,1,.146.039.118.118,0,0,1,0,.079v2.877a.106.106,0,0,1-.106.11.114.114,0,0,1-.11-.11Z" transform="translate(-241.797 -210.226)" fill="#263238"/>
        <path id="Path_3648" data-name="Path 3648" d="M317.716,301.272a.106.106,0,0,1,0-.157.118.118,0,0,1,.161,0,.834.834,0,0,0,1.425-.59.835.835,0,0,0-1.425-.59.106.106,0,0,1-.157,0,.063.063,0,0,1-.028-.035h0a.123.123,0,0,1,0-.039.169.169,0,0,0,0-.02l.154-1.264a.087.087,0,0,1,.043-.079.1.1,0,0,1,.071-.028h1.46a.114.114,0,0,1,0,.224h-1.366l-.11.929a1.063,1.063,0,0,1,1.279,1.669,1.1,1.1,0,0,1-.752.311,1.043,1.043,0,0,1-.756-.331Z" transform="translate(-244.307 -210.261)" fill="#263238"/>
        <path id="Path_3649" data-name="Path 3649" d="M350.817,298.761l-.441.26a.106.106,0,0,1-.15-.039.1.1,0,0,1,.043-.146l.6-.366a.114.114,0,0,1,.15.039.142.142,0,0,1,0,.079v2.877a.106.106,0,0,1-.106.11.114.114,0,0,1-.11-.11Z" transform="translate(-264.033 -210.252)" fill="#263238"/>
        <path id="Path_3650" data-name="Path 3650" d="M354.681,299.111a1.275,1.275,0,0,1,1.1-.681.106.106,0,0,1,.11.1.118.118,0,0,1-.106.118,1.059,1.059,0,0,0-.913.567,2.152,2.152,0,0,0-.224.626,1,1,0,1,1-.26.716,1.742,1.742,0,0,1,0-.2A2.594,2.594,0,0,1,354.681,299.111Zm-.055,1.433a.231.231,0,0,0,0,.055.067.067,0,0,1,0,.031.838.838,0,1,0,0-.106Z" transform="translate(-266.562 -210.236)" fill="#263238"/>
        <path id="Path_3651" data-name="Path 3651" d="M388.141,298.761l-.445.26a.106.106,0,0,1-.15-.039.1.1,0,0,1,.043-.146l.6-.366a.114.114,0,0,1,.15.039.141.141,0,0,1,0,.079v2.877a.106.106,0,0,1-.106.11.11.11,0,0,1-.106-.11Z" transform="translate(-286.663 -210.252)" fill="#263238"/>
        <path id="Path_3652" data-name="Path 3652" d="M392.175,301.413l1.161-2.755h-1.5a.108.108,0,0,1,0-.216h1.657a.1.1,0,0,1,.067,0,.122.122,0,0,1,.059.067.1.1,0,0,1,0,.035.091.091,0,0,1-.02.059l-1.212,2.881a.106.106,0,0,1-.1.067.067.067,0,0,1-.043,0A.114.114,0,0,1,392.175,301.413Z" transform="translate(-289.209 -210.24)" fill="#263238"/>
        <path id="Path_3653" data-name="Path 3653" d="M423.886,298.737l-.441.26a.146.146,0,0,1-.055,0,.114.114,0,0,1-.094-.055.1.1,0,0,1,.039-.146l.606-.366a.11.11,0,0,1,.146.039.118.118,0,0,1,0,.079v2.877a.108.108,0,1,1-.216,0Z" transform="translate(-308.34 -210.229)" fill="#263238"/>
        <path id="Path_3654" data-name="Path 3654" d="M428.345,298.419a.649.649,0,0,1,.394,1.181,1.016,1.016,0,1,1-.787,0,.665.665,0,0,1-.26-.527.646.646,0,0,1,.653-.653Zm0,2.917a.787.787,0,1,0-.787-.787A.787.787,0,0,0,428.345,301.336Zm0-1.826a.445.445,0,0,0,.441-.441.437.437,0,1,0-.441.441Z" transform="translate(-310.796 -210.23)" fill="#263238"/>
        <rect id="Rectangle_1872" data-name="Rectangle 1872" width="63.522" height="1.134" transform="translate(41.995 43.707)" fill="#ebebeb"/>
        <path id="Path_3655" data-name="Path 3655" d="M147.572,145.475V142.44l-1.822,1.515Z" transform="translate(-120.539 -99.681)" fill="#ebebeb"/>
        <path id="Path_3656" data-name="Path 3656" d="M387.77,142.44v3.035l1.822-1.519Z" transform="translate(-267.296 -99.681)" fill="#ebebeb"/>
        <rect id="Rectangle_1873" data-name="Rectangle 1873" width="167.688" height="27.226" transform="translate(13.643 9.596)" fill="#2564f2"/>
        <rect id="Rectangle_1874" data-name="Rectangle 1874" width="47.462" height="87.91" transform="translate(133.865 36.823)" fill="#ebebeb"/>
        <path id="Path_3657" data-name="Path 3657" d="M280.23,128.9a4.33,4.33,0,0,1,4.33-4.251,4.416,4.416,0,0,1,2.728.921.678.678,0,0,1-.827,1.075,2.944,2.944,0,0,0-1.9-.649,3.125,3.125,0,0,0-2.126.85,2.913,2.913,0,0,0-.862,2.055,2.87,2.87,0,0,0,.862,2.055,3.125,3.125,0,0,0,2.126.85,2.968,2.968,0,0,0,1.9-.649.716.716,0,0,1,.945.13.7.7,0,0,1-.118.945,4.416,4.416,0,0,1-2.728.921,4.33,4.33,0,0,1-4.33-4.252Z" transform="translate(-221.597 -104.859)" fill="#fff"/>
        <path id="Path_3658" data-name="Path 3658" d="M312.73,131.585h-2.869l-.579,1.535a.661.661,0,0,1-.614.413.689.689,0,0,1-.224-.035.669.669,0,0,1-.394-.85l2.61-6.951a.657.657,0,0,1,.626-.417.649.649,0,0,1,.626.417l2.594,6.951a.669.669,0,0,1-.394.85.661.661,0,0,1-.827-.394Zm-.484-1.3-.956-2.539-.976,2.539Z" transform="translate(-238.443 -105.241)" fill="#fff"/>
        <path id="Path_3659" data-name="Path 3659" d="M334,132.866V125.9a.649.649,0,0,1,.649-.649.657.657,0,0,1,.661.649v6.3h3.2a.657.657,0,0,1,0,1.311h-3.861a.649.649,0,0,1-.649-.642Z" transform="translate(-254.202 -105.223)" fill="#fff"/>
        <path id="Path_3660" data-name="Path 3660" d="M356.31,132.866V125.9a.642.642,0,0,1,.649-.649h3.861a.653.653,0,0,1,.649.649.665.665,0,0,1-.649.661h-3.2v2.161h2.755a.657.657,0,0,1,0,1.311h-2.755v2.173h3.2a.657.657,0,0,1,0,1.311h-3.85a.65.65,0,0,1-.661-.649Z" transform="translate(-267.731 -105.223)" fill="#fff"/>
        <path id="Path_3661" data-name="Path 3661" d="M380.814,132.991a.646.646,0,1,1-1.287,0v-6.873a.638.638,0,0,1,.26-.543.649.649,0,0,1,.9.142l3.814,5.278V126.13a.642.642,0,0,1,.638-.638.653.653,0,0,1,.649.638v6.861a.653.653,0,0,1-.649.649.642.642,0,0,1-.484-.236.316.316,0,0,1-.059-.071l-3.779-5.243Z" transform="translate(-281.808 -105.347)" fill="#fff"/>
        <path id="Path_3662" data-name="Path 3662" d="M406.53,132.866V125.9a.642.642,0,0,1,.649-.649h1.393a4.133,4.133,0,0,1,0,8.266h-1.393A.649.649,0,0,1,406.53,132.866Zm1.311-.661h.732a2.822,2.822,0,1,0,0-5.644h-.732Z" transform="translate(-298.183 -105.223)" fill="#fff"/>
        <path id="Path_3663" data-name="Path 3663" d="M435.008,131.585h-2.858l-.579,1.535a.661.661,0,0,1-.614.413.689.689,0,0,1-.224-.035.669.669,0,0,1-.394-.85l2.6-6.951a.657.657,0,0,1,.626-.417.65.65,0,0,1,.626.417l2.614,6.951a.669.669,0,0,1-.394.85.661.661,0,0,1-.827-.394Zm-.5-1.3-.956-2.539-.945,2.539Z" transform="translate(-312.598 -105.241)" fill="#fff"/>
        <path id="Path_3664" data-name="Path 3664" d="M461.536,132.536a.653.653,0,0,1-.413.827,1.039,1.039,0,0,1-.26.035h0a.858.858,0,0,1-.461-.13,1.181,1.181,0,0,1-.394-.413,3.173,3.173,0,0,1-.248-1.417,1,1,0,0,0-.142-.508,1.094,1.094,0,0,0-.354-.342,2.248,2.248,0,0,0-.661-.283h-1.393v2.562a.657.657,0,0,1-.661.649.649.649,0,0,1-.649-.649V125.9a.642.642,0,0,1,.649-.649h2.114a2.527,2.527,0,0,1,1.606,4.475,1.83,1.83,0,0,1,.413.437,2.235,2.235,0,0,1,.394,1.275,2.977,2.977,0,0,0,.047.7A.638.638,0,0,1,461.536,132.536Zm-1.661-4.747a1.216,1.216,0,0,0-1.216-1.228h-1.452v2.433h1.452a1.212,1.212,0,0,0,1.216-1.2Z" transform="translate(-328.12 -105.223)" fill="#fff"/>
        <rect id="Rectangle_1875" data-name="Rectangle 1875" width="8.175" height="18.429" transform="translate(138.549 43.459)" fill="#a6a6a6"/>
        <rect id="Rectangle_1876" data-name="Rectangle 1876" width="27.392" height="18.429" transform="translate(149.255 43.459)" fill="#a6a6a6"/>
        <path id="Path_3665" data-name="Path 3665" d="M487.866,188.641l-.445.256a.087.087,0,0,1-.055.02.107.107,0,0,1-.051-.2l.6-.366a.114.114,0,0,1,.15.039.138.138,0,0,1,0,.079v2.885a.106.106,0,0,1-.106.11.11.11,0,0,1-.106-.11Z" transform="translate(-347.136 -143.477)" fill="#fff"/>
        <path id="Path_3666" data-name="Path 3666" d="M491.419,189.849a2,2,0,0,1,.3-1.1.886.886,0,0,1,1.574,0,2.035,2.035,0,0,1,.307,1.1,2,2,0,0,1-.307,1.09.878.878,0,0,1-1.574,0,1.968,1.968,0,0,1-.3-1.09Zm.22,0a1.767,1.767,0,0,0,.264.968.665.665,0,0,0,1.2,0,1.893,1.893,0,0,0,0-1.941.669.669,0,0,0-1.2,0,1.771,1.771,0,0,0-.256.972Z" transform="translate(-349.659 -143.438)" fill="#fff"/>
        <rect id="Rectangle_1877" data-name="Rectangle 1877" width="20.767" height="1.004" transform="translate(151.318 45.061)" fill="#fff"/>
        <rect id="Rectangle_1878" data-name="Rectangle 1878" width="17.055" height="0.5" transform="translate(151.318 47.974)" fill="#fff"/>
        <rect id="Rectangle_1879" data-name="Rectangle 1879" width="17.055" height="0.5" transform="translate(151.318 49.241)" fill="#fff"/>
        <rect id="Rectangle_1880" data-name="Rectangle 1880" width="17.055" height="0.5" transform="translate(151.318 50.505)" fill="#fff"/>
        <rect id="Rectangle_1881" data-name="Rectangle 1881" width="17.055" height="0.5" transform="translate(151.318 53.036)" fill="#fff"/>
        <rect id="Rectangle_1882" data-name="Rectangle 1882" width="17.055" height="0.5" transform="translate(151.318 54.299)" fill="#fff"/>
        <rect id="Rectangle_1883" data-name="Rectangle 1883" width="17.055" height="0.5" transform="translate(151.318 55.567)" fill="#fff"/>
        <rect id="Rectangle_1884" data-name="Rectangle 1884" width="17.055" height="0.5" transform="translate(151.318 56.83)" fill="#fff"/>
        <rect id="Rectangle_1885" data-name="Rectangle 1885" width="17.055" height="0.5" transform="translate(151.318 58.098)" fill="#fff"/>
        <rect id="Rectangle_1886" data-name="Rectangle 1886" width="8.175" height="26.077" transform="translate(138.549 64.439)" fill="#2564f2"/>
        <rect id="Rectangle_1887" data-name="Rectangle 1887" width="27.392" height="26.077" transform="translate(149.255 64.439)" fill="#2564f2"/>
        <path id="Path_3667" data-name="Path 3667" d="M486.938,245.276l1.46-1.319a.807.807,0,0,0,.268-.6.8.8,0,0,0-.8-.8.823.823,0,0,0-.547.2l-.15.138a.107.107,0,1,1-.154-.15l.154-.146a1.051,1.051,0,0,1,.693-.264,1,1,0,0,1,.752.335,1.02,1.02,0,0,1-.067,1.445l-1.256,1.134h1.484a.11.11,0,0,1,0,.22h-1.763a.109.109,0,0,1-.071-.2Z" transform="translate(-346.917 -176.224)" fill="#fff"/>
        <path id="Path_3668" data-name="Path 3668" d="M493.629,245.295l1.46-1.319a.792.792,0,0,0-.535-1.389.823.823,0,0,0-.547.2l-.15.138a.107.107,0,1,1-.154-.15l.154-.146a1.051,1.051,0,0,1,.693-.264,1,1,0,0,1,.752.335,1.019,1.019,0,0,1-.067,1.445l-1.252,1.134h1.48a.11.11,0,1,1,0,.22H493.7a.116.116,0,0,1-.071-.209Z" transform="translate(-350.97 -176.242)" fill="#fff"/>
        <rect id="Rectangle_1888" data-name="Rectangle 1888" width="20.767" height="1.004" transform="translate(151.318 66.112)" fill="#fff"/>
        <rect id="Rectangle_1889" data-name="Rectangle 1889" width="17.055" height="0.5" transform="translate(151.318 69.025)" fill="#fff"/>
        <rect id="Rectangle_1890" data-name="Rectangle 1890" width="17.055" height="0.5" transform="translate(151.318 70.288)" fill="#fff"/>
        <rect id="Rectangle_1891" data-name="Rectangle 1891" width="17.055" height="0.5" transform="translate(151.318 71.555)" fill="#fff"/>
        <rect id="Rectangle_1892" data-name="Rectangle 1892" width="20.767" height="1.004" transform="translate(151.318 82.596)" fill="#fff"/>
        <rect id="Rectangle_1893" data-name="Rectangle 1893" width="17.055" height="0.5" transform="translate(151.318 85.509)" fill="#fff"/>
        <rect id="Rectangle_1894" data-name="Rectangle 1894" width="17.055" height="0.5" transform="translate(151.318 86.777)" fill="#fff"/>
        <rect id="Rectangle_1895" data-name="Rectangle 1895" width="17.055" height="0.5" transform="translate(151.318 74.086)" fill="#fff"/>
        <rect id="Rectangle_1896" data-name="Rectangle 1896" width="17.055" height="0.5" transform="translate(151.318 75.35)" fill="#fff"/>
        <rect id="Rectangle_1897" data-name="Rectangle 1897" width="17.055" height="0.5" transform="translate(151.318 76.613)" fill="#fff"/>
        <rect id="Rectangle_1898" data-name="Rectangle 1898" width="17.055" height="0.5" transform="translate(151.318 77.881)" fill="#fff"/>
        <rect id="Rectangle_1899" data-name="Rectangle 1899" width="17.055" height="0.5" transform="translate(151.318 79.144)" fill="#fff"/>
      </g>
    </g>
  </g>
</svg>
