<svg width="270" height="270" viewBox="-20 -20 310 310" fill="none" xmlns="http://www.w3.org/2000/svg">
    <g transform="translate(0, 35)">
        <g clip-path="url(#clip0_163_34255)">
            <path
                d="M167.113 159.19H8.50317C6.75662 159.188 5.08218 158.496 3.84719 157.265C2.6122 156.034 1.91751 154.365 1.91553 152.625V39.2121C1.91751 37.4714 2.6122 35.8026 3.84719 34.5717C5.08218 33.3408 6.75662 32.6485 8.50317 32.6465H167.113C168.859 32.6485 170.534 33.3408 171.769 34.5717C173.004 35.8026 173.698 37.4714 173.7 39.2121V152.625C173.698 154.365 173.004 156.034 171.769 157.265C170.534 158.496 168.859 159.188 167.113 159.19ZM8.50317 36.1021C7.67586 36.103 6.88272 36.431 6.29773 37.0141C5.71274 37.5971 5.38367 38.3876 5.38271 39.2121V152.625C5.38364 153.449 5.71271 154.24 6.2977 154.823C6.8827 155.406 7.67585 155.734 8.50317 155.735H167.113C167.94 155.734 168.733 155.406 169.318 154.823C169.903 154.24 170.232 153.449 170.233 152.625V39.2121C170.232 38.3876 169.903 37.5971 169.318 37.0141C168.733 36.431 167.94 36.103 167.113 36.1021H8.50317Z"
                fill="#E6E6E6" />
            <path
                d="M84.4369 198C91.4848 198 97.1982 192.306 97.1982 185.281C97.1982 178.257 91.4848 172.562 84.4369 172.562C77.389 172.562 71.6755 178.257 71.6755 185.281C71.6755 192.306 77.389 198 84.4369 198Z"
                fill="#E6E6E6" />
            <path
                d="M84.437 195.032C89.8404 195.032 94.2207 190.667 94.2207 185.281C94.2207 179.896 89.8404 175.53 84.437 175.53C79.0336 175.53 74.6533 179.896 74.6533 185.281C74.6533 190.667 79.0336 195.032 84.437 195.032Z"
                fill="white" />
            <path
                d="M89.3384 190.607C89.2799 190.607 89.2219 190.595 89.1678 190.573C89.1138 190.551 89.0647 190.518 89.0234 190.477L79.2195 180.705C79.1396 180.621 79.0957 180.51 79.0972 180.394C79.0987 180.278 79.1456 180.168 79.2277 180.086C79.3098 180.004 79.4208 179.957 79.537 179.956C79.6531 179.954 79.7653 179.998 79.8495 180.078L89.6534 189.849C89.7157 189.911 89.7581 189.99 89.7753 190.076C89.7924 190.162 89.7836 190.251 89.7499 190.333C89.7162 190.414 89.6591 190.483 89.5859 190.532C89.5126 190.581 89.4265 190.607 89.3384 190.607Z"
                fill="#3763e9" />
            <path
                d="M89.9703 186.221C90.0625 186.077 90.1112 185.909 90.1107 185.738C90.1102 185.567 90.0605 185.4 89.9675 185.256C89.2528 184.143 88.3107 183.192 87.2026 182.466C86.0796 181.721 84.7648 181.316 83.4162 181.298C82.736 181.299 82.0606 181.409 81.4158 181.625C81.3978 181.631 81.3816 181.642 81.3688 181.656C81.3559 181.67 81.3469 181.687 81.3426 181.705C81.3382 181.723 81.3387 181.743 81.3439 181.761C81.3491 181.779 81.3589 181.796 81.3724 181.809L82.6881 183.12C82.702 183.134 82.7191 183.144 82.7378 183.149C82.7566 183.154 82.7764 183.154 82.7952 183.149C83.4841 182.982 84.2114 183.095 84.8171 183.462C85.4229 183.829 85.8575 184.421 86.0253 185.108L86.0285 185.121C86.2559 186.183 86.7751 187.16 87.5279 187.945L87.9471 188.363C87.9669 188.383 87.9933 188.394 88.0212 188.395C88.0492 188.397 88.0765 188.387 88.0979 188.369C88.8262 187.751 89.4574 187.026 89.9703 186.221Z"
                fill="#3763e9" />
            <path
                d="M85.4056 187.34C85.0545 187.34 84.7068 187.271 84.3824 187.137C84.058 187.003 83.7633 186.807 83.515 186.559C83.2667 186.312 83.0697 186.018 82.9353 185.695C82.8009 185.372 82.7317 185.025 82.7317 184.675C82.7317 184.673 82.7317 184.67 82.7317 184.668C82.7375 184.435 82.6969 184.204 82.6123 183.986C82.5277 183.769 82.4007 183.571 82.2386 183.403L80.9162 182.085C80.8963 182.065 80.8697 182.053 80.8416 182.052C80.8135 182.051 80.7861 182.061 80.7647 182.079C80.0497 182.697 79.4166 183.403 78.8808 184.18C78.78 184.324 78.7245 184.495 78.7213 184.671C78.7182 184.846 78.7675 185.019 78.863 185.167C79.566 186.281 80.4991 187.234 81.6002 187.961C82.7249 188.708 84.045 189.11 85.3967 189.116C86.0837 189.114 86.7662 189.006 87.4199 188.796C87.4381 188.79 87.4545 188.78 87.4675 188.766C87.4805 188.752 87.4898 188.735 87.4943 188.716C87.4988 188.698 87.4984 188.678 87.4932 188.66C87.4881 188.642 87.4782 188.625 87.4647 188.611L86.1426 187.294C86.1289 187.28 86.1118 187.271 86.0932 187.265C86.0745 187.26 86.0549 187.26 86.0361 187.265C85.8297 187.315 85.618 187.34 85.4056 187.34Z"
                fill="#3763e9" />
            <path
                d="M36.0189 198C43.0668 198 48.7803 192.306 48.7803 185.281C48.7803 178.257 43.0668 172.562 36.0189 172.562C28.971 172.562 23.2576 178.257 23.2576 185.281C23.2576 192.306 28.971 198 36.0189 198Z"
                fill="#E6E6E6" />
            <path
                d="M36.0188 195.032C41.4222 195.032 45.8025 190.667 45.8025 185.281C45.8025 179.896 41.4222 175.53 36.0188 175.53C30.6154 175.53 26.2351 179.896 26.2351 185.281C26.2351 190.667 30.6154 195.032 36.0188 195.032Z"
                fill="white" />
            <path
                d="M39.7773 191.499C39.2337 191.499 38.47 191.303 37.3264 190.666C35.905 189.909 34.6071 188.942 33.477 187.797C32.3072 186.686 31.3304 185.39 30.5862 183.961C29.5602 182.101 29.7351 181.127 29.9306 180.71C30.1563 180.254 30.5112 179.875 30.9514 179.618C31.2037 179.454 31.4707 179.312 31.749 179.196C31.7769 179.185 31.8028 179.173 31.8259 179.163C31.918 179.111 32.0202 179.079 32.1256 179.069C32.231 179.06 32.3373 179.073 32.4373 179.107C32.6596 179.214 32.8573 179.365 33.0183 179.552C33.5975 180.199 34.0862 180.922 34.471 181.701C34.6292 181.97 34.7264 182.271 34.7559 182.581C34.7328 182.889 34.6079 183.18 34.4008 183.409C34.3644 183.458 34.3281 183.506 34.293 183.552C34.0811 183.829 34.0346 183.91 34.0652 184.053C34.1273 184.341 35.0685 184.591 35.8297 185.348C36.5909 186.105 36.9479 187.144 37.2378 187.206C37.3877 187.238 37.4698 187.189 37.7573 186.971C37.7985 186.939 37.8408 186.907 37.8851 186.874C38.1154 186.658 38.4125 186.525 38.7279 186.498H38.7296C39.0457 186.531 39.3498 186.637 39.6169 186.809C40.3891 187.199 41.1106 187.682 41.7654 188.246C41.9527 188.406 42.1049 188.603 42.2124 188.824C42.2469 188.924 42.2598 189.03 42.2502 189.135C42.2406 189.24 42.2087 189.342 42.1567 189.434C42.1464 189.458 42.135 189.483 42.123 189.511C42.0058 189.788 41.8632 190.053 41.6971 190.304C41.4391 190.742 41.0578 191.095 40.6003 191.32C40.3432 191.441 40.0618 191.502 39.7773 191.499Z"
                fill="#3763e9" />
            <path
                d="M133.23 198C140.278 198 145.992 192.306 145.992 185.281C145.992 178.257 140.278 172.562 133.23 172.562C126.182 172.562 120.469 178.257 120.469 185.281C120.469 192.306 126.182 198 133.23 198Z"
                fill="#E6E6E6" />
            <path
                d="M133.23 195.032C138.634 195.032 143.014 190.667 143.014 185.281C143.014 179.896 138.634 175.53 133.23 175.53C127.827 175.53 123.447 179.896 123.447 185.281C123.447 190.667 127.827 195.032 133.23 195.032Z"
                fill="white" />
            <path
                d="M136.795 183.46C136.677 183.46 136.564 183.507 136.48 183.591C136.397 183.674 136.35 183.787 136.35 183.905V184.793C136.35 186.51 134.953 187.014 133.23 187.014C131.508 187.014 130.111 186.51 130.111 184.793V183.905C130.111 183.787 130.064 183.674 129.98 183.591C129.897 183.507 129.784 183.46 129.665 183.46C129.547 183.46 129.434 183.507 129.35 183.591C129.267 183.674 129.22 183.787 129.22 183.905V184.793C129.221 185.776 129.585 186.723 130.243 187.456C130.9 188.188 131.805 188.654 132.785 188.764V190.567C132.785 190.685 132.832 190.798 132.915 190.881C132.999 190.964 133.112 191.011 133.23 191.011C133.349 191.011 133.462 190.964 133.546 190.881C133.629 190.797 133.676 190.685 133.676 190.567V188.764C134.656 188.654 135.561 188.188 136.218 187.456C136.876 186.723 137.24 185.776 137.241 184.793V183.905C137.241 183.787 137.194 183.674 137.111 183.591C137.027 183.507 136.914 183.46 136.795 183.46Z"
                fill="#3763e9" />
            <path
                d="M133.23 185.757C132.684 185.767 132.143 185.644 131.655 185.398C131.48 185.328 131.327 185.213 131.212 185.064C131.097 184.915 131.024 184.737 131.002 184.55V182.897C130.997 182.242 131.987 181.709 133.213 181.706C133.219 181.706 133.225 181.706 133.23 181.706C134.448 181.699 135.445 182.221 135.458 182.872C135.459 182.88 135.459 182.889 135.458 182.897V184.55C135.465 185.212 134.468 185.752 133.23 185.757Z"
                fill="#3763e9" />
            <path
                d="M167.113 157.636H8.50323C7.17035 157.634 5.8925 157.106 4.95001 156.166C4.00752 155.227 3.47736 153.953 3.47583 152.625V39.2123C3.47736 37.8839 4.00752 36.6103 4.95001 35.6709C5.8925 34.7316 7.17035 34.2032 8.50323 34.2017H167.113C168.445 34.2032 169.723 34.7316 170.666 35.6709C171.608 36.6103 172.138 37.8839 172.14 39.2123V152.625C172.138 153.953 171.608 155.227 170.666 156.166C169.723 157.106 168.445 157.634 167.113 157.636Z"
                fill="white" />
            <path
                d="M87.0316 104.487C96.3036 104.487 103.82 96.9958 103.82 87.7548C103.82 78.5138 96.3036 71.0225 87.0316 71.0225C77.7596 71.0225 70.2432 78.5138 70.2432 87.7548C70.2432 96.9958 77.7596 104.487 87.0316 104.487Z"
                fill="#FFB8B8" />
            <path
                d="M68.3034 71.6579C68.4304 69.7365 69.7053 67.7702 73.7561 66.7428C73.7561 66.7428 80.7078 57.883 90.1545 62.5292C90.1545 62.5292 94.7342 61.7439 98.1301 66.4796C98.1301 66.4796 101.497 64.5005 102.918 68.0085C102.918 68.0085 106.866 75.1639 105.413 82.4624C103.959 89.761 103.215 90.6718 103.215 90.6718C103.215 90.6718 105.068 75.5749 94.3947 76.6218C83.7216 77.6686 75.1287 73.9278 72.7117 82.1182C70.7047 88.9192 70.9575 92.4513 70.9575 92.4513C70.9575 92.4513 64.246 85.6668 66.5279 80.3244C67.6951 77.592 68.1077 74.6212 68.3034 71.6579Z"
                fill="#2F2E41" />
            <path
                d="M41.3772 157.462H134.239C133.618 150.403 133.212 145.15 133.212 143.374C133.212 135.54 126.781 126.991 126.781 126.991L124.478 125.723L105.253 119.745L100.278 113.303C99.7566 112.627 99.0852 112.08 98.3164 111.706C97.5475 111.332 96.7021 111.141 95.8465 111.147L80.1298 111.265C78.7467 111.275 77.4175 111.8 76.4026 112.737L66.6702 121.735L52.3959 128.529L52.3716 128.505L52.2225 128.615L50.1041 130.136L48.7415 131.117C48.7415 131.117 45.1668 135.392 42.3099 148.212C41.8799 150.14 41.5783 153.368 41.3772 157.462Z"
                fill="#3763e9" />
            <path
                d="M269.609 14.3319H0.390809C0.286381 14.3296 0.187002 14.2867 0.113954 14.2122C0.0409068 14.1378 0 14.0379 0 13.9338C0 13.8297 0.0409068 13.7297 0.113954 13.6553C0.187002 13.5809 0.286381 13.5379 0.390809 13.5356H269.609C269.714 13.5379 269.813 13.5809 269.886 13.6553C269.959 13.7297 270 13.8297 270 13.9338C270 14.0379 269.959 14.1378 269.886 14.2122C269.813 14.2867 269.714 14.3296 269.609 14.3319Z"
                fill="#CACACA" />
            <path
                d="M9.18533 8.75846C11.5591 8.75846 13.4834 6.79781 13.4834 4.37923C13.4834 1.96065 11.5591 0 9.18533 0C6.81154 0 4.88721 1.96065 4.88721 4.37923C4.88721 6.79781 6.81154 8.75846 9.18533 8.75846Z"
                fill="#3F3D56" />
            <path
                d="M24.0335 8.75846C26.4073 8.75846 28.3316 6.79781 28.3316 4.37923C28.3316 1.96065 26.4073 0 24.0335 0C21.6597 0 19.7354 1.96065 19.7354 4.37923C19.7354 6.79781 21.6597 8.75846 24.0335 8.75846Z"
                fill="#3F3D56" />
            <path
                d="M38.8816 8.75846C41.2554 8.75846 43.1797 6.79781 43.1797 4.37923C43.1797 1.96065 41.2554 0 38.8816 0C36.5078 0 34.5835 1.96065 34.5835 4.37923C34.5835 6.79781 36.5078 8.75846 38.8816 8.75846Z"
                fill="#3F3D56" />
            <path
                d="M260.713 2.67887H250.163C249.954 2.6743 249.756 2.5884 249.609 2.43958C249.463 2.29076 249.382 2.09084 249.382 1.88265C249.382 1.67445 249.463 1.47454 249.609 1.32571C249.756 1.17689 249.954 1.091 250.163 1.08643H260.713C260.922 1.091 261.121 1.17689 261.267 1.32571C261.413 1.47454 261.495 1.67445 261.495 1.88265C261.495 2.09084 261.413 2.29076 261.267 2.43958C261.121 2.5884 260.922 2.6743 260.713 2.67887Z"
                fill="#3F3D56" />
            <path
                d="M260.713 5.66471H250.163C249.954 5.66013 249.756 5.57424 249.609 5.42542C249.463 5.2766 249.382 5.07668 249.382 4.86849C249.382 4.66029 249.463 4.46038 249.609 4.31155C249.756 4.16273 249.954 4.07684 250.163 4.07227H260.713C260.922 4.07684 261.121 4.16273 261.267 4.31155C261.413 4.46038 261.495 4.66029 261.495 4.86849C261.495 5.07668 261.413 5.2766 261.267 5.42542C261.121 5.57424 260.922 5.66013 260.713 5.66471Z"
                fill="#3F3D56" />
            <path
                d="M260.713 8.65055H250.163C249.954 8.64598 249.756 8.56008 249.609 8.41126C249.463 8.26244 249.382 8.06252 249.382 7.85433C249.382 7.64613 249.463 7.44622 249.609 7.29739C249.756 7.14857 249.954 7.06268 250.163 7.05811H260.713C260.922 7.06268 261.121 7.14857 261.267 7.29739C261.413 7.44622 261.495 7.64613 261.495 7.85433C261.495 8.06252 261.413 8.26244 261.267 8.41126C261.121 8.56008 260.922 8.64598 260.713 8.65055Z"
                fill="#3F3D56" />
            <path
                d="M253.358 164.81H200.429C198.682 164.808 197.008 164.116 195.773 162.885C194.538 161.654 193.843 159.986 193.841 158.245V122.114C193.843 120.374 194.538 118.705 195.773 117.474C197.008 116.243 198.682 115.551 200.429 115.549H253.358C255.104 115.551 256.779 116.243 258.014 117.474C259.249 118.705 259.943 120.374 259.945 122.114V158.245C259.943 159.986 259.249 161.654 258.014 162.885C256.779 164.116 255.104 164.808 253.358 164.81ZM200.429 119.004C199.602 119.005 198.808 119.333 198.224 119.916C197.639 120.499 197.309 121.29 197.308 122.114V158.245C197.309 159.069 197.639 159.86 198.224 160.443C198.808 161.026 199.602 161.354 200.429 161.355H253.358C254.185 161.354 254.978 161.026 255.563 160.443C256.148 159.86 256.477 159.069 256.478 158.245V122.114C256.477 121.29 256.148 120.499 255.563 119.916C254.978 119.333 254.185 119.005 253.358 119.004H200.429Z"
                fill="#E6E6E6" />
            <path
                d="M253.358 163.255H200.429C199.096 163.254 197.818 162.725 196.876 161.786C195.933 160.847 195.403 159.573 195.401 158.245V122.114C195.403 120.786 195.933 119.512 196.876 118.573C197.818 117.633 199.096 117.105 200.429 117.104H253.358C254.69 117.105 255.968 117.633 256.911 118.573C257.853 119.512 258.383 120.786 258.385 122.114V158.245C258.383 159.573 257.853 160.847 256.911 161.786C255.968 162.725 254.69 163.254 253.358 163.255Z"
                fill="white" />
            <path
                d="M231.856 128.865C232.162 126.962 231.297 125.561 229.001 124.771C226.718 122.796 223.343 122.322 221.317 125.485C220.5 125.437 219.695 125.705 219.07 126.233C218.446 126.762 218.051 127.511 217.967 128.323C216.106 130.478 218.172 138.389 218.784 141.404L222.05 141.371L228.57 141.307L231.856 141.275L233.109 134.207C233.87 132.152 233.56 130.35 231.856 128.865Z"
                fill="#E6E6E6" />
            <path
                d="M243.717 158.622C244.57 158.079 245.473 157.62 246.415 157.25L237.128 146.26L230.991 144.695C230.94 144.666 230.891 144.638 230.841 144.608L220.488 145.004L220.443 144.959L213.915 148.142L204.629 158.843C205.545 159.201 206.426 159.644 207.258 160.168L206.3 163.8H212.945L214.713 161.239H214.801C214.801 161.195 214.805 161.151 214.805 161.107L216.046 159.309C216.074 160.762 216.034 162.259 215.933 163.8H236.601C236.568 162.52 236.56 161.247 236.56 159.983L238.872 163.326C239.045 163.073 239.23 162.837 239.416 162.596L239.871 163.8H245.162L243.894 158.991C243.858 158.859 243.798 158.733 243.717 158.622Z"
                fill="#E6E6E6" />
            <path
                d="M253.358 81.5443H200.429C198.682 81.5424 197.008 80.85 195.773 79.6191C194.538 78.3883 193.843 76.7194 193.841 74.9787V38.8483C193.843 37.1076 194.538 35.4388 195.773 34.2079C197.008 32.9771 198.682 32.2847 200.429 32.2827H253.358C255.104 32.2847 256.779 32.9771 258.014 34.2079C259.249 35.4388 259.943 37.1076 259.945 38.8483V74.9787C259.943 76.7194 259.249 78.3883 258.014 79.6191C256.779 80.85 255.104 81.5424 253.358 81.5443ZM200.429 35.7383C199.602 35.7393 198.808 36.0672 198.224 36.6503C197.639 37.2333 197.309 38.0238 197.308 38.8483V74.9787C197.309 75.8033 197.639 76.5937 198.224 77.1768C198.808 77.7598 199.602 78.0878 200.429 78.0887H253.358C254.185 78.0878 254.978 77.7598 255.563 77.1768C256.148 76.5937 256.477 75.8033 256.478 74.9787V38.8483C256.477 38.0238 256.148 37.2333 255.563 36.6503C254.978 36.0672 254.185 35.7393 253.358 35.7383H200.429Z"
                fill="#E6E6E6" />
            <path
                d="M253.358 79.9895H200.429C199.096 79.9879 197.818 79.4596 196.876 78.5202C195.933 77.5809 195.403 76.3073 195.401 74.9789V38.8485C195.403 37.5201 195.933 36.2465 196.876 35.3071C197.818 34.3678 199.096 33.8394 200.429 33.8379H253.358C254.69 33.8394 255.968 34.3678 256.911 35.3071C257.853 36.2465 258.383 37.5201 258.385 38.8485V74.9789C258.383 76.3073 257.853 77.5809 256.911 78.5202C255.968 79.4596 254.69 79.9879 253.358 79.9895Z"
                fill="white" />
            <path
                d="M220.208 51.6524C220.366 53.2585 221.082 54.7593 222.23 55.8968C223.379 57.0343 224.889 57.7374 226.502 57.8852C228.114 58.0329 229.728 57.6161 231.066 56.7064C232.403 55.7967 233.381 54.4509 233.83 52.9006C234.056 52.6664 236.556 50.004 235.651 47.8859C235.204 46.7368 234.955 45.5207 234.914 44.289C234.861 43.4915 234.332 42.6754 232.651 42.249C232.651 42.249 229.766 38.5718 225.845 40.5002C225.845 40.5002 223.944 40.1743 222.535 42.1398C222.535 42.1398 221.137 41.3184 220.548 42.7743C220.548 42.7743 218.909 45.7441 219.512 48.7733C219.689 49.7453 219.922 50.7066 220.208 51.6524Z"
                fill="#E6E6E6" />
            <path
                d="M245.703 76.7799C244.517 71.4589 243.033 69.6848 243.033 69.6848L242.468 69.2775L241.588 68.6465L241.527 68.6006L241.516 68.6106L235.592 65.791L231.553 62.0563C231.132 61.6676 230.58 61.4498 230.006 61.4453L223.483 61.3966C223.128 61.3938 222.777 61.4732 222.458 61.6285C222.139 61.7838 221.86 62.0108 221.644 62.2915L219.579 64.9649L211.599 67.446L210.644 67.9724C210.644 67.9724 207.975 71.5206 207.975 74.772C207.975 75.5092 207.806 77.6892 207.549 80.6192H246.09C246.056 79.3317 245.926 78.0484 245.703 76.7799Z"
                fill="#E6E6E6" />
            <path
                d="M220.319 130.337H151.12C148.837 130.335 146.648 129.429 145.033 127.82C143.419 126.211 142.51 124.029 142.508 121.753V74.5165C142.51 72.2407 143.419 70.0589 145.033 68.4497C146.648 66.8404 148.837 65.9352 151.12 65.9326H220.319C222.603 65.9352 224.792 66.8404 226.407 68.4496C228.021 70.0589 228.93 72.2407 228.932 74.5165V121.753C228.93 124.029 228.021 126.211 226.407 127.82C224.792 129.429 222.603 130.335 220.319 130.337ZM151.12 70.4505C150.039 70.4517 149.002 70.8805 148.237 71.6428C147.472 72.405 147.042 73.4385 147.041 74.5165V121.753C147.042 122.831 147.472 123.865 148.237 124.627C149.002 125.389 150.039 125.818 151.12 125.819H220.319C221.401 125.818 222.438 125.389 223.203 124.627C223.968 123.865 224.398 122.831 224.399 121.753V74.5165C224.398 73.4385 223.968 72.405 223.203 71.6428C222.438 70.8805 221.401 70.4517 220.319 70.4505H151.12Z"
                fill="#E6E6E6" />
            <path
                d="M220.319 67.9648H151.121C149.378 67.9672 147.707 68.6583 146.474 69.8867C145.242 71.115 144.548 72.7804 144.546 74.5176V121.755C144.548 123.491 145.242 125.156 146.475 126.384C147.707 127.612 149.378 128.302 151.121 128.304H220.319C222.061 128.302 223.732 127.612 224.965 126.384C226.197 125.156 226.891 123.491 226.893 121.755V74.5176C226.891 72.7804 226.197 71.115 224.965 69.8867C223.732 68.6583 222.062 67.9672 220.319 67.9648Z"
                fill="white" />
            <path
                d="M197.893 87.7125C200.878 87.7125 203.297 85.3012 203.297 82.3267C203.297 79.3522 200.878 76.9409 197.893 76.9409C194.909 76.9409 192.489 79.3522 192.489 82.3267C192.489 85.3012 194.909 87.7125 197.893 87.7125Z"
                fill="#2F2E41" />
            <path
                d="M186.792 106.014C194.352 106.014 200.481 99.9055 200.481 92.3701C200.481 84.8347 194.352 78.7261 186.792 78.7261C179.231 78.7261 173.102 84.8347 173.102 92.3701C173.102 99.9055 179.231 106.014 186.792 106.014Z"
                fill="#2F2E41" />
            <path
                d="M184.413 106.844C190.557 106.844 195.538 101.88 195.538 95.7562C195.538 89.6329 190.557 84.6689 184.413 84.6689C178.269 84.6689 173.289 89.6329 173.289 95.7562C173.289 101.88 178.269 106.844 184.413 106.844Z"
                fill="#9E616A" />
            <path
                d="M180.22 81.9488C182.381 81.2149 184.7 81.0731 186.935 81.5382C189.17 82.0034 191.238 83.0584 192.924 84.593C194.609 86.1275 195.85 88.0853 196.517 90.2615C197.184 92.4377 197.252 94.7525 196.713 96.9638C190.871 97.1206 184.822 96.8904 179.393 93.4682L178.759 89.76L177.178 92.9792C175.217 93.3125 173.277 93.5321 171.779 91.7739C172.2 89.5432 173.201 87.4618 174.683 85.7376C176.164 84.0134 178.073 82.707 180.22 81.9488Z"
                fill="#2F2E41" />
            <path
                d="M205.992 69.145C210.012 68.2875 214.414 70.0851 216.867 73.3727C219.32 76.6602 219.814 81.2344 218.344 85.0605C216.844 88.9638 213.606 91.893 210.578 94.785C207.55 97.6769 204.502 100.906 203.594 104.986C202.939 107.925 203.48 111.002 205.099 113.544C206.718 116.085 209.282 117.883 212.229 118.543C208.437 119.26 204.488 119.973 200.764 118.962C197.04 117.951 193.634 114.664 193.848 110.823C194.002 108.056 195.897 105.745 197.546 103.513C200.232 99.8756 202.468 95.9288 204.205 91.7578C205.034 89.767 205.759 87.6416 205.526 85.4988C205.316 83.9026 204.597 82.4158 203.475 81.2578C202.353 80.0997 200.887 79.3317 199.294 79.067L198.299 77.6762C198.631 73.5924 201.972 70.0025 205.992 69.145Z"
                fill="#2F2E41" />
            <path
                d="M209.936 127.999C209.215 120.681 205.145 120.968 205.145 120.968L194.394 118.875L189.686 111.084L177.866 110.624L173.658 117.977L165.012 119.055L165.005 119.177C164.147 119.241 161.056 119.916 160.437 126.203C160.379 126.781 160.3 127.489 160.199 128.304H209.968C209.958 128.196 209.947 128.096 209.936 127.999Z"
                fill="#2F2E41" />
        </g>
    </g>
    <defs>
        <clipPath id="clip0_163_34255">
            <rect width="270" height="270" fill="white" />
        </clipPath>
    </defs>
</svg>