<svg width="71" height="60" viewBox="0 0 71 60" fill="none" xmlns="http://www.w3.org/2000/svg">
<g id="Group 16">
<path id="Vector" d="M59.7808 59.5278H2.86397C2.23722 59.5271 1.63635 59.2778 1.19318 58.8346C0.75 58.3914 0.500711 57.7906 0.5 57.1638V16.3294C0.500711 15.7026 0.75 15.1017 1.19318 14.6586C1.63635 14.2154 2.23722 13.9661 2.86397 13.9654H59.7808C60.4076 13.9661 61.0085 14.2154 61.4516 14.6586C61.8948 15.1017 62.1441 15.7026 62.1448 16.3294V57.1638C62.1441 57.7906 61.8948 58.3914 61.4516 58.8346C61.0085 59.2778 60.4076 59.5271 59.7808 59.5278ZM2.86397 15.2096C2.56709 15.2099 2.28247 15.328 2.07255 15.5379C1.86263 15.7479 1.74454 16.0325 1.7442 16.3294V57.1638C1.74453 57.4607 1.86261 57.7453 2.07254 57.9552C2.28247 58.1652 2.56709 58.2833 2.86397 58.2836H59.7808C60.0777 58.2833 60.3624 58.1652 60.5723 57.9552C60.7822 57.7453 60.9003 57.4607 60.9006 57.1638V16.3294C60.9003 16.0325 60.7822 15.7479 60.5723 15.5379C60.3623 15.328 60.0777 15.2099 59.7808 15.2096H2.86397Z" fill="#3F3D56"/>
<path id="Vector_2" d="M59.781 58.9679H2.86414C2.38583 58.9673 1.92728 58.7771 1.58907 58.4388C1.25086 58.1006 1.06061 57.6421 1.06006 57.1638V16.3293C1.06061 15.851 1.25086 15.3925 1.58907 15.0542C1.92728 14.716 2.38583 14.5258 2.86414 14.5252H59.781C60.2593 14.5258 60.7179 14.716 61.0561 15.0542C61.3943 15.3925 61.5845 15.851 61.5851 16.3293V57.1638C61.5845 57.6421 61.3943 58.1006 61.0561 58.4388C60.7179 58.7771 60.2593 58.9673 59.781 58.9679Z" fill="white"/>
<path id="ab6171fa-7d69-4734-b81c-8dff60f9761b" d="M31.0438 39.8317C34.371 39.8317 37.0683 37.1344 37.0683 33.8072C37.0683 30.48 34.371 27.7827 31.0438 27.7827C27.7166 27.7827 25.0193 30.48 25.0193 33.8072C25.0193 37.1344 27.7166 39.8317 31.0438 39.8317Z" fill="#FFB8B8"/>
<path id="bf427902-b9bf-4946-b5d7-5c1c7e04535e" d="M24.3232 28.0115C24.3687 27.3197 24.8263 26.6118 26.2799 26.2418C26.2799 26.2418 28.7745 23.0518 32.1644 24.7247C32.1644 24.7247 33.8078 24.442 35.0265 26.1471C35.0265 26.1471 36.2347 25.4345 36.7444 26.6975C36.7444 26.6975 38.1615 29.2739 37.6398 31.9017C37.1181 34.5296 36.8511 34.8575 36.8511 34.8575C36.8511 34.8575 37.516 29.4219 33.686 29.7988C29.856 30.1757 26.7724 28.8288 25.9051 31.7778C25.1849 34.2265 25.2756 35.4983 25.2756 35.4983C25.2756 35.4983 22.8672 33.0554 23.6861 31.1319C24.1049 30.1481 24.253 29.0785 24.3232 28.0115Z" fill="#2F2E41"/>
<path id="Vector_3" d="M14.6609 58.9056H47.9841C47.7614 56.3637 47.6158 54.4725 47.6158 53.833C47.6158 51.0124 45.3079 47.9343 45.3079 47.9343L44.4817 47.4777L37.5827 45.3252L35.7972 43.006C35.6103 42.7625 35.3694 42.5656 35.0935 42.4309C34.8176 42.2962 34.5142 42.2273 34.2072 42.2297L28.5672 42.272C28.0709 42.2758 27.5939 42.4648 27.2297 42.802L23.7373 46.0419L18.6149 48.488L18.6062 48.4793L18.5527 48.5191L17.7925 49.0665L17.3035 49.4199C17.3035 49.4199 16.0208 50.9589 14.9956 55.5749C14.8413 56.2692 14.733 57.4312 14.6609 58.9056Z" fill="#3763e9"/>
<g id="Group 17">
<path id="Vector_4" d="M67.4094 23.189H42.5773C41.7579 23.1881 40.9724 22.8622 40.3929 22.2828C39.8135 21.7033 39.4876 20.9178 39.4867 20.0984V3.09065C39.4876 2.27125 39.8135 1.48567 40.3929 0.906265C40.9724 0.326857 41.7579 0.000933077 42.5773 0H67.4094C68.2288 0.00093034 69.0143 0.326853 69.5938 0.906261C70.1732 1.48567 70.4991 2.27125 70.5 3.09065V20.0984C70.4991 20.9178 70.1732 21.7033 69.5938 22.2828C69.0143 22.8622 68.2288 23.1881 67.4094 23.189ZM42.5773 1.62666C42.1892 1.62711 41.8171 1.7815 41.5426 2.05595C41.2682 2.33041 41.1138 2.70252 41.1133 3.09065V20.0984C41.1138 20.4865 41.2682 20.8586 41.5426 21.1331C41.8171 21.4075 42.1892 21.5619 42.5773 21.5624H67.4094C67.7975 21.5619 68.1696 21.4075 68.4441 21.1331C68.7185 20.8586 68.8729 20.4865 68.8734 20.0984V3.09065C68.8729 2.70252 68.7185 2.33041 68.4441 2.05595C68.1696 1.7815 67.7975 1.62711 67.4094 1.62666H42.5773Z" fill="#3F3D56"/>
<path id="Vector_5" d="M67.4089 0.731812H42.5772C41.9517 0.732654 41.3521 0.981492 40.9099 1.42377C40.4676 1.86604 40.2187 2.46566 40.2179 3.09113V20.0989C40.2188 20.7242 40.4677 21.3237 40.91 21.7657C41.3523 22.2078 41.9519 22.4564 42.5772 22.4569H67.4089C68.0342 22.4564 68.6338 22.2078 69.0761 21.7657C69.5184 21.3237 69.7673 20.7242 69.7682 20.0989V3.09113C69.7673 2.46566 69.5185 1.86604 69.0762 1.42377C68.6339 0.981492 68.0343 0.732654 67.4089 0.731812Z" fill="white"/>
<path id="Vector_6" d="M59.3618 7.84189C60.4327 7.84189 61.3009 6.9737 61.3009 5.90273C61.3009 4.83176 60.4327 3.96356 59.3618 3.96356C58.2908 3.96356 57.4226 4.83176 57.4226 5.90273C57.4226 6.9737 58.2908 7.84189 59.3618 7.84189Z" fill="#2F2E41"/>
<path id="Vector_7" d="M55.3779 14.4315C58.091 14.4315 60.2904 12.232 60.2904 9.51891C60.2904 6.80578 58.091 4.60635 55.3779 4.60635C52.6648 4.60635 50.4653 6.80578 50.4653 9.51891C50.4653 12.232 52.6648 14.4315 55.3779 14.4315Z" fill="#2F2E41"/>
<path id="Vector_8" d="M54.5244 14.7301C56.7291 14.7301 58.5163 12.9428 58.5163 10.7381C58.5163 8.53341 56.7291 6.74612 54.5244 6.74612C52.3196 6.74612 50.5323 8.53341 50.5323 10.7381C50.5323 12.9428 52.3196 14.7301 54.5244 14.7301Z" fill="#9E616A"/>
<path id="Vector_9" d="M53.0195 5.76673C53.795 5.50248 54.6272 5.45143 55.4292 5.61891C56.2312 5.78638 56.9734 6.16624 57.5783 6.71877C58.1832 7.27129 58.6286 7.97618 58.8678 8.75973C59.1071 9.54329 59.1314 10.3767 58.9383 11.1729C56.8418 11.2294 54.6709 11.1465 52.7229 9.91431L52.4953 8.57917L51.9278 9.73826C51.2243 9.85826 50.5282 9.93733 49.9906 9.30429C50.1417 8.50113 50.501 7.75169 51.0325 7.1309C51.564 6.51011 52.2492 6.03971 53.0195 5.76673Z" fill="#2F2E41"/>
<path id="Vector_10" d="M62.2679 1.15679C63.7104 0.848048 65.29 1.49528 66.1704 2.67897C67.0507 3.86265 67.2278 5.50958 66.7003 6.88719C66.1622 8.29257 65.0001 9.34725 63.9136 10.3885C62.8271 11.4298 61.7333 12.5923 61.4072 14.0614C61.1723 15.1195 61.3666 16.2276 61.9476 17.1427C62.5285 18.0578 63.4486 18.7051 64.5062 18.9428C63.1454 19.2009 61.728 19.4574 60.3917 19.0934C59.0554 18.7293 57.8332 17.5461 57.9099 16.1632C57.9652 15.1668 58.6453 14.3346 59.237 13.5309C60.2009 12.2214 61.0032 10.8003 61.6266 9.29857C61.924 8.58179 62.1842 7.81653 62.1007 7.04501C62.0253 6.47028 61.7673 5.93497 61.3647 5.51801C60.962 5.10106 60.436 4.82453 59.8642 4.72921L59.5074 4.22844C59.6264 2.75808 60.8254 1.46552 62.2679 1.15679Z" fill="#2F2E41"/>
<path id="Vector_11" d="M63.6833 22.347C63.4247 19.7123 61.9639 19.8158 61.9639 19.8158L58.1062 19.0621L56.4166 16.2568L52.175 16.0913L50.665 18.7389L47.5624 19.1267L47.5598 19.1707C47.2521 19.1939 46.1429 19.437 45.9205 21.7006C45.8998 21.9088 45.8714 22.1634 45.8352 22.4569H63.6949C63.691 22.4181 63.6872 22.3819 63.6833 22.347Z" fill="#2F2E41"/>
</g>
</g>
</svg>
