<svg width="51" height="90" viewBox="0 0 51 90" fill="none" xmlns="http://www.w3.org/2000/svg">
<g id="Group 15">
<path id="Vector" d="M31.7968 21.6888L33.5509 18.3394C31.9779 16.44 26.8171 14.1362 26.8171 14.1362L19.8322 7.7786C19.7578 7.49495 19.6101 7.2359 19.4037 7.02753C19.1974 6.81915 18.9398 6.66881 18.6569 6.59163C18.374 6.51445 18.0758 6.51316 17.7922 6.58788C17.5087 6.6626 17.2498 6.81071 17.0417 7.01728C16.8335 7.22386 16.6835 7.48161 16.6067 7.7646C16.5298 8.0476 16.5289 8.34584 16.604 8.62931C16.679 8.91278 16.8274 9.17147 17.0342 9.37935C17.2411 9.58722 17.499 9.73695 17.7821 9.81345L25.3281 18.8638L31.7968 21.6888Z" fill="#9E616A"/>
<path id="Vector_2" d="M30.947 21.4577L33.4238 22.2463C35.225 22.8198 37.1659 22.7766 38.9397 22.1235C39.4763 21.9237 39.9463 21.5779 40.2966 21.125C40.6469 20.6721 40.8636 20.1303 40.9221 19.5608C40.9963 18.7882 40.7743 18.0162 40.3011 17.401C39.8279 16.7858 39.1387 16.3733 38.3729 16.2468C36.0502 15.8651 33.0573 15.6768 31.9896 16.9474L31.9787 16.9603L30.947 21.4577Z" fill="#3F3D56"/>
<path id="Vector_3" d="M13.1316 31.7113C20.0216 31.7113 25.607 26.1259 25.607 19.236C25.607 12.346 20.0216 6.76059 13.1316 6.76059C6.24166 6.76059 0.65625 12.346 0.65625 19.236C0.65625 26.1259 6.24166 31.7113 13.1316 31.7113Z" fill="white"/>
<path id="Vector_4" d="M11.7718 24.2639C11.4798 24.2644 11.1956 24.1702 10.962 23.9955L10.9476 23.9847L7.89802 21.6554C7.61279 21.4374 7.42606 21.1152 7.37891 20.7599C7.33176 20.4045 7.42804 20.045 7.64658 19.7604C7.86513 19.4759 8.18802 19.2896 8.54424 19.2426C8.90046 19.1955 9.26082 19.2916 9.54604 19.5096L11.5213 21.0206L16.1892 14.9475C16.2974 14.8066 16.4324 14.6884 16.5865 14.5996C16.7405 14.5108 16.9106 14.4532 17.087 14.4299C17.2634 14.4067 17.4426 14.4184 17.6145 14.4642C17.7864 14.5101 17.9475 14.5893 18.0887 14.6973L18.0597 14.7367L18.0894 14.6979C18.3742 14.9163 18.5606 15.2385 18.6076 15.5937C18.6546 15.949 18.5584 16.3083 18.3402 16.593L12.8497 23.7364C12.7227 23.901 12.5594 24.0342 12.3725 24.1257C12.1855 24.2172 11.98 24.2644 11.7718 24.2639Z" fill="#3763e9"/>
<path id="Vector_5" d="M23.662 87.7125L21.5892 87.7123L20.603 79.7173H23.6623L23.662 87.7125Z" fill="#9E616A"/>
<path id="Vector_6" d="M24.1905 89.7218L17.5068 89.7215V89.637C17.5069 88.947 17.781 88.2854 18.2688 87.7975C18.7567 87.3097 19.4184 87.0356 20.1083 87.0356H20.1085L21.3293 86.1093L23.6072 87.0357L24.1906 87.0357L24.1905 89.7218Z" fill="#2F2E41"/>
<path id="Vector_7" d="M41.9304 87.7125L39.8577 87.7123L38.8716 79.7173H41.9309L41.9304 87.7125Z" fill="#9E616A"/>
<path id="Vector_8" d="M42.4593 89.7218L35.7756 89.7215V89.637C35.7757 88.947 36.0498 88.2854 36.5376 87.7975C37.0255 87.3097 37.6872 87.0356 38.3771 87.0355H38.3773L39.5981 86.1093L41.876 87.0357L42.4594 87.0357L42.4593 89.7218Z" fill="#2F2E41"/>
<path id="Vector_9" d="M38.7778 44.9216L40.5212 61.4841C40.5212 61.4841 42.8421 78.068 42.4062 80.3562C41.9704 82.6444 42.5152 82.9713 42.5152 82.9713L38.5382 82.6881C38.5382 82.6881 38.6472 81.2716 37.9934 80.6178C37.3396 79.964 37.6665 78.0026 37.6665 78.0026L29.9517 51.0236L25.2663 65.1889C25.2663 65.1889 24.5035 80.7708 24.3946 80.9887C24.2856 81.2066 23.9587 84.1486 23.9587 84.1486H19.927C19.927 84.1486 20.4719 82.4052 19.7091 81.8604C18.9464 81.3156 18.2926 81.7514 18.9464 80.7708C19.6001 79.7901 19.8181 78.5915 19.6001 78.0467C19.3822 77.5019 19.3822 75.3226 19.3822 75.3226C19.3822 75.3226 19.7091 45.9023 21.5615 44.9216C23.4139 43.941 38.7778 44.9216 38.7778 44.9216Z" fill="#2F2E41"/>
<path id="Vector_10" d="M30.5215 11.3868C32.8897 11.3868 34.8096 9.46693 34.8096 7.09869C34.8096 4.73045 32.8897 2.81061 30.5215 2.81061C28.1532 2.81061 26.2334 4.73045 26.2334 7.09869C26.2334 9.46693 28.1532 11.3868 30.5215 11.3868Z" fill="#9E616A"/>
<path id="Vector_11" d="M40.2599 46.7269C31.9555 48.4418 20.9504 45.4934 20.9504 45.4934L23.8862 32.7677L22.8424 19.45C22.715 17.8214 23.6426 16.2948 25.0857 15.7538L27.0782 15.0075L28.7252 12.6495L33.4297 12.8039L35.3104 15.2794L36.7945 16.0668L40.0121 17.7733L40.0263 17.7803V17.7874L39.0165 27.5817L38.4076 33.4871C38.4076 33.4871 40.2571 40.1289 39.8776 41.0098C39.498 41.8892 39.828 41.4644 39.92 41.9345C40.0121 42.4047 40.2939 42.4344 40.3364 43.3606C40.3803 44.2854 40.2599 46.7269 40.2599 46.7269Z" fill="#3F3D56"/>
<path id="Vector_12" d="M50.4095 89.9009H9.95798C9.934 89.9007 9.91103 89.8842 9.89411 89.8549C9.87718 89.8256 9.86768 89.786 9.86768 89.7446C9.86768 89.7032 9.87718 89.6636 9.89411 89.6343C9.91103 89.605 9.934 89.5885 9.95798 89.5883H50.4095C50.4335 89.5883 50.4566 89.6048 50.4736 89.6341C50.4906 89.6634 50.5001 89.7032 50.5001 89.7446C50.5001 89.786 50.4906 89.8258 50.4736 89.8551C50.4566 89.8844 50.4335 89.9009 50.4095 89.9009Z" fill="#CCCCCC"/>
<path id="Vector_13" d="M30.3129 11.1808C31.0649 11.1731 31.815 11.1012 32.5548 10.9658C33.2873 10.7971 34.9033 9.54749 35.3437 8.80927C35.671 8.26079 35.8674 7.41241 35.9745 6.79733C36.1192 5.98331 36.0913 5.14797 35.8927 4.34541C35.694 3.54286 35.329 2.79097 34.8213 2.13844C34.6256 1.86508 34.3596 1.64969 34.0515 1.51507C34.0243 1.50522 33.9963 1.49658 33.968 1.48931C33.5215 1.38406 33.1165 1.14774 32.8053 0.810688C32.7448 0.74245 32.6796 0.678656 32.61 0.619796C32.2608 0.340207 31.8504 0.147228 31.4123 0.0566343C30.7046 -0.113326 29.6922 0.0996527 28.4034 0.6902C27.7559 0.986903 27.0373 0.904128 26.4833 0.798862C26.4523 0.793694 26.4204 0.796745 26.3909 0.807714C26.3614 0.818683 26.3353 0.837188 26.3151 0.861385C26.0865 1.08745 25.7807 1.21858 25.4593 1.22842C25.2626 1.24215 25.0631 1.5201 24.8226 1.88204C24.768 1.9642 24.7043 2.06009 24.6581 2.1186L24.6489 2.00871L24.5407 2.13436C24.3706 2.33184 24.2533 2.56915 24.1996 2.82419C24.1459 3.07923 24.1577 3.3437 24.2337 3.59298C24.3098 3.84226 24.4477 4.06824 24.6346 4.24988C24.8215 4.43151 25.0514 4.56289 25.3027 4.63179C25.5021 4.67937 25.7059 4.70647 25.9108 4.71266C26.035 4.72061 26.1635 4.72884 26.2869 4.74698C26.6833 4.81755 27.0547 4.9897 27.3647 5.24662C27.6747 5.50355 27.9128 5.83647 28.0557 6.21289C28.0895 6.29988 28.1428 6.37795 28.2115 6.44107C28.2802 6.5042 28.3625 6.55069 28.452 6.57696C28.5416 6.60323 28.6359 6.60857 28.7278 6.59258C28.8198 6.57659 28.9068 6.53968 28.9822 6.48472C29.1076 6.38175 29.2561 6.31065 29.4149 6.27747C29.5737 6.24429 29.7382 6.25002 29.8944 6.29417C30.0302 6.36515 30.1374 6.48065 30.1982 6.62131C30.2716 6.77788 30.39 6.90901 30.5383 6.998C31.0439 7.24237 31.1077 8.38114 30.953 9.3358C30.8039 10.256 30.4796 10.9273 30.1643 10.9682C29.9215 10.9997 29.8941 11.0177 29.8776 11.0612L29.8629 11.1001L29.8911 11.1355C30.0268 11.1807 30.1707 11.1962 30.3129 11.1808Z" fill="#2F2E41"/>
<path id="Vector_14" d="M13.1316 31.8676C10.6333 31.8676 8.19114 31.1268 6.11388 29.7388C4.03662 28.3508 2.4176 26.3781 1.46154 24.0699C0.505479 21.7618 0.255323 19.222 0.742717 16.7717C1.23011 14.3214 2.43316 12.0707 4.19972 10.3041C5.96629 8.53753 8.21703 7.33448 10.6673 6.84709C13.1176 6.35969 15.6574 6.60984 17.9656 7.5659C20.2737 8.52196 22.2465 10.141 23.6345 12.2183C25.0224 14.2955 25.7633 16.7377 25.7633 19.236C25.7595 22.585 24.4274 25.7957 22.0594 28.1637C19.6913 30.5318 16.4806 31.8638 13.1316 31.8676ZM13.1316 6.91694C10.6952 6.91693 8.31339 7.63944 6.28753 8.99307C4.26167 10.3467 2.6827 12.2707 1.7503 14.5217C0.817894 16.7727 0.57394 19.2497 1.04927 21.6393C1.52461 24.029 2.69789 26.2241 4.42074 27.9469C6.14359 29.6698 8.33864 30.843 10.7283 31.3184C13.118 31.7937 15.5949 31.5497 17.8459 30.6173C20.097 29.6849 22.0209 28.106 23.3746 26.0801C24.7282 24.0543 25.4507 21.6725 25.4507 19.236C25.447 15.9699 24.1479 12.8387 21.8384 10.5292C19.529 8.21973 16.3977 6.92064 13.1316 6.91694Z" fill="#3F3D56"/>
<path id="Vector_15" d="M24.6536 25.7081L22.7649 22.4327C20.3183 22.7435 15.6085 25.8674 15.6085 25.8674L6.49838 28.3601C6.21901 28.2709 5.92109 28.257 5.63462 28.3196C5.34814 28.3822 5.08322 28.5192 4.8665 28.7167C4.64979 28.9142 4.48894 29.1654 4.40015 29.4449C4.31135 29.7243 4.29774 30.0223 4.36069 30.3087C4.42365 30.5951 4.56093 30.8598 4.75874 31.0763C4.95654 31.2928 5.20788 31.4533 5.48746 31.5418C5.76704 31.6303 6.06498 31.6435 6.35131 31.5802C6.63764 31.5169 6.90224 31.3793 7.11848 31.1813L18.803 29.6571L24.6536 25.7081Z" fill="#9E616A"/>
<path id="Vector_16" d="M24.0033 26.3018L28.2317 22.76L28.8469 19.9092C28.9656 19.3491 28.9253 18.7669 28.7306 18.2285C28.5358 17.6901 28.1944 17.2169 27.7448 16.8624C27.1321 16.3859 26.3613 16.1598 25.5883 16.2299C24.8154 16.3 24.0978 16.6609 23.5808 17.2398C22.0143 18.9967 20.2521 21.4232 20.7531 23.0054L20.7582 23.0214L24.0033 26.3018Z" fill="#3F3D56"/>
</g>
</svg>
