<svg width="61" height="79" viewBox="0 0 61 79" fill="none" xmlns="http://www.w3.org/2000/svg">
<g id="Group 16">
<path id="Vector" d="M18.1808 33.8267C18.3537 33.5649 18.582 33.3442 18.8494 33.1802C19.1169 33.0162 19.417 32.9128 19.7287 32.8774C20.0404 32.8419 20.3562 32.8752 20.6536 32.9749C20.9511 33.0747 21.223 33.2384 21.4504 33.4546L28.2273 29.9571L27.8058 33.8976L21.435 36.6148C21.0464 36.9726 20.5401 37.1755 20.012 37.1849C19.4839 37.1944 18.9706 37.0098 18.5695 36.6661C18.1684 36.3225 17.9073 35.8436 17.8356 35.3203C17.764 34.7969 17.8868 34.2655 18.1808 33.8267Z" fill="#FFB8B8"/>
<path id="Vector_2" d="M24.0119 35.2963C23.8581 35.1757 23.7447 35.0111 23.6868 34.8243L23.1478 33.083C23.0898 32.8944 23.0913 32.6925 23.1518 32.5046C23.2124 32.3168 23.3292 32.1521 23.4864 32.0328L28.9791 27.884L34.928 16.848C35.1771 16.5271 35.4871 16.2584 35.8401 16.0573C36.1931 15.8561 36.5823 15.7265 36.9854 15.6758C37.3885 15.625 37.7976 15.6542 38.1895 15.7616C38.5813 15.869 38.9481 16.0525 39.269 16.3017C39.5899 16.5509 39.8586 16.8609 40.0597 17.2139C40.2609 17.5669 40.3905 17.9561 40.4412 18.3592C40.4919 18.7623 40.4627 19.1714 40.3553 19.5633C40.2478 19.9551 40.0643 20.3219 39.8151 20.6428L36.4307 27.7858C35.4038 29.9539 33.6244 31.6752 31.4234 32.6295L24.9864 35.4215C24.8626 35.4751 24.7289 35.502 24.594 35.5006C24.4591 35.4992 24.326 35.4693 24.2034 35.4131C24.1352 35.3818 24.0709 35.3426 24.0119 35.2963Z" fill="#3F3D56"/>
<path id="Vector_3" d="M39.9645 12.2422C42.8594 12.2422 45.2061 9.89541 45.2061 7.00056C45.2061 4.1057 42.8594 1.75896 39.9645 1.75896C37.0696 1.75896 34.7229 4.1057 34.7229 7.00056C34.7229 9.89541 37.0696 12.2422 39.9645 12.2422Z" fill="#FFB8B8"/>
<path id="Vector_4" d="M37.8383 75.7607L35.2221 75.7605L33.9777 65.6687L37.8393 65.6689L37.8383 75.7607Z" fill="#FFB8B8"/>
<path id="Vector_5" d="M33.353 75.0129H38.3989V78.1899H30.176C30.176 77.7727 30.2582 77.3596 30.4179 76.9741C30.5775 76.5886 30.8115 76.2384 31.1065 75.9434C31.4016 75.6484 31.7518 75.4144 32.1372 75.2547C32.5227 75.0951 32.9358 75.0129 33.353 75.0129Z" fill="#2F2E41"/>
<path id="Vector_6" d="M46.3747 75.7612L43.7584 75.7609L42.514 65.6689L46.3757 65.6694L46.3747 75.7612Z" fill="#FFB8B8"/>
<path id="Vector_7" d="M41.8895 75.0133H46.9354V78.1903H38.7125C38.7125 77.7731 38.7947 77.36 38.9544 76.9745C39.114 76.589 39.348 76.2388 39.643 75.9438C39.9381 75.6488 40.2883 75.4148 40.6737 75.2551C41.0592 75.0954 41.4723 75.0133 41.8895 75.0133Z" fill="#2F2E41"/>
<path id="Vector_8" d="M46.5659 73.2003L43.4999 73.2002C43.2888 73.1999 43.0836 73.1302 42.9161 73.0018C42.7485 72.8734 42.6279 72.6934 42.5727 72.4897L38.1594 56.1208C38.1525 56.0953 38.1364 56.0733 38.1142 56.0589C38.092 56.0446 38.0653 56.0391 38.0392 56.0433C38.0131 56.0476 37.9896 56.0613 37.9731 56.082C37.9566 56.1026 37.9483 56.1286 37.9499 56.155L38.8414 71.679C38.8493 71.8163 38.8276 71.9536 38.7778 72.0818C38.728 72.2099 38.6513 72.3259 38.5529 72.4219C38.4544 72.5178 38.3365 72.5915 38.207 72.6379C38.0776 72.6844 37.9398 72.7025 37.8028 72.691L34.3567 72.4036C34.1359 72.3847 33.9284 72.2903 33.7691 72.1362C33.6099 71.982 33.5087 71.7777 33.4825 71.5577L30.3431 38.9602L31.5577 39.6891L42.9387 37.7568L47.5179 72.1131C47.536 72.2487 47.5249 72.3867 47.4853 72.5176C47.4457 72.6486 47.3786 72.7696 47.2885 72.8726C47.1983 72.9755 47.0872 73.058 46.9626 73.1145C46.838 73.1711 46.7028 73.2003 46.5659 73.2003Z" fill="#2F2E41"/>
<path id="Vector_9" d="M34.1496 42.4008C32.8939 42.3908 31.6639 42.0446 30.5874 41.3982C30.4215 41.3 30.2892 41.1539 30.2079 40.9791C30.1265 40.8043 30.0999 40.609 30.1315 40.4189C30.5317 37.9676 32.6249 25.3931 34.5294 18.538C35.3051 15.7459 37.0202 14.2421 39.6272 14.0684C43.4404 13.8183 46.8298 16.8017 47.1827 20.7269C47.8053 27.6517 45.2762 37.4904 44.16 41.399C44.1167 41.55 44.0371 41.688 43.928 41.801C43.8189 41.914 43.6838 41.9985 43.5345 42.0471C43.3852 42.0957 43.2262 42.1069 43.0715 42.0797C42.9169 42.0525 42.7712 41.9878 42.6474 41.8912L40.3721 40.1213C40.2321 40.0143 40.059 39.9598 39.883 39.9671C39.7069 39.9744 39.539 40.0432 39.4084 40.1615C37.4906 41.872 35.6689 42.4009 34.1496 42.4008Z" fill="#3F3D56"/>
<path id="Vector_10" opacity="0.2" d="M41.6744 24.1154L43.5948 32.2253L40.8201 39.0542L42.7412 32.4387L41.6744 24.1154Z" fill="black"/>
<path id="Vector_11" d="M42.9555 11.3109C43.4218 11.3196 43.8851 11.2358 44.3188 11.0643C44.5096 10.9908 44.7077 10.9304 44.8982 10.8568C46.5802 10.207 47.6884 8.41571 47.7281 6.61294C47.7679 4.81016 46.8344 3.06036 45.4481 1.90716C44.0618 0.753959 42.2663 0.161851 40.4683 0.0248706C38.5315 -0.122686 36.3506 0.368367 35.2683 1.98124C34.9802 2.41056 34.7787 2.93145 34.9494 3.44984C35.0005 3.60628 35.0918 3.74654 35.2142 3.8566C35.6975 4.28662 36.1793 3.96333 36.672 3.93479C37.3492 3.89555 37.9575 4.44374 38.1761 5.0859C38.3946 5.72805 38.2984 6.435 38.1218 7.08997C37.9873 7.48408 37.9026 7.89344 37.8694 8.30855C37.8552 8.5167 37.8943 8.72504 37.9831 8.91383C38.072 9.10261 38.2075 9.26559 38.377 9.3873C38.8001 9.64311 39.3559 9.49509 39.7793 9.23973C40.2027 8.98438 40.5686 8.62931 41.026 8.44141C41.4834 8.2535 42.0978 8.29522 42.364 8.71192C42.4486 8.86355 42.5059 9.02888 42.5332 9.20035C42.7718 10.2877 42.7169 10.2236 42.9555 11.3109Z" fill="#2F2E41"/>
<path id="Vector_12" d="M34.8313 68.4396L2.0095 57.0091C1.44631 56.8123 0.984195 56.4001 0.724544 55.8629C0.464892 55.3258 0.428915 54.7076 0.624494 54.1439L9.15361 29.6532C9.29782 29.2406 9.5998 28.902 9.99331 28.7118C10.3868 28.5216 10.8397 28.4952 11.2527 28.6385L45.184 40.4554C45.6038 40.6021 45.9481 40.9093 46.1417 41.3096C46.3352 41.7099 46.362 42.1707 46.2162 42.5908L37.6965 67.0546C37.4996 67.6178 37.0874 68.0799 36.5503 68.3396C36.0131 68.5992 35.3949 68.6352 34.8313 68.4396Z" fill="#E6E6E6"/>
<path id="Vector_13" d="M4.81026 55.6017L33.5106 65.5968C34.0571 65.7872 34.6569 65.7526 35.1779 65.5007C35.699 65.2489 36.0986 64.8003 36.289 64.2538L43.1762 44.4777C43.3665 43.9312 43.3319 43.3314 43.0801 42.8104C42.8282 42.2893 42.3797 41.8897 41.8331 41.6993L13.1328 31.7042C12.5863 31.5138 11.9865 31.5484 11.4654 31.8003C10.9444 32.0522 10.5448 32.5007 10.3544 33.0472L3.46721 52.8233C3.37296 53.0939 3.33295 53.3805 3.34944 53.6665C3.36593 53.9526 3.43861 54.2327 3.56332 54.4907C3.68804 54.7487 3.86234 54.9796 4.0763 55.1702C4.29025 55.3608 4.53964 55.5074 4.81026 55.6017Z" fill="white"/>
<path id="Vector_14" d="M12.0173 41.7072L10.5959 41.2122C10.5189 41.1853 10.4556 41.1289 10.4201 41.0554C10.3846 40.9819 10.3797 40.8973 10.4064 40.8202L10.9014 39.3989C10.9284 39.3218 10.9848 39.2586 11.0582 39.223C11.1317 39.1875 11.2163 39.1826 11.2934 39.2094L12.7148 39.7044C12.7919 39.7313 12.8551 39.7877 12.8906 39.8612C12.9261 39.9347 12.931 40.0192 12.9043 40.0964L12.4093 41.5177C12.3824 41.5948 12.326 41.658 12.2525 41.6935C12.179 41.7291 12.0944 41.734 12.0173 41.7072Z" fill="#3763e9"/>
<path id="Vector_15" d="M10.7348 45.3899L9.31346 44.8949C9.23641 44.8679 9.17318 44.8115 9.13766 44.7381C9.10213 44.6646 9.09721 44.58 9.12397 44.5029L9.61898 43.0815C9.64591 43.0044 9.7023 42.9412 9.77579 42.9057C9.84928 42.8702 9.93386 42.8653 10.011 42.892L11.4323 43.387C11.5094 43.414 11.5726 43.4704 11.6081 43.5438C11.6437 43.6173 11.6486 43.7019 11.6218 43.779L11.1268 45.2004C11.0999 45.2774 11.0435 45.3407 10.97 45.3762C10.8965 45.4117 10.8119 45.4166 10.7348 45.3899Z" fill="#3F3D56"/>
<path id="Vector_16" d="M9.45223 49.0725L8.03086 48.5775C7.9538 48.5506 7.89059 48.4942 7.85506 48.4207C7.81954 48.3472 7.81461 48.2627 7.84137 48.1855L8.33638 46.7642C8.36331 46.6871 8.4197 46.6239 8.49319 46.5884C8.56667 46.5528 8.65125 46.5479 8.72836 46.5747L10.1497 47.0697C10.2268 47.0966 10.29 47.153 10.3255 47.2265C10.3611 47.3 10.366 47.3846 10.3392 47.4617L9.84423 48.8831C9.8173 48.9601 9.7609 49.0233 9.68741 49.0589C9.61392 49.0944 9.52935 49.0993 9.45223 49.0725Z" fill="#CCCCCC"/>
<path id="Vector_17" d="M21.5683 44.2366L14.7198 41.8515C14.6816 41.8383 14.6463 41.8177 14.616 41.7908C14.5857 41.7639 14.561 41.7313 14.5433 41.6949C14.5256 41.6584 14.5153 41.6189 14.513 41.5785C14.5106 41.538 14.5163 41.4975 14.5296 41.4593C14.5429 41.421 14.5636 41.3858 14.5906 41.3556C14.6176 41.3254 14.6502 41.3008 14.6867 41.2832C14.7232 41.2656 14.7628 41.2554 14.8032 41.2531C14.8436 41.2509 14.8841 41.2566 14.9223 41.2701L21.7708 43.6551C21.8091 43.6683 21.8444 43.689 21.8746 43.7158C21.9049 43.7427 21.9296 43.7753 21.9473 43.8117C21.965 43.8482 21.9753 43.8878 21.9776 43.9282C21.98 43.9686 21.9743 44.0091 21.961 44.0474C21.9477 44.0856 21.927 44.1208 21.9 44.1511C21.8731 44.1813 21.8404 44.2059 21.8039 44.2235C21.7674 44.241 21.7278 44.2512 21.6874 44.2535C21.647 44.2557 21.6065 44.25 21.5683 44.2366Z" fill="#CCCCCC"/>
<path id="Vector_18" d="M20.2858 47.9192L13.4373 45.5342C13.3602 45.5074 13.2969 45.451 13.2614 45.3775C13.2259 45.3039 13.221 45.2193 13.2478 45.1422C13.2747 45.0651 13.3311 45.0018 13.4046 44.9663C13.4781 44.9308 13.5627 44.9259 13.6398 44.9527L20.4883 47.3378C20.5265 47.351 20.5618 47.3717 20.5921 47.3985C20.6223 47.4254 20.647 47.458 20.6647 47.4944C20.6823 47.5309 20.6926 47.5704 20.695 47.6108C20.6973 47.6513 20.6917 47.6917 20.6784 47.73C20.6651 47.7682 20.6443 47.8034 20.6174 47.8337C20.5904 47.8639 20.5578 47.8885 20.5213 47.906C20.4849 47.9236 20.4453 47.9338 20.4049 47.9361C20.3644 47.9384 20.324 47.9326 20.2858 47.9192Z" fill="#CCCCCC"/>
<path id="Vector_19" d="M19.0032 51.6019L12.1547 49.2169C12.0776 49.19 12.0143 49.1336 11.9788 49.0601C11.9433 48.9866 11.9384 48.902 11.9652 48.8249C11.9921 48.7478 12.0485 48.6845 12.122 48.6489C12.1955 48.6134 12.2801 48.6085 12.3572 48.6354L19.2057 51.0204C19.2828 51.0473 19.3461 51.1037 19.3816 51.1772C19.4171 51.2507 19.422 51.3353 19.3952 51.4124C19.3683 51.4895 19.3119 51.5528 19.2384 51.5883C19.1649 51.6239 19.0803 51.6287 19.0032 51.6019Z" fill="#CCCCCC"/>
<path id="Vector_20" d="M37.2283 53.5972C37.2782 53.4775 37.3252 53.3559 37.3684 53.2318C37.9313 51.6155 37.829 49.8418 37.0842 48.3009C36.3393 46.76 35.0128 45.5781 33.3965 45.0152L31.1455 51.4788L37.2283 53.5972Z" fill="#3763e9"/>
<path id="Vector_21" d="M30.4908 51.872L32.7418 45.4084C31.5522 44.9941 30.2673 44.9369 29.0457 45.2441C27.824 45.5512 26.7189 46.2092 25.8668 47.1369C25.0146 48.0646 24.4525 49.2214 24.2499 50.4646C24.0473 51.7079 24.213 52.9833 24.7266 54.1336C25.2401 55.2838 26.0791 56.2586 27.1401 56.9377C28.201 57.6168 29.4375 57.9706 30.6971 57.9553C31.9567 57.9401 33.1843 57.5566 34.2285 56.852C35.2727 56.1475 36.0879 55.1527 36.5736 53.9904L30.4908 51.872Z" fill="#3F3D56"/>
<path id="Vector_22" d="M38.5494 42.6C38.524 42.2873 38.5674 41.9728 38.6766 41.6787C38.7858 41.3846 38.9582 41.118 39.1816 40.8978C39.405 40.6775 39.674 40.5089 39.9696 40.4038C40.2652 40.2987 40.5802 40.2597 40.8925 40.2895L44.0667 33.3553L46.1668 36.716L42.8306 42.7857C42.7457 43.307 42.4725 43.7791 42.0628 44.1125C41.6531 44.4458 41.1353 44.6173 40.6076 44.5944C40.0798 44.5715 39.5789 44.3559 39.1995 43.9883C38.8202 43.6207 38.5889 43.1268 38.5494 42.6Z" fill="#FFB8B8"/>
<path id="Vector_23" d="M44.0448 40.158C43.8493 40.158 43.6585 40.0984 43.4977 39.9872L41.999 38.9497C41.8369 38.837 41.7135 38.6772 41.6452 38.4921C41.577 38.3069 41.5672 38.1052 41.6173 37.9143L43.379 31.2601L41.2494 18.9051C41.247 18.4985 41.3247 18.0954 41.4781 17.7189C41.6316 17.3424 41.8577 16.9998 42.1437 16.7108C42.4296 16.4217 42.7697 16.1918 43.1445 16.0343C43.5194 15.8768 43.9216 15.7947 44.3281 15.7927C44.7347 15.7908 45.1377 15.869 45.514 16.0229C45.8904 16.1767 46.2327 16.4033 46.5214 16.6896C46.8101 16.9759 47.0396 17.3162 47.1966 17.6913C47.3537 18.0663 47.4353 18.4686 47.4368 18.8752L49.1818 26.5843C49.7118 28.924 49.3739 31.3765 48.2309 33.4857L44.8888 39.6551C44.8245 39.7737 44.7359 39.8774 44.6289 39.9595C44.5218 40.0416 44.3987 40.1003 44.2675 40.1317C44.1946 40.1492 44.1198 40.158 44.0448 40.158Z" fill="#3F3D56"/>
<path id="Vector_24" d="M60.2866 78.3097H19.7384C19.6818 78.3097 19.6276 78.2872 19.5875 78.2472C19.5475 78.2072 19.525 78.1529 19.525 78.0963C19.525 78.0397 19.5475 77.9854 19.5875 77.9454C19.6276 77.9054 19.6818 77.8829 19.7384 77.8829H60.2866C60.3432 77.8829 60.3974 77.9054 60.4375 77.9454C60.4775 77.9854 60.5 78.0397 60.5 78.0963C60.5 78.1529 60.4775 78.2072 60.4375 78.2472C60.3974 78.2872 60.3432 78.3097 60.2866 78.3097Z" fill="#CCCCCC"/>
</g>
</svg>
