<svg width="62" height="67" viewBox="0 0 62 67" fill="none" xmlns="http://www.w3.org/2000/svg">
<g id="Group 16">
<path id="Vector" d="M23.8095 66.6218C36.3292 66.6218 46.4784 56.4726 46.4784 43.9529C46.4784 31.4332 36.3292 21.284 23.8095 21.284C11.2898 21.284 1.14062 31.4332 1.14062 43.9529C1.14062 56.4726 11.2898 66.6218 23.8095 66.6218Z" fill="white"/>
<path id="Vector_2" d="M13.3029 36.5787C14.2402 33.5914 16.3718 30.8516 19.3197 29.8417C22.2678 28.8319 26.5845 30.3702 28.8008 32.579C32.8548 36.6193 33.8442 50.4993 31.0589 54.8856C30.5049 54.8563 28.5932 54.8346 28.0325 54.8136L27.2393 52.1699V54.7875C26.346 54.7599 25.4457 54.7408 24.5384 54.7303C21.4965 54.6926 18.5877 53.477 16.4235 51.339C14.2593 49.201 13.0082 46.3072 12.9334 43.266C12.8608 40.3566 12.9335 37.756 13.3029 36.5787Z" fill="#2F2E41"/>
<path id="Vector_3" d="M23.4737 46.4793C27.0417 46.4793 29.9341 43.5869 29.9341 40.0188C29.9341 36.4508 27.0417 33.5584 23.4737 33.5584C19.9056 33.5584 17.0132 36.4508 17.0132 40.0188C17.0132 43.5869 19.9056 46.4793 23.4737 46.4793Z" fill="#9E616A"/>
<path id="Vector_4" d="M17.8977 34.345L25.3363 30.6203C26.8571 31.3056 28.1669 32.3853 29.1298 33.7473C30.0926 35.1094 30.6736 36.7043 30.8124 38.3666L30.9978 40.5875L27.8829 39.7945L27.5416 36.9547L27.0126 39.573L25.5751 39.2073L25.5888 34.7984L24.1504 39.2041L19.0162 38.0245L17.8977 34.345Z" fill="#2F2E41"/>
<path id="Vector_5" d="M40.6315 58.9543C36.7042 63.423 31.1771 66.168 25.2434 66.5969C19.3097 67.0257 13.4453 65.1039 8.91626 61.2464L10.8606 55.8209C11.3 54.8573 11.9934 54.0314 12.8665 53.4319C13.7395 52.8324 14.7593 52.4818 15.8164 52.4178L17.0534 52.3419L20.0029 49.798C20.0029 49.798 27.9502 49.5142 27.8323 49.3784L32.6463 52.2739L32.6423 52.2539L34.5347 52.3698C35.5919 52.4336 36.6118 52.7841 37.4849 53.3836C38.358 53.9832 39.0513 54.8092 39.4905 55.773L40.6315 58.9543Z" fill="#3763e9"/>
<path id="Vector_6" d="M23.8098 66.9057C19.2701 66.9057 14.8324 65.5595 11.0579 63.0374C7.28329 60.5154 4.34137 56.9306 2.60412 52.7365C0.866876 48.5424 0.412337 43.9274 1.29798 39.475C2.18362 35.0226 4.36966 30.9328 7.57967 27.7227C10.7897 24.5127 14.8795 22.3267 19.3319 21.441C23.7843 20.5554 28.3994 21.0099 32.5935 22.7472C36.7875 24.4844 40.3723 27.4264 42.8944 31.2009C45.4165 34.9755 46.7626 39.4132 46.7626 43.9529C46.7557 50.0382 44.3353 55.8723 40.0323 60.1753C35.7293 64.4783 29.8951 66.8988 23.8098 66.9057ZM23.8098 21.568C19.3825 21.568 15.0546 22.8808 11.3734 25.3405C7.69223 27.8002 4.8231 31.2962 3.12884 35.3865C1.43458 39.4768 0.991281 43.9777 1.85501 48.3199C2.71873 52.6622 4.85069 56.6508 7.98127 59.7814C11.1119 62.912 15.1005 65.0439 19.4427 65.9076C23.7849 66.7714 28.2858 66.3281 32.3761 64.6338C36.4664 62.9395 39.9625 60.0704 42.4222 56.3892C44.8818 52.7081 46.1947 48.3802 46.1947 43.9529C46.188 38.0181 43.8274 32.3283 39.6309 28.1318C35.4343 23.9352 29.7446 21.5747 23.8098 21.568Z" fill="#3F3D56"/>
<g id="Group 18">
<path id="Vector_7" d="M58.5816 23.6179H29.7115C28.9378 23.6171 28.196 23.3093 27.6489 22.7622C27.1018 22.2151 26.7941 21.4733 26.7932 20.6996V2.91832C26.7941 2.1446 27.1018 1.40283 27.6489 0.855723C28.196 0.30862 28.9378 0.000877127 29.7115 0H58.5816C59.3553 0.000874118 60.0971 0.30862 60.6442 0.855723C61.1913 1.40283 61.4991 2.1446 61.5 2.91832V20.6996C61.4991 21.4733 61.1913 22.2151 60.6442 22.7622C60.0971 23.3093 59.3553 23.6171 58.5816 23.6179Z" fill="#E6E6E6"/>
<path id="Vector_8" d="M47.111 21.3276H31.7408C31.0162 21.3268 30.3214 21.0386 29.809 20.5262C29.2966 20.0139 29.0084 19.3191 29.0076 18.5945V5.02346C29.0084 4.29883 29.2966 3.60412 29.809 3.09174C30.3214 2.57936 31.0162 2.29116 31.7408 2.29036H56.5522C57.2768 2.29116 57.9716 2.57937 58.4839 3.09175C58.9963 3.60414 59.2845 4.29884 59.2853 5.02346V9.1534C59.2817 12.3811 57.9978 15.4756 55.7155 17.7579C53.4331 20.0402 50.3387 21.324 47.111 21.3276Z" fill="white"/>
<path id="Vector_9" d="M54.0768 9.72156H34.2156C34.0438 9.72156 33.8791 9.65331 33.7576 9.53184C33.6361 9.41036 33.5679 9.24561 33.5679 9.07381C33.5679 8.90202 33.6361 8.73727 33.7576 8.61579C33.8791 8.49432 34.0438 8.42607 34.2156 8.42607H54.0768C54.2486 8.42607 54.4134 8.49432 54.5348 8.61579C54.6563 8.73727 54.7246 8.90202 54.7246 9.07381C54.7246 9.24561 54.6563 9.41036 54.5348 9.53184C54.4134 9.65331 54.2486 9.72156 54.0768 9.72156Z" fill="#3763e9"/>
<path id="Vector_10" d="M37.3224 12.281H34.2156C34.0438 12.281 33.8791 12.2128 33.7576 12.0913C33.6361 11.9698 33.5679 11.8051 33.5679 11.6333C33.5679 11.4615 33.6361 11.2967 33.7576 11.1752C33.8791 11.0537 34.0438 10.9855 34.2156 10.9855H37.3224C37.4942 10.9855 37.659 11.0537 37.7805 11.1752C37.902 11.2967 37.9702 11.4615 37.9702 11.6333C37.9702 11.8051 37.902 11.9698 37.7805 12.0913C37.659 12.2128 37.4942 12.281 37.3224 12.281Z" fill="#3763e9"/>
<path id="Vector_11" d="M42.8249 14.8406H34.2155C34.0439 14.8402 33.8795 14.7718 33.7583 14.6504C33.6372 14.529 33.5691 14.3644 33.5691 14.1928C33.5691 14.0213 33.6372 13.8567 33.7583 13.7353C33.8795 13.6138 34.0439 13.5454 34.2155 13.5451H42.8249C42.9964 13.5454 43.1608 13.6138 43.282 13.7353C43.4032 13.8567 43.4713 14.0213 43.4713 14.1928C43.4713 14.3644 43.4032 14.529 43.282 14.6504C43.1608 14.7718 42.9964 14.8402 42.8249 14.8406Z" fill="#3763e9"/>
<path id="Vector_12" d="M28 25C29.6569 25 31 23.6569 31 22C31 20.3431 29.6569 19 28 19C26.3431 19 25 20.3431 25 22C25 23.6569 26.3431 25 28 25Z" fill="#3F3D56"/>
</g>
</g>
</svg>
