<?xml version="1.0" encoding="UTF-8"?>
<svg width="1200pt" height="1200pt" version="1.1" viewBox="0 0 1200 1200" xmlns="http://www.w3.org/2000/svg">
 <path d="m390.71 287.03 114.55 114.55c5.8242 5.8281 6.1719 15.148 0.82031 21.383-19.664 22.953-49.656 57.953-64.992 76.531-9.1172 10.723-12.91 25-10.328 38.84 0.14062 0.75781 0.34766 1.5117 0.59766 2.2344 7.6211 22.184 29.676 68.707 94.527 133.54 66.801 66.816 122.55 88.355 148.7 95.816 0.62891 0.17578 1.2734 0.31641 1.9219 0.41016 14.875 2.3008 29.961-2.6445 40.602-13.289l60.68-60.676c2.9414-2.9453 6.957-4.6133 11.129-4.6133 4.1719 0 8.1875 1.668 11.133 4.6133l112.91 112.92c2.9453 2.9414 4.6133 6.957 4.6133 11.129s-1.668 8.1875-4.6133 11.133c-16.422 16.402-39.281 39.281-59.434 59.273l-0.046875 0.046875c-26.672 26.656-65.117 37.82-101.89 29.586-70.438-16.676-184.13-60.363-297.91-174.14-113.78-113.79-157.47-227.47-174.27-297.89-8.2344-36.824 2.9453-75.305 29.629-101.99l59.402-59.402c2.9453-2.9453 6.9609-4.6133 11.133-4.6133 4.1719 0 8.1875 1.668 11.129 4.6133z" fill="#fff" fill-rule="evenodd"/>
</svg>
