<svg xmlns="http://www.w3.org/2000/svg" xmlns:xlink="http://www.w3.org/1999/xlink" width="500" zoomAndPan="magnify" viewBox="0 0 375 374.999991" height="500" preserveAspectRatio="xMidYMid meet" version="1.0"><defs><clipPath id="id1"><path d="M 113 7.5 L 262 7.5 L 262 156 L 113 156 Z M 113 7.5 " clip-rule="nonzero"/></clipPath><clipPath id="id2"><path d="M 0 290 L 375 290 L 375 367.5 L 0 367.5 Z M 0 290 " clip-rule="nonzero"/></clipPath></defs><g clip-path="url(#id1)"><path  d="M 187.578125 137.703125 C 203.105469 137.703125 217.175781 131.40625 227.355469 121.226562 C 237.535156 111.046875 243.835938 96.976562 243.835938 81.449219 C 243.835938 65.917969 237.535156 51.851562 227.355469 41.671875 C 217.175781 31.492188 203.113281 25.195312 187.578125 25.195312 C 172.042969 25.195312 157.980469 31.492188 147.796875 41.671875 C 137.621094 51.847656 131.324219 65.914062 131.324219 81.449219 C 131.324219 96.980469 137.621094 111.050781 147.796875 121.230469 C 157.980469 131.410156 172.042969 137.703125 187.578125 137.703125 Z M 239.765625 133.632812 C 226.40625 146.992188 207.953125 155.253906 187.578125 155.253906 C 167.199219 155.253906 148.75 146.996094 135.390625 133.636719 C 122.035156 120.28125 113.773438 101.828125 113.773438 81.449219 C 113.773438 61.070312 122.035156 42.617188 135.390625 29.261719 C 148.75 15.90625 167.199219 7.644531 187.578125 7.644531 C 207.953125 7.644531 226.410156 15.90625 239.765625 29.265625 C 253.121094 42.625 261.382812 61.074219 261.382812 81.449219 C 261.382812 101.824219 253.121094 120.273438 239.765625 133.632812 " fill-opacity="1" fill-rule="nonzero"/></g><path  d="M 240.640625 170.023438 C 233.855469 175.148438 226.414062 179.222656 218.53125 182.136719 C 209.070312 185.640625 198.988281 187.480469 188.6875 187.480469 C 178.375 187.480469 168.246094 185.613281 158.691406 182.066406 C 150.707031 179.097656 143.191406 174.960938 136.382812 169.757812 C 123.578125 174.53125 112.695312 182.859375 104.792969 193.417969 C 96.105469 205.042969 91.042969 219.371094 91.042969 234.636719 L 91.042969 262.121094 L 170.8125 262.121094 L 170.8125 279.671875 L 73.492188 279.671875 L 73.492188 234.636719 C 73.492188 215.484375 79.835938 197.511719 90.738281 182.929688 C 101.699219 168.28125 117.269531 157.0625 135.640625 151.527344 L 140.203125 150.152344 L 143.832031 153.273438 C 150.113281 158.675781 157.207031 162.859375 164.792969 165.679688 C 172.289062 168.464844 180.359375 169.929688 188.6875 169.929688 C 196.9375 169.929688 204.976562 168.464844 212.496094 165.679688 C 220.082031 162.878906 227.144531 158.738281 233.382812 153.410156 L 237.242188 150.113281 L 242.019531 151.835938 C 261.65625 158.914062 276.042969 169.132812 285.855469 182.917969 C 295.628906 196.65625 300.648438 213.625 301.589844 234.269531 L 301.589844 234.644531 L 301.613281 270.898438 L 301.617188 279.671875 L 205.226562 279.671875 L 205.226562 262.121094 L 284.125 262.121094 L 284.105469 235.027344 C 283.320312 217.8125 279.332031 203.933594 271.597656 193.066406 C 264.632812 183.28125 254.453125 175.691406 240.640625 170.023438 " fill-opacity="1" fill-rule="nonzero"/><g clip-path="url(#id2)"><path  d="M 357.53125 307.9375 L 17.605469 307.9375 L 17.605469 349.875 L 357.53125 349.875 Z M 8.832031 290.386719 L 375.082031 290.386719 L 375.082031 367.425781 L 0.0546875 367.425781 L 0.0546875 290.386719 L 8.832031 290.386719 " fill-opacity="1" fill-rule="nonzero"/></g><path  d="M 181.742188 240.800781 C 178.402344 238.757812 176.148438 235.308594 175.824219 231.304688 L 174.464844 214.605469 C 173.914062 207.769531 179.023438 201.710938 185.867188 201.160156 C 192.722656 200.601562 198.761719 205.734375 199.316406 212.589844 L 200.675781 229.28125 C 201.0625 234.078125 198.59375 238.53125 194.550781 240.898438 L 193.992188 290.589844 L 181.101562 290.589844 L 181.742188 240.800781 " fill-opacity="1" fill-rule="evenodd"/></svg>