<?xml version="1.0" encoding="UTF-8"?>
<svg width="512pt" height="512pt" version="1.1" viewBox="0 0 512 512" xmlns="http://www.w3.org/2000/svg">
 <path d="m256 12.801c-134.14 0-243.2 109.05-243.2 243.2s109.05 243.2 243.2 243.2 243.2-109.05 243.2-243.2-109.05-243.2-243.2-243.2zm108.03 203.77-112.13 120.83c-5.6328 6.1445-13.824 9.7266-22.527 9.7266s-16.383-3.5859-22.527-9.7266l-58.879-64c-11.266-12.289-10.754-31.742 1.5352-43.52 12.289-11.266 31.742-10.754 43.52 1.5352l36.863 39.426 89.602-96.77c11.777-12.289 30.719-12.801 43.52-1.5352 11.777 12.289 12.801 31.746 1.0234 44.031z" fill="#fff"/>
</svg>
