<svg width="128" height="126" viewBox="0 0 128 126" fill="none" xmlns="http://www.w3.org/2000/svg">
<g clip-path="url(#clip0_2652_43518)">
<rect width="128" height="126" rx="63" fill="#F8FAFD"/>
<g clip-path="url(#clip1_2652_43518)">
<path d="M67.6996 23.3002C66.7315 21.6984 65.5843 19.988 63.7877 19.465C61.7071 18.8592 59.5698 20.0626 57.7569 21.25C52.3352 24.8012 47.1141 28.6497 42.1173 32.7778L42.1228 32.84C46.0129 32.5716 49.9031 32.3032 53.7933 32.0349C56.6039 31.8409 59.5111 31.6203 61.9949 30.2901C62.9375 29.7854 63.8562 29.1111 64.9243 29.0642C66.2512 29.0058 67.4082 29.9329 68.3175 30.9015C73.696 36.6313 75.2524 45.3935 81.2865 50.4275C77.4816 41.0399 72.9384 31.9691 67.6996 23.3002Z" fill="#F2F2F2"/>
<path d="M100.761 71.8991C100.166 71.1478 99.9227 70.9718 99.336 70.2135C94.5589 64.0325 90.0689 57.6427 85.8658 51.0441C83.011 46.5626 80.2976 41.9951 77.7259 37.3415C76.5015 35.1291 75.3107 32.8993 74.1535 30.6522C73.2555 28.9099 72.3776 27.1571 71.5197 25.3939C71.2743 24.8903 71.036 24.3844 70.7987 23.8773C70.2398 22.6849 69.6912 21.4866 69.1022 20.3104C68.4311 18.9698 67.614 17.5643 66.3816 16.6636C65.8207 16.2369 65.15 15.9787 64.4478 15.9192C63.4445 15.8544 62.5187 16.2688 61.6485 16.7215C55.275 20.0734 49.3261 24.1774 43.9291 28.9458C38.5237 33.6949 33.6922 39.0603 29.5331 44.9326C29.4058 45.1143 29.105 44.9407 29.2334 44.7578C29.7391 44.0423 30.2549 43.3345 30.7806 42.6345C37.3181 33.9362 45.3341 26.4561 54.4621 20.5362C55.9978 19.5405 57.5624 18.5916 59.1558 17.6893C59.9589 17.2344 60.7655 16.7852 61.586 16.3638C62.3903 15.9505 63.2443 15.5788 64.1632 15.5649C67.29 15.5163 68.909 19.0589 70.0211 21.4426C70.3705 22.1928 70.7243 22.9407 71.0822 23.6863C72.435 26.5169 73.8399 29.3216 75.2968 32.1005C76.196 33.8162 77.1149 35.5219 78.0534 37.2176C80.9742 42.4979 84.0787 47.6713 87.3668 52.7379C91.7226 59.4491 96.0437 65.3777 101.006 71.6537C101.142 71.8273 100.898 72.0751 100.761 71.8991Z" fill="#E4E4E4"/>
<path d="M43.62 27.1963C43.4383 26.9937 43.2578 26.7911 43.075 26.5885C41.6331 24.9932 40.0859 23.4164 38.1058 22.5018C37.1617 22.0519 36.1311 21.8129 35.0854 21.8013C34.0046 21.8048 32.9481 22.0885 31.9494 22.4856C31.4772 22.6743 31.0155 22.8884 30.5607 23.1165C30.0411 23.3781 29.5308 23.6572 29.0228 23.9385C28.0692 24.4664 27.128 25.0175 26.1991 25.5917C24.351 26.7343 22.5608 27.9642 20.8284 29.2813C19.9304 29.9644 19.0509 30.6698 18.1899 31.3976C17.3891 32.0737 16.6045 32.7679 15.8361 33.4803C15.6718 33.632 15.4265 33.3866 15.5908 33.2349C15.7933 33.0462 15.9981 32.8586 16.203 32.6734C16.7816 32.1501 17.3695 31.6369 17.9666 31.1336C19.0555 30.2144 20.1726 29.3307 21.3179 28.4825C23.0989 27.1627 24.9412 25.9324 26.8448 24.7917C27.7961 24.2221 28.7604 23.6765 29.7379 23.1547C30.033 22.9973 30.3316 22.8433 30.6336 22.6974C31.3189 22.3516 32.031 22.0616 32.7629 21.8303C33.7997 21.4948 34.8966 21.387 35.9788 21.5142C37.0238 21.6663 38.0305 22.0147 38.946 22.5411C40.8901 23.6282 42.398 25.3092 43.8654 26.9497C44.0135 27.1164 43.7693 27.363 43.62 27.1963Z" fill="#E4E4E4"/>
<path d="M83.4545 43.7283L88.1132 42.0237L90.4262 41.1773C91.1795 40.9017 91.931 40.5879 92.7098 40.3905C93.3865 40.1971 94.1051 40.2063 94.7767 40.4169C95.3756 40.6386 95.9238 40.9786 96.3888 41.4166C96.8638 41.8542 97.3058 42.3264 97.7111 42.8293C98.2147 43.4348 98.7108 44.0466 99.2092 44.6563C101.266 47.1729 103.31 49.7003 105.34 52.2387C107.369 54.7771 109.386 57.3262 111.389 59.8862C113.396 62.4523 115.39 65.0292 117.37 67.6169C117.613 67.9339 117.855 68.251 118.097 68.5684C118.231 68.7436 118.533 68.5708 118.397 68.3931C116.402 65.7794 114.394 63.1764 112.371 60.5842C110.344 57.9857 108.302 55.3983 106.247 52.8218C104.191 50.2455 102.122 47.6803 100.039 45.1262C99.5199 44.49 99.0001 43.8544 98.4794 43.2195C98.0401 42.684 97.6058 42.1426 97.1241 41.6442C96.2398 40.7292 95.1349 39.9206 93.8124 39.8987C93.0348 39.8858 92.2823 40.1326 91.5599 40.3941C90.7811 40.676 90.0041 40.9631 89.2263 41.2477L84.5351 42.9642L83.3623 43.3934C83.1541 43.4695 83.244 43.8053 83.4545 43.7283Z" fill="#E4E4E4"/>
<path d="M37.4928 24.5092C35.1254 23.292 32.0936 23.5304 29.9181 25.0512C34.0677 25.7674 38.1718 26.7257 42.2096 27.9211C40.5329 26.9381 39.2213 25.398 37.4928 24.5092Z" fill="#F2F2F2"/>
<path d="M29.8948 25.0471L29.439 25.4177C29.5932 25.288 29.7534 25.1664 29.9181 25.0513C29.9103 25.05 29.9026 25.0485 29.8948 25.0471Z" fill="#F2F2F2"/>
<path d="M96.2134 43.7453C95.7548 43.1868 95.259 42.6021 94.5731 42.3752L93.9327 42.4005C98.8076 51.0182 105.391 58.5483 113.28 64.5285C107.591 57.6008 101.902 50.673 96.2134 43.7453Z" fill="#F2F2F2"/>
<path d="M66.8947 89.3669C66.8775 89.3669 66.8604 89.3639 66.8442 89.3579L54.5045 84.823C54.4681 84.8096 54.4384 84.7823 54.4221 84.7471C54.4058 84.7118 54.4042 84.6715 54.4175 84.635C54.4309 84.5986 54.4583 84.5689 54.4935 84.5526C54.5287 84.5363 54.569 84.5346 54.6055 84.548L66.9452 89.0829C66.9774 89.0948 67.0045 89.1176 67.0216 89.1475C67.0388 89.1773 67.0448 89.2122 67.0388 89.2461C67.0328 89.2799 67.0151 89.3106 66.9887 89.3327C66.9623 89.3548 66.9291 89.3669 66.8947 89.3669Z" fill="black"/>
<path d="M44.3419 80.8696C44.3247 80.8696 44.3076 80.8666 44.2915 80.8606L31.9518 76.3257C31.9153 76.3123 31.8857 76.285 31.8694 76.2497C31.8531 76.2145 31.8514 76.1742 31.8648 76.1377C31.8782 76.1013 31.9055 76.0716 31.9408 76.0553C31.976 76.039 32.0163 76.0373 32.0527 76.0507L44.3924 80.5856C44.4247 80.5975 44.4518 80.6203 44.4689 80.6501C44.486 80.68 44.4921 80.7149 44.4861 80.7488C44.4801 80.7826 44.4623 80.8133 44.436 80.8354C44.4096 80.8575 44.3763 80.8696 44.3419 80.8696Z" fill="black"/>
<path d="M21.3498 72.372C21.3326 72.3721 21.3155 72.369 21.2993 72.363L8.95964 67.8282C8.9416 67.8215 8.92503 67.8114 8.91089 67.7984C8.89675 67.7853 8.88532 67.7696 8.87725 67.7522C8.86917 67.7347 8.86461 67.7158 8.86383 67.6966C8.86305 67.6774 8.86606 67.6582 8.87269 67.6402C8.87932 67.6221 8.88944 67.6055 8.90247 67.5914C8.9155 67.5772 8.93119 67.5658 8.94864 67.5577C8.96609 67.5497 8.98496 67.5451 9.00418 67.5443C9.02339 67.5435 9.04256 67.5465 9.06061 67.5532L21.4003 72.088C21.4326 72.0999 21.4596 72.1228 21.4768 72.1526C21.4939 72.1824 21.5 72.2173 21.494 72.2512C21.4879 72.2851 21.4702 72.3157 21.4438 72.3378C21.4175 72.3599 21.3842 72.372 21.3498 72.372Z" fill="black"/>
<path d="M19.0378 50.3458C18.5234 50.2308 18.0024 50.1399 17.4879 50.0766L17.4131 50.0674C13.9977 49.6606 11.1144 51.0867 10.7063 53.385L10.6338 53.8008C10.5885 54.0638 10.5397 54.3465 10.4816 54.6593C10.4534 54.8137 10.6085 54.9716 10.8341 55.0221L92.9744 73.3913C98.7747 74.646 104.556 75.8854 110.158 77.0751C111.206 77.3121 112.268 77.4839 113.337 77.5895C114.938 77.7251 116.109 77.5466 116.919 77.0437L116.92 77.0438C117.927 76.4207 118.18 75.4092 118.387 74.2486C118.804 71.905 119.248 69.4442 119.69 66.9909C120.08 64.8287 120.468 62.6723 120.837 60.6069C121.053 59.3807 121.171 58.282 120.415 57.2532C119.596 56.14 117.841 55.2762 115.199 54.6853C115.167 54.6781 115.135 54.6711 115.103 54.664C106.815 52.8462 97.8777 54.2904 92.864 58.2578C92.2867 58.7147 91.7314 59.2178 91.1943 59.7045C90.3998 60.4584 89.5531 61.1551 88.6605 61.7897C88.1677 62.1291 87.6448 62.4227 87.0985 62.6667C87.0609 62.685 87.0183 62.7041 86.9739 62.7212C86.8707 62.7678 86.764 62.8111 86.6612 62.8479C86.0628 63.0788 85.4415 63.2456 84.8079 63.3456L84.7447 63.3551C84.6969 63.3633 84.6455 63.3707 84.5943 63.3766C84.2311 63.4254 83.8655 63.4542 83.4991 63.4629C81.9158 63.5081 80.1916 63.2183 78.3748 62.6012C76.6982 62.0251 75.0965 61.2503 73.6038 60.2935C72.0201 59.2805 70.5813 58.1373 69.1898 57.0318C68.5786 56.5461 67.9465 56.0439 67.3112 55.5599C67.1918 55.4689 67.0742 55.3797 66.9547 55.2901C66.1767 54.7085 65.4643 54.2126 64.7769 53.774C63.0894 52.6916 61.2584 51.8515 59.3374 51.2783C57.3071 50.6879 55.4376 50.527 53.7825 50.7985C53.3228 50.8737 52.8698 50.9848 52.4275 51.131C50.3886 51.8045 48.925 53.1441 47.5098 54.4397C45.7493 56.0511 43.9288 57.7175 40.9766 58.1323C37.5699 58.6118 33.0926 57.0948 30.0382 55.5148C29.0779 55.018 28.1278 54.4811 27.209 53.9618C26.838 53.752 26.4664 53.5429 26.0944 53.3347C25.3632 52.9266 24.762 52.6048 24.2026 52.3215L24.0257 52.2316C23.9272 52.1821 23.8286 52.1326 23.7278 52.084C23.0614 51.7561 22.4354 51.4754 21.813 51.2255L21.6658 51.1656C21.3698 51.0506 21.092 50.9479 20.8182 50.8525L20.7088 50.8145C20.1607 50.6282 19.6029 50.4717 19.0378 50.3458Z" fill="#F2F2F2"/>
<path d="M117.04 77.9368C117.03 77.9368 117.02 77.9357 117.01 77.9336L8.63951 55.048C8.6017 55.0398 8.56869 55.0169 8.54767 54.9844C8.52665 54.9519 8.51934 54.9124 8.52733 54.8746C8.53532 54.8367 8.55796 54.8035 8.59032 54.7823C8.62267 54.7611 8.6621 54.7535 8.7 54.7613L117.07 77.6469C117.106 77.6544 117.137 77.6747 117.159 77.704C117.18 77.7333 117.19 77.7694 117.186 77.8054C117.182 77.8414 117.165 77.8748 117.138 77.8991C117.111 77.9233 117.077 77.9367 117.04 77.9368Z" fill="black"/>
<path d="M94.5606 24.9438C98.6855 24.9438 102.029 21.5985 102.029 17.4719C102.029 13.3453 98.6855 10 94.5606 10C90.4357 10 87.0919 13.3453 87.0919 17.4719C87.0919 21.5985 90.4357 24.9438 94.5606 24.9438Z" fill="#FF6584"/>
<path d="M108.039 11.7391C104.419 11.2497 100.287 13.2069 99.3486 16.7385C99.1121 16.1106 98.6823 15.5741 98.1211 15.2066C97.56 14.8391 96.8966 14.6596 96.2268 14.694C95.557 14.7283 94.9154 14.9749 94.3948 15.3979C93.8742 15.8209 93.5015 16.3986 93.3306 17.0474L93.745 17.3443C101.502 19.0225 109.531 18.9862 117.273 17.2379C114.755 14.5907 111.659 12.2286 108.039 11.7391Z" fill="#F0F0F0"/>
<path d="M92.5156 21.7015C88.8959 21.2121 84.7634 23.1693 83.8253 26.7009C83.5888 26.073 83.159 25.5365 82.5978 25.169C82.0367 24.8015 81.3733 24.622 80.7035 24.6564C80.0336 24.6907 79.3921 24.9373 78.8715 25.3603C78.3509 25.7833 77.9782 26.361 77.8073 27.0098L78.2217 27.3067C85.9786 28.9849 94.0082 28.9486 101.75 27.2003C99.2317 24.5531 96.1353 22.191 92.5156 21.7015Z" fill="#F0F0F0"/>
<path d="M99.0114 81.6544C98.864 81.5062 98.7509 81.3274 98.68 81.1308C98.6092 80.9341 98.5823 80.7243 98.6012 80.5161C98.6202 80.308 98.6845 80.1065 98.7897 79.9258C98.8949 79.7452 99.0385 79.5899 99.2102 79.4708L96.9344 68.1624L99.4476 68.9696L101.269 79.9077C101.45 80.2095 101.514 80.5673 101.449 80.9131C101.384 81.259 101.194 81.569 100.916 81.7843C100.638 81.9996 100.29 82.1053 99.9389 82.0813C99.5879 82.0574 99.2579 81.9055 99.0114 81.6544Z" fill="#9E616A"/>
<path d="M95.6511 57.7286L97.2104 56.5511C97.2104 56.5511 98.5859 56.4536 98.8296 58.9353C99.0732 61.417 99.5734 66.2533 99.5734 66.2533L101.959 77.3092L98.6565 78.0345L96.1009 66.1033L94.5677 62.5601L95.6511 57.7286Z" fill="#2F2E41"/>
<path d="M98.2218 75.7817L89.435 75.6352L88.7028 69.6284H98.2218V75.7817Z" fill="#9E616A"/>
<path d="M90.0987 112.53L88.0703 112.53L87.1052 104.703L90.099 104.703L90.0987 112.53Z" fill="#9E616A"/>
<path d="M103.022 109.72L100.993 109.705L100.083 101.871L102.721 102.477L103.022 109.72Z" fill="#9E616A"/>
<path d="M96.6774 64.4555L97.1369 65.651L97.0451 66.8465L88.0496 69.9635L88.496 64.7314L89.5072 63.5359L96.6774 64.4555Z" fill="#FFB6B6"/>
<path d="M92.8183 53.6971C94.5926 53.6971 96.0311 52.258 96.0311 50.4829C96.0311 48.7078 94.5926 47.2688 92.8183 47.2688C91.0439 47.2688 89.6055 48.7078 89.6055 50.4829C89.6055 52.258 91.0439 53.6971 92.8183 53.6971Z" fill="#9E616A"/>
<path d="M91.0061 116.384H89.5667L89.3098 115.024L88.6518 116.384H84.8342C84.6512 116.384 84.473 116.325 84.3256 116.217C84.1782 116.108 84.0694 115.955 84.0149 115.781C83.9604 115.606 83.9632 115.418 84.0229 115.245C84.0826 115.072 84.196 114.923 84.3466 114.819L87.3952 112.712V111.338L90.6018 111.529L91.0061 116.384Z" fill="#2F2E41"/>
<path d="M104.086 113.58L102.647 113.57L102.399 112.209L101.732 113.564L97.9143 113.537C97.7313 113.536 97.5535 113.476 97.4069 113.367C97.2602 113.257 97.1524 113.104 97.0992 112.928C97.046 112.753 97.0501 112.566 97.111 112.393C97.1718 112.22 97.2863 112.072 97.4376 111.969L100.501 109.884L100.51 108.51L103.716 108.723L104.086 113.58Z" fill="#2F2E41"/>
<path d="M103.653 104.148L102.176 95.1207L100.419 82.6676C101.705 80.2765 98.8076 72.8516 98.8076 72.8516L98.3985 72.8712L89.1401 74.6186L89.1421 74.6097C87.2485 79.7767 86.6211 82.3293 86.7249 87.8317L87.0979 107.612H86.9809C86.7867 107.612 86.6004 107.689 86.4631 107.826C86.3258 107.964 86.2487 108.15 86.2487 108.344C86.2487 108.538 86.3258 108.725 86.4631 108.862C86.6004 109 86.7867 109.077 86.9809 109.077H90.6421C90.8363 109.077 91.0225 109 91.1598 108.862C91.2971 108.725 91.3743 108.538 91.3743 108.344C91.3743 108.15 91.2971 107.964 91.1598 107.826C91.0225 107.689 90.8363 107.612 90.6421 107.612H90.5477L93.9082 84.0596L96.7573 93.9486L99.9792 104.058C98.8076 103.765 98.9895 104.444 98.9895 104.828C98.9895 105.022 99.0666 105.209 99.204 105.346C99.3413 105.483 99.5275 105.561 99.7217 105.561H103.383C103.553 105.561 103.718 105.501 103.849 105.393C103.981 105.285 104.07 105.134 104.102 104.966C104.134 104.799 104.107 104.626 104.025 104.476C103.943 104.327 103.811 104.211 103.653 104.148Z" fill="#2F2E41"/>
<path d="M99.5285 73.2363L99.2356 70.3061C99.2051 70.1866 99.1377 70.0798 99.0428 70.0009C98.948 69.9221 98.8306 69.8754 98.7076 69.8674C98.5856 68.4716 98.0721 62.4499 98.0414 62.1873L98.0402 62.1762L97.8068 57.1864C97.7983 57.0052 97.7234 56.8335 97.5963 56.704C97.4693 56.5746 97.2991 56.4965 97.1181 56.4846L95.8849 56.404C95.868 56.4034 95.852 56.3963 95.8402 56.3841C95.8284 56.3719 95.8218 56.3557 95.8218 56.3388C95.8218 56.2025 95.795 56.0676 95.7429 55.9417C95.6908 55.8158 95.6144 55.7015 95.5181 55.6051C95.4218 55.5088 95.3075 55.4324 95.1817 55.3802C95.0558 55.3281 94.921 55.3013 94.7848 55.3013H91.1337C90.8972 55.3014 90.6689 55.3878 90.4916 55.5444C90.3143 55.7009 90.2002 55.9168 90.1707 56.1516C90.1691 56.1677 90.1615 56.1827 90.1493 56.1934C90.1371 56.2042 90.1214 56.21 90.1051 56.2096L90.1047 56.2096C89.6898 56.201 89.2857 56.3416 88.9655 56.6056C88.6453 56.8697 88.4304 57.2399 88.3597 57.6489C87.8606 60.5543 86.8602 67.1485 87.3548 70.8144C87.527 72.0906 87.1558 71.0798 87.0907 72.1476C87.0843 72.2508 87.0982 72.3542 87.1318 72.452C87.1654 72.5498 87.2179 72.64 87.2863 72.7175C86.9849 72.8051 86.8681 73.1308 86.9454 73.4377L86.8812 73.4218C86.9192 73.5725 87.0155 73.702 87.1488 73.7817C87.2822 73.8614 87.4418 73.8848 87.5924 73.8468L98.8107 71.0176C99.1244 70.9385 99.6075 73.5501 99.5285 73.2363Z" fill="#2F2E41"/>
<path d="M87.181 81.6544C87.3283 81.5062 87.4415 81.3275 87.5123 81.1308C87.5832 80.9341 87.6101 80.7243 87.5912 80.5161C87.5722 80.308 87.5078 80.1065 87.4026 79.9258C87.2974 79.7452 87.1539 79.5899 86.9822 79.4708L89.258 68.1624L86.7448 68.9696L84.9231 79.9077C84.7422 80.2095 84.6783 80.5673 84.7434 80.9131C84.8086 81.259 84.9982 81.569 85.2765 81.7843C85.5548 81.9996 85.9024 82.1053 86.2534 82.0813C86.6044 82.0574 86.9344 81.9055 87.181 81.6544Z" fill="#9E616A"/>
<path d="M90.5413 57.7286L88.982 56.5511C88.982 56.5511 87.6064 56.4536 87.3628 58.9353C87.1192 61.417 86.619 66.2533 86.619 66.2533L84.2329 77.3092L87.5359 78.0345L90.0915 66.1033L91.6246 62.5601L90.5413 57.7286Z" fill="#2F2E41"/>
<path d="M96.2587 47.6249C96.8573 47.8032 97.4157 47.3023 97.8322 46.8278L97.6842 47.0035C98.6642 47.694 99.2502 48.8187 99.6304 49.9573C100.011 51.0946 100.223 52.2859 100.652 53.4069C101.081 54.5266 101.774 55.61 102.834 56.1686C104.254 56.9168 105.995 56.5766 107.505 56.0368C107.526 56.0292 107.544 56.023 107.564 56.0154C106.953 54.872 106.578 53.6167 106.463 52.3248C107.084 53.5387 107.981 54.5905 109.08 55.3966C110.067 54.9477 111.017 54.4195 111.919 53.8174C112.502 53.427 113.117 52.9223 113.185 52.2231C113.254 51.5289 112.735 50.895 112.124 50.5611C111.513 50.2272 110.811 50.1142 110.143 49.9134C109.477 49.7138 108.797 49.3861 108.447 48.7836C107.64 47.3977 108.997 45.4432 108.132 44.0925C107.705 43.4284 106.877 43.1623 106.109 42.9778C104.937 42.6973 103.747 42.4964 102.548 42.3765C101.495 42.271 100.407 42.2321 99.4058 42.571C98.4044 42.91 97.496 43.697 97.2814 44.7339C96.6967 45.0415 96.0781 45.3817 95.7644 45.9654C95.4507 46.5479 95.6251 47.4366 96.2587 47.6249Z" fill="#2F2E41"/>
<path d="M97.1522 47.3913C97.7253 48.1095 98.0373 48.8863 98.0373 49.3515C99.228 51.5285 97.5253 53.3984 95.3492 54.5895C94.4813 55.0671 93.4791 55.2419 92.5008 55.0863L92.4097 54.6975L92.2864 55.0477C92.2864 55.0477 90.8696 59.7292 90.4023 60.0038C90.5796 59.1706 90.7827 55.3131 90.8814 54.5C91.0181 53.3934 90.5417 51.7458 90.198 50.7439C89.9849 50.1264 89.8755 49.4779 89.8743 48.8246V48.7961L89.5397 49.8714L88.3214 49.3515C88.548 48.0509 88.3214 46.5743 91.0388 46.7024C92.5085 45.6912 93.8027 45.5372 94.8658 45.824C95.0031 45.6118 95.7942 46.0092 96.0228 45.8975" fill="#2F2E41"/>
<path d="M100.194 70.2478C100.143 70.7089 99.9386 71.1395 99.6143 71.4713C99.2901 71.8031 98.8644 72.017 98.4048 72.0791L91.7898 72.9757C91.2428 73.0493 90.689 72.9027 90.25 72.5682C89.8109 72.2336 89.5225 71.7384 89.4481 71.1913L88.4948 64.1384C88.4327 63.6799 88.5255 63.2138 88.7584 62.814L88.713 62.4712C88.5251 62.4027 88.3595 62.2842 88.2341 62.1284C88.1087 61.9727 88.0282 61.7856 88.0014 61.5874C87.9745 61.3892 88.0024 61.1874 88.0818 61.0039C88.1613 60.8203 88.2894 60.662 88.4523 60.5461L89.2695 56.7588C89.2585 56.6777 89.2646 56.5952 89.2875 56.5166C89.3103 56.438 89.3493 56.365 89.402 56.3024C89.4547 56.2397 89.5199 56.1888 89.5934 56.1529C89.6669 56.1169 89.7471 56.0968 89.8289 56.0937C89.9775 56.0921 90.1215 56.1455 90.2332 56.2436C90.3448 56.3418 90.4162 56.4778 90.4337 56.6255L90.5084 57.1822C90.6082 57.9181 90.9835 58.5886 91.5586 59.0582C92.1336 59.5279 92.8654 59.7615 93.6061 59.712C94.3467 59.6625 95.041 59.3336 95.5485 58.7916C96.056 58.2496 96.3388 57.5351 96.3399 56.7925C96.3398 56.6598 96.331 56.5271 96.3135 56.3955L96.2403 55.8476C96.2165 55.6953 96.2513 55.5397 96.3377 55.4121C96.4242 55.2846 96.5558 55.1946 96.706 55.1604C96.7842 55.1456 96.8647 55.1468 96.9424 55.1641C97.0201 55.1814 97.0935 55.2144 97.1581 55.261C97.2226 55.3076 97.277 55.3669 97.3179 55.4353C97.3587 55.5036 97.3853 55.5796 97.3958 55.6586L97.8688 59.1454C98.129 59.1275 98.387 59.2028 98.5967 59.358C98.8064 59.5131 98.954 59.7378 99.013 59.992C99.0721 60.2461 99.0387 60.5129 98.9189 60.7447C98.7992 60.9764 98.6008 61.1579 98.3594 61.2566C98.5962 61.4207 98.7962 61.6323 98.9467 61.878C99.0972 62.1237 99.195 62.3981 99.2337 62.6836L100.189 69.7379C100.212 69.907 100.214 70.0782 100.194 70.2478Z" fill="#0052DD"/>
<path d="M88.6187 62.626C88.6109 62.5683 88.6264 62.5098 88.6617 62.4635C88.6969 62.4171 88.7492 62.3867 88.8069 62.3788L97.8231 60.9961C97.8516 60.9923 97.8807 60.9941 97.9086 61.0014C97.9365 61.0088 97.9627 61.0216 97.9856 61.0391C98.0086 61.0566 98.0278 61.0784 98.0424 61.1033C98.0569 61.1283 98.0663 61.1558 98.0702 61.1844C98.0741 61.213 98.0723 61.2421 98.0649 61.27C98.0575 61.2979 98.0447 61.3241 98.0273 61.3471C98.0098 61.37 97.988 61.3893 97.963 61.4038C97.9381 61.4183 97.9106 61.4278 97.882 61.4317L88.8658 62.8143C88.8081 62.8221 88.7496 62.8066 88.7033 62.7713C88.657 62.736 88.6265 62.6838 88.6187 62.626Z" fill="#3F3D56"/>
<path d="M89.6724 66.3285L89.3744 64.1256C89.3514 63.9557 89.3968 63.7836 89.5007 63.6471C89.6045 63.5107 89.7583 63.4211 89.9282 63.3981L98.5394 62.2961C98.7093 62.2731 98.8813 62.3186 99.0177 62.4225C99.1541 62.5264 99.2436 62.6802 99.2666 62.8502L99.5646 65.0531C99.5876 65.223 99.5421 65.3951 99.4383 65.5316C99.3344 65.668 99.1806 65.7575 99.0108 65.7805L95.5712 66.2539C95.5783 66.2775 95.584 66.3014 95.5884 66.3255L95.8928 68.5759L98.7953 68.1829C98.8143 68.1803 98.8337 68.1815 98.8524 68.1864C98.871 68.1913 98.8885 68.1998 98.9038 68.2114C98.9191 68.2231 98.932 68.2377 98.9417 68.2543C98.9514 68.271 98.9577 68.2893 98.9603 68.3084C98.9629 68.3275 98.9617 68.3469 98.9567 68.3655C98.9518 68.3842 98.9433 68.4016 98.9316 68.4169C98.9199 68.4323 98.9053 68.4451 98.8887 68.4548C98.872 68.4645 98.8536 68.4707 98.8345 68.4733L95.9321 68.8663L94.626 69.0431L91.8686 69.4164C91.8302 69.4216 91.7912 69.4113 91.7604 69.3877C91.7295 69.3642 91.7092 69.3293 91.704 69.2909C91.6988 69.2524 91.7091 69.2134 91.7326 69.1825C91.7561 69.1516 91.7909 69.1313 91.8293 69.1261L94.5867 68.7527L94.2823 66.5024C94.28 66.4779 94.2792 66.4533 94.2797 66.4288L90.3995 66.8825C90.2297 66.9055 90.0576 66.8601 89.9213 66.7562C89.7849 66.6523 89.6954 66.4985 89.6724 66.3285Z" fill="#3F3D56"/>
<path d="M55.8255 123C55.7893 123 55.7544 122.987 55.7275 122.962L-6.95161 66.4411C-6.9804 66.415 -6.99769 66.3786 -6.99968 66.3398C-7.00168 66.3011 -6.98821 66.2631 -6.96223 66.2343C-6.93626 66.2054 -6.8999 66.1881 -6.86115 66.186C-6.8224 66.1839 -6.78441 66.1974 -6.75554 66.2233L55.9236 122.745C55.9456 122.765 55.9611 122.791 55.968 122.819C55.9749 122.848 55.9729 122.878 55.9623 122.906C55.9516 122.934 55.9329 122.958 55.9085 122.974C55.884 122.991 55.8551 123 55.8255 123Z" fill="black"/>
<path d="M88.6368 65.9052C88.6399 65.8629 88.6339 65.8204 88.6192 65.7807C88.6045 65.7409 88.5815 65.7047 88.5517 65.6746C88.5218 65.6445 88.4859 65.6211 88.4463 65.606C88.4066 65.591 88.3643 65.5846 88.322 65.5873C88.3062 65.5879 88.2905 65.5898 88.2751 65.5931L86.4211 66.0121C86.3797 66.0222 86.3408 66.0408 86.307 66.0668C86.2732 66.0928 86.2452 66.1256 86.2248 66.163C86.1977 66.1641 86.1707 66.168 86.1443 66.1748C86.0278 66.2012 85.9265 66.2728 85.8628 66.3739C85.7991 66.4751 85.7781 66.5973 85.8045 66.7139C85.831 66.8305 85.9026 66.9318 86.0036 66.9955C86.1047 67.0593 86.2269 67.0802 86.3435 67.0538C86.4098 67.0384 86.4718 67.0084 86.5251 66.9659L87.1533 68.7357C87.1847 68.7912 87.2332 68.835 87.2915 68.8606C87.3499 68.8862 87.4149 68.8923 87.477 68.8778L88.6822 68.6053C88.7438 68.5909 88.7992 68.5573 88.8405 68.5094C88.8818 68.4615 88.9069 68.4017 88.9121 68.3387L88.6368 65.9052ZM86.3156 66.9278C86.2744 66.9372 86.2317 66.9385 86.19 66.9314C86.1482 66.9243 86.1083 66.909 86.0725 66.8865C86.0367 66.864 86.0056 66.8347 85.9811 66.8001C85.9566 66.7656 85.9392 66.7266 85.9298 66.6853C85.9203 66.6441 85.9191 66.6014 85.9262 66.5596C85.9333 66.5179 85.9485 66.478 85.971 66.4421C85.9935 66.4063 86.0229 66.3752 86.0574 66.3507C86.0919 66.3262 86.1309 66.3087 86.1721 66.2993C86.178 66.2978 86.1838 66.2993 86.1897 66.2978C86.1893 66.3512 86.2029 66.4038 86.2292 66.4502L86.4592 66.8516C86.4191 66.8896 86.3695 66.916 86.3156 66.9278Z" fill="#CCCCCC"/>
<path d="M88.322 65.5872C88.3396 65.8216 87.9383 66.0911 87.4009 66.1981C86.9073 66.2992 86.4651 66.2289 86.3406 66.0443C86.3656 66.0294 86.3928 66.0185 86.4211 66.012L88.2751 65.593C88.2906 65.5897 88.3062 65.5878 88.322 65.5872Z" fill="#E6E6E6"/>
<path d="M87.353 70.2689L86.8148 69.1486C86.4995 68.4924 87.0768 67.7941 88.1017 67.5922L89.3647 67.3792L89.893 71.0714L89.7836 71.0929C88.7587 71.2949 87.6683 70.9251 87.353 70.2689Z" fill="#0052DD"/>
<g opacity="0.2">
<path d="M100.194 70.2477C100.143 70.7088 99.9386 71.1394 99.6144 71.4712C99.2901 71.803 98.8644 72.0169 98.4048 72.079L91.7898 72.9757C91.3969 73.0288 90.9969 72.9685 90.637 72.8019C90.2772 72.6353 89.9724 72.3692 89.7586 72.0351C89.9451 71.8095 90.1761 71.6249 90.4371 71.4928C90.6982 71.3607 90.9837 71.284 91.2758 71.2674C91.844 71.2381 92.3946 71.4271 92.9511 71.5326C94.2967 71.7862 95.6886 71.5553 96.8803 70.8806C97.3973 70.5803 97.863 70.1964 98.4312 69.9825C98.9994 69.7701 99.7331 69.7774 100.145 70.192C100.162 70.2095 100.179 70.2281 100.194 70.2477Z" fill="black"/>
</g>
</g>
</g>
<defs>
<clipPath id="clip0_2652_43518">
<rect width="128" height="126" rx="63" fill="white"/>
</clipPath>
<clipPath id="clip1_2652_43518">
<rect width="128" height="113" fill="white" transform="translate(-7 10)"/>
</clipPath>
</defs>
</svg>
