<?xml version="1.0" encoding="UTF-8"?>
<!DOCTYPE svg PUBLIC "-//W3C//DTD SVG 1.1//EN" "http://www.w3.org/Graphics/SVG/1.1/DTD/svg11.dtd">
<svg version="1.1" id="Layer_1" xmlns="http://www.w3.org/2000/svg" xmlns:xlink="http://www.w3.org/1999/xlink" x="0px" y="0px"
	 width="100%" viewBox="0 0 80 70" enable-background="new 0 0 80 80" xml:space="preserve">
<g><path style="opacity:0.953" fill="#7e5236" d="M 58.5,28.5 C 57.5389,31.0547 56.2055,33.388 54.5,35.5C 55.1685,29.7812 54.1685,24.4478 51.5,19.5C 53.335,20.1223 54.5017,21.4556 55,23.5C 55.3333,25.8333 55.6667,28.1667 56,30.5C 58.129,25.338 58.7956,20.0047 58,14.5C 57.2155,12.714 56.0488,11.214 54.5,10C 50.1743,7.72834 45.841,5.39501 41.5,3C 31.0848,1.45176 24.2514,5.61843 21,15.5C 20.3645,20.9465 20.8645,26.2799 22.5,31.5C 21.5987,30.7095 20.9321,29.7095 20.5,28.5C 16.4511,8.71658 24.4511,-0.116757 44.5,2C 48.6935,5.63886 53.1935,8.80553 58,11.5C 59.8277,17.1027 59.9944,22.7694 58.5,28.5 Z"/></g>
<g><path style="opacity:1" fill="#a36e4c" d="M 51.5,19.5 C 50.4693,18.645 49.3026,17.9783 48,17.5C 41.9229,21.8582 35.0896,24.0249 27.5,24C 26.6667,24.8333 25.8333,25.6667 25,26.5C 24.502,29.4816 24.3354,32.4816 24.5,35.5C 22.8958,34.713 22.2291,33.3797 22.5,31.5C 20.8645,26.2799 20.3645,20.9465 21,15.5C 24.2514,5.61843 31.0848,1.45176 41.5,3C 45.841,5.39501 50.1743,7.72834 54.5,10C 56.0488,11.214 57.2155,12.714 58,14.5C 58.7956,20.0047 58.129,25.338 56,30.5C 55.6667,28.1667 55.3333,25.8333 55,23.5C 54.5017,21.4556 53.335,20.1223 51.5,19.5 Z"/></g>
<g><path style="opacity:1" fill="#f3cc84" d="M 51.5,19.5 C 54.1685,24.4478 55.1685,29.7812 54.5,35.5C 54.2707,43.3178 50.604,48.6511 43.5,51.5C 40.8333,52.8333 38.1667,52.8333 35.5,51.5C 28.7518,48.3982 25.0851,43.0649 24.5,35.5C 24.3354,32.4816 24.502,29.4816 25,26.5C 25.8333,25.6667 26.6667,24.8333 27.5,24C 35.0896,24.0249 41.9229,21.8582 48,17.5C 49.3026,17.9783 50.4693,18.645 51.5,19.5 Z"/></g>
<g><path style="opacity:1" fill="#d1ae6d" d="M 35.5,51.5 C 38.1667,52.8333 40.8333,52.8333 43.5,51.5C 44.9305,51.5792 46.2638,51.2458 47.5,50.5C 48.4656,52.396 48.7989,54.396 48.5,56.5C 44.4969,61.4839 39.4969,62.6506 33.5,60C 32.2899,58.9609 31.2899,57.7942 30.5,56.5C 30.2011,54.396 30.5344,52.396 31.5,50.5C 32.7362,51.2458 34.0695,51.5792 35.5,51.5 Z"/></g>
<g><path style="opacity:0.999" fill="#507bb6" d="M 29.5,53.5 C 29.5,53.8333 29.5,54.1667 29.5,54.5C 17.0233,56.6427 10.0233,63.976 8.5,76.5C 29.1667,76.5 49.8333,76.5 70.5,76.5C 69.0049,64.0031 62.0049,56.6698 49.5,54.5C 49.5,54.1667 49.5,53.8333 49.5,53.5C 60.3162,54.4766 67.4829,60.1433 71,70.5C 71.4966,72.8098 71.6633,75.1432 71.5,77.5C 50.1667,77.5 28.8333,77.5 7.5,77.5C 7.20731,68.9183 10.5406,62.085 17.5,57C 21.1869,54.715 25.1869,53.5483 29.5,53.5 Z"/></g>
<g><path style="opacity:1" fill="#8ab6ee" d="M 29.5,54.5 C 29.3284,55.4916 29.6618,56.1583 30.5,56.5C 31.2899,57.7942 32.2899,58.9609 33.5,60C 39.4969,62.6506 44.4969,61.4839 48.5,56.5C 49.3382,56.1583 49.6716,55.4916 49.5,54.5C 62.0049,56.6698 69.0049,64.0031 70.5,76.5C 49.8333,76.5 29.1667,76.5 8.5,76.5C 10.0233,63.976 17.0233,56.6427 29.5,54.5 Z"/></g>
</svg>
