<?xml version="1.0" encoding="UTF-8"?>
<svg width="512pt" height="512pt" version="1.1" viewBox="0 0 512 512" xmlns="http://www.w3.org/2000/svg">
 <path d="m256 512c141.38 0 256-114.62 256-256s-114.62-256-256-256-256 114.62-256 256 114.62 256 256 256zm0-389c16.145 0 31.633 6.4141 43.047 17.832 11.418 11.418 17.832 26.902 17.832 43.047 0 16.148-6.4141 31.633-17.832 43.051-11.414 11.418-26.902 17.832-43.047 17.832s-31.633-6.4141-43.047-17.832c-11.418-11.418-17.832-26.902-17.832-43.051 0.03125-16.137 6.4531-31.602 17.867-43.012 11.41-11.41 26.875-17.836 43.012-17.867zm-84.141 171.86c22.316-22.312 52.582-34.848 84.141-34.848s61.824 12.535 84.141 34.852c22.316 22.312 34.855 52.578 34.859 84.137h-238c-0.082031-31.578 12.469-61.875 34.859-84.141z" fill="#fff"/>
</svg>
