<svg width="145" height="128" viewBox="0 0 145 128" fill="none" xmlns="http://www.w3.org/2000/svg">
<path d="M142 64C142.008 70.9983 140.866 77.9504 138.62 84.5785C138.491 84.9572 138.359 85.3346 138.224 85.7108C135.846 92.2881 132.407 98.4317 128.043 103.898C126.74 105.532 125.36 107.098 123.902 108.597C122.444 110.099 120.913 111.527 119.31 112.882C110.368 120.466 99.5054 125.432 87.92 127.235H87.9181C86.4412 127.464 84.9498 127.643 83.4438 127.771C81.6507 127.922 79.8361 127.999 78 128C69.4617 128.011 61.0081 126.308 53.14 122.992C45.2719 119.676 38.1494 114.815 32.1946 108.696C31.7761 108.268 31.364 107.834 30.9581 107.393C29.947 106.297 28.9744 105.166 28.0403 104.002C27.5158 103.347 27.0039 102.681 26.5046 102.006C23.4294 97.8516 20.8708 93.3385 18.8852 88.5662C18.0385 86.5336 17.299 84.458 16.6698 82.3479C16.6244 82.1983 16.5808 82.0488 16.5373 81.8992C16.4426 81.5773 16.3511 81.2535 16.2627 80.9278C14.7565 75.4115 13.9955 69.7183 14 64C14 28.6542 42.6542 0 78 0C113.346 0 142 28.6542 142 64Z" fill="#F8FAFD"/>
<g clip-path="url(#clip0_2652_43859)">
<path d="M117.346 80.1746C117.476 80.1867 117.606 80.1585 117.719 80.094C117.833 80.0296 117.923 79.9318 117.979 79.8141C118.035 79.6964 118.053 79.5643 118.031 79.4359C118.009 79.3074 117.949 79.1888 117.857 79.096C117.844 79.0316 117.835 78.9854 117.822 78.9211C117.828 78.9075 117.835 78.8939 117.841 78.8804C117.986 78.5771 118.218 78.3236 118.507 78.1516C118.795 77.9797 119.129 77.8969 119.464 77.9138C119.8 77.9307 120.123 78.0465 120.393 78.2465C120.663 78.4466 120.868 78.7221 120.982 79.0384C121.438 80.3008 122.035 81.5719 122.135 82.8889C122.179 83.471 122.122 84.0564 121.966 84.6189C123.295 82.0406 124.055 79.2063 124.194 76.3083C124.228 75.581 124.222 74.8524 124.174 74.1259C124.135 73.5303 124.07 72.9376 123.978 72.348C123.479 69.1488 122.228 66.1137 120.329 63.492C119.378 62.9136 118.627 62.0572 118.177 61.0383C118.014 60.672 117.904 60.2839 117.852 59.8863C117.962 59.9059 118.073 59.9201 118.183 59.9324C118.217 59.9358 118.253 59.9393 118.287 59.9428L118.3 59.9439C118.421 59.955 118.543 59.9309 118.65 59.8745C118.757 59.8182 118.846 59.732 118.906 59.6262C118.965 59.5205 118.993 59.3999 118.986 59.2787C118.978 59.1576 118.936 59.0412 118.864 58.9435C118.819 58.8827 118.774 58.822 118.73 58.7613C118.662 58.6676 118.592 58.5756 118.524 58.4819C118.516 58.473 118.508 58.4636 118.501 58.4537C118.423 58.3469 118.345 58.2419 118.267 58.135C118.429 57.9067 118.642 57.719 118.889 57.5866C119.744 57.1376 120.876 57.5289 121.442 58.3102C122.01 59.0915 122.075 60.1536 121.822 61.085C121.578 61.8762 121.202 62.6203 120.71 63.2852C120.752 63.3452 120.797 63.4033 120.839 63.4633C121.615 64.5632 122.28 65.7366 122.827 66.9666C122.743 65.6133 122.982 64.2594 123.523 63.0162C124.066 61.8595 125.028 60.9088 125.882 59.9266C126.907 58.747 128.869 59.374 128.967 60.9346C128.968 60.9497 128.969 60.9648 128.97 60.9799C128.847 61.042 128.727 61.1083 128.608 61.1789C128.46 61.2685 128.342 61.401 128.27 61.5589C128.197 61.7169 128.175 61.893 128.204 62.0641C128.234 62.2352 128.314 62.3933 128.435 62.5178C128.556 62.6423 128.712 62.7273 128.882 62.7617L128.9 62.7653C128.837 63.1953 128.742 63.6199 128.614 64.0355C128.248 65.1951 127.647 66.2665 126.847 67.1826C126.048 68.0986 125.068 68.8394 123.969 69.3587C123.897 69.3916 123.827 69.4245 123.755 69.4556C124.281 71.2012 124.577 73.0078 124.637 74.8299C124.669 75.9048 124.614 76.9805 124.473 78.0465L124.48 78.0088C124.767 76.8295 125.451 75.7852 126.418 75.0523C127.853 73.9804 129.825 73.653 131.359 72.8092C131.522 72.7147 131.709 72.669 131.897 72.6773C132.085 72.6856 132.267 72.7476 132.422 72.8561C132.576 72.9645 132.696 73.1149 132.768 73.2894C132.839 73.4639 132.86 73.6552 132.826 73.8409C132.823 73.8541 132.821 73.8673 132.818 73.8805C132.592 73.9607 132.37 74.055 132.156 74.1628C132.033 74.2249 131.912 74.2912 131.794 74.3618C131.645 74.4514 131.527 74.5839 131.455 74.7418C131.383 74.8998 131.36 75.0759 131.39 75.247C131.42 75.4181 131.5 75.5762 131.621 75.7007C131.742 75.8252 131.898 75.9102 132.068 75.9446L132.085 75.9481C132.098 75.9505 132.109 75.9529 132.121 75.9553C131.699 76.8451 131.127 77.6556 130.43 78.3512C129.571 79.1925 128.548 79.8492 127.425 80.281C126.303 80.7128 125.104 80.9105 123.903 80.8622L123.901 80.8621C123.509 82.265 122.972 83.6233 122.299 84.9151L117.263 84.6804C117.248 84.6236 117.234 84.565 117.221 84.5083C117.685 84.5593 118.155 84.5532 118.618 84.4901C118.266 84.0139 117.914 83.534 117.561 83.0578C117.553 83.0488 117.546 83.0394 117.539 83.0296C117.361 82.7859 117.18 82.544 117.001 82.3003L117.001 82.3C117.025 81.5797 117.141 80.8654 117.346 80.1748L117.346 80.1746Z" fill="#F2F2F2"/>
<path d="M15.8747 36.5934C15.7461 36.6134 15.6144 36.5934 15.4975 36.536C15.3806 36.4786 15.2842 36.3867 15.2213 36.2726C15.1584 36.1585 15.132 36.0279 15.1458 35.8983C15.1596 35.7688 15.2128 35.6466 15.2983 35.5483C15.3073 35.4833 15.3138 35.4366 15.3228 35.3716C15.3156 35.3584 15.3084 35.3453 15.3011 35.3321C15.1374 35.0385 14.8907 34.7997 14.5918 34.6459C14.293 34.4922 13.9554 34.4302 13.6215 34.4678C13.2876 34.5054 12.9722 34.6409 12.715 34.8573C12.4578 35.0737 12.2702 35.3614 12.1758 35.6841C11.7984 36.9723 11.2815 38.2778 11.2629 39.5985C11.2549 40.1822 11.3481 40.7629 11.5385 41.3148C10.0524 38.8236 9.11902 36.0417 8.80151 33.1578C8.72259 32.434 8.68417 31.7064 8.68642 30.9783C8.6888 30.3814 8.71739 29.7859 8.77217 29.1918C9.07312 25.9677 10.134 22.8611 11.8676 20.127C12.7814 19.4909 13.4783 18.5897 13.8645 17.5449C14.0047 17.1692 14.0898 16.7752 14.1172 16.375C14.0092 16.4013 13.8988 16.4225 13.79 16.4416C13.7561 16.4471 13.7204 16.4528 13.6864 16.4583L13.6736 16.4603C13.5538 16.4788 13.4311 16.4623 13.3205 16.4126C13.2098 16.363 13.1158 16.2825 13.0498 16.1806C12.9839 16.0788 12.9487 15.9601 12.9486 15.8387C12.9485 15.7174 12.9834 15.5986 13.0492 15.4966C13.0902 15.4332 13.1312 15.3698 13.1722 15.3064C13.2343 15.2087 13.2984 15.1126 13.3605 15.0149C13.3679 15.0055 13.3747 14.9956 13.3809 14.9854C13.4524 14.8739 13.5241 14.7642 13.5956 14.6528C13.4193 14.4349 13.1951 14.2607 12.9405 14.1438C12.0596 13.7486 10.9536 14.2091 10.4368 15.0239C9.91832 15.8389 9.91946 16.9029 10.2296 17.8169C10.5212 18.5916 10.9424 19.3109 11.4751 19.9442C11.4364 20.0066 11.3958 20.0674 11.3571 20.1298C10.651 21.2757 10.0588 22.488 9.58892 23.7494C9.58915 22.3935 9.26772 21.0569 8.65107 19.8496C8.03726 18.7287 7.01845 17.8392 6.10559 16.9118C5.00911 15.7978 3.09014 16.5449 3.08825 18.1086C3.08823 18.1238 3.08825 18.1389 3.08831 18.154C3.21483 18.2083 3.33928 18.2671 3.46167 18.3302C3.61552 18.4105 3.74155 18.5354 3.82325 18.6886C3.90494 18.8418 3.93849 19.0161 3.91949 19.1887C3.9005 19.3613 3.82985 19.5242 3.7168 19.6559C3.60375 19.7876 3.45358 19.8821 3.28595 19.927L3.26879 19.9316C3.35799 20.3569 3.47936 20.7749 3.63187 21.1818C4.06897 22.3165 4.7356 23.3487 5.58997 24.2135C6.44434 25.0784 7.46803 25.7573 8.59686 26.2076C8.67084 26.236 8.74301 26.2645 8.81679 26.291C8.39989 28.0658 8.21537 29.8873 8.26786 31.7097C8.30225 32.7845 8.42344 33.8547 8.63023 34.91L8.62074 34.8728C8.26205 33.7134 7.51454 32.7134 6.50445 32.0417C5.00601 31.0606 3.0174 30.8557 1.43465 30.1083C1.26593 30.0242 1.07667 29.99 0.889206 30.01C0.701741 30.0299 0.523884 30.1031 0.376613 30.2209C0.229342 30.3387 0.118799 30.4961 0.0580231 30.6747C-0.002753 30.8533 -0.0112284 31.0456 0.0335975 31.2288C0.0370239 31.2419 0.0404862 31.2549 0.0439817 31.2679C0.274995 31.334 0.501668 31.4144 0.722688 31.5087C0.84921 31.563 0.973663 31.6218 1.09605 31.6849C1.2499 31.7652 1.37593 31.8901 1.45762 32.0433C1.53932 32.1965 1.57286 32.3708 1.55387 32.5434C1.53488 32.716 1.46423 32.8789 1.35118 33.0106C1.23813 33.1423 1.08796 33.2368 0.920332 33.2817L0.903153 33.2863C0.890778 33.2894 0.88019 33.2924 0.867834 33.2956C1.34397 34.1576 1.96482 34.9312 2.7032 35.5824C3.61339 36.369 4.67452 36.9611 5.82152 37.3227C6.96852 37.6842 8.17723 37.8075 9.37353 37.685L9.37533 37.6848C9.85324 39.0607 10.4727 40.3832 11.2238 41.631L16.2358 41.0854C16.2477 41.0277 16.2576 40.9684 16.2678 40.911C15.807 40.9906 15.3383 41.0136 14.8719 40.9792C15.1942 40.4821 15.516 39.9814 15.8382 39.4843C15.8456 39.4748 15.8524 39.465 15.8587 39.4548C16.0219 39.2005 16.1871 38.9479 16.3503 38.6937L16.3504 38.6934C16.2826 37.9759 16.1227 37.2701 15.8748 36.5935L15.8747 36.5934Z" fill="#F2F2F2"/>
<path d="M85.1194 34.7345C85.3675 34.8028 85.5976 34.9247 85.7935 35.0916C85.9894 35.2586 86.1464 35.4664 86.2533 35.7006C86.3603 35.9348 86.4146 36.1896 86.4125 36.4471C86.4104 36.7046 86.3519 36.9585 86.2411 37.1909L88.9307 40.1834L87.5122 42.2626L83.7733 37.9833C83.3955 37.7712 83.1086 37.4278 82.9669 37.0181C82.8252 36.6084 82.8385 36.161 83.0045 35.7605C83.1704 35.3601 83.4773 35.0344 83.8671 34.8453C84.2569 34.6562 84.7025 34.6168 85.1194 34.7345Z" fill="#A0616A"/>
<path d="M110.299 42.0826C110.056 41.6876 109.738 41.3445 109.363 41.0728C108.988 40.8011 108.563 40.6062 108.112 40.4993C107.661 40.3924 107.194 40.3757 106.737 40.4499C106.279 40.5242 105.841 40.6881 105.448 40.9321L96.6023 46.4146L87.0608 38.2979L84.6869 40.5098L95.2275 54.196L108.927 47.0487C108.607 47.2155 110.685 42.7118 110.299 42.0826Z" fill="#CCCCCC"/>
<path d="M92.7759 60.3122C92.7768 64.6841 91.917 69.0133 90.2456 73.0525C88.5742 77.0918 86.124 80.762 83.035 83.8534C79.946 86.9447 76.2786 89.3968 72.2424 91.0694C68.2062 92.7421 63.8803 93.6025 59.5117 93.6017C41.1407 93.6017 26.2476 78.6972 26.2476 60.3122C26.2444 56.736 26.8172 53.1827 27.9441 49.789C30.1563 43.1611 34.3946 37.3969 40.0594 33.3114C45.7243 29.226 52.5292 27.026 59.5117 27.0227C65.5338 27.0206 71.4433 28.6551 76.6096 31.7518C81.7759 34.8484 86.0049 39.2909 88.8452 44.6051C89.5494 45.9162 90.1638 47.2737 90.684 48.6683C90.756 48.8624 90.8263 49.0566 90.8946 49.2527V49.2545C91.1996 50.1163 91.4681 50.9942 91.7004 51.8881C92.4168 54.6387 92.7782 57.4697 92.7759 60.3122Z" fill="#3F3D56"/>
<path d="M55.8723 37.8521C54.3774 37.0431 52.7176 36.5864 51.0196 36.5169C49.3216 36.4474 47.6301 36.7668 46.0742 37.4509C44.7042 38.0476 43.2617 39.1179 42.8047 41.0508C44.653 39.9591 47.0457 41.6839 47.5213 44.4509L47.4103 44.4815C47.1591 46.398 47.7199 48.4846 48.8056 49.673C48.9481 48.4386 49.7591 47.5985 50.5568 47.0737C51.3546 46.5489 52.237 46.1677 52.8459 45.2656C53.5677 44.1962 53.751 42.6333 54.0378 41.2076C54.3245 39.7818 54.8685 38.2494 55.8723 37.8521Z" fill="white"/>
<path d="M45.5259 54.1611C45.014 54.9304 44.3303 55.4131 43.7167 56.0142C43.105 56.6171 42.5229 57.4308 42.4009 58.4757C42.3233 59.1452 42.4434 59.8258 42.4268 60.5027C42.4102 61.1796 42.1847 61.9415 41.7246 62.1098C40.9983 62.3725 40.4439 61.0224 39.6973 60.9281C39.1041 60.8541 38.57 61.7881 38.7419 62.5981C38.9137 63.4081 39.7213 63.7669 40.1852 63.238C40.6047 63.9426 40.309 65.2206 39.6788 65.4369C39.6123 65.8808 39.5458 66.3228 39.4811 66.7667C37.8881 65.6515 36.2785 64.5178 34.9239 62.8847C33.4174 61.0839 32.4829 58.8736 32.2406 56.5376C32.065 54.6604 32.3256 52.5132 31.4644 51.0689C30.7751 49.913 29.5924 49.6577 28.5279 49.7299C28.3339 49.7428 28.138 49.765 27.944 49.7891C28.5717 47.9022 29.369 46.0761 30.326 44.3333C30.5426 44.2402 30.7439 44.1149 30.9229 43.9615C31.9135 43.1201 32.3533 41.4167 33.1572 40.2387C33.2089 40.1628 33.2625 40.0889 33.318 40.0167C34.1403 38.9422 35.2418 38.3892 36.3062 37.8751C38.6624 36.7303 41.087 35.5707 43.5744 35.7298L42.8666 35.7982C42.0406 38.1137 41.2139 40.4292 40.3866 42.7446C40.2609 43.0997 40.134 43.4554 40.0059 43.8117C39.5365 45.1285 39.0524 46.5304 39.1244 48.0044C39.1669 48.8773 39.47 49.8094 40.0466 50.109C40.5843 50.3864 41.172 50.0461 41.6913 49.7095C41.9112 49.569 42.1293 49.4284 42.3492 49.286C43.1383 48.7774 44.0124 48.2559 44.8459 48.5962C45.6091 48.9069 46.1727 49.9444 46.2799 51.0633C46.3782 52.1509 46.113 53.2405 45.5259 54.1611Z" fill="white"/>
<path d="M50.2192 69.9692C47.9146 68.5491 45.6099 67.1291 43.3053 65.709L43.3444 65.6082C41.9115 66.1543 41.3165 68.7034 41.5534 70.7879C41.7902 72.8725 42.5931 74.736 42.9988 76.7671C43.5458 79.5467 43.3393 82.4221 42.4009 85.0949C45.4314 81.6919 48.1133 77.9935 50.4065 74.0551C50.7268 73.5587 50.9709 73.017 51.1306 72.4481C51.2771 71.8429 51.2545 71.1153 50.9613 70.6299C50.7727 70.3514 50.5176 70.1243 50.2192 69.9692Z" fill="white"/>
<path d="M41.1234 44.1338C40.8787 44.6844 40.7845 45.4187 41.0066 45.9884C41.2334 46.5703 41.7129 46.8333 42.1543 47.0522L43.4277 47.6839C43.8514 47.8941 44.308 48.1063 44.7399 47.9334C45.2608 47.7249 45.6219 46.9076 45.5285 46.1489C45.4291 45.3416 44.9205 44.7862 44.4502 44.3133C43.7921 43.6515 43.1339 42.9897 42.4758 42.3279L42.1049 42.7825C41.7037 43.1741 41.3718 43.631 41.1234 44.1338Z" fill="white"/>
<path d="M85.9492 52.7646C86.5221 52.8996 87.095 53.0346 87.6679 53.1696C87.5681 55.106 86.609 56.8981 85.3228 57.5472C84.7868 57.8172 84.1899 57.9171 83.7464 58.422C83.3454 58.8806 83.1421 59.5945 82.9555 60.2769C82.6284 61.468 82.3013 62.659 81.9742 63.85C81.6231 65.1335 81.1722 66.5594 80.2592 67.0218C79.4757 67.4194 78.5794 66.933 77.9769 66.1174C77.3745 65.3018 77.0067 64.2051 76.6501 63.1361C76.6722 64.3013 76.1308 65.4442 75.3639 65.8492C74.5951 66.2542 73.66 65.888 73.1462 64.9837C72.7766 64.3346 72.6233 63.4783 72.261 62.8199C71.8988 62.1615 71.1393 61.7842 70.7438 62.4019C70.4833 62.8125 70.5165 63.4413 70.3871 63.9628C70.1857 64.7728 69.5759 65.2814 68.9716 65.3258C68.3691 65.3702 67.7815 65.0225 67.277 64.5509C66.2365 63.5744 65.4696 62.0246 65.1721 60.3028C65.0409 59.5353 65.0039 58.6994 65.2312 57.9799C65.4585 57.2606 66.0074 56.7057 66.5525 56.8426C66.9111 56.0843 66.2033 55.0782 65.5657 55.167C64.9263 55.2558 64.4255 55.9419 63.9006 56.469C63.3777 56.9961 62.6459 57.3789 62.1192 56.8555C62.1229 57.3419 61.7274 57.6637 61.3855 57.623C61.0455 57.5842 60.7424 57.3105 60.4301 57.1163C59.2234 56.3636 57.6913 56.8629 56.8339 58.287C57.3698 56.0048 58.1552 53.386 59.8018 52.8497C60.4745 52.6296 61.2081 52.8108 61.8438 52.4298C62.9693 51.7548 63.1966 49.2045 62.2245 48.1522C62.3483 49.1471 62.3243 50.3086 61.7995 50.9892C61.2746 51.6698 60.1732 51.2259 60.2398 50.2198C60.0882 50.9133 59.3342 51.0188 58.9868 50.4861C58.6375 49.9535 58.6671 49.0824 58.9147 48.4462C59.1623 47.81 59.5837 47.3532 59.9921 46.9149C60.8699 45.9735 61.7607 45.0211 62.7771 44.4293C63.7953 43.8375 64.9707 43.6377 65.9907 44.2259C66.5285 44.5365 67.0016 45.0544 67.5505 45.3281C68.0993 45.6036 68.796 45.5685 69.1601 44.9249C69.5685 44.2073 69.3763 43.1421 69.5278 42.2451C69.7995 40.6602 71.3832 39.9186 72.261 40.9653C71.605 40.797 70.9268 41.5738 70.8454 42.5151C70.7623 43.4565 71.2373 44.4071 71.873 44.6919C72.9411 45.1653 73.9871 43.9743 74.7947 42.8721C75.6374 41.718 76.4813 40.5646 77.3264 39.4118C77.4614 39.2155 77.6129 39.0312 77.7792 38.8607C78.0439 38.6025 78.3968 38.4546 78.7663 38.4471C79.1359 38.4395 79.4945 38.5728 79.7695 38.82C80.6233 39.5172 81.0243 40.9468 81.7247 41.9307C82.7411 43.3603 84.262 43.708 85.6776 43.9854C86.7328 44.1907 87.7886 44.3972 88.8451 44.605C89.5493 45.9161 90.1636 47.2736 90.6839 48.6682C88.895 49.4283 87.2447 50.8505 85.9492 52.7646Z" fill="white"/>
<path d="M89.3607 75.0169C88.569 76.6258 87.6481 78.1677 86.6072 79.6275C85.9419 79.3427 85.2267 79.8513 84.604 80.3284C83.9535 80.8278 83.1718 81.3142 82.5046 80.8592C81.8227 80.3932 81.6028 79.0893 81.819 78.0555C82.0352 77.0235 82.5748 76.2024 83.0978 75.4219C83.6522 74.5934 84.2454 73.7334 85.0161 73.4116C85.7885 73.0898 86.7809 73.5448 87.0064 74.6433L87.5534 74.6248C87.2466 74.2032 87.4074 73.3302 87.8195 73.1767C88.2944 72.9973 88.7066 73.6502 88.9874 74.2272C89.1131 74.488 89.2406 74.7506 89.3607 75.0169Z" fill="white"/>
<path d="M68.4106 67.2051C67.2348 67.2791 66.3035 65.8306 65.6846 64.4056C65.0657 62.9806 64.501 61.3509 63.4401 60.6256C62.834 60.2111 62.1429 60.1543 61.4853 59.9534C60.8278 59.7526 60.1396 59.337 59.8253 58.4907L59.0795 58.1892C58.0945 58.7435 57.0965 59.3079 56.2477 60.2099C55.2958 61.2218 54.7029 62.519 54.5604 63.9015C54.4179 65.3955 54.944 67.0615 55.9271 67.6227C56.7038 68.0662 57.6082 67.7866 58.395 68.1926C59.3781 68.6998 59.9617 70.1733 60.1826 71.6281C60.4035 73.083 60.3476 74.5949 60.5056 76.0662C60.6637 77.5376 61.0993 79.0686 62.0008 79.8226C63.129 80.7661 64.7844 79.9821 65.2905 78.2645C65.5388 77.422 65.5302 76.4713 65.7159 75.5968C66.0429 74.0566 66.9254 72.914 67.6252 71.6506C68.3251 70.3872 68.8761 68.6713 68.4106 67.2051Z" fill="white"/>
<path d="M56.7924 52.0712C56.9021 52.1722 57.0044 52.2809 57.0986 52.3964C57.1961 52.5647 57.2459 52.7564 57.2426 52.9508C57.2393 53.1453 57.183 53.3352 57.0798 53.5C57.2214 53.4919 57.3598 53.4546 57.4863 53.3902C57.6127 53.3259 57.7245 53.2361 57.8145 53.1263C58.0291 52.8817 58.2179 52.6156 58.3778 52.3322C58.4977 52.1365 58.6253 51.8719 58.5439 51.6395C58.4884 51.4809 58.357 51.4132 58.2649 51.2939C58.119 51.1048 58.0828 50.8044 58.0073 50.5449C57.8441 49.9843 57.4533 49.5721 57.029 49.5132L57.088 49.5245C56.9107 49.5852 56.787 49.8669 56.8262 50.1203C56.8619 50.3511 57.01 50.5427 56.9953 50.778C56.9741 51.1165 56.6361 51.2753 56.6152 51.6139C56.6119 51.7837 56.6756 51.9479 56.7924 52.0712Z" fill="white"/>
<path d="M54.7778 46.3194C54.7796 46.3189 54.7813 46.3188 54.7831 46.3184C54.8193 46.2854 54.8528 46.2496 54.8834 46.2114L54.7778 46.3194Z" fill="#E6E6E6"/>
<path d="M55.1305 47.9081C55.3905 47.7408 55.5357 47.2782 55.4497 46.8909C55.3643 46.5061 55.062 46.2473 54.7832 46.3184C54.7023 46.4005 54.6019 46.4606 54.4914 46.4932C54.3809 46.5257 54.2639 46.5296 54.1515 46.5045C53.9791 46.4601 53.7898 46.3457 53.6403 46.4757C53.5548 46.5728 53.4949 46.6897 53.4662 46.8159C53.4109 46.9859 53.3555 47.1559 53.3002 47.3259C53.2739 47.3868 53.2671 47.4543 53.2806 47.5192C53.2912 47.5452 53.3083 47.5681 53.3302 47.5855C53.3522 47.603 53.3783 47.6146 53.406 47.619C53.7381 47.717 54.0701 47.815 54.4021 47.9129C54.6441 47.9843 54.9054 48.0531 55.1305 47.9081Z" fill="white"/>
<path d="M80.1972 69.842C80.0437 69.5905 79.8902 69.339 79.7367 69.0875C79.5859 68.7963 79.3798 68.5373 79.1299 68.3251C79.075 68.279 79.0114 68.2444 78.9429 68.2233C78.8744 68.2022 78.8024 68.195 78.7311 68.2021C78.6598 68.2093 78.5906 68.2306 78.5276 68.2649C78.4647 68.2992 78.4092 68.3458 78.3645 68.4018L78.3832 68.5454C78.733 68.9847 79.1032 69.4727 79.1919 70.1246C79.2269 70.3816 79.2147 70.6476 79.2454 70.9057C79.2761 71.1638 79.3633 71.4315 79.5298 71.5428C79.7715 71.7044 80.0553 71.4662 80.2273 71.1755C80.3811 70.9367 80.45 70.6531 80.4231 70.3703C80.3848 70.1805 80.3079 70.0007 80.1972 69.842Z" fill="white"/>
<path d="M87.028 60.2376C87.0724 59.9463 87.1168 59.655 87.1612 59.3637C87.2333 59.0437 87.2422 58.7128 87.1876 58.3893C87.1752 58.3187 87.1488 58.2512 87.11 58.191C87.0712 58.1307 87.0207 58.0788 86.9616 58.0383C86.9024 57.9978 86.8358 57.9695 86.7655 57.9552C86.6953 57.9409 86.6229 57.9407 86.5527 57.9548L86.4745 58.0767C86.4595 58.6382 86.4287 59.2501 86.0771 59.8061C85.9385 60.0252 85.758 60.2209 85.6154 60.4381C85.4728 60.6554 85.3673 60.9164 85.423 61.1088C85.5039 61.3882 85.8743 61.3888 86.193 61.2773C86.4643 61.1937 86.6996 61.0212 86.8609 60.7875C86.9537 60.6176 87.0106 60.4304 87.028 60.2376Z" fill="#E6E6E6"/>
<path d="M82.6049 70.1693C82.6799 69.9534 82.5716 69.7058 82.5487 69.4672C82.5377 69.159 82.6194 68.8546 82.7831 68.5933C82.9457 68.3469 83.0689 68.0766 83.1483 67.7921C83.1817 67.6625 83.1756 67.5258 83.1308 67.3997C83.08 67.2855 82.9569 67.2334 82.8863 67.3239L83.0374 67.4212C82.8334 67.3848 82.6239 67.395 82.4244 67.4509C82.3105 67.4945 82.2089 67.5649 82.128 67.6562C82.0472 67.7474 81.9894 67.8568 81.9598 67.9751C81.9348 68.1595 81.8941 68.3414 81.8379 68.5189C81.7478 68.7042 81.5734 68.7659 81.4638 68.9285C81.389 69.0728 81.3513 69.2333 81.354 69.3958C81.3567 69.5582 81.3997 69.7174 81.4792 69.8591C81.6169 70.0908 81.8357 70.263 82.0931 70.3423C82.2776 70.4085 82.5205 70.412 82.6049 70.1693Z" fill="white"/>
<path d="M86.8929 71.4639C86.9596 71.6375 87.0489 71.8016 87.1586 71.9519C87.3638 72.1588 87.6428 72.0316 87.8919 71.9813C88.1178 71.9456 88.3493 71.9718 88.5616 72.057C88.774 72.1422 88.9593 72.2834 89.098 72.4655C89.0014 71.9835 88.7906 71.5317 88.4834 71.1481C88.1761 70.7645 87.7814 70.4603 87.3323 70.261C86.7453 70.0215 86.127 69.9983 85.5165 69.9768L85.411 70.0039C85.6797 70.7867 86.5235 70.7691 86.8929 71.4639Z" fill="white"/>
<path d="M68.7323 73.0645L68.7338 73.0678C68.744 73.0483 68.7542 73.0288 68.7643 73.0093L68.7323 73.0645Z" fill="#E6E6E6"/>
<path d="M68.0818 74.325C67.9399 74.5827 67.8179 74.8509 67.7169 75.1272C67.583 75.5748 67.4944 76.0347 67.4524 76.5C67.4193 76.7645 67.4092 77.1024 67.5748 77.2313C67.6223 77.2629 67.6797 77.2761 67.7363 77.2684C67.7929 77.2607 67.8447 77.2327 67.8821 77.1896C67.9741 77.0921 68.0494 76.9801 68.1049 76.8581C68.4304 76.2971 68.6832 75.6968 68.857 75.0717C69.0155 74.4134 69.014 73.6383 68.7338 73.0684C68.5165 73.4872 68.2992 73.9061 68.0818 74.325Z" fill="white"/>
<path d="M61.8067 40.7551C61.9101 40.8562 62.0407 40.9248 62.1825 40.9525C62.3243 40.9802 62.4711 40.9657 62.6049 40.911C62.8818 40.7898 63.1358 40.6219 63.3558 40.4146C63.538 40.2796 63.6926 40.1109 63.811 39.9176C63.8763 39.802 63.9181 39.6747 63.9341 39.543C63.9501 39.4112 63.9399 39.2776 63.9042 39.1497C63.8013 38.8487 63.5404 38.7478 63.3102 38.6795C62.9416 38.5701 62.5731 38.4608 62.2045 38.3514L62.4711 38.1109C62.1968 37.9636 61.8933 38.237 61.7219 38.5755C61.6119 38.7966 61.5353 39.0327 61.4945 39.2762C61.4027 39.8075 61.4924 40.4402 61.8067 40.7551Z" fill="#E6E6E6"/>
<path d="M68.3134 38.5691C68.4173 38.6837 68.5608 38.7544 68.715 38.767C68.8691 38.7795 69.0222 38.7329 69.1432 38.6366C69.2474 38.5583 69.3339 38.4589 69.3971 38.345C69.4603 38.231 69.4989 38.1049 69.5102 37.9751C69.5363 37.6849 69.393 37.3625 69.1882 37.3374L69.2351 37.0658C68.8407 36.9945 68.3554 36.9802 68.1441 37.4595C68.0728 37.6431 68.0509 37.8422 68.0806 38.0369C68.1103 38.2316 68.1906 38.4151 68.3134 38.5691Z" fill="#E6E6E6"/>
<path opacity="0.2" d="M68.2124 29.921C68.5345 30.1147 68.8152 30.3699 69.0387 30.6722C69.2622 30.9744 69.424 31.3178 69.5149 31.6826C69.6058 32.0474 69.624 32.4266 69.5684 32.7985C69.5129 33.1703 69.3847 33.5276 69.1912 33.8499C68.9977 34.1722 68.7426 34.4532 68.4406 34.6768C68.1386 34.9005 67.7955 35.0624 67.4309 35.1533C66.6947 35.337 65.9157 35.2205 65.2653 34.8294C65.9284 34.977 66.6224 34.8836 67.223 34.566C67.8237 34.2483 68.2917 33.7271 68.5435 33.0957C68.7952 32.4642 68.8141 31.7637 68.5969 31.1195C68.3797 30.4753 67.9405 29.9295 67.3579 29.5798C67.6593 29.6467 67.9478 29.7619 68.2124 29.921Z" fill="#231F20"/>
<path d="M39.4322 43.3399C40.6189 43.3399 41.5808 42.3773 41.5808 41.1897C41.5808 40.0022 40.6189 39.0396 39.4322 39.0396C38.2456 39.0396 37.2837 40.0022 37.2837 41.1897C37.2837 42.3773 38.2456 43.3399 39.4322 43.3399Z" fill="white"/>
<path d="M107.9 113.188H105.541L104.418 104.082L107.9 104.082L107.9 113.188Z" fill="#A0616A"/>
<path d="M109.169 117.671H107.495L107.196 116.089L106.431 117.671H101.991C101.778 117.671 101.571 117.602 101.4 117.476C101.228 117.35 101.102 117.172 101.038 116.969C100.975 116.766 100.978 116.547 101.048 116.346C101.117 116.145 101.249 115.971 101.424 115.85L104.97 113.399V111.801L108.699 112.023L109.169 117.671Z" fill="#2F2E41"/>
<path d="M98.7626 113.188H96.4037L95.2814 104.082L98.7632 104.082L98.7626 113.188Z" fill="#A0616A"/>
<path d="M100.032 117.671H98.3577L98.0589 116.089L97.2937 117.671H92.854C92.6412 117.671 92.434 117.602 92.2625 117.476C92.0911 117.35 91.9645 117.172 91.9012 116.969C91.8378 116.766 91.8411 116.547 91.9105 116.346C91.9799 116.145 92.1118 115.971 92.2869 115.85L95.8323 113.399V111.801L99.5614 112.023L100.032 117.671Z" fill="#2F2E41"/>
<path d="M89.8004 89.1458C90.2518 89.8235 95.163 108.453 95.163 108.453L99.5177 108.95L99.0008 104.263L98.2107 95.9678L96.9873 90.4312C96.9873 90.4312 101.308 80.5913 101.581 79.8075L101.775 79.245L103.125 91.5042C103.285 91.9418 103.355 92.4075 103.33 92.8731C103.289 93.6388 104.057 105.159 104.057 105.159L104.426 109.291L108.157 109.81L109.671 102.661C110.935 100.339 110.21 92.0869 109.693 91.3189C109.176 90.5508 109.382 85.2017 109.382 85.2017C110.042 84.9693 113.978 71.5372 112.009 71.6166C112.135 70.9005 112.235 70.2612 112.235 70.2612L108.817 67.5031L100.265 65.2781L98.1071 64.2412C98.1071 64.2412 94.2533 71.3726 94.2917 71.7273C94.3448 72.1765 94.242 72.6303 94.0005 73.0126L90.1096 86.0443C90.1096 86.0443 89.3444 88.4614 89.8004 89.1458Z" fill="#2F2E41"/>
<path d="M111.287 42.5133L109.927 39.6223L105.296 39.8004L103.785 42.808C103.785 42.808 99.4687 47.9679 99.329 49.6457C99.1532 51.7558 100.614 62.0979 99.1532 61.4275C99.1532 61.4275 95.7102 65.472 97.7475 65.472C99.7849 65.472 109.001 71.2616 109.605 71.9127C110.21 72.5638 112.91 72.986 112.683 71.6267C112.457 70.2674 111.287 62.9163 111.287 62.9163L114.454 51.3572C115.365 48.8616 115.648 46.0624 113.588 44.386L111.287 42.5133Z" fill="#CCCCCC"/>
<path d="M86.5829 49.4562C86.8349 49.4042 87.0952 49.4081 87.3456 49.4677C87.5959 49.5273 87.8301 49.6411 88.0317 49.8011C88.2333 49.9611 88.3974 50.1633 88.5125 50.3937C88.6275 50.624 88.6907 50.8767 88.6976 51.1341L92.4523 52.5765L92.133 55.0737L86.8592 52.9623C86.4263 52.9452 86.0148 52.7698 85.7025 52.4693C85.3902 52.1689 85.1989 51.7642 85.1649 51.332C85.1309 50.8999 85.2564 50.4702 85.5178 50.1245C85.7791 49.7787 86.1581 49.541 86.5829 49.4562Z" fill="#A0616A"/>
<path d="M112.818 44.3101C112.423 44.0685 111.984 43.9075 111.526 43.8361C111.068 43.7648 110.601 43.7846 110.151 43.8944C109.701 44.0041 109.277 44.2017 108.904 44.4758C108.53 44.7499 108.214 45.0951 107.974 45.4916L102.585 54.3982L90.3999 51.5076L89.2898 54.5576L104.894 61.9548L112.797 49.3575C113.981 47.6935 114.56 45.3743 112.818 44.3101Z" fill="#CCCCCC"/>
<path d="M113.019 33.3947C113.02 34.2531 112.809 35.0985 112.407 35.8566C112.005 36.6148 111.422 37.2625 110.712 37.7428C110.001 38.2232 109.183 38.5217 108.33 38.6119C107.477 38.7021 106.615 38.5814 105.819 38.2604C105.024 37.9393 104.319 37.4278 103.767 36.7706C103.215 36.1134 102.833 35.3307 102.654 34.4911C102.475 33.6516 102.505 32.7809 102.74 31.9555C102.976 31.1302 103.411 30.3753 104.006 29.7572L104.031 29.7321C104.073 29.688 104.115 29.644 104.159 29.602C104.159 29.602 104.16 29.602 104.16 29.6019C104.16 29.6018 104.16 29.6016 104.161 29.6014C104.161 29.6012 104.161 29.601 104.161 29.6007C104.161 29.6005 104.161 29.6002 104.161 29.5999C104.216 29.5496 104.27 29.4992 104.327 29.451C105.084 28.7866 106.016 28.3547 107.013 28.207C108.009 28.0593 109.026 28.2021 109.944 28.6182C110.861 29.0343 111.639 29.7061 112.184 30.5533C112.73 31.4004 113.02 32.3869 113.019 33.3947Z" fill="#2F2E41"/>
<path d="M106.488 39.0058C108.915 39.0058 110.882 37.037 110.882 34.6083C110.882 32.1796 108.915 30.2107 106.488 30.2107C104.061 30.2107 102.094 32.1796 102.094 34.6083C102.094 37.037 104.061 39.0058 106.488 39.0058Z" fill="#9E616A"/>
<path d="M111.154 35.8623L110.426 35.7336C110.019 35.6596 109.645 35.463 109.353 35.1702C109.06 34.8774 108.865 34.5023 108.791 34.0951L108.081 35.2867L108.05 35.297C106.357 35.8594 104.596 35.6912 102.667 34.7834C102.115 34.5216 101.58 34.2264 101.065 33.8994L101.027 33.8756L101.024 33.8308C100.925 32.4003 101.246 31.2051 101.927 30.4656C102.188 30.1874 102.506 29.9675 102.858 29.8206C103.21 29.6736 103.59 29.6028 103.971 29.6128C103.998 29.6057 104.023 29.5919 104.044 29.5727C104.054 29.5655 104.063 29.5584 104.073 29.5516V29.5442L104.124 29.5204C104.232 29.4694 104.343 29.4206 104.453 29.3759C105.323 29.0391 106.269 28.9546 107.185 29.1321C108.1 29.3097 108.947 29.7421 109.628 30.3796C110.981 31.6728 111.602 33.843 111.172 35.7801L111.154 35.8623Z" fill="#2F2E41"/>
<path d="M120.423 39.6091C118.927 38.8367 120.85 36.0333 120.464 34.3942C120.077 32.7552 117.295 32.228 117.117 30.5533C116.94 28.8786 116.523 27.1514 115.419 25.8806C114.713 25.0686 113.673 24.4691 112.603 24.5708C112.241 24.6052 111.89 24.7174 111.575 24.8996C111.26 25.0818 110.988 25.3298 110.778 25.6267C110.567 25.9236 110.423 26.2625 110.355 26.6202C110.287 26.9779 110.297 27.346 110.384 27.6995C110.079 27.2673 109.29 27.361 109.095 27.8526C108.922 28.2896 109.305 28.819 109.756 28.8577C110.347 29.5875 111.023 30.3619 111.948 30.5092C112.095 30.543 112.249 30.5429 112.396 30.5089C112.543 30.4749 112.681 30.4078 112.799 30.3127C113.016 30.1035 113.033 29.6854 112.775 29.529C113.938 29.9912 114.619 31.2491 114.792 32.489C114.964 33.7289 114.725 34.9835 114.568 36.2254C114.411 37.4674 114.343 38.7738 114.83 39.9271C115.405 41.2897 116.728 42.2663 118.173 42.5795C119.617 42.8927 121.156 42.5866 122.463 41.897C123.771 41.2073 124.861 40.1544 125.752 38.9741C124.217 40.0644 122.095 40.4728 120.423 39.6091Z" fill="#2F2E41"/>
<path d="M110.967 35.74C110.967 35.74 109.665 30.8775 104.086 29.7552C104.079 29.7531 104.058 29.7447 104.031 29.7321C104.014 29.7216 103.993 29.7111 103.972 29.7006C104.035 29.665 104.096 29.6335 104.159 29.602L104.16 29.6019L104.16 29.6014L104.161 29.6007L104.161 29.5999C104.216 29.5496 104.27 29.4992 104.327 29.451L104.486 29.4573C104.486 29.4573 110.085 28.57 110.967 35.74Z" fill="#FD6584"/>
<path opacity="0.2" d="M108.053 51.3425L104.901 54.9965L99.6941 53.4576L105.371 56.0757L108.053 51.3425Z" fill="black"/>
<path d="M126.969 117.946L78.5155 118C78.4601 118 78.4071 117.978 78.368 117.938C78.3288 117.899 78.3069 117.846 78.3069 117.791C78.3069 117.735 78.3288 117.682 78.368 117.643C78.4071 117.603 78.4601 117.581 78.5155 117.581L126.969 117.527C127.024 117.527 127.077 117.549 127.117 117.588C127.156 117.628 127.178 117.681 127.178 117.736C127.178 117.792 127.156 117.845 127.117 117.885C127.077 117.924 127.024 117.946 126.969 117.946Z" fill="#CACACA"/>
<path d="M129.096 85.407C126.827 85.407 124.34 85.3212 121.635 85.1496C107.646 84.2606 89.5256 81.1697 70.612 76.4465C51.6985 71.7233 34.2514 65.9318 21.4848 60.1393C15.2658 57.3175 10.4928 54.6465 7.29842 52.2002C3.91643 49.6105 2.4371 47.3531 2.90136 45.4911C3.80593 41.8636 11.8155 41.0699 18.3755 41.043L18.3777 41.5705C9.36916 41.6075 4.05457 43.0453 3.41289 45.6189C2.59549 48.8967 9.26183 54.014 21.7025 59.6588C34.441 65.4386 51.856 71.219 70.7397 75.9348C89.6233 80.6504 107.71 83.736 121.669 84.6231C135.3 85.4896 143.588 84.1066 144.405 80.8286C145.084 78.1071 140.61 74.098 131.808 69.5395L132.051 69.071C138.446 72.3833 145.87 77.1339 144.917 80.9564C144.452 82.8184 142.087 84.1155 137.886 84.8115C135.491 85.2082 132.549 85.407 129.096 85.407Z" fill="#0052DD"/>
</g>
<defs>
<clipPath id="clip0_2652_43859">
<rect width="145" height="104" fill="white" transform="translate(0 14)"/>
</clipPath>
</defs>
</svg>
