<svg width="360" height="274" viewBox="0 0 360 274" fill="none" xmlns="http://www.w3.org/2000/svg">
<rect width="360" height="274" rx="12" fill="white"/>
<g clip-path="url(#clip0_2842_10612)">
<path d="M219.5 139.656C214.226 142.837 204.83 146.822 195.228 142.726L189.021 140.079L201.459 126.057C191.534 115.052 186.043 100.722 186.058 85.8648C186.073 71.0074 191.593 56.6889 201.541 45.7041C211.489 34.7192 225.151 27.8565 239.859 26.4554C254.568 25.0543 269.268 29.2155 281.09 38.1266C292.912 47.0378 301.008 60.0593 303.797 74.6496C306.585 89.2399 303.868 104.352 296.173 117.035C288.479 129.719 276.361 139.064 262.184 143.247C248.007 147.429 232.789 146.149 219.5 139.656ZM195.668 85.8313C195.641 92.6803 197.023 99.4608 199.728 105.747C202.433 112.032 206.402 117.687 211.386 122.355L214.816 125.598L206.99 134.42C211.066 133.589 214.617 131.371 216.418 130.083L218.888 128.315L221.545 129.783C228.89 133.827 237.129 135.946 245.503 135.945C272.981 135.945 295.337 113.464 295.337 85.8313C295.337 58.1985 272.981 35.7174 245.503 35.7174C218.024 35.7174 195.668 58.1984 195.668 85.8313Z" fill="#3F3D56"/>
<path d="M190.836 85.8314C190.836 55.4708 215.311 30.8587 245.502 30.8587C275.694 30.8587 300.168 55.4708 300.168 85.8314C300.168 116.192 275.694 140.804 245.502 140.804C236.314 140.818 227.272 138.491 219.219 134.042C215.44 136.745 206.221 142.138 197.114 138.254L208.077 125.896C202.627 120.762 198.285 114.556 195.319 107.664C192.354 100.772 190.828 93.3409 190.836 85.8314Z" fill="#0052DD"/>
<path opacity="0.1" d="M290.856 85.9505C290.856 57.2276 268.949 33.654 241.021 31.194C242.614 31.0537 244.225 30.9778 245.853 30.9778C276.044 30.9778 300.519 55.5899 300.519 85.9505C300.519 116.311 276.044 140.923 245.853 140.923C244.227 140.923 242.619 140.846 241.029 140.706C268.953 138.243 290.856 114.671 290.856 85.9505Z" fill="black"/>
<path d="M119.531 216.025C105.872 216.031 92.6251 211.316 82.0114 202.67C71.3977 194.024 64.0618 181.972 61.2331 168.533C58.4044 155.095 60.2548 141.088 66.4742 128.858C72.6936 116.629 82.9041 106.92 95.3944 101.361C107.885 95.8007 121.896 94.727 135.08 98.3194C148.264 101.912 159.819 109.952 167.81 121.092C175.8 132.233 179.74 145.797 178.969 159.511C178.198 173.225 172.763 186.256 163.574 196.419L176.013 210.441L169.806 213.088C160.204 217.184 150.807 213.199 145.534 210.018C137.428 213.969 128.538 216.023 119.531 216.025ZM119.531 106.079C92.0522 106.079 69.6965 128.561 69.6965 156.193C69.6965 183.826 92.0522 206.307 119.531 206.307C127.904 206.308 136.143 204.189 143.488 200.145L146.145 198.677L148.616 200.445C150.416 201.733 153.967 203.951 158.044 204.783L150.217 195.96L153.648 192.717C158.632 188.049 162.601 182.394 165.306 176.109C168.01 169.823 169.393 163.042 169.365 156.193C169.365 128.561 147.01 106.079 119.531 106.079Z" fill="#3F3D56"/>
<path d="M174.197 156.193C174.197 125.833 149.722 101.221 119.531 101.221C89.3395 101.221 64.8647 125.833 64.8647 156.193C64.8647 186.554 89.3395 211.166 119.531 211.166C128.719 211.18 137.761 208.853 145.815 204.404C149.593 207.107 158.812 212.5 167.919 208.616L156.957 196.258C162.406 191.124 166.748 184.918 169.714 178.026C172.679 171.134 174.205 163.703 174.197 156.193Z" fill="#0052DD"/>
<path opacity="0.1" d="M74.5279 155.916C74.5279 127.193 96.4347 103.619 124.362 101.159C122.77 101.019 121.159 100.943 119.531 100.943C89.3395 100.943 64.8647 125.555 64.8647 155.916C64.8647 186.276 89.3395 210.888 119.531 210.888C121.157 210.888 122.765 210.812 124.355 210.672C96.4307 208.208 74.5279 184.636 74.5279 155.916Z" fill="black"/>
<path d="M258.336 68.3666C254.759 62.2892 247.683 62.0059 247.683 62.0059C247.683 62.0059 240.787 61.1192 236.364 70.3752C232.241 79.0026 226.551 87.3325 235.448 89.3521L237.055 84.3221L238.05 89.7265C239.317 89.8181 240.588 89.84 241.857 89.7919C251.385 89.4826 260.459 89.8824 260.167 86.4442C259.778 81.8736 261.777 74.2143 258.336 68.3666Z" fill="#2F2E41"/>
<path d="M234.94 121.59C234.835 122.258 234.682 122.918 234.484 123.565C234.26 124.198 233.914 124.783 233.71 125.422C233.057 127.46 233.962 129.733 235.406 131.306C236.658 132.665 238.275 133.63 240.061 134.086C241.376 134.369 242.717 134.511 244.062 134.509C247.78 134.635 251.594 134.749 255.117 133.547C256.23 133.158 257.305 132.667 258.329 132.08C258.652 131.925 258.936 131.7 259.162 131.42C259.398 131.011 259.503 130.538 259.463 130.066C259.455 128.481 259.135 126.904 259.211 125.321C259.253 124.444 259.416 123.568 259.336 122.694C259.225 121.701 258.811 120.766 258.152 120.019C257.492 119.272 256.619 118.747 255.652 118.518C254.653 118.302 253.616 118.42 252.599 118.518C249.957 118.774 247.305 118.893 244.651 118.876C241.94 118.858 239.246 118.442 236.548 118.399C235.751 118.386 235.767 118.633 235.513 119.409C235.279 120.124 235.088 120.852 234.94 121.59Z" fill="#2F2E41"/>
<path d="M242.634 82.4502C242.504 83.1362 242.363 83.8473 241.953 84.411C241.481 85.0596 240.712 85.4302 240.205 86.051C239.441 86.9853 239.397 88.3 239.394 89.5095C239.391 90.6237 239.414 91.8121 240.032 92.737C240.471 93.3115 241.017 93.7954 241.639 94.1622C243.956 95.7325 246.46 97.331 249.254 97.3827C250.411 97.4042 251.653 97.1036 252.414 96.2268C252.743 95.8149 253.002 95.351 253.179 94.854C253.894 93.0832 254.327 91.2105 254.463 89.3045C254.566 88.4084 254.482 87.5007 254.218 86.6386C253.879 85.6871 253.193 84.9041 252.739 84.0019C252.203 82.9291 252.007 81.7168 252.177 80.5284C252.2 80.4448 252.193 80.3558 252.158 80.2767C252.12 80.2344 252.074 80.2013 252.022 80.1801C251.97 80.1588 251.913 80.15 251.857 80.1543L246.318 79.7532C245.802 79.7275 245.288 79.6684 244.78 79.5763C244.481 79.5152 243.692 79.0888 243.408 79.2022C242.88 79.4121 242.742 81.8813 242.634 82.4502Z" fill="#A0616A"/>
<path opacity="0.1" d="M242.634 82.6241C242.504 83.3101 242.363 84.0212 241.953 84.5849C241.481 85.2335 240.712 85.6041 240.205 86.2249C239.441 87.1592 239.397 88.474 239.394 89.6834C239.391 90.7976 239.414 91.986 240.032 92.9109C240.471 93.4854 241.017 93.9693 241.639 94.3361C243.956 95.9064 246.46 97.5049 249.254 97.5567C250.411 97.5781 251.653 97.2775 252.414 96.4007C252.743 95.9888 253.002 95.5249 253.179 95.0279C253.894 93.2571 254.327 91.3844 254.463 89.4784C254.566 88.5824 254.482 87.6746 254.218 86.8125C253.879 85.861 253.193 85.078 252.739 84.1758C252.203 83.103 252.007 81.8907 252.177 80.7023C252.2 80.6187 252.193 80.5297 252.158 80.4506C252.12 80.4083 252.074 80.3752 252.022 80.354C251.97 80.3327 251.913 80.3239 251.857 80.3282L246.318 79.9272C245.802 79.9014 245.288 79.8423 244.78 79.7502C244.481 79.6892 243.692 79.2627 243.408 79.3761C242.88 79.586 242.742 82.0552 242.634 82.6241Z" fill="black"/>
<path d="M247.931 83.1972C252.42 83.1972 256.058 79.5382 256.058 75.0245C256.058 70.5109 252.42 66.8518 247.931 66.8518C243.443 66.8518 239.804 70.5109 239.804 75.0245C239.804 79.5382 243.443 83.1972 247.931 83.1972Z" fill="#A0616A"/>
<path d="M243.774 93.3293C244.175 93.7968 244.659 94.1857 245.201 94.4764C245.766 94.7112 246.373 94.8274 246.984 94.8178C248.449 94.8592 250.037 94.5893 251.057 93.5302C252.37 92.1649 252.327 89.9628 253.357 88.3701C253.44 88.2256 253.553 88.1011 253.689 88.0051C253.861 87.9106 254.056 87.8654 254.253 87.8746C255.553 87.8624 256.686 88.7106 257.709 89.5189C258.19 89.852 258.603 90.275 258.925 90.765C259.127 91.1616 259.266 91.588 259.335 92.0282C259.843 94.5188 260.007 97.0653 260.17 99.6023C260.26 101.004 260.35 102.406 260.343 103.811C260.321 108.437 259.252 112.986 258.189 117.487C258.052 118.067 257.864 118.715 257.34 118.993C257.106 119.099 256.855 119.16 256.599 119.175C253.553 119.534 250.501 119.895 247.435 119.942C246.238 119.961 245.042 119.932 243.847 119.855C243.641 119.852 243.437 119.816 243.242 119.749C242.978 119.621 242.751 119.427 242.583 119.186C240.925 117.084 240.827 114.179 240.838 111.496C240.863 104.936 241.097 98.381 241.537 91.8316C241.573 91.291 241.581 90.6345 241.194 90.2092C241.948 91.3332 242.812 92.3785 243.774 93.3293Z" fill="white"/>
<path d="M242.052 83.8927C241.778 84.3924 239.754 85.6331 239.363 86.0473C237.18 88.361 233.196 88.2742 231.2 90.7524C230.498 91.6243 230.133 92.7199 229.864 93.8091C229.485 95.3495 229.282 97.0295 229.918 98.482C230.53 99.8797 231.818 100.846 232.692 102.094C233.653 103.465 234.084 105.13 234.498 106.754C234.803 107.953 235.112 109.182 234.993 110.414C234.857 111.815 234.183 113.098 233.785 114.448C233.387 115.797 233.318 117.405 234.239 118.465C234.915 119.244 235.975 119.553 236.989 119.727C238.288 119.923 239.597 120.038 240.909 120.07C242.068 120.122 243.346 120.132 244.237 119.385C244.939 118.795 245.245 117.839 245.285 116.919C245.324 115.999 245.134 115.088 245.015 114.175C244.891 113.229 244.844 112.275 244.804 111.322C244.626 107.044 244.601 102.764 244.731 98.4815C244.796 97.5914 244.753 96.6965 244.602 95.817C244.353 94.6713 243.737 93.6474 243.224 92.5947C242.197 90.6121 241.732 88.3838 241.879 86.1533C242.035 83.861 243.029 82.1147 242.052 83.8927Z" fill="white"/>
<path d="M253.465 84.0666C253.883 84.4987 255.304 84.6412 255.836 84.9195C256.336 85.1519 256.858 85.3336 257.394 85.462C259.334 86.0248 261.179 86.8765 262.869 87.9887C263.22 88.1952 263.53 88.4648 263.784 88.784C264.052 89.222 264.224 89.7121 264.291 90.2221C264.551 91.5193 264.813 92.8321 264.754 94.1542C264.692 95.5576 264.272 96.9167 263.855 98.2574L262.296 103.267C261.133 107.006 259.963 110.782 259.636 114.686C259.455 116.85 259.535 119.028 259.875 121.172C259.907 121.277 259.917 121.387 259.903 121.495C259.89 121.603 259.853 121.707 259.797 121.8C259.694 121.903 259.559 121.965 259.415 121.977C258.663 122.095 257.935 121.71 257.254 121.368C255.171 120.326 252.949 119.595 250.656 119.198C251.552 117.896 252.243 116.463 252.705 114.95C252.968 113.989 253.175 113.013 253.325 112.028L254.049 107.812C254.344 106.271 254.552 104.715 254.671 103.15C254.726 102.563 254.692 101.971 254.57 101.394C254.403 100.845 254.182 100.314 253.908 99.81C252.714 97.3111 252.153 94.4595 252.623 91.7275C252.829 90.5319 253.229 89.3347 253.062 88.1329C252.902 86.9775 253.068 86.0795 252.773 84.9361C251.563 80.2411 252.679 83.2537 253.465 84.0666Z" fill="white"/>
<path d="M231.179 94.7033C230.635 95.8398 229.724 96.8079 229.414 98.0304C229.294 98.6017 229.242 99.1856 229.261 99.7693C229.207 100.649 229.293 101.532 229.517 102.384C229.69 102.923 229.971 103.42 230.174 103.949C230.457 104.687 230.583 105.477 230.544 106.267C230.489 107.362 230.119 108.424 230.09 109.52C230.045 111.243 230.837 112.863 231.611 114.401C231.805 113.917 232.103 113.481 232.483 113.124C232.863 112.767 233.315 112.497 233.809 112.335C234.303 112.172 234.827 112.12 235.343 112.182C235.859 112.244 236.355 112.419 236.797 112.694C236.975 112.475 237.059 112.195 237.031 111.914C237.088 109.915 237.144 107.916 237.197 105.917C237.28 102.825 237.36 99.6917 236.653 96.6816C236.334 95.3225 235.837 93.9687 234.926 92.9145C234.446 92.3595 232.818 90.8975 232.031 91.5193C231.676 91.7989 231.759 92.5601 231.703 92.9455C231.618 93.5548 231.442 94.1475 231.179 94.7033Z" fill="white"/>
<path d="M264.913 91.4282C265.132 92.2477 265.226 93.096 265.191 93.9439C265.202 95.672 265.179 97.3999 265.123 99.1276C265.132 100.014 265.019 100.897 264.788 101.752C264.612 102.308 264.341 102.83 264.159 103.384C263.615 105.045 263.912 106.847 263.959 108.595C263.992 109.161 263.944 109.729 263.816 110.281C263.529 111.365 262.757 112.241 262.218 113.223C261.706 114.155 261.398 115.201 260.787 116.071C260.175 116.941 259.117 117.631 258.092 117.364C257.315 117.161 256.763 116.47 256.381 115.76C255.547 114.199 255.262 112.4 255.572 110.656C255.955 108.534 257.195 106.652 257.642 104.542C258.256 101.646 257.323 98.6565 257.35 95.6949C257.338 95.2307 257.4 94.7675 257.536 94.3235C257.77 93.647 258.274 93.1067 258.739 92.5642C259.321 91.8862 259.861 91.1734 260.356 90.4299C260.689 89.9304 261.142 88.6457 261.732 88.5388C263.051 88.3003 264.586 90.404 264.913 91.4282Z" fill="white"/>
<path d="M224.339 120.301C223.61 120.117 222.859 120.037 222.108 120.063C221.318 120.107 220.547 120.319 219.846 120.686C219.145 121.052 218.529 121.565 218.04 122.19C217.551 122.814 217.199 123.536 217.009 124.308C216.819 125.08 216.794 125.883 216.937 126.665C217.119 127.512 217.417 128.33 217.821 129.095C218.413 130.302 219.123 131.507 220.218 132.281C220.878 132.707 221.589 133.047 222.334 133.294L228.104 135.48C228.953 135.801 229.802 136.123 230.659 136.421C234.965 137.918 239.456 138.816 244.004 139.089C245.388 139.219 246.784 139.148 248.148 138.878C248.477 138.835 248.78 138.67 248.996 138.417C249.106 138.224 249.171 138.009 249.186 137.787L249.541 135.288C249.62 134.939 249.61 134.577 249.511 134.234C249.348 133.814 248.94 133.55 248.552 133.325C244.758 131.134 240.329 129.925 237.136 126.918C236.384 126.21 235.755 125.088 234.842 124.607C233.807 124.062 232.587 123.751 231.516 123.248C229.176 122.15 226.875 120.888 224.339 120.301Z" fill="#2F2E41"/>
<path opacity="0.1" d="M230.099 123.671C232.139 124.314 240.749 128.766 242.225 130.32C242.027 130.392 235.315 126.609 235.114 126.549C233.268 126.039 231.46 125.398 229.704 124.631C229.354 124.469 227.431 123.704 227.518 123.26C227.617 122.76 229.737 123.557 230.099 123.671Z" fill="black"/>
<path d="M255.543 140.385C255.659 140.394 255.774 140.36 255.866 140.29C255.907 140.237 255.937 140.177 255.954 140.113C255.972 140.049 255.976 139.982 255.967 139.916L255.958 136.51C254.984 136.044 253.895 135.894 252.826 135.75L247.837 135.08C247.952 135.095 247.057 137.241 247.195 137.527C247.436 138.032 249.284 138.479 249.805 138.717C251.618 139.546 253.501 140.457 255.543 140.385Z" fill="#A0616A"/>
<path d="M239.892 136.499C238.95 136.649 237.899 136.783 237.289 137.52C236.515 138.455 236.844 139.849 237.213 141.007C237.236 141.157 237.288 141.3 237.367 141.429C237.445 141.558 237.549 141.67 237.671 141.757C237.793 141.845 237.932 141.908 238.078 141.941C238.225 141.974 238.377 141.977 238.525 141.95C239.384 142.005 240.298 142.048 241.048 141.624C241.388 141.398 241.716 141.154 242.029 140.892C242.582 140.521 243.191 140.242 243.831 140.063C245.009 139.69 246.221 139.439 247.449 139.313C247.933 139.291 248.412 139.206 248.874 139.061C249.105 138.986 249.316 138.858 249.49 138.688C249.664 138.518 249.797 138.31 249.878 138.081C250.052 137.462 249.694 136.831 249.351 136.288C248.956 135.577 248.443 134.94 247.834 134.402C246.905 133.676 246.445 134.234 245.509 134.698C243.736 135.578 241.843 136.185 239.892 136.499Z" fill="#A0616A"/>
<path d="M237.431 137.352L231.45 135.574C230.733 135.323 229.983 135.177 229.225 135.14C228.845 135.125 228.466 135.191 228.113 135.334C227.761 135.477 227.443 135.695 227.181 135.972C226.717 136.519 226.584 137.267 226.469 137.977L226.221 139.495C226.056 140.26 226.01 141.046 226.083 141.825C226.123 142.215 226.25 142.591 226.456 142.924C226.662 143.257 226.941 143.538 227.271 143.746C228.098 144.2 229.113 143.978 230.036 143.788C231.902 143.405 233.8 143.2 235.704 143.177C236.42 143.168 237.17 143.177 237.803 142.84C238.17 142.621 238.479 142.316 238.701 141.95C238.924 141.584 239.055 141.168 239.082 140.74C239.2 139.443 238.77 137.75 237.431 137.352Z" fill="#2F2E41"/>
<path d="M257.894 135.803C258.669 135.666 259.353 135.223 260.096 134.961C261.142 134.593 262.275 134.593 263.383 134.597C263.79 134.56 264.199 134.642 264.561 134.835C265.049 135.161 265.174 135.815 265.257 136.399L265.758 139.92C265.892 140.577 265.905 141.253 265.799 141.915C265.652 142.567 265.209 143.196 264.566 143.365C263.783 143.569 263.017 143.067 262.278 142.737C260.433 141.912 258.288 142.123 256.363 141.506C256.179 141.469 256.005 141.393 255.853 141.283C255.7 141.174 255.572 141.033 255.478 140.87C255.412 140.674 255.389 140.467 255.409 140.261C255.442 139.129 255.205 137.584 255.544 136.502C255.848 135.529 257.028 135.803 257.894 135.803Z" fill="#2F2E41"/>
<path d="M270.55 118.884C271.745 118.583 272.983 118.498 274.208 118.633C275.186 118.741 276.194 119.015 276.908 119.695C277.777 120.524 278.056 121.805 278.079 123.01C278.118 125.408 277.327 127.745 275.841 129.622C275.479 130.097 275.048 130.514 274.562 130.86C274.038 131.19 273.48 131.46 272.897 131.667L259.976 136.792C256.576 138.141 253.165 139.493 249.619 140.382C249.522 140.429 249.417 140.456 249.309 140.462C249.202 140.467 249.094 140.451 248.993 140.414C248.892 140.377 248.799 140.32 248.72 140.247C248.641 140.173 248.578 140.085 248.533 139.986C247.401 138.36 246.451 136.613 245.701 134.776C245.666 134.733 245.641 134.681 245.629 134.626C245.618 134.571 245.62 134.514 245.635 134.459C245.65 134.405 245.678 134.355 245.716 134.314C245.755 134.273 245.802 134.242 245.855 134.223L254.995 128.942C255.665 128.59 256.29 128.158 256.855 127.653C257.25 127.268 257.574 126.815 257.81 126.316C258 125.918 258.017 124.979 258.259 124.685C258.496 124.397 259.307 124.374 259.681 124.261C260.209 124.098 260.726 123.902 261.229 123.672C263.273 122.753 265.094 121.416 267.054 120.339C268.153 119.707 269.328 119.218 270.55 118.884Z" fill="#2F2E41"/>
<path opacity="0.1" d="M265.368 122.828C263.798 124.014 261.765 125.104 260.209 126.321C259.678 126.736 250.823 131.742 250.698 132.407C252.15 132.653 261.399 126.147 262.722 125.497C264.045 124.848 265.218 123.933 266.381 123.024C266.677 122.792 267.932 122.096 267.082 121.837C266.603 121.691 265.722 122.591 265.368 122.828Z" fill="black"/>
<path d="M254.564 84.1815H240.78C240.22 84.1815 239.683 84.4052 239.287 84.8034C238.891 85.2016 238.669 85.7416 238.669 86.3048V87.0823H238.519V88.8212H238.669V90.0384H238.519V91.0817H238.669V103.912C238.669 104.475 238.891 105.015 239.287 105.413C239.683 105.812 240.22 106.035 240.78 106.035H254.564C255.124 106.035 255.661 105.812 256.057 105.413C256.453 105.015 256.675 104.475 256.675 103.912V86.3047C256.675 85.7416 256.453 85.2015 256.057 84.8034C255.661 84.4052 255.124 84.1815 254.564 84.1815Z" fill="#D0CDE1"/>
<path d="M256.754 67.7809L249.763 64.0983L240.109 65.6048L238.112 74.4763L243.084 74.2837L244.473 71.0246V74.2303L246.767 74.1415L248.099 68.9524L248.931 74.4763L257.087 74.3088L256.754 67.7809Z" fill="#2F2E41"/>
<path d="M233.009 117.735C233.325 118.276 233.774 118.725 234.314 119.04C234.667 119.203 235.053 119.282 235.442 119.272C235.831 119.261 236.212 119.161 236.557 118.98C237.245 118.609 237.808 118.041 238.176 117.348C238.936 115.999 239.093 114.384 238.998 112.837C238.903 111.289 238.575 109.765 238.429 108.222C238.323 107.1 238.315 105.971 238.306 104.844C238.28 104.607 238.33 104.367 238.448 104.161C238.651 103.957 238.913 103.825 239.197 103.784C240.73 103.326 241.748 101.881 242.478 100.449C242.965 99.4933 243.389 98.4484 243.295 97.3785C243.201 96.3085 242.436 95.2306 241.374 95.1214C240.498 95.0314 239.689 95.591 239.057 96.2077C237.463 97.7733 236.438 99.8322 236.148 102.054C236.009 103.142 236.049 104.259 235.755 105.315C235.126 107.571 233.16 108.953 232.181 110.982C231.101 113.218 231.697 115.757 233.009 117.735Z" fill="#A0616A"/>
<path d="M261.937 109.12C261.713 109.643 261.388 110.115 260.979 110.51C260.571 110.904 260.089 111.212 259.56 111.416C258.903 111.681 258.178 111.726 257.494 111.543C257.155 111.449 256.841 111.277 256.579 111.04C256.316 110.804 256.112 110.511 255.98 110.182C255.876 109.851 255.818 109.507 255.81 109.159C255.712 107.639 255.75 106.072 256.299 104.651C256.511 104.103 256.796 103.584 256.964 103.021C257.128 102.37 257.212 101.702 257.214 101.031L257.394 96.8814C257.424 96.5801 257.404 96.276 257.333 95.9817C257.153 95.3813 256.595 94.9911 256.083 94.6331C254.847 93.7684 253.625 92.7594 253.026 91.3699C252.82 90.9515 252.746 90.4799 252.814 90.0182C252.983 89.1942 253.81 88.6608 254.627 88.4811C255.162 88.3635 255.715 88.356 256.253 88.4591C256.79 88.5621 257.302 88.7735 257.756 89.0806C258.21 89.3876 258.598 89.784 258.896 90.2458C259.194 90.7076 259.396 91.2252 259.489 91.7676C259.57 92.2358 259.569 92.7141 259.617 93.187C259.717 94.1901 260.034 95.157 260.232 96.1453C260.72 98.5797 260.467 101.096 260.949 103.53C261.353 105.565 262.874 106.893 261.937 109.12Z" fill="#A0616A"/>
<path d="M247.857 93.5161C248.812 93.5161 249.586 92.7376 249.586 91.7773C249.586 90.8169 248.812 90.0384 247.857 90.0384C246.902 90.0384 246.127 90.8169 246.127 91.7773C246.127 92.7376 246.902 93.5161 247.857 93.5161Z" fill="#0052DD"/>
<path d="M60.1013 154.272C62.9184 154.272 65.2021 151.976 65.2021 149.143C65.2021 146.31 62.9184 144.014 60.1013 144.014C57.2842 144.014 55.0005 146.31 55.0005 149.143C55.0005 151.976 57.2842 154.272 60.1013 154.272Z" fill="#2F2E41"/>
<path d="M78.5911 164.371L76.0219 161.859L70.8628 163.471L71.3583 169.478L81.9661 168.983L78.7073 164.53L78.5911 164.371Z" fill="#FBBEBE"/>
<path d="M72.9717 164.319C77.5262 164.319 81.2183 160.606 81.2183 156.026C81.2183 151.446 77.5262 147.733 72.9717 147.733C68.4172 147.733 64.7251 151.446 64.7251 156.026C64.7251 160.606 68.4172 164.319 72.9717 164.319Z" fill="#FBBEBE"/>
<path d="M124.167 175.015C124.167 175.015 134.299 192.523 136.71 195.151C137.856 196.445 139.078 197.669 140.368 198.818C140.368 198.818 139.234 202.599 137.429 202.464C136.4 202.402 135.391 202.152 134.451 201.726C134.451 201.726 133.645 199.626 132.24 198.704C130.835 197.783 119.352 186.423 119.62 182.793C119.889 179.162 124.167 175.015 124.167 175.015Z" fill="#2F2E41"/>
<path d="M88.0874 200C88.0874 200 98.8895 208.431 113.57 200.509L114.835 199.572C114.835 199.572 112.7 204.402 112.502 205.712C112.272 207.23 106.714 216.124 105.807 216.55C104.899 216.977 104.7 217.37 104.7 217.37L108.549 221.63L109.972 220.577C109.972 220.577 115.522 212.67 117.145 211.224C118.768 209.777 126.502 194.861 126.502 194.861C126.502 194.861 129.459 189.241 122.079 188.818C114.7 188.395 111.305 190.418 111.305 190.418L98.2084 192.51L88.0874 200Z" fill="#2F2E41"/>
<path d="M140.493 197.99L145.957 201.791C145.957 201.791 152.927 203.988 148.634 205.449C144.34 206.911 133.025 207.439 132.768 205.423C132.512 203.406 133.215 200.233 133.779 200.406C134.344 200.58 138.262 201.603 140.493 197.99Z" fill="#2F2E41"/>
<path d="M110.455 219.271L111.467 224.855C111.467 224.855 114.342 230.386 110.89 228.67C107.437 226.954 100.324 220.436 101.374 219.07C102.425 217.703 104.743 216.221 104.978 216.666C105.214 217.112 106.956 220.093 110.455 219.271Z" fill="#2F2E41"/>
<path d="M100.038 194.343C100.038 194.343 92.6947 202.964 88.2366 200.87C83.7786 198.776 65.54 174.519 67.6225 170.036C69.705 165.553 70.4033 166.508 70.4033 166.508L79.8205 167.383L77.1109 163.014C77.1109 163.014 78.3761 162.078 79.5816 163.392C80.7872 164.707 85.6272 167.989 87.3133 172.625C88.9994 177.261 93.9497 177.03 93.9497 177.03L100.038 194.343Z" fill="white"/>
<path d="M129.691 176.566L116.962 190.153L105.56 169.909L116.4 156.738L129.691 176.566Z" fill="#3F3D56"/>
<path d="M128.73 176.419L117.234 188.359L106.816 169.96L116.37 157.864L128.73 176.419Z" fill="white"/>
<path d="M116.338 189.634L116.962 190.153L116.562 190.939L98.7635 196.267L98.5952 195.653L99.405 194.811L116.338 189.634Z" fill="#B3B3B3"/>
<path d="M117.12 190.036L98.689 195.831L87.4536 174.482L105.559 169.909L117.12 190.036Z" fill="#D0CDE1"/>
<path d="M115.732 187.141L114.942 187.726L106.166 172.402L107.073 171.976L115.732 187.141Z" fill="#3F3D56"/>
<path d="M113.918 187.993L106.121 190.331L97.2705 174.572L104.984 172.786L113.918 187.993Z" fill="#3F3D56"/>
<path d="M91.9535 176.301L93.5678 175.841C93.5678 175.841 102.57 174.818 102.702 177.662C102.833 180.507 92.3594 179.187 92.3594 179.187L90.9629 177.279L91.9535 176.301Z" fill="#FBBEBE"/>
<path d="M99.8492 189.089L102.096 188.162C102.096 188.162 108.878 185.104 106.933 183.111C104.987 181.119 98.9866 184.579 98.9866 184.579L97.8379 185.674L99.8492 189.089Z" fill="#FBBEBE"/>
<path d="M97.8469 184.687C97.8469 184.687 101.505 188.354 100.673 189.215C99.8404 190.076 86.1896 201.404 82.8057 197.78C79.4218 194.155 62.935 175.957 69.3503 174.396C75.7656 172.836 77.4606 176.484 77.4606 176.484L85.9295 191.055L97.8469 184.687Z" fill="white"/>
<path d="M86.8926 173.549L92.9021 175.598L92.804 179.961L86.4482 179.272L86.8926 173.549Z" fill="white"/>
<path opacity="0.2" d="M92.309 186.947L85.8342 190.758L78.4365 179.317L85.5774 188.741L92.309 186.947Z" fill="black"/>
<path d="M69.3526 163.495C74.7746 163.495 79.17 159.075 79.17 153.622C79.17 148.17 74.7746 143.75 69.3526 143.75C63.9306 143.75 59.5352 148.17 59.5352 153.622C59.5352 159.075 63.9306 163.495 69.3526 163.495Z" fill="#2F2E41"/>
<path d="M122.398 177.427L115.524 167.315L118.438 163.688L125.581 174.092L122.398 177.427Z" fill="#0052DD"/>
<path d="M122.204 181.493L111.739 166.194L112.255 165.566L122.672 180.902L122.204 181.493Z" fill="#E6E6E6"/>
<path d="M120.856 182.981L110.391 167.682L110.907 167.055L121.323 182.391L120.856 182.981Z" fill="#E6E6E6"/>
<path d="M119.707 184.077L109.242 168.777L109.758 168.15L120.174 183.486L119.707 184.077Z" fill="#E6E6E6"/>
<path d="M73.6997 147.031H76.7367C78.2744 147.031 79.7491 147.646 80.8364 148.739C81.9238 149.832 82.5346 151.315 82.5346 152.862H73.6997V147.031Z" fill="#2F2E41"/>
<path d="M115.534 143.321L114.984 143.28C114.962 143.568 114.947 143.857 114.929 144.146L112.458 144.063L115.05 148.948L117.961 144.248L115.481 144.165C115.499 143.883 115.513 143.601 115.534 143.321Z" fill="#3F3D56"/>
<path d="M130.029 103.503L130.468 103.84C131.126 102.972 131.814 102.107 132.512 101.266L132.088 100.91C131.385 101.757 130.692 102.629 130.029 103.503Z" fill="#3F3D56"/>
<path d="M134.259 98.4122L134.666 98.7867C135.399 97.9799 136.16 97.1787 136.927 96.405L136.536 96.013C135.763 96.7922 134.997 97.5995 134.259 98.4122Z" fill="#3F3D56"/>
<path d="M138.915 93.7169L139.288 94.126C140.09 93.3862 140.917 92.6555 141.747 91.9541L141.392 91.529C140.556 92.2356 139.722 92.9718 138.915 93.7169Z" fill="#3F3D56"/>
<path d="M126.26 108.95L126.726 109.247C127.307 108.323 127.916 107.4 128.538 106.501L128.085 106.184C127.458 107.089 126.844 108.02 126.26 108.95Z" fill="#3F3D56"/>
<path d="M143.961 89.4529L144.298 89.8932C145.16 89.2271 146.048 88.5725 146.936 87.9479L146.619 87.4929C145.725 88.1223 144.831 88.7817 143.961 89.4529Z" fill="#3F3D56"/>
<path d="M122.983 114.714L123.474 114.967C123.972 113.994 124.498 113.02 125.038 112.07L124.558 111.795C124.014 112.751 123.484 113.733 122.983 114.714Z" fill="#3F3D56"/>
<path d="M117.658 130.343L117.123 130.205C116.85 131.27 116.597 132.357 116.372 133.434L116.912 133.549C117.136 132.479 117.387 131.401 117.658 130.343Z" fill="#3F3D56"/>
<path d="M149.36 85.6533L149.656 86.1218C150.571 85.5361 151.512 84.9631 152.453 84.4185L152.178 83.9373C151.23 84.486 150.282 85.0633 149.36 85.6533Z" fill="#3F3D56"/>
<path d="M116.309 136.784L115.765 136.694C115.587 137.778 115.432 138.883 115.302 139.977L115.85 140.043C115.979 138.957 116.134 137.86 116.309 136.784Z" fill="#3F3D56"/>
<path d="M120.227 120.75L120.739 120.959C121.148 119.945 121.586 118.927 122.04 117.932L121.538 117.7C121.081 118.703 120.639 119.729 120.227 120.75Z" fill="#3F3D56"/>
<path d="M118.016 127.013L118.544 127.175C118.862 126.127 119.208 125.073 119.572 124.042L119.052 123.856C118.685 124.895 118.336 125.957 118.016 127.013Z" fill="#3F3D56"/>
<path d="M186.712 74.5856C187.795 74.548 188.897 74.5329 189.987 74.5432L189.992 73.9879C188.894 73.9776 187.783 73.9927 186.693 74.0306L186.712 74.5856Z" fill="#3F3D56"/>
<path d="M155.067 82.349L155.321 82.8419C156.286 82.3395 157.273 81.8527 158.256 81.3949L158.023 80.8911C157.033 81.3523 156.039 81.8428 155.067 82.349Z" fill="#3F3D56"/>
<path d="M199.778 75.278C200.855 75.4313 201.943 75.6108 203.009 75.8116L203.111 75.2658C202.036 75.0635 200.941 74.8825 199.855 74.7281L199.778 75.278Z" fill="#3F3D56"/>
<path d="M206.214 76.4889C207.272 76.7372 208.339 77.0132 209.386 77.3092L209.535 76.7745C208.481 76.4764 207.406 76.1985 206.34 75.9482L206.214 76.4889Z" fill="#3F3D56"/>
<path d="M212.517 78.2707C213.548 78.6128 214.586 78.9831 215.602 79.3717L215.799 78.8527C214.774 78.4612 213.729 78.088 212.69 77.7434L212.517 78.2707Z" fill="#3F3D56"/>
<path d="M193.261 74.6441C194.348 74.7014 195.447 74.7838 196.527 74.8888L196.58 74.3362C195.492 74.2303 194.385 74.1473 193.29 74.0896L193.261 74.6441Z" fill="#3F3D56"/>
<path d="M180.12 74.5501L180.187 75.1013C181.263 74.9682 182.359 74.8572 183.443 74.7715L183.4 74.2178C182.307 74.3042 181.204 74.416 180.12 74.5501Z" fill="#3F3D56"/>
<path d="M167.238 77.3281L167.401 77.8585C168.439 77.5354 169.498 77.2315 170.549 76.9551L170.409 76.4179C169.35 76.6963 168.283 77.0025 167.238 77.3281Z" fill="#3F3D56"/>
<path d="M161.039 79.567L161.249 80.0808C162.253 79.6665 163.278 79.27 164.297 78.9019L164.11 78.3795C163.084 78.7501 162.051 79.1498 161.039 79.567Z" fill="#3F3D56"/>
<path d="M173.618 75.6506L173.733 76.1937C174.794 75.965 175.876 75.7569 176.948 75.5754L176.857 75.0277C175.776 75.2107 174.686 75.4203 173.618 75.6506Z" fill="#3F3D56"/>
<path d="M223.841 82.8049L220.755 78.2191L219.67 80.465C219.408 80.3471 219.147 80.2266 218.884 80.1124L218.665 80.6221C218.921 80.7336 219.174 80.8505 219.429 80.9648L218.349 83.2L223.841 82.8049Z" fill="#3F3D56"/>
</g>
<defs>
<clipPath id="clip0_2842_10612">
<rect width="250" height="203" fill="white" transform="translate(55 26)"/>
</clipPath>
</defs>
</svg>
