<svg width="360" height="274" viewBox="0 0 360 274" fill="none" xmlns="http://www.w3.org/2000/svg">
<rect width="360" height="274" rx="12" fill="white"/>
<g clip-path="url(#clip0_2842_10506)">
<path d="M219.94 184.93V236.034H92.5495C78.0351 236.034 66.2261 224.571 66.2261 210.482C66.2261 196.393 78.0351 184.93 92.5495 184.93H219.94Z" fill="#F2F2F2"/>
<path d="M223.069 235.641C223.069 236.163 222.863 236.662 222.496 237.031C222.129 237.4 221.632 237.607 221.113 237.607H90.2806C83.1749 237.607 76.3601 234.77 71.3356 229.72C66.311 224.67 63.4883 217.82 63.4883 210.679C63.4883 203.537 66.311 196.688 71.3356 191.638C76.3601 186.588 83.1749 183.75 90.2806 183.75H221.113C221.632 183.75 222.129 183.958 222.496 184.326C222.863 184.695 223.069 185.195 223.069 185.716C223.069 186.237 222.863 186.737 222.496 187.106C222.129 187.475 221.632 187.682 221.113 187.682H90.2806C84.2122 187.682 78.3923 190.105 74.1013 194.417C69.8102 198.73 67.3996 204.579 67.3996 210.679C67.3996 216.778 69.8102 222.627 74.1013 226.94C78.3923 231.253 84.2122 233.676 90.2806 233.676H221.113C221.632 233.676 222.129 233.883 222.496 234.252C222.863 234.62 223.069 235.12 223.069 235.641Z" fill="#0052DD"/>
<path d="M219.94 196.723H83.0444C82.9407 196.723 82.8412 196.682 82.7679 196.608C82.6945 196.534 82.6533 196.434 82.6533 196.33C82.6533 196.226 82.6945 196.126 82.7679 196.052C82.8412 195.978 82.9407 195.937 83.0444 195.937H219.94C220.043 195.937 220.143 195.978 220.216 196.052C220.29 196.126 220.331 196.226 220.331 196.33C220.331 196.434 220.29 196.534 220.216 196.608C220.143 196.682 220.043 196.723 219.94 196.723Z" fill="#CCCCCC"/>
<path d="M219.94 206.158H83.0444C82.9407 206.158 82.8412 206.117 82.7679 206.043C82.6945 205.969 82.6533 205.869 82.6533 205.765C82.6533 205.661 82.6945 205.561 82.7679 205.487C82.8412 205.413 82.9407 205.372 83.0444 205.372H219.94C220.043 205.372 220.143 205.413 220.216 205.487C220.29 205.561 220.331 205.661 220.331 205.765C220.331 205.869 220.29 205.969 220.216 206.043C220.143 206.117 220.043 206.158 219.94 206.158Z" fill="#CCCCCC"/>
<path d="M219.94 215.593H83.0444C82.9407 215.593 82.8412 215.551 82.7679 215.477C82.6945 215.404 82.6533 215.304 82.6533 215.2C82.6533 215.095 82.6945 214.995 82.7679 214.922C82.8412 214.848 82.9407 214.806 83.0444 214.806H219.94C220.043 214.806 220.143 214.848 220.216 214.922C220.29 214.995 220.331 215.095 220.331 215.2C220.331 215.304 220.29 215.404 220.216 215.477C220.143 215.551 220.043 215.593 219.94 215.593Z" fill="#CCCCCC"/>
<path d="M219.94 225.027H83.0444C82.9407 225.027 82.8412 224.986 82.7679 224.912C82.6945 224.838 82.6533 224.738 82.6533 224.634C82.6533 224.53 82.6945 224.43 82.7679 224.356C82.8412 224.283 82.9407 224.241 83.0444 224.241H219.94C220.043 224.241 220.143 224.283 220.216 224.356C220.29 224.43 220.331 224.53 220.331 224.634C220.331 224.738 220.29 224.838 220.216 224.912C220.143 224.986 220.043 225.027 219.94 225.027Z" fill="#CCCCCC"/>
<path d="M318.394 194.55L286.492 234.344L187.295 154.011C175.993 144.858 173.954 128.485 182.749 117.514C191.544 106.543 207.896 105.064 219.198 114.217L318.394 194.55Z" fill="#F2F2F2"/>
<path d="M289.173 236.011C288.848 236.417 288.375 236.676 287.86 236.732C287.344 236.787 286.828 236.635 286.424 236.308L184.547 153.805C179.014 149.324 175.478 142.817 174.718 135.716C173.958 128.616 176.036 121.502 180.494 115.941C184.953 110.38 191.426 106.826 198.491 106.063C205.556 105.299 212.634 107.387 218.167 111.868L320.044 194.371C320.244 194.533 320.41 194.733 320.534 194.96C320.657 195.186 320.734 195.435 320.762 195.692C320.79 195.948 320.767 196.208 320.694 196.456C320.622 196.704 320.502 196.935 320.34 197.136C320.179 197.337 319.98 197.504 319.755 197.628C319.529 197.751 319.282 197.829 319.026 197.857C318.771 197.884 318.512 197.861 318.266 197.788C318.019 197.715 317.79 197.594 317.59 197.432L215.713 114.929C213.373 113.033 210.685 111.618 207.801 110.767C204.918 109.915 201.895 109.642 198.907 109.965C195.919 110.287 193.023 111.199 190.385 112.646C187.747 114.094 185.419 116.05 183.533 118.402C181.647 120.754 180.241 123.457 179.395 126.355C178.548 129.254 178.279 132.291 178.601 135.295C178.923 138.298 179.83 141.208 181.272 143.859C182.713 146.51 184.66 148.849 187.001 150.744L288.878 233.247C289.281 233.574 289.539 234.049 289.595 234.567C289.65 235.086 289.499 235.605 289.173 236.011Z" fill="#CCCCCC"/>
<path d="M311.032 203.733L204.434 117.407C204.394 117.374 204.361 117.334 204.336 117.289C204.312 117.243 204.296 117.194 204.291 117.142C204.285 117.091 204.29 117.039 204.304 116.99C204.319 116.94 204.343 116.894 204.375 116.854C204.407 116.814 204.447 116.78 204.492 116.755C204.537 116.731 204.587 116.715 204.638 116.71C204.689 116.704 204.741 116.709 204.79 116.723C204.839 116.738 204.885 116.762 204.925 116.794L311.523 203.121C311.563 203.153 311.596 203.193 311.621 203.238C311.645 203.284 311.661 203.333 311.666 203.385C311.672 203.436 311.667 203.488 311.653 203.538C311.639 203.587 311.614 203.634 311.582 203.674C311.55 203.714 311.51 203.747 311.465 203.772C311.42 203.797 311.37 203.813 311.319 203.818C311.268 203.824 311.216 203.819 311.167 203.804C311.118 203.79 311.072 203.765 311.032 203.733Z" fill="#CCCCCC"/>
<path d="M305.142 211.08L198.544 124.753C198.464 124.688 198.412 124.593 198.401 124.489C198.39 124.386 198.42 124.282 198.486 124.201C198.551 124.12 198.645 124.068 198.748 124.056C198.851 124.045 198.954 124.076 199.035 124.141L305.633 210.467C305.673 210.5 305.706 210.54 305.731 210.585C305.755 210.63 305.771 210.68 305.776 210.731C305.782 210.783 305.777 210.835 305.763 210.884C305.748 210.934 305.724 210.98 305.692 211.02C305.66 211.061 305.62 211.094 305.575 211.119C305.53 211.144 305.48 211.159 305.429 211.165C305.378 211.17 305.326 211.165 305.277 211.151C305.228 211.136 305.182 211.112 305.142 211.08Z" fill="#CCCCCC"/>
<path d="M299.253 218.426L192.655 132.1C192.574 132.034 192.523 131.939 192.512 131.836C192.5 131.732 192.531 131.628 192.596 131.547C192.661 131.466 192.755 131.414 192.859 131.403C192.962 131.392 193.065 131.422 193.146 131.487L299.743 217.814C299.783 217.846 299.817 217.886 299.841 217.932C299.866 217.977 299.881 218.027 299.887 218.078C299.892 218.129 299.888 218.181 299.873 218.231C299.859 218.28 299.835 218.326 299.803 218.367C299.77 218.407 299.731 218.44 299.685 218.465C299.64 218.49 299.591 218.505 299.54 218.511C299.489 218.516 299.437 218.512 299.388 218.497C299.339 218.483 299.293 218.459 299.253 218.426Z" fill="#CCCCCC"/>
<path d="M293.363 225.773L186.765 139.446C186.725 139.414 186.692 139.374 186.667 139.329C186.643 139.283 186.627 139.234 186.622 139.182C186.616 139.131 186.621 139.079 186.635 139.03C186.65 138.98 186.674 138.934 186.706 138.894C186.738 138.853 186.778 138.82 186.823 138.795C186.868 138.77 186.918 138.755 186.969 138.749C187.02 138.744 187.072 138.748 187.121 138.763C187.17 138.778 187.216 138.802 187.256 138.834L293.854 225.161C293.894 225.193 293.927 225.233 293.952 225.278C293.976 225.324 293.992 225.373 293.998 225.425C294.003 225.476 293.999 225.528 293.984 225.578C293.97 225.627 293.946 225.673 293.913 225.714C293.881 225.754 293.841 225.787 293.796 225.812C293.751 225.837 293.701 225.852 293.65 225.858C293.599 225.863 293.547 225.859 293.498 225.844C293.449 225.829 293.403 225.805 293.363 225.773Z" fill="#CCCCCC"/>
<path d="M325.109 238H34.8911C34.7874 238 34.6879 237.959 34.6146 237.885C34.5412 237.811 34.5 237.711 34.5 237.607C34.5 237.503 34.5412 237.403 34.6146 237.329C34.6879 237.255 34.7874 237.214 34.8911 237.214H325.109C325.213 237.214 325.312 237.255 325.385 237.329C325.459 237.403 325.5 237.503 325.5 237.607C325.5 237.711 325.459 237.811 325.385 237.885C325.312 237.959 325.213 238 325.109 238Z" fill="#CCCCCC"/>
<path d="M166.733 179.558L162.262 179.558L160.135 162.223L166.735 162.224L166.733 179.558Z" fill="#FFB8B8"/>
<path d="M159.068 178.274H167.691V183.731H153.638C153.638 183.014 153.779 182.305 154.051 181.643C154.324 180.981 154.724 180.379 155.228 179.872C155.733 179.365 156.331 178.964 156.99 178.689C157.649 178.415 158.355 178.274 159.068 178.274Z" fill="#2F2E41"/>
<path d="M121.052 179.558L116.58 179.558L114.454 162.223L121.053 162.224L121.052 179.558Z" fill="#FFB8B8"/>
<path d="M113.386 178.274H122.01V183.731H107.957C107.957 183.014 108.097 182.305 108.37 181.643C108.643 180.981 109.043 180.379 109.547 179.872C110.051 179.365 110.65 178.964 111.308 178.689C111.967 178.415 112.673 178.274 113.386 178.274Z" fill="#2F2E41"/>
<path d="M135.986 50.9756V49.01C135.986 45.6476 137.315 42.423 139.681 40.0454C142.046 37.6679 145.255 36.3322 148.6 36.3322C151.946 36.3322 155.154 37.6679 157.52 40.0454C159.885 42.423 161.214 45.6476 161.214 49.01V50.9756C161.214 53.3997 160.256 55.7244 158.551 57.4385C156.845 59.1525 154.532 60.1155 152.12 60.1155H145.08C143.886 60.1155 142.703 59.8791 141.6 59.4198C140.497 58.9604 139.494 58.2872 138.65 57.4385C137.805 56.5898 137.136 55.5822 136.679 54.4733C136.222 53.3644 135.986 52.1759 135.986 50.9756Z" fill="#2F2E41"/>
<path d="M148.601 60.7918C153.906 60.7918 158.207 56.469 158.207 51.1366C158.207 45.8042 153.906 41.4814 148.601 41.4814C143.295 41.4814 138.994 45.8042 138.994 51.1366C138.994 56.469 143.295 60.7918 148.601 60.7918Z" fill="#FFB8B8"/>
<path d="M96.347 84.3204C96.7369 83.9504 97.2027 83.6709 97.7117 83.5014C98.2207 83.3319 98.7604 83.2767 99.2929 83.3395C99.8254 83.4024 100.338 83.5819 100.794 83.8653C101.25 84.1487 101.639 84.5291 101.932 84.9798L110.168 83.4142L112.335 88.2119L100.674 90.2588C99.8883 90.7049 98.9667 90.8456 98.0842 90.6544C97.2018 90.4632 96.4198 89.9533 95.8864 89.2214C95.353 88.4894 95.1053 87.5862 95.1902 86.6829C95.2751 85.7796 95.6867 84.939 96.347 84.3204Z" fill="#FFB8B8"/>
<path d="M141.218 67.0364L127.714 75.9775L104.928 83.2907C104.626 83.3882 104.367 83.588 104.195 83.8559C104.023 84.1238 103.948 84.4434 103.984 84.7602L104.482 89.0635C104.504 89.2539 104.565 89.4377 104.662 89.6029C104.759 89.7681 104.889 89.9111 105.044 90.0228C105.199 90.1346 105.375 90.2125 105.562 90.2516C105.749 90.2908 105.942 90.2902 106.128 90.2501L127.574 85.6299C128.612 85.4076 129.593 84.9734 130.457 84.3541L145.628 73.5054C146.178 73.11 146.617 72.5782 146.902 71.9619C147.187 71.3455 147.308 70.6655 147.255 69.988C147.199 69.3096 146.968 68.6574 146.586 68.0956C146.204 67.5339 145.682 67.0818 145.073 66.784C144.464 66.4862 143.788 66.3528 143.112 66.3971C142.437 66.4413 141.784 66.6617 141.218 67.0364Z" fill="#CCCCCC"/>
<path d="M162.342 174.639C161.999 174.639 161.663 174.539 161.375 174.35C161.088 174.162 160.862 173.893 160.723 173.577L140.224 122.669C140.177 122.558 140.096 122.465 139.994 122.402C139.892 122.339 139.773 122.309 139.654 122.316C139.534 122.322 139.419 122.366 139.325 122.44C139.231 122.514 139.161 122.616 139.126 122.731L122.402 172.292C122.331 172.523 122.214 172.737 122.059 172.92C121.903 173.104 121.711 173.253 121.496 173.36C121.28 173.466 121.046 173.527 120.806 173.539C120.566 173.551 120.326 173.513 120.101 173.429L114.493 171.315C114.189 171.201 113.922 171.005 113.722 170.748C113.522 170.491 113.397 170.183 113.36 169.859C110.837 147.769 132.838 92.0108 133.061 91.4503L133.123 91.295L153.179 95.754L153.22 95.7997C161.222 104.573 167.799 159.909 169.036 170.913C169.082 171.311 168.992 171.712 168.781 172.051C168.57 172.39 168.25 172.647 167.874 172.779L162.924 174.539C162.737 174.605 162.54 174.639 162.342 174.639Z" fill="#2F2E41"/>
<path d="M145.061 97.5487C140.202 97.5487 134.785 96.5749 133.117 92.5559L133.079 92.4635L133.131 92.3779C134.447 90.2074 136.187 86.5047 135.252 85.8096C133.41 84.4408 132.516 82.1891 132.595 79.1167C132.767 72.4473 137.289 66.5258 143.846 64.3819C145.677 63.7932 147.539 63.3112 149.425 62.9383C150.8 62.6595 152.219 62.6901 153.58 63.0281C154.942 63.366 156.212 64.0028 157.3 64.8927C158.401 65.7885 159.291 66.9182 159.906 68.2009C160.521 69.4835 160.846 70.8872 160.857 72.311C160.926 79.4384 159.834 89.3655 154.242 96.1808C153.98 96.4971 153.616 96.7102 153.213 96.7828C150.522 97.2719 147.795 97.5281 145.061 97.5487Z" fill="#CCCCCC"/>
<path d="M143.254 97.2818C143.518 96.3284 144.147 95.5184 145.002 95.0278C145.857 94.5373 146.871 94.4058 147.822 94.662C148.016 94.7166 148.205 94.7871 148.388 94.8728L154.641 89.1535L158.989 92.098L150.048 100.051C149.644 100.783 149.008 101.358 148.242 101.684C147.475 102.011 146.622 102.071 145.818 101.854C145.35 101.725 144.911 101.504 144.529 101.204C144.146 100.904 143.826 100.531 143.587 100.105C143.349 99.6803 143.197 99.2118 143.139 98.7272C143.082 98.2425 143.121 97.7512 143.254 97.2818Z" fill="#FFB8B8"/>
<path d="M153.65 97.3544C153.245 97.3547 152.851 97.2137 152.537 96.9554L150.072 94.9301C149.866 94.7613 149.701 94.5479 149.589 94.306C149.477 94.064 149.421 93.7998 149.426 93.533C149.43 93.2662 149.494 93.0038 149.613 92.7655C149.732 92.5271 149.904 92.319 150.114 92.1566L160.456 84.1844C160.579 84.0894 160.659 83.9497 160.68 83.7956C160.701 83.6414 160.66 83.4852 160.567 83.3609L154.184 74.8791C153.442 73.8969 153.07 72.6827 153.134 71.4514C153.197 70.2201 153.692 69.051 154.531 68.1512C155.414 67.1924 156.624 66.6023 157.92 66.4982C159.216 66.394 160.504 66.7833 161.527 67.5888L161.568 67.6316L168.233 77.2245C168.954 77.7925 169.535 78.5203 169.929 79.351C170.324 80.1818 170.522 81.093 170.509 82.0134C170.495 82.9339 170.27 83.8387 169.851 84.6573C169.432 85.4758 168.83 86.186 168.093 86.7321L154.698 97.0076C154.395 97.2329 154.028 97.3544 153.65 97.3544Z" fill="#CCCCCC"/>
<path d="M140.091 48.4204V43.6299L148.601 39.8953L156.714 43.6299V48.4204C156.714 48.6289 156.632 48.8289 156.485 48.9764C156.338 49.1238 156.139 49.2066 155.932 49.2066H140.874C140.666 49.2066 140.467 49.1238 140.32 48.9764C140.174 48.8289 140.091 48.6289 140.091 48.4204Z" fill="#2F2E41"/>
<path d="M148.21 36.9677C146.959 32.9428 149.586 28.3301 153.471 26.7369C157.355 25.1438 162.003 26.2574 165.28 28.8896C168.558 31.5217 170.592 35.4641 171.669 39.5394C172.747 43.6148 172.951 47.8643 173.15 52.0763C177.923 52.9575 181.17 58.6469 179.516 63.2322C177.863 67.8175 171.743 70.0955 167.517 67.6989C163.291 65.3023 162.067 58.8599 165.117 55.0667C166.56 53.2719 167.367 51.0444 167.408 48.737C167.45 46.4297 166.724 44.1744 165.346 42.3283C163.968 40.4823 162.017 39.151 159.801 38.5453C157.586 37.9397 155.233 38.0942 153.114 38.9846C150.762 39.9732 147.811 37.4045 148.21 36.9677Z" fill="#2F2E41"/>
<path d="M94.5832 65.7369C88.8691 65.6992 83.2264 64.4571 78.0197 62.0908C77.7097 61.952 77.4466 61.7256 77.2625 61.4391C77.0783 61.1527 76.981 60.8185 76.9824 60.4775V46.1612C76.983 45.6921 77.1686 45.2425 77.4985 44.9109C77.8285 44.5792 78.2759 44.3927 78.7425 44.3922H110.424C110.891 44.3927 111.338 44.5792 111.668 44.9109C111.998 45.2425 112.184 45.6921 112.184 46.1612V60.4775C112.185 60.8186 112.088 61.1527 111.904 61.4391C111.72 61.7256 111.457 61.952 111.147 62.0909C105.94 64.4571 100.297 65.6992 94.5832 65.7369Z" fill="#0052DD"/>
<path d="M94.5786 54.1389C94.3437 54.1391 94.1112 54.0921 93.8947 54.0007L68.7717 43.3475C68.4477 43.2102 68.1721 42.9784 67.9804 42.6821C67.7887 42.3859 67.6897 42.0387 67.6961 41.6853C67.7025 41.332 67.8142 40.9887 68.0165 40.6997C68.2189 40.4107 68.5028 40.1892 68.8316 40.0639L93.9549 30.4846C94.3595 30.3296 94.8069 30.3306 95.2109 30.4873L119.998 40.0665C120.324 40.1929 120.606 40.4144 120.807 40.7027C121.008 40.991 121.119 41.333 121.126 41.685C121.132 42.037 121.034 42.3829 120.844 42.6784C120.653 42.974 120.38 43.2059 120.058 43.3443L95.2709 53.9973C95.052 54.091 94.8165 54.1391 94.5786 54.1389Z" fill="#0052DD"/>
<path d="M79.9156 63.0649C81.2117 63.0649 82.2624 62.0089 82.2624 60.7063C82.2624 59.4036 81.2117 58.3476 79.9156 58.3476C78.6195 58.3476 77.5688 59.4036 77.5688 60.7063C77.5688 62.0089 78.6195 63.0649 79.9156 63.0649Z" fill="#3F3D56"/>
<path opacity="0.2" d="M120.144 41.8321L95.3566 52.4852C95.1633 52.5682 94.9554 52.6113 94.7452 52.6118C94.5351 52.6123 94.327 52.5702 94.1333 52.4881L69.0104 41.8353C68.6948 41.7047 68.4316 41.4721 68.2623 41.1744C68.1515 41.3675 68.0829 41.582 68.0609 41.8038C68.0389 42.0256 68.0642 42.2495 68.1349 42.4607C68.2057 42.6719 68.3203 42.8656 68.4713 43.0289C68.6222 43.1922 68.806 43.3213 69.0104 43.4077L94.1333 54.0606C94.327 54.1427 94.5351 54.1848 94.7452 54.1842C94.9554 54.1837 95.1633 54.1407 95.3566 54.0576L120.144 43.4046C120.347 43.3174 120.53 43.1879 120.679 43.0245C120.829 42.8612 120.943 42.6677 121.013 42.457C121.083 42.2462 121.108 42.0229 121.086 41.8018C121.064 41.5807 120.995 41.3669 120.885 41.1744C120.716 41.4697 120.456 41.701 120.144 41.8321Z" fill="black"/>
<path d="M80.1128 60.6971C80.2165 60.6971 80.316 60.6556 80.3894 60.5819C80.4627 60.5082 80.5039 60.4082 80.5039 60.3039V47.1498L93.4038 42.4265C93.5076 42.4281 93.6077 42.3882 93.6821 42.3155C93.7566 42.2429 93.7993 42.1435 93.8008 42.0393C93.8023 41.935 93.7626 41.8344 93.6904 41.7596C93.6181 41.6848 93.5192 41.6419 93.4155 41.6403L80.5156 46.3636C80.4118 46.3612 80.3086 46.38 80.2122 46.4189C80.1158 46.4578 80.0283 46.5159 79.955 46.5897C79.8808 46.6627 79.822 46.7499 79.7819 46.8461C79.7418 46.9423 79.7214 47.0456 79.7217 47.1498V60.3039C79.7217 60.4082 79.7629 60.5082 79.8362 60.5819C79.9096 60.6556 80.0091 60.697 80.1128 60.6971Z" fill="#3F3D56"/>
</g>
<defs>
<clipPath id="clip0_2842_10506">
<rect width="291" height="212" fill="white" transform="translate(34.5 26)"/>
</clipPath>
</defs>
</svg>
