<svg width="354" height="274" viewBox="0 0 354 274" fill="none" xmlns="http://www.w3.org/2000/svg">
<rect width="354" height="274" rx="12" fill="white"/>
<g clip-path="url(#clip0_2842_10547)">
<path d="M168.551 204.809C168.551 204.809 172.127 198.923 176.719 202.403C181.31 205.883 189.814 211.754 189.814 211.754C189.814 211.754 191.555 215.51 187.048 214.099C182.54 212.689 167.824 210.419 167.824 210.419L168.551 204.809Z" fill="#A0616A"/>
<path d="M68.603 167.432C69.7427 158.239 75.4223 149.182 84.1625 146.19C80.7156 155.652 80.7164 166.032 84.1646 175.493C85.5076 179.137 87.3797 183.049 86.1164 186.722C85.3304 189.007 83.4075 190.755 81.2581 191.848C79.1086 192.942 76.7231 193.463 74.3675 193.973L73.9039 194.358C70.1644 185.888 67.4633 176.624 68.603 167.432Z" fill="#F0F0F0"/>
<path d="M84.249 146.364C79.1592 152.085 75.9957 159.268 75.2079 166.895C75.0092 168.534 75.0693 170.194 75.386 171.814C75.7453 173.382 76.5168 174.825 77.6201 175.993C78.627 177.102 79.7852 178.12 80.5056 179.456C80.8643 180.146 81.0737 180.903 81.12 181.679C81.1663 182.456 81.0485 183.233 80.7743 183.96C80.1382 185.79 78.8845 187.282 77.6079 188.698C76.1905 190.27 74.6934 191.88 74.0909 193.965C74.0179 194.217 73.6315 194.089 73.7044 193.837C74.7527 190.21 78.2621 188.151 79.9357 184.884C80.7167 183.36 81.0445 181.591 80.3124 179.982C79.6721 178.576 78.4788 177.525 77.4495 176.41C76.3565 175.286 75.5544 173.911 75.1133 172.405C74.7154 170.807 74.5916 169.152 74.7473 167.512C75.039 163.813 75.9085 160.184 77.3242 156.756C78.9183 152.836 81.1692 149.217 83.9797 146.058C84.1537 145.863 84.4219 146.17 84.249 146.364Z" fill="white"/>
<path d="M75.3176 164.424C74.0598 164.118 72.9516 163.373 72.1908 162.323C71.4299 161.273 71.0661 159.985 71.1641 158.691C71.1849 158.429 71.5915 158.449 71.5707 158.711C71.4772 159.917 71.8163 161.116 72.5268 162.092C73.2372 163.069 74.2723 163.758 75.4452 164.036C75.7 164.097 75.5709 164.485 75.3176 164.424Z" fill="white"/>
<path d="M77.0362 175.497C79.3078 174.137 80.9847 171.968 81.7325 169.422C81.8064 169.17 82.1929 169.298 82.119 169.55C81.3359 172.198 79.5862 174.452 77.2192 175.862C76.9935 175.996 76.8117 175.631 77.0362 175.497Z" fill="white"/>
<path d="M79.2959 153.222C79.758 153.443 80.2673 153.544 80.7781 153.518C81.289 153.492 81.7855 153.339 82.2229 153.073C82.4468 152.936 82.6284 153.302 82.4059 153.438C81.9213 153.73 81.3728 153.898 80.8085 153.928C80.2441 153.958 79.681 153.849 79.1683 153.61C79.1181 153.592 79.0768 153.555 79.0528 153.507C79.0287 153.459 79.0237 153.404 79.0389 153.352C79.056 153.301 79.0926 153.259 79.1408 153.234C79.1889 153.21 79.2447 153.206 79.2959 153.222Z" fill="white"/>
<path d="M110.804 162.609C110.666 162.699 110.529 162.788 110.392 162.881C108.551 164.096 106.812 165.458 105.191 166.954C105.064 167.068 104.936 167.185 104.813 167.302C100.946 170.95 97.7886 175.285 95.5001 180.089C94.5912 182.002 93.8286 183.98 93.219 186.009C92.3774 188.81 91.6869 191.915 90.0209 194.206C89.8497 194.447 89.6638 194.677 89.4643 194.895H74.4078C74.3735 194.878 74.3392 194.864 74.3048 194.847L73.7036 194.875C73.7278 194.768 73.7551 194.658 73.7793 194.551C73.793 194.489 73.8101 194.427 73.8239 194.365C73.8341 194.323 73.8445 194.282 73.8514 194.244C73.8547 194.23 73.8583 194.216 73.8616 194.206C73.8685 194.168 73.8789 194.134 73.8858 194.099C74.0369 193.483 74.1926 192.866 74.3529 192.249C74.3529 192.246 74.3529 192.246 74.3563 192.242C75.5896 187.546 77.2247 182.911 79.5091 178.673C79.5779 178.546 79.6465 178.415 79.7221 178.287C80.7624 176.382 81.9561 174.566 83.2913 172.857C84.0255 171.923 84.8063 171.027 85.6307 170.173C87.7652 167.969 90.2321 166.115 92.9408 164.68C98.341 161.82 104.593 160.724 110.364 162.471C110.512 162.516 110.656 162.561 110.804 162.609Z" fill="#F0F0F0"/>
<path d="M110.77 162.801C103.272 164.295 96.4345 168.12 91.2278 173.733C90.0855 174.922 89.1371 176.284 88.4176 177.768C87.7633 179.237 87.5131 180.855 87.693 182.454C87.8309 183.948 88.1444 185.461 87.9178 186.962C87.7905 187.729 87.5029 188.461 87.074 189.108C86.6451 189.756 86.0845 190.306 85.4291 190.721C83.8227 191.798 81.9263 192.232 80.0571 192.591C77.9818 192.99 75.8198 193.372 74.0877 194.673C73.8778 194.83 73.6463 194.494 73.8559 194.337C76.8695 192.075 80.9079 192.549 84.2047 190.952C85.743 190.207 87.0667 188.992 87.4478 187.266C87.7811 185.756 87.4591 184.196 87.3064 182.684C87.1081 181.127 87.2929 179.545 87.8447 178.076C88.4866 176.559 89.3811 175.163 90.4899 173.948C92.9427 171.171 95.8155 168.798 99.0031 166.916C102.629 164.749 106.598 163.219 110.739 162.394C110.995 162.343 111.024 162.75 110.77 162.801Z" fill="white"/>
<path d="M92.7987 171.827C91.9783 170.823 91.5405 169.559 91.5634 168.261C91.5863 166.963 92.0684 165.715 92.9237 164.741C93.0974 164.544 93.4101 164.806 93.2361 165.003C92.438 165.909 91.989 167.071 91.9701 168.28C91.9513 169.488 92.3638 170.664 93.1333 171.594C93.3002 171.797 92.9647 172.028 92.7987 171.827Z" fill="white"/>
<path d="M87.5238 181.706C90.1542 181.991 92.7953 181.272 94.9203 179.691C95.1307 179.534 95.3623 179.87 95.1521 180.027C92.9376 181.668 90.1877 182.411 87.4511 182.108C87.1903 182.079 87.2644 181.677 87.5238 181.706Z" fill="white"/>
<path d="M102.698 165.286C102.935 165.74 103.281 166.129 103.704 166.417C104.128 166.705 104.616 166.882 105.125 166.934C105.386 166.96 105.311 167.361 105.052 167.336C104.49 167.276 103.951 167.079 103.483 166.762C103.014 166.445 102.63 166.018 102.364 165.518C102.335 165.473 102.324 165.419 102.333 165.366C102.343 165.313 102.372 165.266 102.415 165.234C102.46 165.203 102.514 165.192 102.567 165.201C102.62 165.211 102.667 165.241 102.698 165.286Z" fill="white"/>
<path d="M190.035 228.356C190.477 224.794 192.678 221.284 196.065 220.124C194.73 223.791 194.73 227.814 196.066 231.48C196.587 232.893 197.312 234.409 196.823 235.832C196.472 236.712 195.798 237.423 194.94 237.819C194.088 238.207 193.191 238.484 192.269 238.643L192.09 238.792C190.64 235.509 189.594 231.919 190.035 228.356Z" fill="#F0F0F0"/>
<path d="M196.099 220.192C194.126 222.409 192.9 225.193 192.595 228.148C192.518 228.783 192.541 229.427 192.664 230.055C192.803 230.662 193.102 231.222 193.53 231.674C193.955 232.075 194.331 232.525 194.648 233.017C194.787 233.284 194.868 233.577 194.886 233.878C194.904 234.179 194.859 234.48 194.752 234.762C194.47 235.45 194.053 236.075 193.525 236.598C192.976 237.207 192.396 237.832 192.162 238.639C192.134 238.737 191.984 238.687 192.012 238.59C192.419 237.184 193.779 236.386 194.427 235.12C194.594 234.836 194.694 234.517 194.72 234.187C194.745 233.858 194.695 233.527 194.573 233.22C194.279 232.703 193.905 232.235 193.464 231.836C193.04 231.4 192.729 230.868 192.558 230.284C192.404 229.664 192.356 229.023 192.416 228.387C192.529 226.954 192.867 225.547 193.415 224.219C194.033 222.7 194.905 221.297 195.995 220.073C196.062 219.997 196.166 220.116 196.099 220.192Z" fill="white"/>
<path d="M192.637 227.191C192.15 227.072 191.72 226.784 191.425 226.377C191.131 225.97 190.99 225.471 191.028 224.969C191.036 224.867 191.193 224.875 191.185 224.977C191.149 225.444 191.28 225.909 191.556 226.287C191.831 226.666 192.232 226.933 192.687 227.041C192.785 227.064 192.735 227.214 192.637 227.191Z" fill="white"/>
<path d="M193.303 231.482C194.184 230.955 194.834 230.114 195.124 229.128C195.152 229.03 195.302 229.08 195.273 229.177C194.97 230.203 194.292 231.077 193.374 231.624C193.287 231.676 193.216 231.534 193.303 231.482Z" fill="white"/>
<path d="M194.179 222.85C194.358 222.935 194.556 222.974 194.754 222.964C194.952 222.954 195.144 222.895 195.313 222.792C195.4 222.739 195.471 222.88 195.384 222.933C195.197 223.046 194.984 223.111 194.765 223.123C194.547 223.135 194.328 223.092 194.13 223C194.11 222.993 194.094 222.978 194.085 222.96C194.076 222.941 194.074 222.92 194.079 222.9C194.086 222.88 194.1 222.864 194.119 222.854C194.138 222.845 194.159 222.843 194.179 222.85Z" fill="white"/>
<path d="M206.39 226.487C206.337 226.522 206.284 226.557 206.23 226.593C205.517 227.063 204.843 227.591 204.215 228.171C204.165 228.215 204.116 228.261 204.068 228.306C202.57 229.72 201.346 231.4 200.459 233.262C200.107 234.003 199.811 234.77 199.575 235.556C199.249 236.642 198.981 237.845 198.336 238.733C198.269 238.826 198.197 238.915 198.12 239H192.285C192.271 238.993 192.258 238.988 192.245 238.981L192.012 238.992C192.021 238.951 192.032 238.908 192.041 238.866C192.046 238.842 192.053 238.818 192.058 238.794C192.062 238.778 192.066 238.762 192.069 238.748C192.07 238.742 192.072 238.737 192.073 238.733C192.076 238.718 192.08 238.705 192.082 238.691C192.141 238.452 192.201 238.213 192.263 237.974L192.265 237.972C192.721 236.146 193.391 234.381 194.262 232.713C194.288 232.664 194.315 232.613 194.344 232.563C194.747 231.825 195.21 231.121 195.727 230.459C196.012 230.097 196.315 229.75 196.634 229.419C197.461 228.564 198.417 227.846 199.467 227.29C201.56 226.182 203.983 225.757 206.22 226.434C206.277 226.451 206.333 226.469 206.39 226.487Z" fill="#F0F0F0"/>
<path d="M206.377 226.562C203.471 227.141 200.821 228.623 198.803 230.799C198.36 231.259 197.993 231.787 197.714 232.362C197.46 232.932 197.363 233.559 197.433 234.178C197.533 234.755 197.562 235.342 197.52 235.926C197.471 236.223 197.359 236.506 197.193 236.757C197.027 237.008 196.81 237.221 196.556 237.382C195.917 237.761 195.209 238.008 194.474 238.107C193.67 238.262 192.832 238.41 192.16 238.914C192.079 238.975 191.989 238.845 192.071 238.784C193.238 237.907 194.804 238.091 196.081 237.472C196.385 237.346 196.657 237.151 196.875 236.904C197.093 236.656 197.251 236.362 197.338 236.043C197.414 235.452 197.396 234.853 197.283 234.268C197.206 233.664 197.278 233.051 197.492 232.482C197.741 231.894 198.087 231.353 198.517 230.882C199.468 229.806 200.581 228.886 201.816 228.157C203.222 227.317 204.76 226.724 206.365 226.404C206.464 226.384 206.475 226.542 206.377 226.562Z" fill="white"/>
<path d="M199.412 230.06C199.094 229.671 198.925 229.181 198.933 228.678C198.942 228.175 199.129 227.691 199.461 227.314C199.528 227.237 199.649 227.339 199.582 227.415C199.272 227.766 199.098 228.217 199.091 228.685C199.084 229.153 199.244 229.609 199.542 229.97C199.607 230.048 199.477 230.138 199.412 230.06Z" fill="white"/>
<path d="M197.368 233.888C198.387 233.999 199.41 233.72 200.234 233.108C200.316 233.047 200.405 233.177 200.324 233.238C199.466 233.874 198.4 234.162 197.339 234.044C197.238 234.033 197.267 233.877 197.368 233.888Z" fill="white"/>
<path d="M203.249 227.525C203.341 227.701 203.475 227.852 203.639 227.963C203.803 228.075 203.992 228.143 204.19 228.164C204.291 228.174 204.262 228.329 204.161 228.319C203.944 228.296 203.735 228.22 203.553 228.097C203.371 227.974 203.223 227.809 203.12 227.615C203.108 227.597 203.104 227.576 203.108 227.556C203.111 227.535 203.123 227.517 203.139 227.505C203.157 227.493 203.178 227.488 203.198 227.492C203.219 227.496 203.237 227.507 203.249 227.525Z" fill="white"/>
<path d="M290.289 152.682C288.537 138.553 279.807 124.632 266.373 120.034C271.671 134.577 271.67 150.53 266.37 165.073C264.306 170.673 261.428 176.687 263.37 182.332C264.578 185.845 267.534 188.532 270.838 190.212C274.141 191.892 277.808 192.693 281.429 193.478L282.141 194.069C287.889 181.051 292.041 166.811 290.289 152.682Z" fill="#F0F0F0"/>
<path d="M266.24 120.301C274.063 129.093 278.926 140.135 280.137 151.857C280.381 154.37 280.411 156.941 279.863 159.418C279.311 161.828 278.125 164.046 276.429 165.841C274.881 167.547 273.101 169.112 271.994 171.165C270.827 173.329 270.782 175.788 271.581 178.087C272.559 180.9 274.486 183.193 276.448 185.369C278.626 187.786 280.927 190.261 281.854 193.465C281.966 193.853 282.56 193.655 282.448 193.268C280.836 187.694 275.442 184.528 272.87 179.508C271.669 177.166 271.166 174.446 272.291 171.973C273.275 169.811 275.109 168.196 276.691 166.482C278.352 164.683 279.626 162.709 280.282 160.327C280.953 157.89 281.024 155.313 280.845 152.805C280.396 147.121 279.06 141.542 276.884 136.274C274.434 130.248 270.974 124.686 266.654 119.83C266.387 119.53 265.974 120.002 266.24 120.301Z" fill="white"/>
<path d="M279.969 148.06C281.902 147.589 283.605 146.444 284.775 144.83C285.944 143.216 286.503 141.237 286.352 139.247C286.321 138.845 285.696 138.876 285.727 139.279C285.871 141.131 285.35 142.974 284.258 144.475C283.166 145.976 281.575 147.036 279.772 147.464C279.381 147.557 279.579 148.153 279.969 148.06Z" fill="white"/>
<path d="M277.327 165.08C273.836 162.989 271.258 159.654 270.109 155.742C269.995 155.354 269.401 155.551 269.515 155.938C270.719 160.008 273.408 163.472 277.046 165.64C277.393 165.847 277.672 165.285 277.327 165.08Z" fill="white"/>
<path d="M273.853 130.842C273.143 131.181 272.36 131.337 271.575 131.297C270.79 131.257 270.027 131.022 269.355 130.613C269.01 130.402 268.731 130.964 269.073 131.174C269.818 131.622 270.661 131.88 271.529 131.926C272.396 131.973 273.262 131.805 274.05 131.438C274.127 131.41 274.19 131.353 274.227 131.279C274.264 131.206 274.272 131.121 274.248 131.042C274.222 130.963 274.166 130.898 274.092 130.86C274.018 130.823 273.932 130.816 273.853 130.842Z" fill="white"/>
<path d="M225.425 145.27C225.636 145.408 225.847 145.546 226.059 145.689C228.888 147.555 231.561 149.648 234.052 151.949C234.248 152.123 234.443 152.304 234.633 152.484C240.576 158.09 245.43 164.754 248.947 172.138C250.344 175.077 251.517 178.119 252.453 181.237C253.747 185.542 254.808 190.314 257.369 193.836C257.632 194.207 257.918 194.56 258.225 194.895H281.367C281.42 194.869 281.473 194.848 281.526 194.821L282.45 194.864C282.413 194.699 282.37 194.53 282.333 194.366C282.312 194.27 282.286 194.175 282.265 194.08C282.249 194.016 282.233 193.953 282.222 193.894C282.217 193.873 282.212 193.852 282.207 193.836C282.196 193.778 282.18 193.725 282.17 193.672C281.937 192.724 281.698 191.776 281.452 190.828C281.452 190.823 281.452 190.823 281.446 190.817C279.551 183.599 277.038 176.475 273.526 169.961C273.421 169.765 273.315 169.564 273.199 169.368C271.6 166.44 269.765 163.649 267.713 161.021C266.584 159.586 265.384 158.209 264.117 156.895C260.836 153.508 257.045 150.659 252.881 148.453C244.581 144.057 234.971 142.373 226.101 145.058C225.874 145.127 225.652 145.196 225.425 145.27Z" fill="#F0F0F0"/>
<path d="M225.477 145.565C237.001 147.861 247.511 153.74 255.514 162.369C257.217 164.228 258.784 166.262 259.833 168.57C260.839 170.828 261.223 173.315 260.947 175.773C260.735 178.069 260.253 180.394 260.601 182.702C260.968 185.135 262.409 187.126 264.427 188.479C266.896 190.134 269.81 190.801 272.683 191.354C275.873 191.968 279.197 192.554 281.859 194.553C282.181 194.795 282.537 194.279 282.215 194.037C277.583 190.56 271.376 191.29 266.309 188.835C263.944 187.689 261.909 185.822 261.324 183.168C260.811 180.847 261.306 178.45 261.541 176.127C261.787 173.687 261.62 171.342 260.714 169.043C259.787 166.693 258.296 164.592 256.648 162.698C252.878 158.43 248.462 154.783 243.563 151.891C237.989 148.559 231.888 146.208 225.525 144.939C225.131 144.861 225.085 145.487 225.477 145.565Z" fill="white"/>
<path d="M253.1 159.438C254.361 157.895 255.034 155.952 254.999 153.957C254.963 151.962 254.222 150.044 252.908 148.547C252.641 148.245 252.16 148.647 252.428 148.949C253.654 150.341 254.344 152.128 254.373 153.986C254.402 155.844 253.768 157.651 252.586 159.081C252.329 159.392 252.845 159.747 253.1 159.438Z" fill="white"/>
<path d="M261.207 174.623C257.164 175.062 253.105 173.956 249.839 171.526C249.515 171.285 249.159 171.801 249.482 172.042C252.886 174.564 257.113 175.706 261.319 175.24C261.72 175.195 261.606 174.578 261.207 174.623Z" fill="white"/>
<path d="M237.882 149.384C237.519 150.083 236.987 150.68 236.336 151.123C235.685 151.565 234.935 151.838 234.153 151.918C233.752 151.957 233.866 152.575 234.265 152.535C235.128 152.443 235.957 152.141 236.677 151.653C237.397 151.166 237.988 150.51 238.397 149.741C238.441 149.672 238.458 149.588 238.443 149.507C238.429 149.426 238.384 149.354 238.318 149.304C238.249 149.258 238.165 149.239 238.084 149.254C238.002 149.269 237.93 149.316 237.882 149.384Z" fill="white"/>
<path d="M317.269 195.24H36.8435C36.7524 195.24 36.665 195.204 36.6006 195.139C36.5362 195.074 36.5 194.987 36.5 194.895C36.5 194.804 36.5362 194.716 36.6006 194.652C36.665 194.587 36.7524 194.551 36.8435 194.551H317.156C317.248 194.551 317.335 194.587 317.399 194.652C317.464 194.716 317.5 194.804 317.5 194.895C317.5 195.086 317.458 195.24 317.269 195.24Z" fill="#CACACA"/>
<path d="M134.859 225.562H72.9133C72.8222 225.562 72.7349 225.526 72.6704 225.461C72.606 225.396 72.5698 225.309 72.5698 225.217C72.5698 225.126 72.606 225.038 72.6704 224.974C72.7349 224.909 72.8222 224.873 72.9133 224.873H134.747C134.838 224.873 134.926 224.909 134.99 224.974C135.054 225.038 135.091 225.126 135.091 225.217C135.091 225.408 135.049 225.562 134.859 225.562Z" fill="#CACACA"/>
<path d="M232.076 239H170.13C170.039 239 169.951 238.964 169.887 238.899C169.822 238.834 169.786 238.747 169.786 238.655C169.786 238.564 169.822 238.476 169.887 238.412C169.951 238.347 170.039 238.311 170.13 238.311H231.963C232.055 238.311 232.142 238.347 232.206 238.412C232.271 238.476 232.307 238.564 232.307 238.655C232.307 238.846 232.265 239 232.076 239Z" fill="#CACACA"/>
<path d="M290.474 225.217H228.528C228.437 225.217 228.35 225.181 228.285 225.116C228.221 225.052 228.185 224.964 228.185 224.873C228.185 224.781 228.221 224.694 228.285 224.629C228.35 224.564 228.437 224.528 228.528 224.528H290.362C290.453 224.528 290.54 224.564 290.605 224.629C290.669 224.694 290.705 224.781 290.705 224.873C290.705 225.063 290.664 225.217 290.474 225.217Z" fill="#CACACA"/>
<path d="M150.982 212.124C147.133 212.124 143.611 211.754 140.811 210.88C137.484 209.841 135.395 208.16 134.602 205.881C134.229 204.914 134.118 203.865 134.279 202.84C134.441 201.815 134.869 200.852 135.521 200.047C140.443 193.614 157.523 191.8 159.814 191.585L164.464 182.755C164.761 180.648 163.354 179.053 165.785 179.013L194.55 178.622C196.938 178.571 196.26 180.055 196.669 182.109L201.052 189.956L182.19 197.941L185.042 204.911L184.856 205.019C179.336 208.231 163.46 212.123 150.982 212.124Z" fill="#2F2E41"/>
<path d="M198.44 190.291C198.44 190.291 224.781 187.267 223.063 199.362C221.346 211.457 201.303 220.024 170.954 199.362L174.389 193.315C174.389 193.315 185.699 192.75 192.571 189.727L198.44 190.291Z" fill="#2F2E41"/>
<path d="M161.148 135.498C161.148 135.498 156.141 134.585 154.776 142.346C153.41 150.107 151.223 168.49 151.223 168.49L144.432 192.105C143.631 192.531 142.968 193.178 142.519 193.968C142.071 194.759 141.856 195.661 141.9 196.57C141.943 197.478 142.244 198.355 142.766 199.099C143.288 199.843 144.011 200.422 144.849 200.769C145.687 201.116 146.606 201.217 147.499 201.06C148.393 200.903 149.223 200.494 149.893 199.881C150.563 199.268 151.045 198.477 151.284 197.599C151.522 196.721 151.507 195.794 151.239 194.925L160.326 169.862L162.058 148.282V136.975C162.058 136.668 161.973 136.368 161.812 136.107C161.651 135.846 161.421 135.635 161.148 135.498Z" fill="#A0616A"/>
<path d="M196.388 135.498C196.388 135.498 201.394 134.585 202.76 142.346C204.125 150.107 206.312 168.49 206.312 168.49L213.103 192.105C213.904 192.531 214.568 193.178 215.016 193.968C215.465 194.759 215.68 195.661 215.636 196.57C215.592 197.478 215.292 198.355 214.77 199.099C214.247 199.843 213.525 200.422 212.687 200.769C211.849 201.116 210.929 201.217 210.036 201.06C209.143 200.903 208.313 200.494 207.643 199.881C206.973 199.268 206.49 198.477 206.252 197.599C206.013 196.721 206.029 195.794 206.296 194.925L197.21 169.862L195.478 148.282V136.975C195.478 136.668 195.563 136.368 195.723 136.107C195.884 135.846 196.114 135.635 196.388 135.498Z" fill="#A0616A"/>
<path d="M196.006 129.083L186.536 125.53L168.181 125.293L160.28 129.083L162.499 141.875C162.499 141.875 158.018 149.485 162.952 157.096L164.059 184.214C164.059 184.214 181.755 194.507 196.693 182.146L193.317 156.933C193.317 156.933 198.964 145.235 194.587 140.889L196.006 129.083Z" fill="#0052DD"/>
<path d="M192.149 133.058L196.006 129.083C196.006 129.083 204.424 133.524 204.25 148.379L193.632 145.096L192.149 133.058Z" fill="#0052DD"/>
<path d="M164.565 133.058L160.467 128.948C160.467 128.948 153.236 134.558 153.409 149.412L163.082 145.096L164.565 133.058Z" fill="#0052DD"/>
<path d="M191.278 201.87C191.278 201.87 188.328 195.645 183.402 198.629C178.476 201.613 169.412 206.57 169.412 206.57C169.412 206.57 167.292 210.125 171.921 209.19C176.551 208.255 191.421 207.525 191.421 207.525L191.278 201.87Z" fill="#A0616A"/>
<path d="M183.083 90.5889C183.125 90.5487 183.168 90.5127 183.209 90.4715C185.845 87.8275 186.38 84.0766 184.403 82.0936C182.534 80.2196 179.093 80.5978 176.496 82.8763C174.269 80.7495 171.282 80.1566 169.349 81.6248C167.121 83.3178 167.138 87.1067 169.388 90.0876C169.542 90.2918 169.704 90.4847 169.87 90.6704C166.875 91.77 164.29 93.7659 162.463 96.3879C160.636 99.01 159.656 102.132 159.656 105.331V120.188C159.656 120.624 159.742 121.055 159.908 121.458C160.074 121.861 160.318 122.226 160.625 122.534C160.932 122.842 161.297 123.087 161.698 123.253C162.099 123.42 162.53 123.506 162.964 123.506H190.341C191.189 123.506 192.002 123.168 192.601 122.567C193.201 121.966 193.538 121.15 193.538 120.3V105.331C193.537 102.089 192.53 98.9273 190.657 96.2856C188.783 93.6438 186.136 91.6528 183.083 90.5889Z" fill="#2F2E41"/>
<path d="M186.216 118.207C191.289 113.118 191.289 104.868 186.216 99.7787C181.142 94.6898 172.917 94.6898 167.843 99.7787C162.77 104.868 162.77 113.118 167.843 118.207C172.917 123.296 181.142 123.296 186.216 118.207Z" fill="#A0616A"/>
<path d="M163.378 100.797C166.347 102.849 169.871 103.941 173.476 103.927C172.19 104.821 170.726 105.425 169.185 105.698C173.978 106.729 178.933 106.757 183.738 105.78C184.806 105.608 185.836 105.253 186.784 104.73C187.257 104.465 187.668 104.104 187.992 103.67C188.316 103.235 188.545 102.737 188.665 102.207C188.984 100.378 187.563 98.7156 186.086 97.5954C183.824 95.9064 181.217 94.7427 178.452 94.1885C175.687 93.6343 172.834 93.7035 170.099 94.391C168.313 94.8541 166.524 95.6364 165.364 97.0749C164.204 98.5134 163.861 100.731 164.966 102.212L163.378 100.797Z" fill="#2F2E41"/>
<path d="M93.8919 74.7931L94.3014 74.2395L105.208 82.354C104.615 80.5421 102.517 74.7981 99.0781 72.5062C94.9695 69.7682 92.0789 70.6199 90.504 72.9975C88.9292 75.3751 89.2664 78.378 93.375 81.1161C96.8577 83.4371 103.062 83.1144 104.872 82.9623L93.8919 74.7931Z" fill="#F2F2F2"/>
<path d="M257.991 30.3664L258.498 30.8324L249.317 40.8688C251.175 40.4659 257.089 38.9705 259.719 35.778C262.862 31.964 262.318 28.9917 260.124 27.1733C257.93 25.355 254.918 25.379 251.775 29.193C249.112 32.426 248.786 38.6489 248.749 40.4705L257.991 30.3664Z" fill="#F2F2F2"/>
<path d="M109.934 137.527L110.44 137.993L101.26 148.029C103.118 147.627 109.032 146.131 111.662 142.939C114.804 139.125 114.26 136.152 112.066 134.334C109.873 132.516 106.86 132.54 103.718 136.354C101.054 139.587 100.729 145.81 100.691 147.631L109.934 137.527Z" fill="#F2F2F2"/>
<path d="M187.562 41.8674L188.156 42.2126L181.356 54.0019C183.083 53.2058 188.535 50.4637 190.415 46.7764C192.661 42.3714 191.49 39.5873 188.956 38.2874C186.422 36.9876 183.486 37.6642 181.24 42.0692C179.336 45.8032 180.359 51.9496 180.715 53.7362L187.562 41.8674Z" fill="#F2F2F2"/>
<path d="M251.113 115.605L251.708 115.95L244.907 127.739C246.634 126.943 252.086 124.201 253.966 120.514C256.212 116.109 255.041 113.325 252.507 112.025C249.974 110.725 247.037 111.402 244.791 115.807C242.887 119.541 243.91 125.687 244.266 127.474L251.113 115.605Z" fill="#F2F2F2"/>
</g>
<defs>
<clipPath id="clip0_2842_10547">
<rect width="281" height="213" fill="white" transform="translate(36.5 26)"/>
</clipPath>
</defs>
</svg>
